<svg width="25" height="17" viewBox="0 0 25 17" fill="none" xmlns="http://www.w3.org/2000/svg">
<path d="M14.3213 7.21408L17.617 3.91837C17.8602 3.67521 18.2545 3.67521 18.4976 3.91837C18.7408 4.16154 18.7408 4.55579 18.4976 4.79896L15.2019 8.09467L18.4976 11.3904C18.7408 11.6335 18.7408 12.0278 18.4976 12.271C18.2545 12.5141 17.8602 12.5141 17.617 12.271L14.3213 8.97525L11.0256 12.271C10.7825 12.5141 10.3882 12.5141 10.145 12.271C9.90188 12.0278 9.90188 11.6335 10.145 11.3904L13.4408 8.09467L10.145 4.79896C9.90188 4.55579 9.90188 4.16154 10.145 3.91837C10.3882 3.67521 10.7825 3.67521 11.0256 3.91837L14.3213 7.21408ZM6.58086 14.2719C6.93577 14.6978 7.46151 14.944 8.0159 14.944H21.7933C22.825 14.944 23.6613 14.1077 23.6613 13.076V3.11333C23.6613 2.08167 22.825 1.24533 21.7933 1.24533H8.0159C7.46151 1.24533 6.93577 1.49158 6.58086 1.91747L1.4332 8.09467L6.58086 14.2719ZM0.144321 7.69605L5.62417 1.12023C6.21568 0.410409 7.09192 0 8.0159 0H21.7933C23.5128 0 24.9067 1.39389 24.9067 3.11333V13.076C24.9067 14.7954 23.5128 16.1893 21.7933 16.1893H8.0159C7.09192 16.1893 6.21568 15.7789 5.62417 15.0691L0.144321 8.49329C-0.048107 8.26238 -0.048107 7.92696 0.144321 7.69605Z" fill="black"/>
</svg>
