<?xml version="1.0" encoding="utf-8"?>
<!-- Generator: Adobe Illustrator 26.0.1, SVG Export Plug-In . SVG Version: 6.00 Build 0)  -->
<svg version="1.1" id="Layer_1" xmlns="http://www.w3.org/2000/svg" xmlns:xlink="http://www.w3.org/1999/xlink" x="0px" y="0px"
	 viewBox="0 0 1022 430" style="enable-background:new 0 0 1022 430;" xml:space="preserve">
<style type="text/css">
	.st0{fill:#86BF88;}
	.st1{fill:#FFFFFF;}
</style>
<g>
	<g>
		<path class="st0" d="M22.42,50.28C21.97,39.2,25.3,30.22,32.4,23.33c7.09-6.87,22.84-10.98,47.24-12.31
			c16.41-0.88,28.38,1.11,35.93,5.99c7.54,4.89,13.31,12.42,17.3,22.62l3.99,59.22c14.64,0,26.72,0.78,36.26,2.33
			c9.53,1.56,17.96,4.55,25.28,8.98c7.32,4.44,10.98,11.31,10.98,20.63s-3.55,16.2-10.65,20.63c-7.1,4.44-15.3,7.43-24.62,8.98
			c-9.31,1.56-21.29,2.33-35.93,2.33c0.44,19.96,0.67,37.82,0.67,53.56c0,15.75,0.22,32.5,0.67,50.23
			c0.44,17.75,0.67,34.71,0.67,50.9c0,16.2,0.1,29.72,0.33,40.59c0.22,10.87,0.33,17.2,0.33,18.96c0,3.11-1,7.55-2.99,13.31
			c-2,5.77-7.1,11.09-15.3,15.97c-8.21,4.89-21.62,7.32-40.25,7.32c-13.75,0-24.4-1.66-31.94-4.99c-7.55-3.33-12.97-7.09-16.3-11.31
			c-3.33-4.21-5.44-9.65-6.32-16.3L22.42,50.28z"/>
	</g>
	<g id="Tree">
		<path class="st1" d="M135.24,341.59c1.55-0.64,3.07-1.33,4.56-2.06c0-0.59,0-1.18,0.01-1.77c-0.33-0.57-0.53-1.22-0.53-1.95
			c0-0.33-0.01-0.66-0.01-0.99c-0.15,0.07-0.3,0.13-0.46,0.2c0.13-0.93,0.29-1.83,0.44-2.74c-0.04-2.78-0.1-5.56-0.16-8.35
			c-1.66,3.73-3.08,7.55-4.41,11.41c-0.32,0.93-0.77,1.52-1.8,1.86c-12.19,4-24.84,5.51-37.65,7.04c1.94-1.68,3.8-3.24,5.61-4.87
			c1.82-1.65,3.44-3.49,4.92-5.45c1.49-1.97,2.66-4.13,3.65-6.38c0.95-2.16,1.72-4.4,2.56-6.61c-0.13-0.05-0.26-0.11-0.38-0.16
			c-0.24,0.35-0.48,0.7-0.71,1.06c-4.72,7.35-10.24,13.99-17.41,19.1c-3.27,2.33-6.32,5.02-10.29,6.22
			c-10.04,3.02-19.58,7.01-27.52,14.22c-0.23-0.4-0.08-0.76-0.02-1.11c1.96-10.72,4.94-21.23,6.76-31.98
			c1.96-3.32,4.62-5.97,7.77-8.16c0.16-0.11,0.42-0.08,0.64-0.12c3.16-0.63,6.37-0.87,9.56-1.24c2.26-0.27,4.58-0.22,7.15-1.29
			c-6.95,0.02-10.48-0.5-12.57-1.84c0.26-0.22,0.49-0.45,0.74-0.65c9.7-7.66,20.25-13.99,31.07-19.92c3.07-1.68,5.95-2.34,9.24-1.23
			c0.46,0.16,0.96,0.2,1.44,0.27c2.43,0.33,4.85,0.75,7.31,0.65c-3.31-1.17-6.63-2.24-10.04-3.72c6.88-4.01,13.97-7.3,18.86-13.58
			c-1.27,0.91-2.48,1.91-3.81,2.73c-7.05,4.35-14.7,7.37-22.47,10.08c-5.86,2.05-11.78,3.92-17.67,5.87
			c-1.44,0.48-2.21,0.01-2.3-1.54c-0.11-1.88,0.28-3.71,0.92-5.45c1.94-5.25,2.17-10.63,1.36-16.11c-0.12-0.83-0.06-1.51,0.51-2.26
			c4.51-5.9,2.59-13.21-4.21-16.3c-0.48-0.22-0.83-0.35-1.28,0.15c-4.6,5.21-5.56,12.06,1.83,15.99c2.57,1.37,3.09,2.86,2.79,5.27
			c-0.06,0.49-0.1,0.98-0.18,1.46c-1.08,6.78-3.83,12.91-7.24,18.8c-1.47,2.54-3.29,4.71-5.75,6.37c-2.81,1.9-5.75,3.55-8.76,5.09
			c-0.77,0.39-1.56,0.72-1.95,1.62c0.2-4.06,0.6-8.05,0.78-12.05c0.53-11.83-0.14-23.53-3.26-35.01c-0.18-0.66-0.1-1.26,0.05-1.92
			c0.95-4.13,2.8-7.89,4.59-11.68c0.48-1.01,1.06-1.29,2.14-1.22c6.24,0.38,12.42,0,18.52-1.47c5.87-1.42,11.5-3.41,16.33-7.18
			c1.17-0.91,2.28-1.92,2.95-3.7c-5.62,3.33-11.3,5.62-17.39,6.77c-6.15,1.17-12.31,1.4-18.69,0c5.87-9.6,12.8-18.13,20.59-26.03
			c-3.53,1.54-6.54,3.81-9.44,6.27c-2.88,2.44-5.52,5.15-8.44,8.25c0.48-5.54,0.15-10.48-1.13-15.35c-0.11,0.43-0.11,0.86-0.11,1.29
			c0.02,4.53-0.25,9.05-0.98,13.53c-0.27,1.64-0.34,3.37-1.45,4.78c-2.06,2.61-4.15,5.2-6.14,7.86c-1.81,2.42-3.51,4.93-5.37,7.56
			c-2.07-5.16-5.31-9.32-8.81-13.3c-0.51-0.58-0.66-1.16-0.58-1.93c0.38-3.63,0.78-7.26,1-10.9c0.43-6.88,0.29-13.73-1.73-20.42
			c-1.27-4.21-1.73-8.54-1.3-12.94c0.12-1.19,0.33-2.37,0.5-3.55c-0.38,0.15-0.54,0.35-0.67,0.58c-3.12,5.4-3.05,11.28-2.39,17.18
			c0.39,3.47,1.03,6.9,0.78,10.41c-0.25,3.49-1.31,6.72-3.06,9.74c-0.3,0.52-0.56,1.28-1.44,0.51c-4.18-3.7-9.12-6.14-14.19-8.32
			c-0.72-0.31-1.36-0.68-1.96-1.1c0.02,3.76,0.15,7.56,0.22,11.32c0.04,2.03,0.32,3.97,0.2,5.88c10.93,6.2,17.84,15.93,21.21,28.68
			c1.6,6.06,1.49,12.32,1.27,18.54c-0.3,8.23-1.46,16.34-3.14,25c-0.32-0.59-0.42-0.84-0.58-1.05c-2.36-3.18-5.08-6.07-8.34-8.25
			c-3.49-2.33-5.44-5.2-6.34-9.39c-0.59-2.76-1.43-5.43-2.51-7.99c0.08,3.26,0.06,6.53,0.01,9.79c1.85,0.4,3.5,1.91,3.49,4.07
			c-0.02,3.77-0.2,7.54-0.66,11.26c4.86,4.71,8.55,10.15,9.81,17.01c0.27,1.48,0.68,2.96,0.16,4.52c-1.27,3.83-2.42,7.69-3.73,11.51
			c-0.37,1.07-0.63,2.24-1.42,3.29c-2.04-2.76-4.66-4.53-7.55-5.89c0.15,1.66,0.08,3.35-0.09,5.06c0.17,0.49,0.25,1.06,0.17,1.72
			c-0.07,0.67-0.15,1.34-0.23,2.01c0.17,4.27,1.01,8.58,0.5,12.81c-0.03,0.28-0.09,0.55-0.17,0.8c0.04,0.63,0.09,1.27,0.12,1.9
			c0.06,0.63,0.09,1.26,0.09,1.89c0.02,0.46,0.03,0.92,0.03,1.38c0.36,1.8,0.58,3.62,0.7,5.47c0.15,2.44,0.58,4.95-0.11,7.32
			c-0.16,0.53-0.29,1.07-0.44,1.6c0.06,0.68,0.13,1.37,0.23,2.05c0.25,1.66,0.04,3.25-0.12,4.83c0.03,0.11,0.06,0.22,0.08,0.34
			c0.02,0.07,0.05,0.13,0.07,0.21c0.51,2.3,1.57,4.12,1.67,6.52c0.12,0.32,0.27,0.63,0.4,0.95c1.18,2.28,2.72,4.44,4.04,6.03
			c2.5,3.02,5.56,5.51,8.99,7.4c3.63,2,7.22,3.85,11.13,5.15c-0.16-10.92,1.78-21.31,7.86-30.66c3.3-5.07,7.48-9.23,13.13-11.68
			c3.18-1.38,6.47-1.89,9.9-1.04c0.72,0.18,1.23,0.39,1.17,1.39c-0.23,3.83,0.72,7.45,2.22,10.94c0.43,1,0.79,2.04,1.69,2.8
			c-0.9-2.57-0.66-5.19-0.53-7.79c0.08-1.68,0.49-3.36,0.49-5.03c-0.01-1.59,0.54-1.57,1.72-1.03c5.03,2.29,9.36,5.55,13.3,9.38
			c2.06,2,3.98,4.15,5.8,6.38c-1.59-5.13-4.7-9.19-8.71-12.6c-5.21-4.43-11.32-7.33-17.47-10.16c-0.96-0.44-2.51-0.71-2.49-1.77
			c0.03-1.06,1.57-1.33,2.57-1.68c6.25-2.16,12.7-3.49,19.18-4.73c0.73-0.14,1.28,0.14,1.84,0.47c4.35,2.65,8.98,4.68,13.77,6.36
			c6.56,2.29,13.23,3.74,20.06,4.02c0-0.78,0.01-1.57,0.01-2.36c-9.91-1.8-19.05-6.37-28.31-11.09c1.34-0.31,2.28-0.5,3.2-0.74
			C121.72,347.13,128.48,344.36,135.24,341.59z"/>
		<path class="st1" d="M39.84,161c1.4,0.71,2.98,0.99,4.32,1.86c5.05,3.28,6.39,8.3,6.45,13.87c0.02,2.41-0.45,4.78-1.34,7.03
			c-0.71,1.78-1.38,2-2.86,0.88c-5.32-4.04-8.97-9.01-8.8-16.08c0.07-2.66,0.93-5.12,1.9-7.56C39.62,161,39.73,161,39.84,161z"/>
		<path class="st1" d="M102.53,216.98c-2.74,0.12-4.94-0.76-7.07-1.9c-0.45-0.24-0.76-0.51-0.85-1.08
			c-0.64-4.41,1.93-10.16,5.81-12.35c4.4-2.48,8.96-2.16,13.52-0.33c0.59,0.24,0.83,0.63,0.8,1.26c-0.22,4.24-3.1,10.97-7.91,13.35
			C105.39,216.63,103.9,217.1,102.53,216.98z"/>
		<path class="st1" d="M138.68,260.13c-0.51,0.98-0.93,2.04-1.26,3.18c-1.05,3.65-0.69,7.44-1.57,11.45
			c0.92-0.9,1.94-1.24,2.97-1.43C138.75,268.93,138.75,264.53,138.68,260.13z"/>
		<path class="st1" d="M138.52,291.45c0.01-0.83,0.05-1.71,0.14-2.59c-1.56,0.71-3.06,1.57-4.55,2.48c-1.47,0.9-2.72,2.35-4.84,2.04
			c1.41,0.32,2.26,1.3,3.2,2.15c0.96,0.88,1.92,1.79,2.99,2.53c1.08,0.75,2.19,1.43,3.34,1.95
			C138.65,297.16,138.48,294.29,138.52,291.45z"/>
		<path class="st1" d="M112.25,385.34c1.91,1.97,4.46,1.3,6.64,1.88c3.07,0.82,6.06,1.67,8.39,4.05c2.25,2.3,2.73,5.09,2.54,8.13
			c-0.05,0.74-0.53,0.89-1.07,0.99c-2.74,0.53-5.47,0.84-8.22,0.02c-2.78-0.82-4.78-2.53-5.88-5.22c-0.75-1.81-1.27-3.69-1.46-5.66
			C113.05,388.13,113.34,386.63,112.25,385.34z"/>
		<path class="st1" d="M122.73,273.15c0,3.19-0.94,6.34-2.74,9.22c-1.05,1.67-1.68,1.7-2.9,0.21c-3.59-4.38-5.59-9.21-4.11-14.97
			c0.44-1.7,1.27-3.24,2.16-4.75c0.52-0.88,1.04-1.03,1.96-0.46C121.02,264.83,122.86,268.34,122.73,273.15z"/>
		<path class="st1" d="M72.79,213.23c-1.19-0.94-2.55-1.4-3.79-2.06c-5.46-2.91-8.2-8.58-7.11-14.66c0.19-1.09,0.43-1.55,1.76-1.21
			c6.7,1.74,9.72,5.84,9.35,12.74C72.92,209.75,72.14,211.45,72.79,213.23z"/>
		<path class="st1" d="M111.83,250.44c-5.79,0.31-9.73-1.63-12.71-5.66c-0.74-0.99-0.58-1.51,0.4-2.18c2.61-1.79,5.35-2.51,8.48-1.7
			c3.74,0.97,6.69,3.05,8.98,6.1c1.11,1.48,0.93,1.94-0.81,2.51C114.5,250.05,112.81,250.43,111.83,250.44z"/>
		<path class="st1" d="M91.76,223.8c2.68-0.11,5.14,1.29,7.58,2.76c0.43,0.26,0.77,0.58,0.33,1.17c-2.05,2.72-4.14,5.35-7.79,6.03
			c-2.35,0.43-4.39-0.38-6.38-1.42c-0.67-0.35-1.31-0.79-1.92-1.23c-2.09-1.52-2.08-1.53-0.29-3.61
			C85.48,224.93,88.13,223.73,91.76,223.8z"/>
		<path class="st1" d="M124.96,224.08c0.04,5.82-4.35,9.49-9.58,10.51c-1.04,0.2-2.13,0.55-3.22,0.09c-0.47-0.2-0.9-0.33-0.77-1.02
			c0.75-4,2.08-7.68,5.51-10.21c1.86-1.37,3.99-1.95,6.29-1.96C124.91,221.49,124.97,221.57,124.96,224.08z"/>
		<path class="st1" d="M139.63,370.4c0-1.36,0.03-2.71,0.09-4.05c0-0.39,0-0.78,0.01-1.16c-1.49-0.21-3-0.34-4.35-1.13
			c-0.32-0.19-0.5-0.9-1.02-0.41c-0.34,0.33-0.26,0.87-0.07,1.23c0.68,1.36,1.34,2.75,2.19,4c0.91,1.36,1.95,2.53,3.15,3.42
			C139.62,371.67,139.63,371.04,139.63,370.4z"/>
		<path class="st1" d="M95.4,320.11c-2.36,0.06-4.46-0.76-6.51-1.86c-0.83-0.45-0.74-0.81-0.29-1.49c3.71-5.6,8.46-6.32,14.25-5.47
			c0.9,0.13,0.71,0.83,0.68,1.4C103.27,317.44,100.28,320.16,95.4,320.11z"/>
		<path class="st1" d="M43.72,198.33c-0.01,2.86-0.1,2.91-2.82,2.23c-5.48-1.36-7.77-5.51-9.18-10.44c-0.25-0.87,0.38-1,0.93-1.23
			c3.95-1.69,7.95-0.17,9.83,3.77C43.33,194.44,43.81,196.33,43.72,198.33z"/>
		<path class="st1" d="M122.93,311.17c-0.02,4.01-2.2,6.55-6.22,7.81c-2.46,0.77-2.47,0.77-3.2-1.79c-1.5-5.28,1.06-9.67,6.35-10.98
			c0.9-0.22,1.42-0.02,1.82,0.83C122.4,308.53,122.87,310.07,122.93,311.17z"/>
		<path class="st1" d="M25.73,253.17c0.06,0.54,0.11,1.08,0.1,1.63c0,0.19,0,0.37-0.01,0.56c0,0.08,0.01,0.16,0.01,0.24
			c0.8,0.47,1.43,1.27,1.68,2.47c0.41,1.96,0.64,3.9,0.76,5.85c0.28-1.03,0.43-2.07,0.41-3.08
			C28.75,257.57,27.86,255.03,25.73,253.17z"/>
		<path class="st1" d="M55.45,187.88c-0.92-0.1-1.84-0.33-2.75-0.27c-1.54,0.1-1.61-0.64-1.38-1.85c1.07-5.39,6.44-8.9,11.78-7.67
			c0.53,0.12,0.94,0.28,0.84,0.94c-0.36,2.51-1,4.91-2.82,6.8C59.57,187.45,57.59,187.86,55.45,187.88z"/>
		<path class="st1" d="M100.03,392.47c0.07,2.3-0.27,2.58-1.95,1.92c-3.7-1.47-6.21-3.94-6.68-8.09c-0.21-1.84,0.17-2.25,2.03-1.96
			c2.11,0.33,3.72,1.45,4.87,3.25C99.34,389.22,99.87,391.03,100.03,392.47z"/>
		<path class="st1" d="M110.29,374.08c-1.01-0.05-2.86,0.22-3.35-1.04c-0.42-1.07,1.13-2.16,2-3.07c2.44-2.51,5.41-3.22,8.82-2.49
			c1.12,0.24,1.22,0.71,0.89,1.7C117.62,372.27,114.71,374.09,110.29,374.08z"/>
		<path class="st1" d="M138.94,307.89c-1.03-1.33-2.38-2.39-3.9-2.98c-0.66-0.25-0.97-0.17-1.25,0.5
			c-1.33,3.21,0.76,8.77,4.01,10.15c0.43,0.18,0.79,0.33,1.11,0.44C138.78,313.29,138.63,310.55,138.94,307.89z"/>
	</g>
	<g>
		<path class="st0" d="M231.5,210.81c5.53,1.5,10.11,3.28,13.75,5.33c3.63,2.06,6.48,3.87,8.53,5.45c2.05,1.58,3.56,2.37,4.5,2.37
			c1.74,0.16,3.4,1.74,4.98,4.74c0.95,6.32,1.78,11.93,2.49,16.83c0.71,4.9,1.38,10.04,2.01,15.4c0.63,5.37,1.19,10.43,1.66,15.17
			c0.47,4.74,0.71,8.45,0.71,11.14c0,4.42-0.28,7.98-0.83,10.66c-0.56,2.69-2.17,4.7-4.86,6.04c-2.69,1.34-7.11,2.25-13.27,2.73
			c-4.58,0.31-7.9,0.24-9.95-0.24c-2.06-0.47-3.56-1.34-4.5-2.61c-1.42,1.11-3.75,1.86-6.99,2.25c-3.24,0.4-7.7,0.59-13.39,0.59
			c-7.27-1.1-13.55-2.57-18.84-4.38c-5.3-1.81-10.59-4.58-15.88-8.29c-5.3-3.71-9.68-8.69-13.15-14.93
			c-3.48-6.24-5.14-14.02-4.98-23.34c0.16-9.32,1.9-16.95,5.21-22.87c3.32-5.92,7.35-10.55,12.09-13.86
			c4.74-3.32,9.44-5.69,14.1-7.11c4.66-1.42,10.15-2.45,16.47-3.08C219.25,208.65,225.96,209.32,231.5,210.81z M229.13,233.21
			c-0.79-1.1-2.49-2.33-5.1-3.67c-2.61-1.34-5.06-2.49-7.35-3.44c-2.29-0.95-3.44-1.26-3.44-0.95c0,0.16-0.83,1.46-2.49,3.91
			c-1.66,2.45-3.32,6.01-4.98,10.67c-1.66,4.66-2.57,10.23-2.73,16.71c-0.16,6.48,0.71,12.09,2.61,16.83s4.23,8.38,6.99,10.9
			c2.76,2.53,5.33,3.79,7.7,3.79c1.74,0,3.4-0.83,4.98-2.49c1.58-1.66,2.92-3.56,4.03-5.69c1.1-2.13,2.29-4.78,3.56-7.94
			L229.13,233.21z"/>
		<path class="st0" d="M301.41,164.01c4.11,0.16,7.5,0.59,10.19,1.3c2.68,0.71,5.05,1.94,7.11,3.67c2.05,1.74,3.08,4.19,3.08,7.35
			c0,2.06,0.08,6.24,0.24,12.56c0.15,6.32,0.31,13.79,0.47,22.4c0.16,8.61,0.36,17.46,0.59,26.54c0.24,9.09,0.43,17.58,0.59,25.48
			c0.16,7.9,0.31,16.75,0.47,26.54c0,3.32-0.47,6.12-1.42,8.41c-0.95,2.29-2.77,4.27-5.45,5.93c-2.69,1.66-6.64,2.49-11.85,2.49
			c-6.95,0-12.01-0.91-15.17-2.73c-3.16-1.81-5.1-3.87-5.81-6.16c-0.71-2.29-0.99-4.07-0.83-5.33c0.16-0.63,0.24-3.39,0.24-8.29
			c0-4.89-0.04-11.06-0.12-18.49c-0.08-7.42-0.2-15.4-0.36-23.94c-0.16-8.53-0.32-16.95-0.47-25.24
			c-0.16-8.29-0.36-15.72-0.59-22.28c-0.24-6.55-0.44-11.41-0.59-14.58c-0.32-4.42,0.75-7.74,3.2-9.95
			c2.45-2.21,5.29-3.67,8.53-4.38C296.71,164.6,299.35,164.17,301.41,164.01z"/>
		<path class="st0" d="M346.79,205.36c-2.77-0.87-5.25-2.49-7.47-4.86c-2.21-2.37-3.4-5.93-3.55-10.67
			c-0.16-4.74,0.55-8.25,2.13-10.55c1.58-2.29,3.56-3.87,5.93-4.74c2.37-0.87,4.66-1.34,6.87-1.42c2.21-0.08,3.79-0.2,4.74-0.36
			c0.95-0.16,2.53-0.04,4.74,0.36c2.21,0.4,4.5,1.27,6.87,2.61c2.37,1.34,4.34,3.32,5.92,5.92c1.58,2.61,2.21,6.04,1.9,10.31
			c-0.32,4.11-1.39,7.23-3.2,9.36c-1.82,2.13-3.87,3.56-6.16,4.27c-2.29,0.71-5.09,1.15-8.41,1.3
			C352.99,206.75,349.55,206.23,346.79,205.36z M343.12,237.95c-1.42-3.32-2.29-5.29-2.61-5.92c-0.16-0.47-0.44-1.46-0.83-2.96
			c-0.4-1.5,0-3.12,1.19-4.86c1.18-1.74,3.83-3,7.94-3.79c4.27-0.79,8.69-1.03,13.27-0.71c4.58,0.32,8.65,1.7,12.21,4.15
			c3.55,2.45,5.72,6.68,6.52,12.68c0.63,4.43,1.26,9.68,1.9,15.76c0.63,6.08,1.22,12.01,1.78,17.77c0.55,5.77,1.22,12.52,2.01,20.26
			c0.32,3.32,0.16,6.04-0.47,8.18c-0.63,2.13-2.17,4.03-4.62,5.69c-2.45,1.66-6.36,2.49-11.73,2.49c-5.37,0-9.48-0.75-12.32-2.25
			c-2.84-1.5-4.86-3.2-6.04-5.1c-1.18-1.9-2.01-4.34-2.49-7.35L343.12,237.95z"/>
		<path class="st0" d="M409.48,340.57l-7.82-96.22c-1.42-2.53-2.45-4.78-3.08-6.75c-0.63-1.97-0.79-3.91-0.47-5.81
			c0.31-1.9,1.5-3.47,3.55-4.74c1.74-0.95,4.94-2.8,9.6-5.57c4.66-2.76,10.39-5.49,17.18-8.18c6.79-2.69,14.1-4.58,21.92-5.69
			c7.82-1.1,15.72-0.67,23.7,1.3c7.98,1.98,15.52,6.36,22.63,13.15c6.95,6.64,11.29,13.98,13.04,22.04
			c1.74,8.06,1.62,15.96-0.36,23.7c-1.98,7.74-5.21,14.54-9.72,20.38c-4.5,5.85-9.6,9.95-15.29,12.32
			c-7.74,3.16-14.38,5.1-19.91,5.81c-5.53,0.71-11.3,0.83-17.3,0.36l2.37,35.79c0,3.16-0.44,5.77-1.3,7.82
			c-0.87,2.05-2.65,3.83-5.33,5.33c-2.69,1.5-6.64,2.25-11.85,2.25c-6.95-0.16-11.97-1.27-15.05-3.32
			c-3.08-2.06-4.94-4.42-5.57-7.11C409.79,344.76,409.48,342.47,409.48,340.57z M445.03,285.12c5.37,0,9.75-0.47,13.15-1.42
			c3.4-0.95,6.36-2.76,8.89-5.45c2.53-2.69,3.63-6.71,3.32-12.09c-0.32-7.11-1.11-13.47-2.37-19.08c-1.27-5.61-3.16-9.91-5.69-12.92
			c-2.53-3-6.01-4.11-10.43-3.32c-4.43,0.79-7.47,1.38-9.12,1.78c-1.66,0.4-2.65,0.75-2.96,1.07L445.03,285.12z"/>
		<path class="st0" d="M588.88,210.81c5.53,1.5,10.11,3.28,13.75,5.33c3.63,2.06,6.48,3.87,8.53,5.45c2.05,1.58,3.55,2.37,4.5,2.37
			c1.74,0.16,3.4,1.74,4.98,4.74c0.95,6.32,1.78,11.93,2.49,16.83c0.71,4.9,1.38,10.04,2.01,15.4c0.63,5.37,1.18,10.43,1.66,15.17
			c0.47,4.74,0.71,8.45,0.71,11.14c0,4.42-0.28,7.98-0.83,10.66c-0.56,2.69-2.17,4.7-4.86,6.04c-2.69,1.34-7.11,2.25-13.27,2.73
			c-4.58,0.31-7.9,0.24-9.95-0.24c-2.05-0.47-3.55-1.34-4.5-2.61c-1.42,1.11-3.75,1.86-6.99,2.25c-3.24,0.4-7.7,0.59-13.39,0.59
			c-7.27-1.1-13.55-2.57-18.84-4.38c-5.3-1.81-10.59-4.58-15.88-8.29c-5.29-3.71-9.68-8.69-13.15-14.93
			c-3.48-6.24-5.14-14.02-4.98-23.34c0.16-9.32,1.9-16.95,5.21-22.87c3.32-5.92,7.35-10.55,12.09-13.86s9.44-5.69,14.1-7.11
			c4.66-1.42,10.15-2.45,16.47-3.08C576.64,208.65,583.35,209.32,588.88,210.81z M586.51,233.21c-0.79-1.1-2.49-2.33-5.09-3.67
			c-2.61-1.34-5.06-2.49-7.35-3.44c-2.29-0.95-3.44-1.26-3.44-0.95c0,0.16-0.83,1.46-2.49,3.91c-1.66,2.45-3.32,6.01-4.98,10.67
			c-1.66,4.66-2.57,10.23-2.73,16.71c-0.16,6.48,0.71,12.09,2.61,16.83c1.9,4.74,4.23,8.38,6.99,10.9c2.76,2.53,5.33,3.79,7.7,3.79
			c1.74,0,3.4-0.83,4.98-2.49c1.58-1.66,2.92-3.56,4.03-5.69c1.1-2.13,2.29-4.78,3.55-7.94L586.51,233.21z"/>
		<path class="st0" d="M662.94,175.98c0.71-1.81,2.41-3.59,5.1-5.33c2.68-1.74,7.11-2.68,13.27-2.84c5.53-0.16,9.72,0.51,12.56,2.01
			c2.84,1.5,5.29,3.67,7.35,6.52c3.47,8.22,6.71,15.68,9.72,22.4c3,6.72,6.32,14.18,9.95,22.4c3.63,8.22,7.31,16.55,11.02,25
			c3.71,8.45,7.19,16.35,10.43,23.7c3.24,7.35,5.96,13.51,8.18,18.49c2.21,4.98,3.63,8.1,4.27,9.36c1.42,3,2.21,5.14,2.37,6.4
			c0.16,1.27,0.12,2.1-0.12,2.49s-0.36,0.67-0.36,0.83c-1.11,2.21-3.28,4.15-6.52,5.81c-3.24,1.66-7.15,2.57-11.73,2.73
			c-6.32,0.16-10.9-0.51-13.75-2.01c-2.84-1.5-4.7-3-5.57-4.5c-0.87-1.5-1.23-2.17-1.07-2.01c-3.32-7.27-6.08-13.47-8.29-18.6
			c-2.21-5.13-4.27-9.83-6.16-14.1c-4.27,0-7.82,0-10.67,0c-2.84,0-6.4,0-10.67,0c-0.63,2.21-1.27,4.94-1.9,8.18
			c-0.63,3.24-1.42,7.39-2.37,12.44c-1.42,3.79-3.64,6.64-6.64,8.53c-3,1.9-7.98,2.84-14.93,2.84c-5.21,0-9.12-0.59-11.73-1.78
			c-2.61-1.19-4.35-2.57-5.21-4.15c-0.87-1.58-1.3-3.56-1.3-5.92c0.31-1.58,0.98-4.86,2.01-9.84c1.03-4.98,2.29-10.98,3.79-18.01
			c1.5-7.03,3.08-14.49,4.74-22.4c1.66-7.9,3.28-15.72,4.86-23.46c1.58-7.74,3-14.81,4.27-21.21c1.26-6.4,2.68-13.47,4.27-21.21
			C661.96,178.7,662.23,177.79,662.94,175.98z M687,216.15c-0.16,0.63-0.32,1.9-0.47,3.79l-0.95,6.64
			c-0.32,3.64-0.71,7.51-1.18,11.61c-0.47,4.11-0.95,7.98-1.42,11.61c-0.32,1.9-0.56,3.08-0.71,3.55h3.08c1.9,0,3.95-0.08,6.16-0.24
			c2.21-0.16,4.18-0.24,5.92-0.24c-0.63-1.26-1.15-2.88-1.54-4.86c-0.4-1.97-0.83-3.83-1.3-5.57c-0.95-3.63-2.01-7.42-3.2-11.38
			c-1.18-3.95-2.25-7.66-3.2-11.14C687.71,218.04,687.31,216.78,687,216.15z"/>
		<path class="st0" d="M775.4,340.57l-7.82-96.22c-1.42-2.53-2.45-4.78-3.08-6.75c-0.63-1.97-0.79-3.91-0.47-5.81
			c0.31-1.9,1.5-3.47,3.55-4.74c1.74-0.95,4.94-2.8,9.6-5.57c4.66-2.76,10.39-5.49,17.18-8.18c6.79-2.69,14.1-4.58,21.92-5.69
			c7.82-1.1,15.72-0.67,23.7,1.3c7.98,1.98,15.52,6.36,22.63,13.15c6.95,6.64,11.29,13.98,13.04,22.04
			c1.74,8.06,1.62,15.96-0.36,23.7c-1.98,7.74-5.21,14.54-9.72,20.38c-4.5,5.85-9.6,9.95-15.29,12.32
			c-7.74,3.16-14.38,5.1-19.91,5.81c-5.53,0.71-11.3,0.83-17.3,0.36l2.37,35.79c0,3.16-0.44,5.77-1.3,7.82
			c-0.87,2.05-2.65,3.83-5.33,5.33c-2.69,1.5-6.64,2.25-11.85,2.25c-6.95-0.16-11.97-1.27-15.05-3.32
			c-3.08-2.06-4.94-4.42-5.57-7.11C775.71,344.76,775.4,342.47,775.4,340.57z M810.95,285.12c5.37,0,9.75-0.47,13.15-1.42
			c3.4-0.95,6.36-2.76,8.89-5.45c2.53-2.69,3.63-6.71,3.32-12.09c-0.32-7.11-1.11-13.47-2.37-19.08c-1.27-5.61-3.16-9.91-5.69-12.92
			c-2.53-3-6.01-4.11-10.43-3.32c-4.43,0.79-7.47,1.38-9.12,1.78c-1.66,0.4-2.65,0.75-2.96,1.07L810.95,285.12z"/>
		<path class="st0" d="M896.74,340.57l-7.82-96.22c-1.42-2.53-2.45-4.78-3.08-6.75c-0.63-1.97-0.79-3.91-0.47-5.81
			c0.31-1.9,1.5-3.47,3.55-4.74c1.74-0.95,4.94-2.8,9.6-5.57c4.66-2.76,10.39-5.49,17.18-8.18c6.79-2.69,14.1-4.58,21.92-5.69
			c7.82-1.1,15.72-0.67,23.7,1.3c7.98,1.98,15.52,6.36,22.63,13.15c6.95,6.64,11.29,13.98,13.04,22.04
			c1.74,8.06,1.62,15.96-0.36,23.7c-1.98,7.74-5.21,14.54-9.72,20.38c-4.5,5.85-9.6,9.95-15.29,12.32
			c-7.74,3.16-14.38,5.1-19.91,5.81c-5.53,0.71-11.3,0.83-17.3,0.36l2.37,35.79c0,3.16-0.44,5.77-1.3,7.82
			c-0.87,2.05-2.65,3.83-5.33,5.33c-2.69,1.5-6.64,2.25-11.85,2.25c-6.95-0.16-11.97-1.27-15.05-3.32
			c-3.08-2.06-4.94-4.42-5.57-7.11C897.05,344.76,896.74,342.47,896.74,340.57z M932.29,285.12c5.37,0,9.75-0.47,13.15-1.42
			c3.4-0.95,6.36-2.76,8.89-5.45c2.53-2.69,3.63-6.71,3.32-12.09c-0.32-7.11-1.11-13.47-2.37-19.08c-1.27-5.61-3.16-9.91-5.69-12.92
			c-2.53-3-6.01-4.11-10.43-3.32c-4.43,0.79-7.47,1.38-9.12,1.78c-1.66,0.4-2.65,0.75-2.96,1.07L932.29,285.12z"/>
	</g>
</g>
</svg>
