<svg width="683" height="344" viewBox="0 0 683 344" fill="none" xmlns="http://www.w3.org/2000/svg">
<path d="M0.663325 33.7964C0.348942 24.3655 2.67538 16.722 7.63565 10.8575C12.5889 5.01003 23.5924 1.51175 40.6389 0.379708C52.1035 -0.369316 60.4661 1.3245 65.7407 5.47817C71.0084 9.64036 75.0395 16.0496 77.827 24.7315L80.6146 75.1373C90.8425 75.1373 99.282 75.8012 105.947 77.1205C112.605 78.4484 118.494 80.9933 123.608 84.764C128.722 88.5432 131.279 94.3906 131.279 102.323C131.279 110.256 128.799 116.112 123.839 119.883C118.879 123.662 113.15 126.207 106.639 127.526C100.134 128.854 91.7647 129.51 81.5367 129.51C81.8441 146.499 82.0048 161.701 82.0048 175.098C82.0048 188.504 82.1585 202.761 82.4729 217.852C82.7803 232.96 82.941 247.396 82.941 261.176C82.941 274.965 83.0109 286.473 83.1715 295.725C83.3252 304.977 83.4021 310.365 83.4021 311.863C83.4021 314.51 82.7035 318.289 81.3132 323.192C79.9159 328.103 76.3529 332.631 70.6241 336.785C64.8884 340.947 55.5198 343.015 42.5043 343.015C32.8981 343.015 25.4577 341.602 20.19 338.768C14.9154 335.934 11.1288 332.733 8.80237 329.141C6.47593 325.558 5.00182 320.928 4.38702 315.267L0.663325 33.7964Z" fill="#86BF88"/>
<path d="M79.4829 281.749C80.5658 281.204 81.6277 280.617 82.6686 279.995C82.6686 279.493 82.6686 278.991 82.6756 278.489C82.4451 278.003 82.3053 277.45 82.3053 276.829C82.3053 276.548 82.2984 276.267 82.2984 275.986C82.1936 276.046 82.0888 276.097 81.977 276.156C82.0678 275.365 82.1796 274.599 82.2844 273.824C82.2564 271.458 82.2145 269.092 82.1726 266.717C81.0129 269.892 80.0208 273.143 79.0916 276.429C78.8681 277.22 78.5537 277.723 77.8341 278.012C69.3178 281.417 60.4801 282.702 51.5307 284.004C52.886 282.574 54.1855 281.246 55.45 279.859C56.7215 278.455 57.8533 276.888 58.8873 275.22C59.9282 273.543 60.7456 271.705 61.4373 269.79C62.101 267.951 62.6389 266.045 63.2258 264.164C63.1349 264.121 63.0441 264.07 62.9603 264.027C62.7926 264.325 62.6249 264.623 62.4643 264.93C59.1667 271.186 55.3103 276.837 50.3011 281.187C48.0166 283.17 45.8858 285.46 43.1122 286.481C36.098 289.052 29.433 292.448 23.8859 298.585C23.7252 298.244 23.83 297.938 23.8719 297.64C25.2412 288.515 27.3232 279.57 28.5947 270.42C29.964 267.594 31.8223 265.338 34.023 263.474C34.1348 263.38 34.3164 263.406 34.4701 263.372C36.6778 262.836 38.9204 262.631 41.149 262.317C42.728 262.087 44.3488 262.129 46.1443 261.219C41.2888 261.236 38.8226 260.793 37.3625 259.652C37.5441 259.465 37.7048 259.269 37.8795 259.099C44.6562 252.579 52.0267 247.191 59.5859 242.144C61.7307 240.714 63.7427 240.152 66.0412 241.097C66.3626 241.233 66.7119 241.267 67.0473 241.327C68.7449 241.608 70.4356 241.965 72.1543 241.88C69.8418 240.884 67.5223 239.974 65.14 238.714C69.9466 235.301 74.8999 232.5 78.3162 227.155C77.4289 227.93 76.5836 228.781 75.6544 229.479C70.729 233.181 65.3845 235.752 59.9562 238.058C55.8622 239.803 51.7263 241.395 47.6114 243.055C46.6054 243.463 46.0674 243.063 46.0045 241.744C45.9277 240.144 46.2001 238.586 46.6473 237.105C48.0026 232.636 48.1633 228.057 47.5974 223.393C47.5136 222.686 47.5555 222.108 47.9537 221.469C51.1045 216.447 49.7632 210.225 45.0125 207.595C44.6771 207.408 44.4326 207.297 44.1182 207.723C40.9045 212.158 40.2338 217.988 45.3967 221.333C47.1922 222.499 47.5555 223.767 47.3459 225.819C47.304 226.236 47.276 226.653 47.2201 227.061C46.4656 232.832 44.5444 238.05 42.1621 243.063C41.1351 245.225 39.8636 247.072 38.1449 248.485C36.1818 250.102 34.1278 251.507 32.0249 252.818C31.487 253.15 30.9351 253.43 30.6626 254.196C30.8023 250.741 31.0818 247.345 31.2075 243.94C31.5778 233.871 31.1097 223.912 28.93 214.141C28.8043 213.579 28.8601 213.068 28.9649 212.506C29.6286 208.991 30.9211 205.791 32.1716 202.565C32.507 201.705 32.9122 201.467 33.6667 201.526C38.0262 201.85 42.3437 201.526 46.6053 200.275C50.7063 199.067 54.6396 197.373 58.014 194.164C58.8314 193.389 59.6069 192.53 60.0749 191.015C56.1486 193.849 52.1804 195.798 47.9258 196.777C43.6292 197.773 39.3256 197.969 34.8684 196.777C38.9693 188.606 43.8108 181.345 49.2532 174.621C46.787 175.932 44.6841 177.864 42.6581 179.958C40.646 182.035 38.8016 184.342 36.7616 186.98C37.097 182.265 36.8664 178.06 35.9722 173.915C35.8953 174.281 35.8953 174.647 35.8953 175.013C35.9093 178.869 35.7207 182.716 35.2107 186.529C35.0221 187.925 34.9732 189.397 34.1977 190.598C32.7585 192.819 31.2984 195.024 29.9081 197.288C28.6436 199.348 27.4559 201.484 26.1564 203.722C24.7103 199.33 22.4467 195.79 20.0015 192.402C19.6452 191.908 19.5404 191.415 19.5963 190.759C19.8618 187.67 20.1412 184.58 20.2949 181.482C20.5953 175.626 20.4975 169.795 19.0863 164.101C18.199 160.517 17.8777 156.832 18.1781 153.087C18.2619 152.074 18.4086 151.07 18.5274 150.065C18.2619 150.193 18.1501 150.363 18.0593 150.559C15.8796 155.155 15.9285 160.16 16.3896 165.182C16.6621 168.135 17.1092 171.055 16.9345 174.042C16.7599 177.013 16.0193 179.762 14.7967 182.333C14.5871 182.775 14.4055 183.422 13.7907 182.767C10.8704 179.618 7.41918 177.541 3.87713 175.685C3.37411 175.421 2.92699 175.106 2.50781 174.749C2.52179 177.949 2.61261 181.184 2.66151 184.384C2.68946 186.112 2.88507 187.763 2.80124 189.389C10.4373 194.666 15.2648 202.948 17.6192 213.8C18.737 218.958 18.6601 224.287 18.5064 229.581C18.2969 236.586 17.4864 243.489 16.3127 250.86C16.0892 250.358 16.0193 250.145 15.9075 249.966C14.2588 247.259 12.3585 244.8 10.081 242.944C7.64275 240.961 6.28042 238.518 5.65165 234.952C5.23946 232.602 4.65261 230.33 3.89809 228.151C3.95398 230.926 3.94 233.709 3.90507 236.484C5.19754 236.824 6.35028 238.109 6.34329 239.948C6.32932 243.157 6.20357 246.366 5.8822 249.532C9.27754 253.541 11.8555 258.171 12.7358 264.01C12.9244 265.27 13.2108 266.53 12.8475 267.858C11.9603 271.118 11.1569 274.403 10.2416 277.654C9.98316 278.565 9.80151 279.561 9.24959 280.455C7.82439 278.106 5.99398 276.599 3.97494 275.441C4.07973 276.854 4.03083 278.293 3.91206 279.748C4.03083 280.165 4.08672 280.651 4.03083 281.212C3.98192 281.783 3.92603 282.353 3.87014 282.923C3.98891 286.558 4.57576 290.226 4.21946 293.827C4.1985 294.065 4.15658 294.295 4.10069 294.507C4.12863 295.044 4.16357 295.588 4.18452 296.125C4.22644 296.661 4.2474 297.197 4.2474 297.733C4.26137 298.125 4.26836 298.516 4.26836 298.908C4.51987 300.44 4.67357 301.989 4.7574 303.564C4.8622 305.641 5.16261 307.777 4.68055 309.794C4.56877 310.246 4.47795 310.705 4.37316 311.156C4.41507 311.735 4.46398 312.322 4.53384 312.901C4.7085 314.314 4.56179 315.667 4.45 317.012C4.47096 317.106 4.49192 317.199 4.5059 317.302C4.51987 317.361 4.54083 317.412 4.5548 317.48C4.9111 319.438 5.65165 320.987 5.72151 323.03C5.80535 323.302 5.91014 323.566 6.00096 323.839C6.82535 325.779 7.90124 327.618 8.82343 328.971C10.57 331.542 12.7078 333.661 15.1041 335.27C17.6401 336.972 20.1482 338.547 22.8799 339.653C22.7681 330.358 24.1234 321.515 28.3711 313.557C30.6766 309.241 33.5969 305.7 37.5441 303.615C39.7658 302.44 42.0643 302.006 44.4606 302.73C44.9636 302.883 45.3199 303.062 45.278 303.913C45.1173 307.173 45.781 310.254 46.8289 313.225C47.1293 314.076 47.3808 314.961 48.0096 315.608C47.3808 313.42 47.5485 311.19 47.6393 308.977C47.6952 307.547 47.9817 306.117 47.9817 304.696C47.9747 303.343 48.3589 303.36 49.1833 303.819C52.6974 305.768 55.7225 308.543 58.4751 311.803C59.9143 313.505 61.2556 315.335 62.5271 317.234C61.4163 312.867 59.2436 309.411 56.4421 306.509C52.8022 302.738 48.5336 300.27 44.237 297.861C43.5663 297.487 42.4834 297.257 42.4974 296.355C42.5184 295.452 43.5943 295.222 44.2929 294.925C48.6593 293.086 53.1655 291.954 57.6926 290.899C58.2026 290.779 58.5869 291.018 58.9781 291.299C62.0171 293.554 65.2518 295.282 68.5982 296.712C73.1812 298.661 77.8411 299.895 82.6127 300.134C82.6127 299.47 82.6197 298.797 82.6197 298.125C75.6963 296.593 69.3108 292.703 62.8415 288.686C63.7777 288.422 64.4344 288.26 65.0771 288.056C70.0374 286.464 74.7601 284.106 79.4829 281.749Z" fill="white"/>
<path d="M12.8337 128.037C13.8117 128.641 14.9156 128.88 15.8517 129.62C19.3798 132.412 20.316 136.685 20.3579 141.426C20.3719 143.477 20.0435 145.494 19.4217 147.41C18.9257 148.925 18.4576 149.112 17.4237 148.159C13.7069 144.72 11.1569 140.49 11.2757 134.472C11.3246 132.208 11.9254 130.114 12.6031 128.037C12.68 128.037 12.7568 128.037 12.8337 128.037Z" fill="white"/>
<path d="M56.6307 175.685C54.7164 175.787 53.1795 175.038 51.6914 174.068C51.377 173.864 51.1604 173.634 51.0975 173.149C50.6504 169.395 52.4459 164.501 55.1566 162.637C58.2305 160.526 61.4163 160.798 64.6021 162.356C65.0142 162.56 65.1819 162.892 65.161 163.429C65.0073 167.037 62.9952 172.766 59.6348 174.792C58.6288 175.387 57.5878 175.787 56.6307 175.685Z" fill="white"/>
<path d="M81.886 212.413C81.5297 213.247 81.2363 214.149 81.0058 215.12C80.2722 218.226 80.5237 221.452 79.9089 224.865C80.5517 224.099 81.2643 223.81 81.9839 223.648C81.935 219.903 81.935 216.158 81.886 212.413Z" fill="white"/>
<path d="M81.7743 239.071C81.7813 238.365 81.8093 237.616 81.8721 236.867C80.7823 237.471 79.7343 238.203 78.6934 238.978C77.6664 239.744 76.7931 240.978 75.312 240.714C76.2971 240.986 76.8909 241.82 77.5476 242.544C78.2183 243.293 78.889 244.068 79.6365 244.697C80.3911 245.336 81.1665 245.915 81.97 246.357C81.8652 243.931 81.7464 241.489 81.7743 239.071Z" fill="white"/>
<path d="M63.4214 318.987C64.7558 320.664 66.5373 320.094 68.0603 320.587C70.2051 321.285 72.294 322.009 73.9218 324.034C75.4937 325.992 75.8291 328.367 75.6963 330.954C75.6614 331.584 75.326 331.712 74.9488 331.797C73.0345 332.248 71.1273 332.512 69.206 331.814C67.2639 331.116 65.8666 329.661 65.0981 327.371C64.5741 325.83 64.2108 324.23 64.0781 322.553C63.9803 321.362 64.1829 320.085 63.4214 318.987Z" fill="white"/>
<path d="M70.743 223.495C70.743 226.21 70.0863 228.891 68.8288 231.343C68.0952 232.764 67.6551 232.79 66.8028 231.521C64.2947 227.793 62.8974 223.682 63.9314 218.779C64.2388 217.332 64.8186 216.022 65.4404 214.736C65.8037 213.987 66.167 213.86 66.8097 214.345C69.5484 216.413 70.8339 219.401 70.743 223.495Z" fill="white"/>
<path d="M35.8534 172.493C35.022 171.693 34.0719 171.302 33.2056 170.74C29.3911 168.263 27.4768 163.437 28.2383 158.262C28.3711 157.334 28.5387 156.943 29.4679 157.232C34.1487 158.713 36.2586 162.203 36.0001 168.076C35.9442 169.531 35.3993 170.978 35.8534 172.493Z" fill="white"/>
<path d="M63.1279 204.165C59.0829 204.429 56.3303 202.778 54.2483 199.347C53.7314 198.505 53.8431 198.062 54.5278 197.492C56.3512 195.968 58.2655 195.355 60.4522 196.045C63.065 196.871 65.126 198.641 66.7259 201.237C67.5014 202.497 67.3756 202.888 66.16 203.373C64.9933 203.833 63.8126 204.156 63.1279 204.165Z" fill="white"/>
<path d="M49.1064 181.49C50.9787 181.396 52.6973 182.588 54.402 183.839C54.7024 184.061 54.9399 184.333 54.6326 184.835C53.2004 187.15 51.7402 189.389 49.1902 189.968C47.5484 190.334 46.1232 189.644 44.733 188.759C44.2649 188.461 43.8178 188.087 43.3916 187.712C41.9315 186.418 41.9384 186.41 43.189 184.639C44.719 182.452 46.5704 181.43 49.1064 181.49Z" fill="white"/>
<path d="M72.301 181.728C72.329 186.682 69.262 189.806 65.6082 190.674C64.8816 190.844 64.1201 191.142 63.3586 190.751C63.0302 190.581 62.7298 190.47 62.8206 189.883C63.3446 186.478 64.2738 183.346 66.6701 181.192C67.9695 180.026 69.4576 179.532 71.0645 179.524C72.2661 179.524 72.308 179.592 72.301 181.728Z" fill="white"/>
<path d="M82.5499 306.271C82.5499 305.113 82.5709 303.964 82.6128 302.823C82.6128 302.491 82.6128 302.16 82.6198 301.836C81.5788 301.657 80.5239 301.547 79.5808 300.874C79.3572 300.713 79.2314 300.108 78.8682 300.525C78.6306 300.806 78.6865 301.266 78.8192 301.572C79.2943 302.73 79.7554 303.913 80.3492 304.977C80.985 306.134 81.7116 307.13 82.5499 307.888C82.543 307.352 82.5499 306.815 82.5499 306.271Z" fill="white"/>
<path d="M51.6494 263.466C50.0006 263.517 48.5335 262.819 47.1013 261.882C46.5214 261.499 46.5843 261.193 46.8987 260.614C49.4906 255.848 52.8091 255.235 56.8542 255.958C57.483 256.069 57.3502 256.665 57.3293 257.15C57.1476 261.193 55.0587 263.508 51.6494 263.466Z" fill="white"/>
<path d="M15.5443 159.811C15.5373 162.245 15.4744 162.288 13.5742 161.709C9.74567 160.551 8.14581 157.019 7.16074 152.823C6.98608 152.082 7.42622 151.972 7.81047 151.776C10.5701 150.337 13.3646 151.631 14.678 154.985C15.2718 156.5 15.6072 158.109 15.5443 159.811Z" fill="white"/>
<path d="M70.8827 255.856C70.8688 259.269 69.3458 261.431 66.5373 262.504C64.8186 263.159 64.8116 263.159 64.3016 260.98C63.2537 256.486 65.0422 252.749 68.7379 251.634C69.3667 251.447 69.73 251.617 70.0095 252.341C70.5125 253.609 70.8408 254.92 70.8827 255.856Z" fill="white"/>
<path d="M2.97583 206.489C3.01775 206.948 3.05268 207.408 3.04569 207.876C3.04569 208.038 3.04569 208.191 3.03871 208.353C3.03871 208.421 3.04569 208.489 3.04569 208.557C3.6046 208.957 4.04473 209.638 4.21939 210.659C4.50583 212.328 4.66652 213.979 4.75035 215.639C4.94597 214.762 5.05076 213.877 5.03679 213.017C5.08569 210.234 4.46391 208.072 2.97583 206.489Z" fill="white"/>
<path d="M23.7392 150.916C23.0965 150.831 22.4537 150.635 21.818 150.687C20.7421 150.772 20.6932 150.142 20.8539 149.112C21.6014 144.524 25.3531 141.537 29.0837 142.583C29.454 142.686 29.7405 142.822 29.6706 143.384C29.4191 145.52 28.972 147.563 27.7005 149.171C26.6176 150.55 25.2343 150.899 23.7392 150.916Z" fill="white"/>
<path d="M54.884 325.056C54.9329 327.014 54.6954 327.252 53.5217 326.69C50.9367 325.439 49.1832 323.336 48.8548 319.804C48.7081 318.238 48.9736 317.889 50.273 318.136C51.7472 318.417 52.8719 319.37 53.6754 320.902C54.4019 322.29 54.7722 323.83 54.884 325.056Z" fill="white"/>
<path d="M62.052 309.403C61.3463 309.36 60.0539 309.59 59.7116 308.518C59.4181 307.607 60.501 306.679 61.1088 305.905C62.8135 303.768 64.8884 303.164 67.2707 303.785C68.0532 303.989 68.1231 304.389 67.8925 305.232C67.1729 307.862 65.1399 309.411 62.052 309.403Z" fill="white"/>
<path d="M82.0679 253.064C81.3483 251.932 80.4051 251.03 79.3432 250.528C78.8821 250.315 78.6656 250.383 78.4699 250.954C77.5408 253.686 79.0009 258.418 81.2715 259.593C81.5719 259.746 81.8234 259.874 82.0469 259.967C81.9561 257.661 81.8513 255.329 82.0679 253.064Z" fill="white"/>
<path d="M146.733 170.433C150.596 171.71 153.796 173.225 156.339 174.97C158.875 176.724 160.866 178.264 162.298 179.609C163.731 180.954 164.785 181.626 165.442 181.626C166.658 181.762 167.818 183.107 168.921 185.661C169.585 191.04 170.165 195.815 170.661 199.986C171.157 204.156 171.625 208.531 172.065 213.094C172.505 217.664 172.897 221.971 173.225 226.006C173.553 230.04 173.721 233.198 173.721 235.488C173.721 239.25 173.525 242.28 173.141 244.561C172.75 246.851 171.625 248.562 169.746 249.702C167.866 250.843 164.778 251.617 160.475 252.026C157.275 252.29 154.956 252.23 153.524 251.822C152.084 251.422 151.036 250.681 150.38 249.6C149.388 250.545 147.76 251.183 145.496 251.515C143.233 251.856 140.117 252.017 136.142 252.017C131.063 251.081 126.675 249.83 122.979 248.289C119.277 246.749 115.581 244.391 111.885 241.233C108.182 238.075 105.122 233.837 102.698 228.525C100.267 223.214 99.1073 216.592 99.219 208.659C99.3308 200.726 100.546 194.232 102.859 189.193C105.178 184.154 107.994 180.213 111.305 177.396C114.617 174.57 117.9 172.553 121.156 171.344C124.412 170.136 128.247 169.259 132.662 168.723C138.175 168.595 142.862 169.165 146.733 170.433ZM145.077 189.499C144.525 188.563 143.338 187.516 141.514 186.376C139.691 185.235 137.979 184.256 136.379 183.448C134.779 182.639 133.976 182.375 133.976 182.639C133.976 182.775 133.396 183.882 132.236 185.967C131.077 188.052 129.917 191.083 128.757 195.049C127.597 199.015 126.962 203.756 126.85 209.272C126.738 214.788 127.346 219.563 128.673 223.597C130.001 227.632 131.628 230.73 133.557 232.875C135.485 235.028 137.28 236.101 138.936 236.101C140.152 236.101 141.312 235.394 142.415 233.981C143.519 232.568 144.455 230.951 145.231 229.138C145.999 227.325 146.831 225.07 147.718 222.38L145.077 189.499Z" fill="#86BF88"/>
<path d="M195.574 130.599C198.445 130.735 200.814 131.101 202.693 131.706C204.565 132.31 206.221 133.357 207.66 134.829C209.093 136.31 209.812 138.396 209.812 141.085C209.812 142.839 209.868 146.397 209.98 151.776C210.085 157.155 210.196 163.514 210.308 170.842C210.42 178.171 210.56 185.703 210.72 193.432C210.888 201.169 211.021 208.395 211.133 215.12C211.244 221.844 211.349 229.377 211.461 237.709C211.461 240.535 211.133 242.919 210.469 244.868C209.805 246.817 208.534 248.502 206.661 249.915C204.782 251.328 202.022 252.035 198.383 252.035C193.527 252.035 189.992 251.26 187.784 249.711C185.577 248.17 184.221 246.417 183.725 244.468C183.229 242.519 183.034 241.003 183.145 239.931C183.257 239.395 183.313 237.046 183.313 232.875C183.313 228.713 183.285 223.461 183.229 217.137C183.173 210.821 183.09 204.029 182.978 196.76C182.866 189.5 182.754 182.333 182.649 175.277C182.538 168.221 182.398 161.896 182.237 156.313C182.07 150.738 181.93 146.601 181.825 143.903C181.601 140.141 182.349 137.315 184.061 135.434C185.772 133.553 187.756 132.31 190.02 131.706C192.29 131.101 194.135 130.735 195.574 130.599Z" fill="#86BF88"/>
<path d="M227.278 165.795C225.343 165.054 223.61 163.675 222.059 161.658C220.515 159.641 219.684 156.611 219.579 152.576C219.467 148.542 219.963 145.554 221.067 143.596C222.171 141.647 223.554 140.302 225.21 139.562C226.866 138.821 228.466 138.421 230.01 138.353C231.554 138.285 232.658 138.183 233.321 138.047C233.985 137.911 235.089 138.013 236.633 138.353C238.177 138.694 239.777 139.434 241.432 140.575C243.088 141.715 244.464 143.401 245.568 145.614C246.672 147.835 247.112 150.755 246.896 154.389C246.672 157.888 245.925 160.543 244.66 162.356C243.388 164.169 241.956 165.386 240.356 165.991C238.757 166.595 236.8 166.969 234.481 167.097C231.61 166.978 229.206 166.535 227.278 165.795ZM224.714 193.534C223.722 190.708 223.114 189.032 222.891 188.495C222.779 188.095 222.583 187.253 222.311 185.976C222.031 184.699 222.311 183.32 223.142 181.839C223.967 180.358 225.818 179.286 228.689 178.613C231.672 177.941 234.76 177.737 237.96 178.009C241.16 178.281 244.003 179.456 246.49 181.541C248.971 183.627 250.487 187.227 251.045 192.334C251.486 196.105 251.926 200.573 252.373 205.748C252.813 210.923 253.225 215.971 253.616 220.874C254.001 225.785 254.469 231.53 255.021 238.118C255.244 240.944 255.132 243.259 254.692 245.081C254.252 246.894 253.176 248.511 251.465 249.924C249.753 251.337 247.021 252.043 243.27 252.043C239.518 252.043 236.647 251.405 234.663 250.128C232.678 248.851 231.267 247.404 230.443 245.787C229.618 244.17 229.039 242.093 228.703 239.531L224.714 193.534Z" fill="#86BF88"/>
<path d="M271.075 280.88L265.612 198.982C264.62 196.828 263.9 194.913 263.46 193.236C263.02 191.559 262.908 189.908 263.132 188.291C263.348 186.674 264.18 185.337 265.612 184.256C266.827 183.448 269.063 181.873 272.319 179.515C275.574 177.166 279.577 174.843 284.321 172.553C289.065 170.263 294.172 168.655 299.635 167.71C305.098 166.774 310.617 167.14 316.193 168.816C321.768 170.502 327.035 174.23 332.003 180.009C336.858 185.661 339.89 191.908 341.113 198.769C342.328 205.629 342.244 212.353 340.861 218.941C339.478 225.529 337.221 231.317 334.07 236.288C330.927 241.267 327.364 244.757 323.388 246.774C317.981 249.464 313.342 251.115 309.479 251.72C305.615 252.324 301.584 252.426 297.392 252.026L299.048 282.489C299.048 285.179 298.741 287.4 298.14 289.145C297.532 290.89 296.289 292.405 294.416 293.682C292.537 294.959 289.777 295.597 286.137 295.597C281.282 295.461 277.775 294.516 275.623 292.771C273.471 291.018 272.172 289.009 271.732 286.719C271.292 284.447 271.075 282.498 271.075 280.88ZM295.911 233.683C299.663 233.683 302.723 233.283 305.098 232.475C307.474 231.666 309.542 230.126 311.309 227.836C313.077 225.546 313.845 222.125 313.629 217.545C313.405 211.494 312.853 206.08 311.973 201.305C311.086 196.53 309.765 192.87 307.998 190.308C306.23 187.755 303.799 186.81 300.711 187.482C297.616 188.155 295.492 188.657 294.339 188.997C293.18 189.338 292.488 189.636 292.271 189.908L295.911 233.683Z" fill="#86BF88"/>
<path d="M396.409 170.433C400.273 171.71 403.473 173.225 406.016 174.97C408.552 176.724 410.543 178.264 411.975 179.609C413.407 180.954 414.455 181.626 415.119 181.626C416.334 181.762 417.494 183.107 418.598 185.661C419.262 191.04 419.841 195.815 420.337 199.986C420.834 204.156 421.302 208.531 421.742 213.094C422.182 217.664 422.566 221.971 422.901 226.006C423.23 230.04 423.397 233.198 423.397 235.488C423.397 239.25 423.202 242.28 422.818 244.561C422.426 246.851 421.302 248.562 419.422 249.702C417.543 250.843 414.455 251.617 410.151 252.026C406.952 252.29 404.632 252.23 403.2 251.822C401.768 251.422 400.72 250.681 400.056 249.6C399.064 250.545 397.436 251.183 395.173 251.515C392.909 251.856 389.793 252.017 385.818 252.017C380.739 251.081 376.352 249.83 372.656 248.289C368.953 246.749 365.257 244.391 361.562 241.233C357.866 238.075 354.799 233.837 352.375 228.525C349.943 223.214 348.784 216.592 348.896 208.659C349.007 200.726 350.223 194.232 352.535 189.193C354.855 184.154 357.67 180.213 360.982 177.396C364.293 174.579 367.577 172.553 370.833 171.344C374.088 170.136 377.924 169.259 382.339 168.723C387.858 168.595 392.546 169.165 396.409 170.433ZM394.754 189.499C394.202 188.563 393.014 187.516 391.198 186.376C389.374 185.235 387.663 184.256 386.063 183.448C384.463 182.639 383.659 182.375 383.659 182.639C383.659 182.775 383.08 183.882 381.92 185.967C380.76 188.052 379.6 191.083 378.441 195.049C377.281 199.015 376.645 203.756 376.533 209.272C376.422 214.788 377.029 219.563 378.357 223.597C379.684 227.632 381.312 230.73 383.24 232.875C385.168 235.028 386.964 236.101 388.62 236.101C389.835 236.101 390.995 235.394 392.099 233.981C393.203 232.568 394.139 230.951 394.914 229.138C395.683 227.325 396.514 225.07 397.394 222.38L394.754 189.499Z" fill="#86BF88"/>
<path d="M448.15 140.788C448.646 139.247 449.833 137.732 451.713 136.251C453.585 134.77 456.68 133.97 460.984 133.834C464.847 133.697 467.774 134.268 469.758 135.544C471.743 136.821 473.454 138.668 474.893 141.094C477.318 148.091 479.581 154.44 481.684 160.16C483.78 165.88 486.099 172.23 488.635 179.226C491.171 186.223 493.742 193.313 496.334 200.505C498.926 207.698 501.357 214.422 503.621 220.678C505.885 226.934 507.785 232.177 509.336 236.416C510.88 240.655 511.872 243.31 512.319 244.383C513.311 246.936 513.863 248.758 513.975 249.83C514.087 250.911 514.059 251.618 513.891 251.95C513.723 252.281 513.639 252.52 513.639 252.656C512.864 254.537 511.348 256.188 509.084 257.601C506.821 259.014 504.089 259.789 500.889 259.925C496.474 260.061 493.274 259.491 491.283 258.214C489.299 256.937 488 255.661 487.392 254.384C486.784 253.107 486.533 252.537 486.644 252.673C484.325 246.485 482.397 241.208 480.853 236.841C479.309 232.475 477.87 228.474 476.549 224.84C473.566 224.84 471.086 224.84 469.095 224.84C467.111 224.84 464.624 224.84 461.64 224.84C461.2 226.721 460.753 229.045 460.313 231.803C459.873 234.56 459.321 238.093 458.657 242.391C457.665 245.617 456.114 248.043 454.018 249.651C451.922 251.269 448.443 252.069 443.588 252.069C439.948 252.069 437.216 251.567 435.393 250.554C433.569 249.541 432.354 248.366 431.753 247.021C431.145 245.676 430.845 243.991 430.845 241.982C431.061 240.638 431.529 237.846 432.249 233.607C432.969 229.368 433.849 224.261 434.897 218.278C435.945 212.294 437.049 205.944 438.208 199.211C439.368 192.487 440.5 185.831 441.604 179.243C442.707 172.655 443.7 166.637 444.587 161.19C445.467 155.743 446.459 149.725 447.57 143.137C447.465 143.103 447.654 142.328 448.15 140.788ZM464.959 174.979C464.847 175.515 464.735 176.596 464.631 178.205L463.967 183.856C463.743 186.955 463.471 190.249 463.142 193.738C462.814 197.237 462.479 200.531 462.15 203.621C461.927 205.238 461.759 206.242 461.654 206.642H463.806C465.133 206.642 466.566 206.574 468.11 206.438C469.654 206.302 471.03 206.234 472.246 206.234C471.805 205.161 471.442 203.782 471.17 202.097C470.89 200.42 470.59 198.837 470.261 197.356C469.598 194.266 468.857 191.04 468.026 187.67C467.201 184.308 466.454 181.15 465.79 178.188C465.455 176.588 465.175 175.515 464.959 174.979Z" fill="#86BF88"/>
<path d="M526.718 280.88L521.255 198.982C520.262 196.828 519.543 194.913 519.103 193.236C518.663 191.559 518.551 189.908 518.774 188.291C518.991 186.674 519.822 185.337 521.255 184.256C522.47 183.448 524.706 181.873 527.961 179.515C531.217 177.166 535.22 174.843 539.964 172.553C544.708 170.263 549.815 168.655 555.278 167.71C560.741 166.774 566.26 167.14 571.835 168.816C577.41 170.502 582.678 174.23 587.645 180.009C592.501 185.661 595.533 191.908 596.755 198.769C597.971 205.629 597.887 212.353 596.504 218.941C595.121 225.529 592.864 231.317 589.713 236.288C586.569 241.267 583.006 244.757 579.031 246.774C573.624 249.464 568.985 251.115 565.122 251.72C561.258 252.324 557.227 252.426 553.035 252.026L554.691 282.489C554.691 285.179 554.384 287.4 553.783 289.145C553.175 290.89 551.931 292.405 550.059 293.682C548.18 294.959 545.42 295.597 541.78 295.597C536.925 295.461 533.418 294.516 531.266 292.771C529.114 291.018 527.815 289.009 527.375 286.719C526.934 284.447 526.718 282.498 526.718 280.88ZM551.554 233.683C555.306 233.683 558.366 233.283 560.741 232.475C563.116 231.666 565.184 230.126 566.952 227.836C568.719 225.546 569.488 222.125 569.271 217.545C569.048 211.494 568.496 206.08 567.616 201.305C566.728 196.53 565.408 192.87 563.64 190.308C561.873 187.755 559.442 186.81 556.354 187.482C553.259 188.155 551.135 188.657 549.982 188.997C548.822 189.338 548.131 189.636 547.914 189.908L551.554 233.683Z" fill="#86BF88"/>
<path d="M611.49 280.88L606.026 198.982C605.034 196.828 604.315 194.913 603.874 193.236C603.434 191.559 603.323 189.908 603.546 188.291C603.763 186.674 604.594 185.337 606.026 184.256C607.242 183.448 609.478 181.873 612.733 179.515C615.989 177.166 619.992 174.843 624.736 172.553C629.479 170.263 634.586 168.655 640.05 167.71C645.513 166.774 651.032 167.14 656.607 168.816C662.182 170.502 667.45 174.23 672.417 180.009C677.273 185.661 680.305 191.908 681.527 198.769C682.743 205.629 682.659 212.353 681.276 218.941C679.892 225.529 677.636 231.317 674.485 236.288C671.341 241.267 667.778 244.757 663.803 246.774C658.396 249.464 653.757 251.115 649.893 251.72C646.03 252.324 641.999 252.426 637.807 252.026L639.463 282.489C639.463 285.179 639.155 287.4 638.554 289.145C637.947 290.89 636.703 292.405 634.831 293.682C632.951 294.959 630.192 295.597 626.552 295.597C621.697 295.461 618.189 294.516 616.038 292.771C613.886 291.018 612.586 289.009 612.146 286.719C611.706 284.447 611.49 282.498 611.49 280.88ZM636.326 233.683C640.077 233.683 643.137 233.283 645.513 232.475C647.888 231.666 649.956 230.126 651.724 227.836C653.491 225.546 654.26 222.125 654.043 217.545C653.82 211.494 653.268 206.08 652.387 201.305C651.5 196.53 650.18 192.87 648.412 190.308C646.645 187.755 644.213 186.81 641.125 187.482C638.03 188.155 635.907 188.657 634.754 188.997C633.594 189.338 632.903 189.636 632.686 189.908L636.326 233.683Z" fill="#86BF88"/>
</svg>
