<svg xmlns="http://www.w3.org/2000/svg" xmlns:xlink="http://www.w3.org/1999/xlink" id="TalipaApp" x="0" y="0" version="1.1" viewBox="0 0 620.57 612" style="enable-background:new 0 0 620.57 612" xml:space="preserve"><style type="text/css">.st0{fill:#86bf88}.st1{fill:#fff}</style><g><path d="M244.66,136.99c-0.45-11.08,2.88-20.06,9.98-26.95c7.09-6.87,22.84-10.98,47.24-12.31 c16.41-0.88,28.38,1.11,35.93,5.99c7.54,4.89,13.31,12.42,17.3,22.62l3.99,59.22c14.64,0,26.72,0.78,36.26,2.33 c9.53,1.56,17.96,4.55,25.28,8.98c7.32,4.44,10.98,11.31,10.98,20.63s-3.55,16.2-10.65,20.63c-7.1,4.44-15.3,7.43-24.62,8.98 c-9.31,1.56-21.29,2.33-35.93,2.33c0.44,19.96,0.67,37.82,0.67,53.56c0,15.75,0.22,32.5,0.67,50.23 c0.44,17.75,0.67,34.71,0.67,50.9c0,16.2,0.1,29.72,0.33,40.59c0.22,10.87,0.33,17.2,0.33,18.96c0,3.11-1,7.55-2.99,13.31 c-2,5.77-7.1,11.09-15.3,15.97c-8.21,4.89-21.62,7.32-40.25,7.32c-13.75,0-24.4-1.66-31.94-4.99c-7.55-3.33-12.97-7.09-16.3-11.31 c-3.33-4.21-5.44-9.65-6.32-16.3L244.66,136.99z" class="st0"/></g><g id="Tree"><path d="M357.48,428.31c1.55-0.64,3.07-1.33,4.56-2.06c0-0.59,0-1.18,0.01-1.77c-0.33-0.57-0.53-1.22-0.53-1.95 c0-0.33-0.01-0.66-0.01-0.99c-0.15,0.07-0.3,0.13-0.46,0.2c0.13-0.93,0.29-1.83,0.44-2.74c-0.04-2.78-0.1-5.56-0.16-8.35 c-1.66,3.73-3.08,7.55-4.41,11.41c-0.32,0.93-0.77,1.52-1.8,1.86c-12.19,4-24.84,5.51-37.65,7.04c1.94-1.68,3.8-3.24,5.61-4.87 c1.82-1.65,3.44-3.49,4.92-5.45c1.49-1.97,2.66-4.13,3.65-6.38c0.95-2.16,1.72-4.4,2.56-6.61c-0.13-0.05-0.26-0.11-0.38-0.16 c-0.24,0.35-0.48,0.7-0.71,1.06c-4.72,7.35-10.24,13.99-17.41,19.1c-3.27,2.33-6.32,5.02-10.29,6.22 c-10.04,3.02-19.58,7.01-27.52,14.22c-0.23-0.4-0.08-0.76-0.02-1.11c1.96-10.72,4.94-21.23,6.76-31.98 c1.96-3.32,4.62-5.97,7.77-8.16c0.16-0.11,0.42-0.08,0.64-0.12c3.16-0.63,6.37-0.87,9.56-1.24c2.26-0.27,4.58-0.22,7.15-1.29 c-6.95,0.02-10.48-0.5-12.57-1.84c0.26-0.22,0.49-0.45,0.74-0.65c9.7-7.66,20.25-13.99,31.07-19.92c3.07-1.68,5.95-2.34,9.24-1.23 c0.46,0.16,0.96,0.2,1.44,0.27c2.43,0.33,4.85,0.75,7.31,0.65c-3.31-1.17-6.63-2.24-10.04-3.72c6.88-4.01,13.97-7.3,18.86-13.58 c-1.27,0.91-2.48,1.91-3.81,2.73c-7.05,4.35-14.7,7.37-22.47,10.08c-5.86,2.05-11.78,3.92-17.67,5.87 c-1.44,0.48-2.21,0.01-2.3-1.54c-0.11-1.88,0.28-3.71,0.92-5.45c1.94-5.25,2.17-10.63,1.36-16.11c-0.12-0.83-0.06-1.51,0.51-2.26 c4.51-5.9,2.59-13.21-4.21-16.3c-0.48-0.22-0.83-0.35-1.28,0.15c-4.6,5.21-5.56,12.06,1.83,15.99c2.57,1.37,3.09,2.86,2.79,5.27 c-0.06,0.49-0.1,0.98-0.18,1.46c-1.08,6.78-3.83,12.91-7.24,18.8c-1.47,2.54-3.29,4.71-5.75,6.37c-2.81,1.9-5.75,3.55-8.76,5.09 c-0.77,0.39-1.56,0.72-1.95,1.62c0.2-4.06,0.6-8.05,0.78-12.05c0.53-11.83-0.14-23.53-3.26-35.01c-0.18-0.66-0.1-1.26,0.05-1.92 c0.95-4.13,2.8-7.89,4.59-11.68c0.48-1.01,1.06-1.29,2.14-1.22c6.24,0.38,12.42,0,18.52-1.47c5.87-1.42,11.5-3.41,16.33-7.18 c1.17-0.91,2.28-1.92,2.95-3.7c-5.62,3.33-11.3,5.62-17.39,6.77c-6.15,1.17-12.31,1.4-18.69,0c5.87-9.6,12.8-18.13,20.59-26.03 c-3.53,1.54-6.54,3.81-9.44,6.27c-2.88,2.44-5.52,5.15-8.44,8.25c0.48-5.54,0.15-10.48-1.13-15.35c-0.11,0.43-0.11,0.86-0.11,1.29 c0.02,4.53-0.25,9.05-0.98,13.53c-0.27,1.64-0.34,3.37-1.45,4.78c-2.06,2.61-4.15,5.2-6.14,7.86c-1.81,2.42-3.51,4.93-5.37,7.56 c-2.07-5.16-5.31-9.32-8.81-13.3c-0.51-0.58-0.66-1.16-0.58-1.93c0.38-3.63,0.78-7.26,1-10.9c0.43-6.88,0.29-13.73-1.73-20.42 c-1.27-4.21-1.73-8.54-1.3-12.94c0.12-1.19,0.33-2.37,0.5-3.55c-0.38,0.15-0.54,0.35-0.67,0.58c-3.12,5.4-3.05,11.28-2.39,17.18 c0.39,3.47,1.03,6.9,0.78,10.41c-0.25,3.49-1.31,6.72-3.06,9.74c-0.3,0.52-0.56,1.28-1.44,0.51c-4.18-3.7-9.12-6.14-14.19-8.32 c-0.72-0.31-1.36-0.68-1.96-1.1c0.02,3.76,0.15,7.56,0.22,11.32c0.04,2.03,0.32,3.97,0.2,5.88c10.93,6.2,17.84,15.93,21.21,28.68 c1.6,6.06,1.49,12.32,1.27,18.54c-0.3,8.23-1.46,16.34-3.14,25c-0.32-0.59-0.42-0.84-0.58-1.05c-2.36-3.18-5.08-6.07-8.34-8.25 c-3.49-2.33-5.44-5.2-6.34-9.39c-0.59-2.76-1.43-5.43-2.51-7.99c0.08,3.26,0.06,6.53,0.01,9.79c1.85,0.4,3.5,1.91,3.49,4.07 c-0.02,3.77-0.2,7.54-0.66,11.26c4.86,4.71,8.55,10.15,9.81,17.01c0.27,1.48,0.68,2.96,0.16,4.52c-1.27,3.83-2.42,7.69-3.73,11.51 c-0.37,1.07-0.63,2.24-1.42,3.29c-2.04-2.76-4.66-4.53-7.55-5.89c0.15,1.66,0.08,3.35-0.09,5.06c0.17,0.49,0.25,1.06,0.17,1.72 c-0.07,0.67-0.15,1.34-0.23,2.01c0.17,4.27,1.01,8.58,0.5,12.81c-0.03,0.28-0.09,0.55-0.17,0.8c0.04,0.63,0.09,1.27,0.12,1.9 c0.06,0.63,0.09,1.26,0.09,1.89c0.02,0.46,0.03,0.92,0.03,1.38c0.35,1.8,0.58,3.62,0.7,5.47c0.15,2.44,0.58,4.95-0.11,7.32 c-0.16,0.53-0.29,1.07-0.44,1.6c0.06,0.68,0.13,1.37,0.23,2.05c0.25,1.66,0.04,3.25-0.12,4.83c0.03,0.11,0.06,0.22,0.08,0.34 c0.02,0.07,0.05,0.13,0.07,0.21c0.51,2.3,1.57,4.12,1.67,6.52c0.12,0.32,0.27,0.63,0.4,0.95c1.18,2.28,2.72,4.44,4.04,6.03 c2.5,3.02,5.56,5.51,8.99,7.4c3.63,2,7.22,3.85,11.13,5.15c-0.16-10.92,1.78-21.31,7.86-30.66c3.3-5.07,7.48-9.23,13.13-11.68 c3.18-1.38,6.47-1.89,9.9-1.04c0.72,0.18,1.23,0.39,1.17,1.39c-0.23,3.83,0.72,7.45,2.22,10.94c0.43,1,0.79,2.04,1.69,2.8 c-0.9-2.57-0.66-5.19-0.53-7.79c0.08-1.68,0.49-3.36,0.49-5.03c-0.01-1.59,0.54-1.57,1.72-1.03c5.03,2.29,9.36,5.55,13.3,9.38 c2.06,2,3.98,4.15,5.8,6.38c-1.59-5.13-4.7-9.19-8.71-12.6c-5.21-4.43-11.32-7.33-17.47-10.16c-0.96-0.44-2.51-0.71-2.49-1.77 c0.03-1.06,1.57-1.33,2.57-1.68c6.25-2.16,12.7-3.49,19.18-4.73c0.73-0.14,1.28,0.14,1.84,0.47c4.35,2.65,8.98,4.68,13.77,6.36 c6.56,2.29,13.23,3.74,20.06,4.02c0-0.78,0.01-1.57,0.01-2.36c-9.91-1.8-19.05-6.37-28.31-11.09c1.34-0.31,2.28-0.5,3.2-0.74 C343.96,433.85,350.73,431.07,357.48,428.31z" class="st1"/><path d="M262.08,247.71c1.4,0.71,2.98,0.99,4.32,1.86c5.05,3.28,6.39,8.3,6.45,13.87c0.02,2.41-0.45,4.78-1.34,7.03 c-0.71,1.78-1.38,2-2.86,0.88c-5.32-4.04-8.97-9.01-8.8-16.08c0.07-2.66,0.93-5.12,1.9-7.56 C261.86,247.71,261.97,247.71,262.08,247.71z" class="st1"/><path d="M324.77,303.7c-2.74,0.12-4.94-0.76-7.07-1.9c-0.45-0.24-0.76-0.51-0.85-1.08 c-0.64-4.41,1.93-10.16,5.81-12.35c4.4-2.48,8.96-2.16,13.52-0.33c0.59,0.24,0.83,0.63,0.8,1.26c-0.22,4.24-3.1,10.97-7.91,13.35 C327.64,303.35,326.15,303.82,324.77,303.7z" class="st1"/><path d="M360.92,346.84c-0.51,0.98-0.93,2.04-1.26,3.18c-1.05,3.65-0.69,7.44-1.57,11.45c0.92-0.9,1.94-1.24,2.97-1.43 C360.99,355.64,360.99,351.24,360.92,346.84z" class="st1"/><path d="M360.76,378.17c0.01-0.83,0.05-1.71,0.14-2.59c-1.56,0.71-3.06,1.57-4.55,2.48c-1.47,0.9-2.72,2.35-4.84,2.04 c1.41,0.32,2.26,1.3,3.2,2.15c0.96,0.88,1.92,1.79,2.99,2.53c1.08,0.75,2.19,1.43,3.34,1.95 C360.9,383.88,360.73,381.01,360.76,378.17z" class="st1"/><path d="M334.5,472.06c1.91,1.97,4.46,1.3,6.64,1.88c3.07,0.82,6.06,1.67,8.39,4.05c2.25,2.3,2.73,5.09,2.54,8.13 c-0.05,0.74-0.53,0.89-1.07,0.99c-2.74,0.53-5.47,0.84-8.22,0.02c-2.78-0.82-4.78-2.53-5.88-5.22c-0.75-1.81-1.27-3.69-1.46-5.66 C335.3,474.84,335.58,473.34,334.5,472.06z" class="st1"/><path d="M344.97,359.87c0,3.19-0.94,6.34-2.74,9.22c-1.05,1.67-1.68,1.7-2.9,0.21c-3.59-4.38-5.59-9.21-4.11-14.97 c0.44-1.7,1.27-3.24,2.16-4.75c0.52-0.88,1.04-1.03,1.96-0.46C343.26,351.54,345.1,355.05,344.97,359.87z" class="st1"/><path d="M295.04,299.94c-1.19-0.94-2.55-1.4-3.79-2.06c-5.46-2.91-8.2-8.58-7.11-14.66c0.19-1.09,0.43-1.55,1.76-1.21 c6.7,1.74,9.72,5.84,9.35,12.74C295.16,296.47,294.38,298.16,295.04,299.94z" class="st1"/><path d="M334.07,337.16c-5.79,0.31-9.73-1.63-12.71-5.66c-0.74-0.99-0.58-1.51,0.4-2.18c2.61-1.79,5.35-2.51,8.48-1.7 c3.74,0.97,6.69,3.05,8.98,6.1c1.11,1.48,0.93,1.94-0.81,2.51C336.75,336.77,335.05,337.14,334.07,337.16z" class="st1"/><path d="M314,310.51c2.68-0.11,5.14,1.29,7.58,2.76c0.43,0.26,0.77,0.58,0.33,1.17c-2.05,2.72-4.14,5.35-7.79,6.03 c-2.35,0.43-4.39-0.38-6.38-1.42c-0.67-0.35-1.31-0.79-1.92-1.23c-2.09-1.52-2.08-1.53-0.29-3.61 C307.73,311.65,310.37,310.45,314,310.51z" class="st1"/><path d="M347.2,310.79c0.04,5.82-4.35,9.49-9.58,10.51c-1.04,0.2-2.13,0.55-3.22,0.09c-0.47-0.2-0.9-0.33-0.77-1.02 c0.75-4,2.08-7.68,5.51-10.21c1.86-1.37,3.99-1.95,6.29-1.96C347.15,308.2,347.22,308.29,347.2,310.79z" class="st1"/><path d="M361.88,457.11c0-1.36,0.03-2.71,0.09-4.05c0-0.39,0-0.78,0.01-1.16c-1.49-0.21-3-0.34-4.35-1.13 c-0.32-0.19-0.5-0.9-1.02-0.41c-0.34,0.33-0.26,0.87-0.07,1.23c0.68,1.36,1.34,2.75,2.19,4c0.91,1.36,1.95,2.53,3.15,3.42 C361.87,458.39,361.88,457.75,361.88,457.11z" class="st1"/><path d="M317.64,406.83c-2.36,0.06-4.46-0.76-6.51-1.86c-0.83-0.45-0.74-0.81-0.29-1.49c3.71-5.6,8.46-6.32,14.25-5.47 c0.9,0.13,0.71,0.83,0.68,1.4C325.52,404.16,322.53,406.88,317.64,406.83z" class="st1"/><path d="M265.96,285.04c-0.01,2.86-0.1,2.91-2.82,2.23c-5.48-1.36-7.77-5.51-9.18-10.44c-0.25-0.87,0.38-1,0.93-1.23 c3.95-1.69,7.95-0.17,9.83,3.77C265.58,281.15,266.05,283.04,265.96,285.04z" class="st1"/><path d="M345.17,397.89c-0.02,4.01-2.2,6.55-6.22,7.81c-2.46,0.77-2.47,0.77-3.2-1.79c-1.5-5.28,1.06-9.67,6.35-10.98 c0.9-0.22,1.42-0.02,1.82,0.83C344.64,395.25,345.11,396.79,345.17,397.89z" class="st1"/><path d="M247.98,339.89c0.06,0.54,0.11,1.08,0.1,1.63c0,0.19,0,0.37-0.01,0.56c0,0.08,0.01,0.16,0.01,0.24 c0.8,0.47,1.43,1.27,1.68,2.47c0.41,1.96,0.64,3.9,0.76,5.85c0.28-1.03,0.43-2.07,0.41-3.08 C250.99,344.29,250.11,341.75,247.98,339.89z" class="st1"/><path d="M277.69,274.6c-0.92-0.1-1.84-0.33-2.75-0.27c-1.54,0.1-1.61-0.64-1.38-1.85c1.07-5.39,6.44-8.9,11.78-7.67 c0.53,0.12,0.94,0.28,0.84,0.94c-0.36,2.51-1,4.91-2.82,6.8C281.82,274.16,279.83,274.58,277.69,274.6z" class="st1"/><path d="M322.27,479.19c0.07,2.3-0.27,2.58-1.95,1.92c-3.7-1.47-6.21-3.94-6.68-8.09c-0.21-1.84,0.17-2.25,2.03-1.96 c2.11,0.33,3.72,1.45,4.87,3.25C321.58,475.94,322.12,477.74,322.27,479.19z" class="st1"/><path d="M332.54,460.79c-1.01-0.05-2.86,0.22-3.35-1.04c-0.42-1.07,1.13-2.16,2-3.07c2.44-2.51,5.41-3.22,8.82-2.49 c1.12,0.24,1.22,0.71,0.89,1.7C339.87,458.99,336.95,460.8,332.54,460.79z" class="st1"/><path d="M361.18,394.6c-1.03-1.33-2.38-2.39-3.9-2.98c-0.66-0.25-0.97-0.17-1.25,0.5c-1.33,3.21,0.76,8.77,4.01,10.15 c0.43,0.18,0.79,0.33,1.11,0.44C361.02,400,360.87,397.26,361.18,394.6z" class="st1"/></g></svg>