<svg width="55" height="116" viewBox="0 0 55 116" fill="none" xmlns="http://www.w3.org/2000/svg">
<path d="M0.0116238 11.3659C-0.118556 8.17462 0.844779 5.58822 2.89874 3.60377C4.9498 1.62508 9.50611 0.44133 16.5648 0.0582653C21.312 -0.195191 24.7748 0.377965 26.959 1.78349C29.1402 3.1919 30.8094 5.36068 31.9637 8.29847L33.1179 25.3549C37.3531 25.3549 40.8477 25.5796 43.6076 26.026C46.3645 26.4753 48.8032 27.3365 50.9208 28.6124C53.0384 29.8912 54.0972 31.8699 54.0972 34.5542C54.0972 37.2385 53.0702 39.2201 51.0163 40.496C48.9623 41.7748 46.5902 42.636 43.894 43.0824C41.2007 43.5317 37.735 43.7535 33.4998 43.7535C33.6271 49.5023 33.6936 54.6464 33.6936 59.1798C33.6936 63.716 33.7573 68.5403 33.8874 73.6469C34.0147 78.7592 34.0813 83.644 34.0813 88.307C34.0813 92.9729 34.1102 96.8669 34.1767 99.9977C34.2404 103.128 34.2722 104.952 34.2722 105.459C34.2722 106.354 33.9829 107.633 33.4072 109.292C32.8286 110.954 31.3533 112.486 28.9811 113.892C26.606 115.3 22.7266 116 17.3372 116C13.3594 116 10.2785 115.522 8.09727 114.563C5.91313 113.604 4.34518 112.521 3.38185 111.305C2.41851 110.093 1.80811 108.526 1.55354 106.611L0.0116238 11.3659Z" fill="#86BF88"/>
<path d="M32.6483 95.2686C33.0967 95.0843 33.5365 94.8856 33.9675 94.6753C33.9675 94.5054 33.9675 94.3355 33.9704 94.1655C33.8749 94.0014 33.8171 93.8142 33.8171 93.6039C33.8171 93.5089 33.8142 93.4138 33.8142 93.3188C33.7708 93.3389 33.7274 93.3562 33.6811 93.3764C33.7187 93.1085 33.765 92.8493 33.8084 92.5872C33.7968 91.7865 33.7795 90.9858 33.7621 90.1822C33.2819 91.2565 32.8711 92.3568 32.4863 93.4685C32.3938 93.7364 32.2636 93.9063 31.9656 94.0042C28.4392 95.1563 24.7797 95.5912 21.0739 96.0319C21.6351 95.548 22.1732 95.0987 22.6968 94.6292C23.2233 94.154 23.6919 93.6241 24.1201 93.0595C24.5511 92.4922 24.8896 91.87 25.176 91.222C25.4508 90.5999 25.6736 89.9547 25.9166 89.3182C25.879 89.3038 25.8414 89.2865 25.8066 89.2721C25.7372 89.3729 25.6678 89.4737 25.6013 89.5774C24.2358 91.6943 22.6389 93.6068 20.5647 95.0786C19.6187 95.7496 18.7364 96.5244 17.5879 96.87C14.6835 97.7398 11.9236 98.889 9.62668 100.966C9.56014 100.85 9.60353 100.747 9.62089 100.646C10.1879 97.5584 11.05 94.5313 11.5765 91.4351C12.1435 90.4789 12.913 89.7157 13.8243 89.0849C13.8706 89.0532 13.9458 89.0619 14.0094 89.0503C14.9236 88.8689 15.8522 88.7998 16.775 88.6932C17.4288 88.6154 18.1 88.6298 18.8434 88.3216C16.8329 88.3274 15.8117 88.1776 15.2071 87.7917C15.2823 87.7283 15.3488 87.6621 15.4211 87.6045C18.2273 85.3983 21.2793 83.5751 24.4094 81.8672C25.2975 81.3833 26.1307 81.1932 27.0824 81.5129C27.2155 81.559 27.3601 81.5705 27.499 81.5907C28.202 81.6857 28.902 81.8067 29.6137 81.7779C28.6561 81.4409 27.6957 81.1327 26.7092 80.7064C28.6995 79.5515 30.7506 78.6039 32.1652 76.7952C31.7978 77.0573 31.4478 77.3453 31.063 77.5814C29.0235 78.8343 26.8105 79.7041 24.5627 80.4847C22.8675 81.0751 21.1549 81.6137 19.451 82.1753C19.0344 82.3136 18.8116 82.1782 18.7856 81.7318C18.7538 81.1903 18.8666 80.6632 19.0517 80.1621C19.613 78.65 19.6795 77.1005 19.4452 75.5221C19.4104 75.2831 19.4278 75.0872 19.5927 74.8712C20.8974 73.1719 20.342 71.0665 18.3748 70.1765C18.2359 70.1131 18.1347 70.0757 18.0045 70.2197C16.6738 71.7203 16.3961 73.6932 18.5339 74.8251C19.2774 75.2197 19.4278 75.6488 19.341 76.343C19.3237 76.4841 19.3121 76.6252 19.2889 76.7635C18.9765 78.7162 18.181 80.4818 17.1945 82.1782C16.7692 82.9098 16.2427 83.5348 15.5311 84.0129C14.7182 84.5601 13.8677 85.0354 12.9969 85.4789C12.7741 85.5912 12.5456 85.6863 12.4328 85.9455C12.4906 84.7761 12.6064 83.627 12.6584 82.4749C12.8118 79.0676 12.6179 75.6978 11.7153 72.3914C11.6633 72.2013 11.6864 72.0285 11.7298 71.8384C12.0046 70.6488 12.5398 69.5659 13.0577 68.4743C13.1965 68.1834 13.3643 68.1028 13.6767 68.1229C15.4819 68.2324 17.2697 68.1229 19.0344 67.6995C20.7325 67.2906 22.3612 66.7174 23.7585 65.6316C24.0969 65.3695 24.4181 65.0786 24.6119 64.5659C22.9861 65.525 21.3429 66.1846 19.5811 66.5158C17.802 66.8528 16.02 66.919 14.1743 66.5158C15.8724 63.7508 17.8772 61.294 20.1308 59.0187C19.1096 59.4622 18.2388 60.116 17.3999 60.8245C16.5667 61.5273 15.803 62.3078 14.9583 63.2007C15.0971 61.6051 15.0017 60.1823 14.6314 58.7796C14.5996 58.9035 14.5996 59.0273 14.5996 59.1512C14.6054 60.4559 14.5272 61.7577 14.3161 63.048C14.238 63.5204 14.2177 64.0187 13.8966 64.4248C13.3007 65.1765 12.696 65.9225 12.1204 66.6886C11.5967 67.3856 11.1049 68.1085 10.5669 68.866C9.96804 67.3798 9.03074 66.1817 8.01823 65.0354C7.87069 64.8683 7.82729 64.7013 7.85044 64.4795C7.96037 63.434 8.07608 62.3885 8.13973 61.3401C8.26412 59.3585 8.22362 57.3856 7.63926 55.4588C7.27186 54.2462 7.13878 52.9991 7.26318 51.7318C7.29789 51.3891 7.35864 51.0492 7.40782 50.7094C7.29789 50.7526 7.25161 50.8102 7.214 50.8764C6.31142 52.4317 6.33167 54.1252 6.5226 55.8246C6.63542 56.824 6.82057 57.8119 6.74824 58.8228C6.67592 59.828 6.36928 60.7583 5.86302 61.6281C5.77623 61.7779 5.70102 61.9968 5.44644 61.775C4.23721 60.7093 2.80812 60.0066 1.34142 59.3787C1.13313 59.2894 0.947988 59.1828 0.774414 59.0619C0.7802 60.1448 0.817807 61.2393 0.838057 62.3222C0.849629 62.9069 0.93063 63.4657 0.895915 64.0158C4.05785 65.8015 6.05684 68.6039 7.03175 72.2762C7.49461 74.0215 7.46279 75.8245 7.39915 77.616C7.31236 79.9864 6.97678 82.3222 6.49078 84.8165C6.3982 84.6465 6.36928 84.5745 6.32299 84.514C5.64027 83.5981 4.8534 82.7658 3.91031 82.1379C2.90069 81.4668 2.33658 80.6402 2.07622 79.4334C1.90554 78.6385 1.66253 77.8695 1.3501 77.1321C1.37324 78.0711 1.36746 79.0129 1.35299 79.9518C1.88818 80.067 2.36551 80.502 2.36261 81.1241C2.35683 82.2099 2.30476 83.2957 2.17168 84.3672C3.57763 85.7237 4.64511 87.2905 5.00961 89.2663C5.08772 89.6926 5.20633 90.1189 5.0559 90.5682C4.6885 91.6713 4.35582 92.783 3.97685 93.8833C3.86981 94.1915 3.7946 94.5284 3.56606 94.8309C2.97591 94.0359 2.21797 93.5261 1.38192 93.1344C1.42532 93.6125 1.40506 94.0993 1.35589 94.5918C1.40506 94.7329 1.42821 94.8971 1.40507 95.0872C1.38482 95.2802 1.36167 95.4731 1.33853 95.6661C1.38771 96.8959 1.63071 98.1373 1.48317 99.3556C1.47449 99.4363 1.45714 99.514 1.43399 99.586C1.44557 99.7675 1.46003 99.9518 1.46871 100.133C1.48607 100.315 1.49474 100.496 1.49474 100.678C1.50053 100.81 1.50342 100.943 1.50342 101.075C1.60757 101.594 1.67121 102.118 1.70593 102.651C1.74932 103.353 1.87371 104.076 1.6741 104.759C1.62782 104.911 1.59021 105.067 1.54682 105.22C1.56417 105.416 1.58442 105.614 1.61335 105.81C1.68568 106.288 1.62493 106.746 1.57864 107.201C1.58732 107.233 1.596 107.265 1.60178 107.299C1.60757 107.319 1.61625 107.337 1.62203 107.36C1.76957 108.022 2.07622 108.546 2.10515 109.238C2.13986 109.33 2.18325 109.419 2.22086 109.511C2.56222 110.168 3.00773 110.79 3.38959 111.248C4.11282 112.118 4.99804 112.835 5.99031 113.379C7.04043 113.955 8.07898 114.488 9.2101 114.863C9.16381 111.717 9.72504 108.725 11.4839 106.032C12.4386 104.572 13.6478 103.373 15.2823 102.668C16.2022 102.27 17.154 102.123 18.1463 102.368C18.3545 102.42 18.5021 102.481 18.4847 102.769C18.4182 103.872 18.693 104.914 19.1269 105.92C19.2513 106.208 19.3555 106.507 19.6158 106.726C19.3555 105.986 19.4249 105.231 19.4625 104.482C19.4857 103.998 19.6043 103.515 19.6043 103.034C19.6014 102.576 19.7605 102.581 20.1019 102.737C21.557 103.397 22.8096 104.335 23.9494 105.439C24.5453 106.015 25.1008 106.634 25.6273 107.276C25.1673 105.799 24.2676 104.629 23.1076 103.647C21.6004 102.371 19.8328 101.536 18.0537 100.721C17.776 100.594 17.3276 100.516 17.3334 100.211C17.342 99.9057 17.7875 99.828 18.0768 99.7272C19.8849 99.105 21.7508 98.722 23.6254 98.3648C23.8366 98.3245 23.9957 98.4052 24.1577 98.5002C25.4161 99.2635 26.7555 99.8481 28.1412 100.332C30.039 100.992 31.9685 101.409 33.9444 101.49C33.9444 101.265 33.9473 101.038 33.9473 100.81C31.0804 100.292 28.4363 98.9754 25.7575 97.616C26.1451 97.5267 26.417 97.472 26.6832 97.4029C28.7371 96.8643 30.6927 96.0665 32.6483 95.2686Z" fill="white"/>
<path d="M5.05008 43.2554C5.45509 43.4599 5.91217 43.5405 6.29982 43.7911C7.76073 44.7358 8.14838 46.1816 8.16573 47.7859C8.17152 48.48 8.03555 49.1626 7.77808 49.8107C7.57269 50.3233 7.37887 50.3867 6.95072 50.0641C5.4117 48.9005 4.35579 47.4691 4.40497 45.4328C4.42522 44.6667 4.67401 43.9581 4.95462 43.2554C4.98644 43.2554 5.01826 43.2554 5.05008 43.2554Z" fill="white"/>
<path d="M23.1856 59.3785C22.393 59.4131 21.7565 59.1597 21.1404 58.8313C21.0102 58.7622 20.9205 58.6844 20.8945 58.5203C20.7093 57.2501 21.4528 55.594 22.5752 54.9632C23.8481 54.2489 25.1673 54.3411 26.4864 54.8682C26.6571 54.9373 26.7265 55.0496 26.7179 55.2311C26.6542 56.4523 25.8211 58.3906 24.4296 59.0761C24.013 59.2777 23.582 59.4131 23.1856 59.3785Z" fill="white"/>
<path d="M33.6434 71.8065C33.4959 72.0888 33.3744 72.3941 33.2789 72.7224C32.9751 73.7737 33.0793 74.8653 32.8247 76.0202C33.0909 75.761 33.3859 75.6631 33.6839 75.6084C33.6636 74.3411 33.6636 73.0738 33.6434 71.8065Z" fill="white"/>
<path d="M33.5973 80.8273C33.6002 80.5882 33.6118 80.3348 33.6378 80.0813C33.1865 80.2858 32.7526 80.5335 32.3215 80.7956C31.8963 81.0548 31.5347 81.4724 30.9214 81.3831C31.3293 81.4753 31.5752 81.7576 31.8471 82.0024C32.1248 82.2558 32.4026 82.5179 32.7121 82.7311C33.0245 82.9471 33.3456 83.1429 33.6783 83.2927C33.6349 82.4719 33.5857 81.6452 33.5973 80.8273Z" fill="white"/>
<path d="M25.9976 107.869C26.5501 108.437 27.2878 108.244 27.9184 108.411C28.8066 108.647 29.6715 108.892 30.3456 109.577C30.9965 110.24 31.1353 111.043 31.0804 111.919C31.0659 112.132 30.9271 112.175 30.7708 112.204C29.9782 112.357 29.1884 112.446 28.3929 112.21C27.5887 111.974 27.0101 111.481 26.6919 110.706C26.4749 110.185 26.3245 109.644 26.2695 109.076C26.229 108.673 26.3129 108.241 25.9976 107.869Z" fill="white"/>
<path d="M29.0293 75.5565C29.0293 76.4753 28.7574 77.3826 28.2367 78.2121C27.9329 78.693 27.7507 78.7017 27.3977 78.2725C26.3592 77.011 25.7806 75.6199 26.2087 73.9609C26.336 73.4713 26.5761 73.0277 26.8336 72.5928C26.984 72.3394 27.1345 72.2962 27.4006 72.4603C28.5346 73.1602 29.0669 74.1712 29.0293 75.5565Z" fill="white"/>
<path d="M14.5824 58.2988C14.2381 58.028 13.8447 57.8955 13.4859 57.7055C11.9064 56.8673 11.1138 55.2343 11.4291 53.4831C11.4841 53.1692 11.5535 53.0367 11.9383 53.1346C13.8765 53.6358 14.7501 54.8166 14.6431 56.804C14.62 57.2965 14.3943 57.7861 14.5824 58.2988Z" fill="white"/>
<path d="M25.876 69.0156C24.201 69.1048 23.0612 68.5461 22.1991 67.3854C21.985 67.1002 22.0313 66.9505 22.3148 66.7575C23.0699 66.2419 23.8625 66.0346 24.768 66.2679C25.8499 66.5472 26.7033 67.1463 27.3658 68.0248C27.6869 68.451 27.6348 68.5835 27.1315 68.7477C26.6484 68.9032 26.1595 69.0127 25.876 69.0156Z" fill="white"/>
<path d="M20.07 61.3431C20.8453 61.3114 21.557 61.7146 22.2628 62.138C22.3872 62.2129 22.4856 62.305 22.3583 62.475C21.7653 63.2584 21.1607 64.0159 20.1047 64.2117C19.4249 64.3356 18.8348 64.1023 18.2591 63.8027C18.0653 63.7019 17.8801 63.5752 17.7036 63.4485C17.099 63.0107 17.1019 63.0078 17.6198 62.4087C18.2533 61.6685 19.0199 61.3229 20.07 61.3431Z" fill="white"/>
<path d="M29.6747 61.4237C29.6862 63.1 28.4162 64.157 26.9033 64.4508C26.6024 64.5084 26.2871 64.6092 25.9717 64.4767C25.8358 64.4191 25.7114 64.3816 25.749 64.1829C25.966 63.0308 26.3507 61.9709 27.343 61.2422C27.8811 60.8477 28.4972 60.6806 29.1626 60.6777C29.6602 60.6777 29.6775 60.7008 29.6747 61.4237Z" fill="white"/>
<path d="M33.9184 103.566C33.9184 103.175 33.927 102.786 33.9444 102.4C33.9444 102.287 33.9444 102.175 33.9473 102.066C33.5162 102.005 33.0794 101.968 32.6889 101.74C32.5963 101.686 32.5442 101.481 32.3938 101.622C32.2954 101.717 32.3186 101.873 32.3735 101.976C32.5703 102.368 32.7612 102.768 33.0071 103.128C33.2703 103.52 33.5712 103.857 33.9184 104.114C33.9155 103.932 33.9184 103.751 33.9184 103.566Z" fill="white"/>
<path d="M21.123 89.082C20.4403 89.0993 19.8328 88.8631 19.2398 88.5463C18.9997 88.4167 19.0257 88.313 19.1559 88.1172C20.2291 86.5043 21.6033 86.2969 23.2783 86.5417C23.5386 86.5791 23.4836 86.7808 23.475 86.9449C23.3998 88.313 22.5348 89.0964 21.123 89.082Z" fill="white"/>
<path d="M6.17236 54.0071C6.16947 54.8309 6.14343 54.8453 5.35656 54.6494C3.77126 54.2577 3.10878 53.0624 2.70089 51.6425C2.62856 51.3919 2.81082 51.3545 2.96993 51.2882C4.11262 50.8015 5.26978 51.2393 5.81364 52.3741C6.05954 52.8867 6.1984 53.4311 6.17236 54.0071Z" fill="white"/>
<path d="M29.0871 86.5071C29.0814 87.662 28.4507 88.3936 27.2878 88.7565C26.5761 88.9783 26.5732 88.9783 26.362 88.2409C25.9281 86.7202 26.6687 85.4558 28.199 85.0785C28.4594 85.0151 28.6098 85.0727 28.7255 85.3176C28.9338 85.7467 29.0698 86.1903 29.0871 86.5071Z" fill="white"/>
<path d="M0.968262 69.802C0.985619 69.9575 1.00008 70.1131 0.997191 70.2715C0.997191 70.3262 0.997191 70.378 0.994298 70.4328C0.994298 70.4558 0.997191 70.4788 0.997191 70.5019C1.22862 70.6373 1.41087 70.8677 1.4832 71.2133C1.60181 71.7778 1.66834 72.3366 1.70306 72.8982C1.78406 72.6015 1.82745 72.302 1.82167 72.0111C1.84192 71.0693 1.58445 70.3377 0.968262 69.802Z" fill="white"/>
<path d="M9.5659 50.9975C9.29975 50.9687 9.0336 50.9024 8.77035 50.9197C8.32485 50.9485 8.3046 50.7354 8.37113 50.3869C8.68067 48.8345 10.2342 47.8235 11.779 48.1778C11.9323 48.2124 12.0509 48.2584 12.022 48.4485C11.9178 49.1715 11.7327 49.8627 11.2062 50.4071C10.7578 50.8736 10.185 50.9917 9.5659 50.9975Z" fill="white"/>
<path d="M22.4623 109.923C22.4825 110.585 22.3841 110.666 21.8981 110.476C20.8278 110.053 20.1016 109.341 19.9657 108.146C19.9049 107.616 20.0149 107.498 20.5529 107.581C21.1633 107.676 21.6291 107.999 21.9618 108.517C22.2626 108.987 22.416 109.508 22.4623 109.923Z" fill="white"/>
<path d="M25.4305 104.626C25.1383 104.612 24.6031 104.69 24.4614 104.327C24.3399 104.019 24.7883 103.705 25.04 103.443C25.7458 102.72 26.605 102.515 27.5915 102.725C27.9155 102.795 27.9444 102.93 27.849 103.215C27.551 104.105 26.7092 104.629 25.4305 104.626Z" fill="white"/>
<path d="M33.7187 85.5624C33.4208 85.1793 33.0302 84.874 32.5905 84.7041C32.3996 84.632 32.3099 84.6551 32.2289 84.8481C31.8441 85.7726 32.4488 87.374 33.3889 87.7714C33.5133 87.8233 33.6175 87.8665 33.7101 87.8982C33.6724 87.1176 33.6291 86.3285 33.7187 85.5624Z" fill="white"/>
</svg>
