<svg xmlns="http://www.w3.org/2000/svg" width="1440" height="217" fill="none" viewBox="0 0 1440 217"><path fill="url(#paint0_linear_69_54)" fill-rule="evenodd" d="M-82 37L-30.4333 45.8889C21.1333 54.7778 124.267 72.5556 227.4 81.4444C330.533 90.3333 433.667 90.3333 536.8 83.6667C639.933 77 743.067 63.6667 846.2 57C949.333 50.3333 1052.47 50.3333 1155.6 65.8889C1258.73 81.4444 1361.87 112.556 1413.43 128.111L1465 143.667V157H1413.43C1361.87 157 1258.73 157 1155.6 157C1052.47 157 949.333 157 846.2 157C743.067 157 639.933 157 536.8 157C433.667 157 330.533 157 227.4 157C124.267 157 21.1333 157 -30.4333 157H-82V37Z" clip-rule="evenodd"/><path fill="url(#paint1_linear_69_54)" fill-opacity=".83" fill-rule="evenodd" d="M1444 0L1392.43 8.88889C1340.87 17.7778 1237.73 35.5556 1134.6 44.4444C1031.47 53.3333 928.333 53.3333 825.2 46.6667C722.067 40 618.933 26.6667 515.8 20C412.667 13.3333 309.533 13.3333 206.4 28.8889C103.267 44.4444 0.133301 75.5555 -51.4333 91.1111L-103 106.667V120H-51.4333C0.133301 120 103.267 120 206.4 120C309.533 120 412.667 120 515.8 120C618.933 120 722.067 120 825.2 120C928.333 120 1031.47 120 1134.6 120C1237.73 120 1340.87 120 1392.43 120H1444V0Z" clip-rule="evenodd"/><path fill="url(#paint2_linear_69_54)" fill-rule="evenodd" d="M1440 97L1388.43 105.889C1336.87 114.778 1233.73 132.556 1130.6 141.444C1027.47 150.333 953.133 103.667 850 97C746.867 90.3333 614.933 123.667 511.8 117C408.667 110.333 305.533 110.333 202.4 125.889C99.2667 141.444 -3.8667 172.556 -55.4333 188.111L-107 203.667V217H-55.4333C-3.8667 217 99.2667 217 202.4 217C305.533 217 408.667 217 511.8 217C614.933 217 718.067 217 821.2 217C924.333 217 1027.47 217 1130.6 217C1233.73 217 1336.87 217 1388.43 217H1440V97Z" clip-rule="evenodd"/><defs><linearGradient id="paint0_linear_69_54" x1="691.5" x2="691.5" y1="37" y2="157" gradientUnits="userSpaceOnUse"><stop stop-color="#40916C"/><stop offset="1" stop-color="#40916C" stop-opacity="0"/></linearGradient><linearGradient id="paint1_linear_69_54" x1="670.5" x2="670.5" y1="0" y2="120" gradientUnits="userSpaceOnUse"><stop stop-color="#95D5B2"/><stop offset="1" stop-color="#95D5B2" stop-opacity="0"/></linearGradient><linearGradient id="paint2_linear_69_54" x1="666.5" x2="666.5" y1="97" y2="217" gradientUnits="userSpaceOnUse"><stop stop-color="#1B4332"/><stop offset="1" stop-color="#95D5B2" stop-opacity="0"/></linearGradient></defs></svg>