<svg xmlns="http://www.w3.org/2000/svg" width="1440" height="948" fill="none" viewBox="0 0 1440 948"><g filter="url(#filter0_f_68_53)"><path fill="url(#paint0_linear_68_53)" fill-rule="evenodd" d="M-240 543.558L-191.854 499.525C-143.708 453.918 -47.4167 362.706 48.875 295.083C145.167 227.46 241.458 171.379 337.75 182.387C434.042 193.396 530.333 273.066 626.625 362.706C722.917 453.918 819.208 567.148 915.5 556.139C1011.79 543.558 1108.08 408.312 1204.38 373.714C1300.67 340.689 1396.96 408.312 1493.25 386.295C1589.54 362.706 1685.83 249.476 1782.13 273.066C1878.42 295.083 1974.71 453.918 2022.85 532.55L2071 612.754V748H2022.85C1974.71 748 1878.42 748 1782.13 748C1685.83 748 1589.54 748 1493.25 748C1396.96 748 1300.67 748 1204.38 748C1108.08 748 1011.79 748 915.5 748C819.208 748 722.917 748 626.625 748C530.333 748 434.042 748 337.75 748C241.458 748 145.167 748 48.875 748C-47.4167 748 -143.708 748 -191.854 748H-240V543.558Z" clip-rule="evenodd"/><path fill-rule="evenodd" stroke="#000" d="M-240 543.558L-191.854 499.525C-143.708 453.918 -47.4167 362.706 48.875 295.083C145.167 227.46 241.458 171.379 337.75 182.387C434.042 193.396 530.333 273.066 626.625 362.706C722.917 453.918 819.208 567.148 915.5 556.139C1011.79 543.558 1108.08 408.312 1204.38 373.714C1300.67 340.689 1396.96 408.312 1493.25 386.295C1589.54 362.706 1685.83 249.476 1782.13 273.066C1878.42 295.083 1974.71 453.918 2022.85 532.55L2071 612.754V748H2022.85C1974.71 748 1878.42 748 1782.13 748C1685.83 748 1589.54 748 1493.25 748C1396.96 748 1300.67 748 1204.38 748C1108.08 748 1011.79 748 915.5 748C819.208 748 722.917 748 626.625 748C530.333 748 434.042 748 337.75 748C241.458 748 145.167 748 48.875 748C-47.4167 748 -143.708 748 -191.854 748H-240V543.558Z" clip-rule="evenodd"/></g><path fill="url(#paint1_linear_68_53)" fill-rule="evenodd" d="M-132 661.015L-97 633.019C-62 604.022 8 546.029 78 503.034C148 460.039 218 431.043 288 438.042C358 445.041 428 489.036 498 546.029C568 604.022 638 605.999 708 599C778 591.001 848 575.026 918 553.028C988 532.031 1058 575.026 1128 561.027C1198 546.029 1268 474.038 1338 489.036C1408 503.034 1478 604.022 1513 654.016L1548 705.01V791H1513C1478 791 1408 791 1338 791C1268 791 1198 791 1128 791C1058 791 988 791 918 791C848 791 778 791 708 791C638 791 568 791 498 791C428 791 358 791 288 791C218 791 148 791 78 791C8 791 -62 791 -97 791H-132V661.015Z" clip-rule="evenodd"/><path fill="url(#paint2_linear_68_53)" fill-rule="evenodd" d="M-28 673.981L33.3333 658.979C94.6667 644.978 217.333 615.976 340 637.978C462.667 658.979 585.333 730.985 708 716.984C830.667 702.983 1035.62 623.977 1158.29 637.978C1280.96 652.979 1382.67 730.157 1444 795.162V889.997V933H1382.67C1321.33 933 1198.67 933 1076 933C953.333 933 830.667 933 708 933C585.333 933 462.667 933 340 933C217.333 933 94.6667 933 33.3333 933H-28V673.981Z" clip-rule="evenodd"/><defs><filter id="filter0_f_68_53" width="2711" height="967" x="-440" y="-19" color-interpolation-filters="sRGB" filterUnits="userSpaceOnUse"><feFlood flood-opacity="0" result="BackgroundImageFix"/><feBlend in="SourceGraphic" in2="BackgroundImageFix" mode="normal" result="shape"/><feGaussianBlur result="effect1_foregroundBlur_68_53" stdDeviation="100"/></filter><linearGradient id="paint0_linear_68_53" x1="143.339" x2="1463.29" y1="293.604" y2="871.098" gradientUnits="userSpaceOnUse"><stop stop-color="#D8F3DC"/><stop offset="1" stop-color="#B7E4C7" stop-opacity="0"/></linearGradient><linearGradient id="paint1_linear_68_53" x1="708" x2="708" y1="437" y2="790.958" gradientUnits="userSpaceOnUse"><stop stop-color="#74C69D"/><stop offset="1" stop-color="#74C69D"/></linearGradient><linearGradient id="paint2_linear_68_53" x1="708" x2="708" y1="629.649" y2="933" gradientUnits="userSpaceOnUse"><stop stop-color="#40916C"/><stop offset=".77" stop-color="#fff"/></linearGradient></defs></svg>