<svg xmlns="http://www.w3.org/2000/svg" width="36" height="36" fill="none" viewBox="0 0 36 36"><path fill="url(#paint0_linear_5_115)" d="M18 36C13 36 8.75 34.25 5.25 30.75C1.75 27.25 0 23 0 18C0 13 1.75 8.75 5.25 5.25C8.75 1.75 13 0 18 0C18.2667 0 18.55 0.00833333 18.85 0.025C19.15 0.0416667 19.5333 0.0666667 20 0.1C18.8 1.16667 17.8667 2.48333 17.2 4.05C16.5333 5.61667 16.2 7.26667 16.2 9C16.2 12 17.25 14.55 19.35 16.65C21.45 18.75 24 19.8 27 19.8C28.7333 19.8 30.3833 19.4917 31.95 18.875C33.5167 18.2583 34.8333 17.4 35.9 16.3C35.9333 16.7 35.9583 17.025 35.975 17.275C35.9917 17.525 36 17.7667 36 18C36 23 34.25 27.25 30.75 30.75C27.25 34.25 23 36 18 36ZM18 33C21.6333 33 24.8 31.875 27.5 29.625C30.2 27.375 31.8833 24.7333 32.55 21.7C31.7167 22.0667 30.8222 22.3417 29.8667 22.525C28.9111 22.7083 27.9556 22.8 27 22.8C23.177 22.8 19.9213 21.4557 17.2327 18.7672C14.5443 16.0787 13.2 12.823 13.2 9C13.2 8.2 13.2833 7.34167 13.45 6.425C13.6167 5.50833 13.9167 4.46667 14.35 3.3C11.0833 4.2 8.375 6.025 6.225 8.775C4.075 11.525 3 14.6 3 18C3 22.1667 4.45833 25.7083 7.375 28.625C10.2917 31.5417 13.8333 33 18 33Z"/><defs><linearGradient id="paint0_linear_5_115" x1="18" x2="18" y1="0" y2="36" gradientUnits="userSpaceOnUse"><stop/><stop offset="0" stop-color="#0569FF"/><stop offset="1" stop-opacity=".55"/></linearGradient></defs></svg>