<svg xmlns="http://www.w3.org/2000/svg" width="36" height="36" fill="none" viewBox="0 0 36 36"><path fill="url(#paint0_linear_5_117)" d="M17.9904 23.7273C19.5786 23.7273 20.9318 23.1714 22.05 22.0596C23.1682 20.9479 23.7273 19.5979 23.7273 18.0096C23.7273 16.4214 23.1714 15.0682 22.0596 13.95C20.9479 12.8318 19.5979 12.2727 18.0096 12.2727C16.4214 12.2727 15.0682 12.8286 13.95 13.9404C12.8318 15.0521 12.2727 16.4021 12.2727 17.9904C12.2727 19.5786 12.8286 20.9318 13.9404 22.05C15.0521 23.1682 16.4021 23.7273 17.9904 23.7273ZM18 26.1818C15.7364 26.1818 13.8068 25.3841 12.2114 23.7886C10.6159 22.1932 9.81818 20.2636 9.81818 18C9.81818 15.7364 10.6159 13.8068 12.2114 12.2114C13.8068 10.6159 15.7364 9.81818 18 9.81818C20.2636 9.81818 22.1932 10.6159 23.7886 12.2114C25.3841 13.8068 26.1818 15.7364 26.1818 18C26.1818 20.2636 25.3841 22.1932 23.7886 23.7886C22.1932 25.3841 20.2636 26.1818 18 26.1818ZM1.22727 19.2273C0.879545 19.2273 0.588068 19.109 0.352841 18.8724C0.117614 18.6358 0 18.3426 0 17.9928C0 17.6431 0.117614 17.3523 0.352841 17.1205C0.588068 16.8886 0.879545 16.7727 1.22727 16.7727H5.31818C5.66591 16.7727 5.95739 16.891 6.19261 17.1276C6.42784 17.3642 6.54545 17.6574 6.54545 18.0072C6.54545 18.3569 6.42784 18.6477 6.19261 18.8795C5.95739 19.1114 5.66591 19.2273 5.31818 19.2273H1.22727ZM30.6818 19.2273C30.3341 19.2273 30.0426 19.109 29.8074 18.8724C29.5722 18.6358 29.4545 18.3426 29.4545 17.9928C29.4545 17.6431 29.5722 17.3523 29.8074 17.1205C30.0426 16.8886 30.3341 16.7727 30.6818 16.7727H34.7727C35.1205 16.7727 35.4119 16.891 35.6472 17.1276C35.8824 17.3642 36 17.6574 36 18.0072C36 18.3569 35.8824 18.6477 35.6472 18.8795C35.4119 19.1114 35.1205 19.2273 34.7727 19.2273H30.6818ZM17.9928 6.54545C17.6431 6.54545 17.3523 6.42784 17.1205 6.19261C16.8886 5.95739 16.7727 5.66591 16.7727 5.31818V1.22727C16.7727 0.879545 16.891 0.588068 17.1276 0.352841C17.3642 0.117614 17.6574 0 18.0072 0C18.3569 0 18.6477 0.117614 18.8795 0.352841C19.1114 0.588068 19.2273 0.879545 19.2273 1.22727V5.31818C19.2273 5.66591 19.109 5.95739 18.8724 6.19261C18.6358 6.42784 18.3426 6.54545 17.9928 6.54545ZM17.9928 36C17.6431 36 17.3523 35.8825 17.1205 35.6474C16.8886 35.412 16.7727 35.1205 16.7727 34.7727V30.6818C16.7727 30.3341 16.891 30.0426 17.1276 29.8074C17.3642 29.5722 17.6574 29.4545 18.0072 29.4545C18.3569 29.4545 18.6477 29.5722 18.8795 29.8074C19.1114 30.0426 19.2273 30.3341 19.2273 30.6818V34.7727C19.2273 35.1205 19.109 35.412 18.8724 35.6474C18.6358 35.8825 18.3426 36 17.9928 36ZM8.18182 9.9L5.85 7.60909C5.60455 7.36364 5.48688 7.06905 5.497 6.72533C5.50709 6.38159 5.62335 6.0884 5.84579 5.84579C6.0884 5.60314 6.38159 5.48182 6.72533 5.48182C7.06905 5.48182 7.36364 5.60455 7.60909 5.85L9.9 8.18182C10.1182 8.42727 10.2273 8.71364 10.2273 9.04091C10.2273 9.36818 10.1182 9.64773 9.9 9.87955C9.68182 10.1114 9.40227 10.2273 9.06136 10.2273C8.72045 10.2273 8.42727 10.1182 8.18182 9.9ZM28.3909 30.15L26.1 27.8182C25.8818 27.5727 25.7727 27.2812 25.7727 26.9437C25.7727 26.6062 25.8886 26.325 26.1205 26.1C26.3523 25.8545 26.6318 25.7318 26.9591 25.7318C27.2864 25.7318 27.5727 25.8545 27.8182 26.1L30.15 28.3909C30.3955 28.6364 30.5131 28.9309 30.503 29.2747C30.4929 29.6184 30.3766 29.9116 30.1542 30.1542C29.9116 30.3969 29.6184 30.5182 29.2747 30.5182C28.9309 30.5182 28.6364 30.3955 28.3909 30.15ZM26.1 9.9C25.8545 9.65455 25.7318 9.36818 25.7318 9.04091C25.7318 8.71364 25.8545 8.42727 26.1 8.18182L28.3909 5.85C28.6364 5.60455 28.9309 5.48688 29.2747 5.497C29.6184 5.50709 29.9116 5.62335 30.1542 5.84579C30.3969 6.0884 30.5182 6.38159 30.5182 6.72533C30.5182 7.06905 30.3955 7.36364 30.15 7.60909L27.8182 9.9C27.6 10.1182 27.3223 10.2273 26.9851 10.2273C26.6479 10.2273 26.3529 10.1182 26.1 9.9ZM5.84579 30.1542C5.60314 29.9116 5.48182 29.6184 5.48182 29.2747C5.48182 28.9309 5.60455 28.6364 5.85 28.3909L8.18182 26.1C8.42182 25.8545 8.70682 25.7318 9.03682 25.7318C9.36682 25.7318 9.64921 25.8545 9.884 26.1C10.1401 26.3455 10.2682 26.6318 10.2682 26.9591C10.2682 27.2864 10.1455 27.5727 9.9 27.8182L7.60909 30.15C7.36364 30.3955 7.06905 30.5131 6.72533 30.503C6.38159 30.4929 6.0884 30.3766 5.84579 30.1542Z"/><defs><linearGradient id="paint0_linear_5_117" x1="18" x2="18" y1="0" y2="36" gradientUnits="userSpaceOnUse"><stop stop-color="#FFEA2C"/><stop offset="1" stop-color="#FFA800"/></linearGradient></defs></svg>