<svg xmlns="http://www.w3.org/2000/svg" width="297" height="125" fill="none" viewBox="0 0 297 125"><path fill="#86BF88" d="M6.5154 14.6164C6.38463 11.3954 7.35235 8.78498 9.41565 6.78207C11.4761 4.78498 16.0531 3.59021 23.1439 3.20358C27.9128 2.94777 31.3913 3.52626 33.5854 4.94486C35.7766 6.36637 37.4534 8.55533 38.6129 11.5204L39.7724 28.7356C44.0269 28.7356 47.5374 28.9623 50.3098 29.4129C53.0793 29.8664 55.5291 30.7356 57.6564 32.0233C59.7836 33.314 60.8472 35.3111 60.8472 38.0204C60.8472 40.7297 59.8156 42.7297 57.7523 44.0175C55.6889 45.3082 53.306 46.1774 50.5975 46.628C47.892 47.0815 44.4105 47.3053 40.156 47.3053C40.2839 53.1077 40.3507 58.2995 40.3507 62.8751C40.3507 67.4536 40.4147 72.3228 40.5454 77.4768C40.6733 82.6367 40.7401 87.567 40.7401 92.2734C40.7401 96.9827 40.7692 100.913 40.836 104.073C40.9 107.233 40.9319 109.073 40.9319 109.584C40.9319 110.488 40.6413 111.779 40.063 113.454C39.4818 115.131 37.9997 116.677 35.6167 118.096C33.2309 119.518 29.3338 120.224 23.9198 120.224C19.924 120.224 16.829 119.741 14.6379 118.773C12.4438 117.805 10.8687 116.712 9.90097 115.486C8.93325 114.262 8.32007 112.68 8.06433 110.747L6.5154 14.6164Z"/><path fill="#fff" d="M39.3017 99.2995C39.7521 99.1135 40.1938 98.9129 40.6268 98.7007C40.6268 98.5292 40.6268 98.3577 40.6297 98.1862C40.5338 98.0205 40.4757 97.8315 40.4757 97.6193C40.4757 97.5234 40.4728 97.4274 40.4728 97.3315C40.4292 97.3518 40.3856 97.3693 40.3391 97.3896C40.3769 97.1193 40.4234 96.8577 40.467 96.5931C40.4554 95.785 40.4379 94.9768 40.4205 94.1658C39.9381 95.2501 39.5254 96.3606 39.1389 97.4827C39.0459 97.753 38.9151 97.9245 38.6158 98.0234C35.0733 99.1862 31.3972 99.6251 27.6745 100.07C28.2383 99.5815 28.7788 99.128 29.3048 98.6542C29.8337 98.1745 30.3045 97.6396 30.7346 97.0699C31.1676 96.4972 31.5076 95.8693 31.7953 95.2152C32.0714 94.5873 32.2951 93.9361 32.5392 93.2937C32.5015 93.2792 32.4637 93.2617 32.4288 93.2472C32.3591 93.3489 32.2893 93.4507 32.2225 93.5553C30.8508 95.692 29.2467 97.6222 27.163 99.1077C26.2127 99.785 25.3264 100.567 24.1727 100.916C21.255 101.794 18.4826 102.954 16.1752 105.05C16.1083 104.933 16.1519 104.829 16.1694 104.727C16.7389 101.611 17.605 98.5553 18.1339 95.4303C18.7035 94.4652 19.4765 93.6949 20.3919 93.0582C20.4384 93.0263 20.5139 93.035 20.5779 93.0234C21.4962 92.8402 22.429 92.7705 23.3561 92.6629C24.0128 92.5844 24.687 92.5989 25.4339 92.2879C23.4142 92.2937 22.3883 92.1425 21.781 91.753C21.8565 91.6891 21.9234 91.6222 21.996 91.5641C24.8149 89.3373 27.8808 87.4972 31.0252 85.7734C31.9173 85.285 32.7543 85.0931 33.7104 85.4158C33.8441 85.4623 33.9894 85.4739 34.1289 85.4943C34.835 85.5902 35.5383 85.7123 36.2532 85.6832C35.2913 85.3431 34.3265 85.0321 33.3355 84.6018C35.3349 83.4361 37.3953 82.4798 38.8163 80.6542C38.4473 80.9187 38.0956 81.2094 37.7091 81.4478C35.6603 82.7123 33.4372 83.5902 31.1792 84.378C29.4762 84.9739 27.7558 85.5175 26.0442 86.0844C25.6257 86.2239 25.4019 86.0873 25.3758 85.6367C25.3438 85.0902 25.4571 84.5582 25.6431 84.0524C26.2069 82.5263 26.2738 80.9623 26.0384 79.3693C26.0035 79.128 26.0209 78.9303 26.1866 78.7123C27.4972 76.9972 26.9392 74.8722 24.9631 73.9739C24.8236 73.91 24.7219 73.8722 24.5911 74.0175C23.2544 75.5321 22.9754 77.5234 25.123 78.6658C25.8698 79.0641 26.0209 79.4972 25.9337 80.1978C25.9163 80.3402 25.9047 80.4827 25.8814 80.6222C25.5676 82.5931 24.7684 84.3751 23.7774 86.0873C23.3503 86.8257 22.8213 87.4565 22.1065 87.9391C21.2899 88.4914 20.4355 88.971 19.5607 89.4187C19.337 89.5321 19.1074 89.628 18.9941 89.8896C19.0522 88.7094 19.1684 87.5495 19.2207 86.3867C19.3748 82.9478 19.18 79.5466 18.2734 76.2094C18.221 76.0175 18.2443 75.8431 18.2879 75.6513C18.564 74.4507 19.1016 73.3577 19.6218 72.2559C19.7613 71.9623 19.9298 71.8809 20.2437 71.9013C22.0571 72.0117 23.853 71.9013 25.6257 71.4739C27.3316 71.0611 28.9677 70.4827 30.3713 69.3867C30.7113 69.1222 31.0339 68.8286 31.2286 68.3111C29.5954 69.2792 27.9447 69.9449 26.1749 70.2792C24.3877 70.6193 22.5976 70.6861 20.7435 70.2792C22.4494 67.4885 24.4633 65.0088 26.7271 62.7123C25.7013 63.16 24.8265 63.8199 23.9838 64.535C23.1468 65.2443 22.3796 66.0321 21.5311 66.9332C21.6705 65.3228 21.5746 63.8867 21.2027 62.471C21.1707 62.596 21.1707 62.721 21.1707 62.846C21.1765 64.1629 21.0981 65.4768 20.8859 66.7792C20.8074 67.2559 20.7871 67.7588 20.4645 68.1687C19.8659 68.9274 19.2585 69.6803 18.6802 70.4536C18.1542 71.1571 17.6602 71.8867 17.1196 72.6513C16.5181 71.1513 15.5765 69.942 14.5594 68.785C14.4112 68.6164 14.3676 68.4478 14.3908 68.2239C14.5013 67.1687 14.6175 66.1135 14.6815 65.0553C14.8064 63.0553 14.7657 61.0641 14.1787 59.1193C13.8096 57.8954 13.676 56.6367 13.8009 55.3577C13.8358 55.0117 13.8968 54.6687 13.9462 54.3257C13.8358 54.3693 13.7893 54.4274 13.7515 54.4943C12.8448 56.0641 12.8652 57.7734 13.057 59.4885C13.1703 60.4972 13.3563 61.4943 13.2836 62.5146C13.211 63.5292 12.9029 64.4681 12.3944 65.346C12.3072 65.4972 12.2316 65.7181 11.9759 65.4943C10.7612 64.4187 9.32557 63.7094 7.8522 63.0757C7.64296 62.9856 7.45697 62.878 7.28261 62.7559C7.28842 63.8489 7.3262 64.9536 7.34654 66.0466C7.35817 66.6367 7.43954 67.2007 7.40466 67.7559C10.581 69.5582 12.5891 72.3867 13.5684 76.0931C14.0334 77.8548 14.0014 79.6745 13.9375 81.4827C13.8503 83.8751 13.5132 86.2327 13.025 88.7501C12.932 88.5786 12.9029 88.5059 12.8564 88.4449C12.1706 87.5205 11.3802 86.6803 10.4328 86.0466C9.41857 85.3693 8.85188 84.535 8.59034 83.317C8.41888 82.5146 8.17477 81.7385 7.86092 80.9943C7.88416 81.942 7.87835 82.8925 7.86382 83.8402C8.40144 83.9565 8.88094 84.3955 8.87804 85.0234C8.87223 86.1193 8.81992 87.2152 8.68624 88.2966C10.0986 89.6658 11.1709 91.2472 11.5371 93.2414C11.6156 93.6716 11.7347 94.1018 11.5836 94.5553C11.2145 95.6687 10.8803 96.7908 10.4996 97.9013C10.3921 98.2123 10.3165 98.5524 10.087 98.8577C9.49412 98.0553 8.73274 97.5408 7.89288 97.1455C7.93647 97.628 7.91613 98.1193 7.86673 98.6164C7.91613 98.7588 7.93938 98.9245 7.91613 99.1164C7.89579 99.3111 7.87254 99.5059 7.84929 99.7007C7.89869 100.942 8.1428 102.195 7.99459 103.425C7.98588 103.506 7.96844 103.584 7.94519 103.657C7.95682 103.84 7.97135 104.026 7.98006 104.209C7.9975 104.393 8.00622 104.576 8.00622 104.759C8.01203 104.893 8.01494 105.026 8.01494 105.16C8.11956 105.683 8.18349 106.212 8.21836 106.75C8.26195 107.459 8.38691 108.189 8.18639 108.878C8.1399 109.032 8.10212 109.189 8.05853 109.343C8.07596 109.541 8.09631 109.741 8.12537 109.939C8.19802 110.422 8.13699 110.884 8.09049 111.343C8.09921 111.375 8.10793 111.407 8.11374 111.442C8.11956 111.462 8.12827 111.48 8.13409 111.503C8.2823 112.172 8.59034 112.701 8.6194 113.398C8.65427 113.491 8.69786 113.582 8.73564 113.675C9.07856 114.337 9.52609 114.965 9.90969 115.427C10.6362 116.305 11.5255 117.029 12.5222 117.579C13.5771 118.16 14.6204 118.698 15.7567 119.076C15.7102 115.901 16.274 112.881 18.0409 110.163C18.9999 108.689 20.2146 107.48 21.8565 106.768C22.7807 106.366 23.7368 106.218 24.7335 106.465C24.9428 106.518 25.091 106.579 25.0735 106.869C25.0067 107.983 25.2828 109.035 25.7187 110.05C25.8437 110.34 25.9483 110.643 26.2098 110.863C25.9483 110.116 26.018 109.355 26.0558 108.599C26.0791 108.111 26.1982 107.622 26.1982 107.137C26.1953 106.675 26.3551 106.68 26.698 106.837C28.1598 107.503 29.4181 108.451 30.5631 109.564C31.1618 110.145 31.7197 110.77 32.2486 111.419C31.7866 109.927 30.8828 108.747 29.7174 107.756C28.2034 106.468 26.4278 105.625 24.6405 104.802C24.3616 104.675 23.9111 104.596 23.9169 104.288C23.9257 103.98 24.3732 103.901 24.6638 103.8C26.4801 103.172 28.3545 102.785 30.2376 102.425C30.4498 102.384 30.6096 102.465 30.7723 102.561C32.0365 103.331 33.382 103.922 34.774 104.41C36.6804 105.076 38.6187 105.497 40.6036 105.579C40.6036 105.352 40.6065 105.122 40.6065 104.893C37.7266 104.369 35.0704 103.041 32.3794 101.669C32.7688 101.579 33.042 101.523 33.3093 101.454C35.3727 100.91 37.3372 100.105 39.3017 99.2995Z"/><path fill="#fff" d="M11.5778 46.8025C11.9846 47.0089 12.4438 47.0903 12.8332 47.3432C14.3008 48.2967 14.6902 49.756 14.7076 51.3752C14.7134 52.0757 14.5768 52.7647 14.3182 53.4188C14.1119 53.9362 13.9172 54.0002 13.4871 53.6746C11.941 52.5002 10.8803 51.0554 10.9297 49.0002C10.9501 48.2269 11.2 47.5118 11.4819 46.8025C11.5138 46.8025 11.5458 46.8025 11.5778 46.8025Z"/><path fill="#fff" d="M29.7959 63.0758C28.9996 63.1106 28.3603 62.8548 27.7413 62.5234C27.6105 62.4537 27.5205 62.3752 27.4943 62.2095C27.3083 60.9275 28.0552 59.256 29.1827 58.6194C30.4614 57.8984 31.7866 57.9915 33.1117 58.5234C33.2832 58.5932 33.3529 58.7066 33.3442 58.8897C33.2803 60.1223 32.4433 62.0787 31.0455 62.7705C30.627 62.974 30.194 63.1106 29.7959 63.0758Z"/><path fill="#fff" d="M40.3013 75.6194C40.1531 75.9043 40.0311 76.2124 39.9352 76.5438C39.63 77.6048 39.7346 78.7066 39.4789 79.8723C39.7463 79.6107 40.0427 79.5118 40.342 79.4566C40.3217 78.1775 40.3217 76.8985 40.3013 75.6194Z"/><path fill="#fff" d="M40.2548 84.7241C40.2577 84.4828 40.2694 84.227 40.2955 83.9712C39.8422 84.1776 39.4063 84.4276 38.9733 84.6921C38.5461 84.9538 38.1828 85.3753 37.5667 85.2852C37.9765 85.3782 38.2235 85.6631 38.4967 85.9101C38.7756 86.166 39.0546 86.4305 39.3656 86.6456C39.6794 86.8636 40.002 87.0613 40.3362 87.2125C40.2926 86.384 40.2432 85.5497 40.2548 84.7241Z"/><path fill="#fff" d="M32.6206 112.018C33.1757 112.59 33.9167 112.395 34.5502 112.564C35.4424 112.802 36.3113 113.05 36.9884 113.741C37.6423 114.41 37.7818 115.221 37.7266 116.105C37.712 116.32 37.5725 116.364 37.4156 116.393C36.6194 116.547 35.826 116.637 35.0268 116.398C34.2189 116.16 33.6377 115.663 33.3181 114.881C33.1001 114.355 32.949 113.808 32.8938 113.236C32.8531 112.829 32.9374 112.393 32.6206 112.018Z"/><path fill="#fff" d="M35.6662 79.4041C35.6662 80.3314 35.393 81.2471 34.8699 82.0843C34.5648 82.5698 34.3817 82.5785 34.0271 82.1454C32.9839 80.8721 32.4026 79.4681 32.8327 77.7936C32.9606 77.2995 33.2018 76.8518 33.4605 76.4128C33.6116 76.157 33.7627 76.1134 34.03 76.2791C35.1692 76.9855 35.7039 78.0059 35.6662 79.4041Z"/><path fill="#fff" d="M21.1533 61.9857C20.8074 61.7124 20.4122 61.5787 20.0519 61.3868C18.4652 60.5409 17.6689 58.8926 17.9857 57.1252C18.0409 56.8083 18.1106 56.6746 18.4971 56.7735C20.4442 57.2793 21.3218 58.4711 21.2143 60.4769C21.191 60.974 20.9644 61.4682 21.1533 61.9857Z"/><path fill="#fff" d="M32.4986 72.8025C30.8159 72.8926 29.671 72.3287 28.8049 71.1571C28.5899 70.8694 28.6364 70.7182 28.9212 70.5234C29.6797 70.0031 30.4759 69.7938 31.3855 70.0292C32.4724 70.3112 33.3297 70.9159 33.9952 71.8025C34.3178 72.2327 34.2654 72.3664 33.7598 72.5321C33.2745 72.6891 32.7833 72.7996 32.4986 72.8025Z"/><path fill="#fff" d="M26.6661 65.0584C27.4449 65.0264 28.1598 65.4334 28.8689 65.8607C28.9938 65.9363 29.0926 66.0293 28.9648 66.2008C28.369 66.9915 27.7617 67.7561 26.701 67.9538C26.018 68.0788 25.4252 67.8433 24.8469 67.541C24.6522 67.4392 24.4662 67.3113 24.2889 67.1834C23.6815 66.7415 23.6845 66.7386 24.2046 66.134C24.8411 65.3869 25.6112 65.0381 26.6661 65.0584Z"/><path fill="#fff" d="M36.3142 65.1396C36.3258 66.8315 35.0501 67.8983 33.5302 68.1949C33.228 68.253 32.9112 68.3547 32.5944 68.221C32.4579 68.1629 32.3329 68.1251 32.3707 67.9245C32.5886 66.7617 32.9751 65.6919 33.9719 64.9565C34.5125 64.5582 35.1314 64.3896 35.7998 64.3867C36.2997 64.3867 36.3171 64.41 36.3142 65.1396Z"/><path fill="#fff" d="M40.5774 107.675C40.5774 107.279 40.5861 106.887 40.6036 106.497C40.6036 106.384 40.6036 106.27 40.6065 106.16C40.1735 106.099 39.7347 106.061 39.3423 105.832C39.2493 105.776 39.197 105.57 39.0459 105.712C38.9471 105.808 38.9704 105.965 39.0256 106.07C39.2232 106.465 39.415 106.869 39.662 107.233C39.9265 107.628 40.2287 107.968 40.5774 108.227C40.5745 108.044 40.5774 107.861 40.5774 107.675Z"/><path fill="#fff" d="M27.7239 93.0553C27.038 93.0727 26.4278 92.8344 25.832 92.5146C25.5908 92.3838 25.617 92.2791 25.7478 92.0815C26.8259 90.4536 28.2063 90.2443 29.8889 90.4914C30.1504 90.5291 30.0952 90.7326 30.0865 90.8983C30.011 92.2791 29.142 93.0698 27.7239 93.0553Z"/><path fill="#fff" d="M12.7053 57.6542C12.7024 58.4856 12.6763 58.5002 11.8858 58.3025C10.2933 57.9072 9.62781 56.7008 9.21805 55.2676C9.1454 55.0147 9.32848 54.9769 9.48831 54.9101C10.6362 54.4188 11.7986 54.8606 12.345 56.006C12.592 56.5234 12.7315 57.0729 12.7053 57.6542Z"/><path fill="#fff" d="M35.7243 90.4566C35.7185 91.6223 35.085 92.3607 33.9167 92.727C33.2018 92.9508 33.1989 92.9508 32.9868 92.2066C32.5509 90.6717 33.2948 89.3956 34.8321 89.0148C35.0937 88.9508 35.2448 89.0089 35.361 89.256C35.5703 89.6892 35.7069 90.1369 35.7243 90.4566Z"/><path fill="#fff" d="M7.47731 73.5962C7.49475 73.7532 7.50928 73.9101 7.50637 74.07C7.50637 74.1253 7.50637 74.1776 7.50346 74.2328C7.50346 74.2561 7.50637 74.2793 7.50637 74.3026C7.73886 74.4392 7.92194 74.6718 7.99459 75.0206C8.11374 75.5904 8.18058 76.1543 8.21545 76.7212C8.29682 76.4218 8.34041 76.1194 8.3346 75.8258C8.35494 74.8753 8.0963 74.1369 7.47731 73.5962Z"/><path fill="#fff" d="M16.1141 54.6164C15.8468 54.5874 15.5794 54.5205 15.315 54.5379C14.8674 54.567 14.8471 54.3519 14.9139 54.0001C15.2249 52.4333 16.7854 51.4129 18.3373 51.7705C18.4913 51.8054 18.6105 51.8519 18.5814 52.0438C18.4768 52.7734 18.2908 53.4711 17.7619 54.0205C17.3114 54.4914 16.736 54.6106 16.1141 54.6164Z"/><path fill="#fff" d="M29.0694 114.09C29.0897 114.759 28.9909 114.84 28.5027 114.648C27.4275 114.221 26.698 113.503 26.5615 112.297C26.5004 111.762 26.6109 111.643 27.1514 111.727C27.7646 111.823 28.2324 112.148 28.5666 112.672C28.8689 113.146 29.0229 113.672 29.0694 114.09Z"/><path fill="#fff" d="M32.051 108.744C31.7575 108.73 31.2199 108.808 31.0775 108.442C30.9554 108.131 31.4059 107.814 31.6587 107.549C32.3678 106.82 33.2309 106.613 34.2218 106.826C34.5473 106.895 34.5764 107.032 34.4805 107.32C34.1812 108.218 33.3355 108.747 32.051 108.744Z"/><path fill="#fff" d="M40.3769 89.5031C40.0776 89.1164 39.6853 88.8083 39.2435 88.6368C39.0517 88.5641 38.9616 88.5874 38.8803 88.7821C38.4938 89.7153 39.1011 91.3315 40.0456 91.7327C40.1706 91.785 40.2752 91.8286 40.3682 91.8606C40.3304 91.0728 40.2868 90.2763 40.3769 89.5031Z"/><path fill="#86BF88" d="M67.2754 61.2822C68.8825 61.7182 70.2135 62.2357 71.2713 62.8316C72.3262 63.4304 73.1544 63.9566 73.7501 64.4159C74.3459 64.8752 74.7847 65.1049 75.0579 65.1049C75.5635 65.1514 76.0459 65.6107 76.5051 66.4828C76.7812 68.32 77.0224 69.9508 77.2287 71.3752C77.435 72.7996 77.6297 74.2938 77.8128 75.8519C77.9959 77.413 78.1587 78.8839 78.2952 80.2618C78.4318 81.6397 78.5016 82.7182 78.5016 83.5002C78.5016 84.7851 78.4202 85.82 78.2604 86.599C78.0976 87.381 77.6297 87.9653 76.848 88.3549C76.0663 88.7444 74.7818 89.0089 72.9917 89.1485C71.6607 89.2386 70.6959 89.2182 70.1001 89.0787C69.5015 88.9421 69.0656 88.6892 68.7924 88.32C68.3797 88.6426 67.7026 88.8607 66.7611 88.974C65.8195 89.0903 64.5234 89.1456 62.8698 89.1456C60.7571 88.8258 58.9321 88.3985 57.3948 87.8723C55.8546 87.3461 54.3173 86.5409 52.78 85.4624C51.2398 84.3839 49.9669 82.9362 48.9585 81.1223C47.9472 79.3083 47.4648 77.0467 47.5113 74.3374C47.5578 71.6281 48.0634 69.4101 49.0253 67.6892C49.9901 65.9682 51.1613 64.6223 52.5388 63.6601C53.9162 62.695 55.2821 62.006 56.6363 61.5932C57.9905 61.1804 59.586 60.881 61.4226 60.6979C63.7155 60.6543 65.6655 60.849 67.2754 61.2822ZM66.5867 67.7938C66.3571 67.474 65.8631 67.1165 65.1046 66.7269C64.3461 66.3374 63.6341 66.0031 62.9686 65.7269C62.3031 65.4508 61.969 65.3607 61.969 65.4508C61.969 65.4973 61.7277 65.8752 61.2453 66.5874C60.7629 67.2996 60.2805 68.3345 59.7981 69.6892C59.3157 71.0438 59.0513 72.663 59.0048 74.5467C58.9583 76.4304 59.2111 78.0612 59.7632 79.4392C60.3154 80.8171 60.9925 81.8752 61.7946 82.6078C62.5967 83.3432 63.3435 83.7095 64.0323 83.7095C64.5379 83.7095 65.0203 83.4682 65.4795 82.9857C65.9386 82.5031 66.3281 81.9508 66.6506 81.3316C66.9703 80.7124 67.3161 79.9421 67.6852 79.0235L66.5867 67.7938Z"/><path fill="#86BF88" d="M87.5917 47.6775C88.7861 47.724 89.7713 47.849 90.553 48.0554C91.3319 48.2618 92.0206 48.6194 92.6192 49.1223C93.215 49.6281 93.5143 50.3403 93.5143 51.2589C93.5143 51.8577 93.5376 53.0728 93.5841 54.91C93.6276 56.7473 93.6741 58.9188 93.7206 61.4217C93.7671 63.9246 93.8253 66.4973 93.8921 69.1368C93.9618 71.7792 94.0171 74.2473 94.0635 76.5438C94.11 78.8403 94.1536 81.413 94.2001 84.2589C94.2001 85.224 94.0636 86.038 93.7875 86.7037C93.5114 87.3694 92.9825 87.9449 92.2037 88.4275C91.4219 88.91 90.274 89.1513 88.76 89.1513C86.7403 89.1513 85.2698 88.8868 84.3515 88.3577C83.4332 87.8316 82.8694 87.2327 82.6631 86.567C82.4567 85.9013 82.3754 85.3839 82.4218 85.0176C82.4683 84.8345 82.4916 84.0321 82.4916 82.6077C82.4916 81.1862 82.48 79.3926 82.4567 77.2327C82.4335 75.0757 82.3986 72.756 82.3521 70.2734C82.3056 67.7938 82.2591 65.3461 82.2155 62.9362C82.169 60.5263 82.1109 58.3664 82.0441 56.4595C81.9743 54.5554 81.9162 53.1426 81.8726 52.2211C81.7796 50.9362 82.0906 49.9711 82.8025 49.3287C83.5145 48.6862 84.3399 48.2618 85.2814 48.0554C86.2259 47.849 86.9931 47.724 87.5917 47.6775Z"/><path fill="#86BF88" d="M100.779 59.6979C99.9745 59.4449 99.2538 58.974 98.6086 58.2851C97.9664 57.5961 97.6206 56.5612 97.577 55.1833C97.5305 53.8054 97.7368 52.7851 98.196 52.1165C98.6551 51.4508 99.2305 50.9915 99.9193 50.7385C100.608 50.4856 101.274 50.349 101.916 50.3258C102.558 50.3025 103.017 50.2676 103.293 50.2211C103.569 50.1746 104.028 50.2095 104.671 50.3258C105.313 50.442 105.978 50.6949 106.667 51.0845C107.356 51.474 107.928 52.0496 108.388 52.8054C108.847 53.5641 109.03 54.5612 108.94 55.8025C108.847 56.9973 108.536 57.9042 108.01 58.5234C107.481 59.1426 106.885 59.5583 106.22 59.7647C105.554 59.9711 104.74 60.099 103.776 60.1426C102.581 60.1019 101.582 59.9508 100.779 59.6979ZM99.7129 69.1717C99.3003 68.2066 99.0475 67.6339 98.9545 67.4508C98.908 67.3141 98.8266 67.0263 98.7133 66.5903C98.597 66.1542 98.7133 65.6833 99.0591 65.1775C99.402 64.6717 100.172 64.3054 101.366 64.0758C102.607 63.8461 103.892 63.7763 105.223 63.8694C106.554 63.9624 107.737 64.3635 108.771 65.0758C109.803 65.788 110.433 67.0176 110.666 68.7618C110.849 70.0496 111.032 71.5758 111.218 73.3432C111.401 75.1106 111.573 76.8345 111.735 78.5089C111.895 80.1862 112.09 82.1484 112.319 84.3984C112.412 85.3635 112.366 86.1542 112.183 86.7763C112 87.3955 111.552 87.9479 110.84 88.4304C110.128 88.913 108.992 89.1542 107.431 89.1542C105.871 89.1542 104.677 88.9362 103.851 88.5002C103.026 88.0641 102.439 87.5699 102.096 87.0176C101.753 86.4653 101.512 85.756 101.372 84.881L99.7129 69.1717Z"/><path fill="#86BF88" d="M118.998 99.0031L116.725 71.0322C116.312 70.2967 116.013 69.6427 115.83 69.07C115.647 68.4973 115.6 67.9334 115.693 67.381C115.783 66.8287 116.129 66.3723 116.725 66.0031C117.231 65.727 118.161 65.1892 119.515 64.384C120.869 63.5816 122.534 62.788 124.508 62.006C126.481 61.2241 128.605 60.6747 130.878 60.352C133.15 60.0322 135.446 60.1572 137.765 60.7299C140.084 61.3055 142.275 62.5787 144.341 64.5526C146.361 66.4828 147.622 68.6165 148.131 70.9595C148.637 73.3026 148.602 75.5991 148.026 77.8491C147.451 80.0991 146.512 82.0758 145.202 83.7735C143.894 85.4741 142.412 86.6659 140.758 87.3549C138.509 88.2735 136.579 88.8374 134.972 89.0438C133.365 89.2502 131.688 89.2851 129.945 89.1485L130.633 99.5526C130.633 100.471 130.506 101.23 130.256 101.826C130.003 102.422 129.486 102.939 128.707 103.375C127.925 103.811 126.777 104.029 125.263 104.029C123.243 103.983 121.785 103.66 120.889 103.064C119.994 102.465 119.454 101.779 119.271 100.997C119.088 100.221 118.998 99.5555 118.998 99.0031ZM129.329 82.884C130.889 82.884 132.162 82.7473 133.15 82.4712C134.138 82.195 134.998 81.6688 135.734 80.8869C136.469 80.1049 136.789 78.9363 136.698 77.3723C136.605 75.3055 136.376 73.4566 136.01 71.8258C135.641 70.195 135.091 68.945 134.356 68.07C133.621 67.1979 132.61 66.8752 131.325 67.1049C130.038 67.3345 129.154 67.506 128.675 67.6223C128.192 67.7386 127.905 67.8403 127.815 67.9334L129.329 82.884Z"/><path fill="#86BF88" d="M171.132 61.2822C172.739 61.7182 174.07 62.2357 175.128 62.8316C176.183 63.4304 177.011 63.9566 177.607 64.4159C178.203 64.8752 178.639 65.1049 178.915 65.1049C179.421 65.1514 179.903 65.6107 180.362 66.4828C180.638 68.32 180.879 69.9508 181.086 71.3752C181.292 72.7996 181.487 74.2938 181.67 75.8519C181.853 77.413 182.013 78.8839 182.152 80.2618C182.289 81.6397 182.359 82.7182 182.359 83.5002C182.359 84.7851 182.277 85.82 182.117 86.599C181.955 87.381 181.487 87.9653 180.705 88.3549C179.923 88.7444 178.639 89.0089 176.849 89.1485C175.518 89.2386 174.553 89.2182 173.957 89.0787C173.361 88.9421 172.925 88.6892 172.649 88.32C172.237 88.6426 171.56 88.8607 170.618 88.974C169.676 89.0903 168.38 89.1456 166.727 89.1456C164.614 88.8258 162.789 88.3985 161.252 87.8723C159.712 87.3461 158.174 86.5409 156.637 85.4624C155.1 84.3839 153.824 82.9362 152.815 81.1223C151.804 79.3083 151.322 77.0467 151.368 74.3374C151.415 71.6281 151.92 69.4101 152.882 67.6892C153.847 65.9682 155.018 64.6223 156.396 63.6601C157.773 62.6979 159.139 62.006 160.493 61.5932C161.848 61.1804 163.443 60.881 165.28 60.6979C167.575 60.6543 169.525 60.849 171.132 61.2822ZM170.444 67.7938C170.214 67.474 169.72 67.1165 168.965 66.7269C168.206 66.3374 167.494 66.0031 166.829 65.7269C166.163 65.4508 165.829 65.3607 165.829 65.4508C165.829 65.4973 165.588 65.8752 165.105 66.5874C164.623 67.2996 164.14 68.3345 163.658 69.6892C163.176 71.0438 162.911 72.663 162.865 74.5467C162.818 76.4304 163.071 78.0612 163.623 79.4392C164.175 80.8171 164.852 81.8752 165.655 82.6078C166.457 83.3432 167.203 83.7095 167.892 83.7095C168.398 83.7095 168.88 83.4682 169.339 82.9857C169.799 82.5031 170.188 81.9508 170.511 81.3316C170.83 80.7124 171.176 79.9421 171.542 79.0235L170.444 67.7938Z"/><path fill="#86BF88" d="M192.655 51.1571C192.861 50.631 193.355 50.1135 194.137 49.6077C194.916 49.1019 196.203 48.8286 197.993 48.7821C199.6 48.7356 200.818 48.9304 201.643 49.3664C202.469 49.8025 203.181 50.4333 203.779 51.2618C204.788 53.6513 205.729 55.8199 206.604 57.7734C207.476 59.7269 208.441 61.8955 209.495 64.285C210.55 66.6746 211.62 69.0961 212.698 71.5525C213.776 74.0089 214.787 76.3054 215.729 78.442C216.671 80.5786 217.461 82.3693 218.106 83.817C218.748 85.2647 219.161 86.1717 219.347 86.5379C219.76 87.41 219.989 88.0321 220.036 88.3984C220.082 88.7676 220.071 89.0089 220.001 89.1222C219.931 89.2356 219.896 89.317 219.896 89.3635C219.574 90.006 218.943 90.5699 218.001 91.0525C217.06 91.535 215.924 91.7996 214.593 91.8461C212.756 91.8926 211.425 91.6978 210.597 91.2618C209.771 90.8257 209.231 90.3897 208.978 89.9536C208.725 89.5176 208.621 89.3228 208.667 89.3693C207.702 87.256 206.9 85.4536 206.258 83.9623C205.616 82.4711 205.017 81.1048 204.468 79.8635C203.227 79.8635 202.195 79.8635 201.367 79.8635C200.542 79.8635 199.507 79.8635 198.266 79.8635C198.083 80.506 197.897 81.2996 197.714 82.2414C197.531 83.1833 197.302 84.3897 197.025 85.8577C196.613 86.9594 195.968 87.7879 195.096 88.3374C194.224 88.8897 192.777 89.1629 190.757 89.1629C189.243 89.1629 188.107 88.9914 187.348 88.6455C186.59 88.2996 186.084 87.8984 185.834 87.4391C185.581 86.9798 185.456 86.4042 185.456 85.7182C185.547 85.2589 185.741 84.3054 186.041 82.8577C186.34 81.41 186.706 79.6658 187.142 77.6222C187.578 75.5786 188.037 73.41 188.519 71.1106C189.002 68.8141 189.473 66.5408 189.932 64.2908C190.391 62.0408 190.804 59.9856 191.173 58.1251C191.539 56.2647 191.951 54.2094 192.414 51.9594C192.37 51.9478 192.448 51.6833 192.655 51.1571ZM199.647 62.8344C199.6 63.0176 199.554 63.3868 199.51 63.9362L199.234 65.8664C199.141 66.9246 199.028 68.0496 198.891 69.2414C198.755 70.4362 198.615 71.5612 198.479 72.6164C198.386 73.1687 198.316 73.5118 198.272 73.6484H199.167C199.719 73.6484 200.315 73.6251 200.957 73.5786C201.6 73.5321 202.172 73.5089 202.678 73.5089C202.495 73.1426 202.344 72.6716 202.23 72.0961C202.114 71.5234 201.989 70.9827 201.852 70.4769C201.576 69.4217 201.268 68.3199 200.923 67.1687C200.58 66.0205 200.269 64.942 199.993 63.9304C199.853 63.3839 199.737 63.0176 199.647 62.8344Z"/><path fill="#86BF88" d="M225.336 99.0031L223.064 71.0322C222.651 70.2967 222.352 69.6427 222.169 69.07C221.986 68.4973 221.939 67.9334 222.032 67.381C222.122 66.8287 222.468 66.3723 223.064 66.0031C223.569 65.727 224.499 65.1892 225.854 64.384C227.208 63.5816 228.873 62.788 230.846 62.006C232.819 61.2241 234.944 60.6747 237.216 60.352C239.489 60.0322 241.785 60.1572 244.104 60.7299C246.423 61.3055 248.614 62.5787 250.68 64.5526C252.7 66.4828 253.961 68.6165 254.47 70.9595C254.975 73.3026 254.94 75.5991 254.365 77.8491C253.79 80.0991 252.851 82.0758 251.54 83.7735C250.233 85.4741 248.751 86.6659 247.097 87.3549C244.848 88.2735 242.918 88.8374 241.311 89.0438C239.704 89.2502 238.027 89.2851 236.284 89.1485L236.972 99.5526C236.972 100.471 236.844 101.23 236.594 101.826C236.342 102.422 235.824 102.939 235.046 103.375C234.264 103.811 233.116 104.029 231.602 104.029C229.582 103.983 228.123 103.66 227.228 103.064C226.333 102.465 225.793 101.779 225.61 100.997C225.426 100.221 225.336 99.5555 225.336 99.0031ZM235.667 82.884C237.228 82.884 238.501 82.7473 239.489 82.4712C240.477 82.195 241.337 81.6688 242.072 80.8869C242.808 80.1049 243.127 78.9363 243.037 77.3723C242.944 75.3055 242.715 73.4566 242.348 71.8258C241.979 70.195 241.43 68.945 240.695 68.07C239.96 67.1979 238.948 66.8752 237.664 67.1049C236.377 67.3345 235.493 67.506 235.014 67.6223C234.531 67.7386 234.243 67.8403 234.153 67.9334L235.667 82.884Z"/><path fill="#86BF88" d="M260.599 99.0031L258.326 71.0322C257.913 70.2967 257.614 69.6427 257.431 69.07C257.248 68.4973 257.201 67.9334 257.294 67.381C257.385 66.8287 257.73 66.3723 258.326 66.0031C258.832 65.727 259.762 65.1892 261.116 64.384C262.47 63.5816 264.135 62.788 266.109 62.006C268.082 61.2241 270.206 60.6747 272.479 60.352C274.751 60.0322 277.047 60.1572 279.366 60.7299C281.685 61.3055 283.876 62.5787 285.942 64.5526C287.962 66.4828 289.223 68.6165 289.732 70.9595C290.238 73.3026 290.203 75.5991 289.627 77.8491C289.052 80.0991 288.113 82.0758 286.803 83.7735C285.495 85.4741 284.013 86.6659 282.359 87.3549C280.11 88.2735 278.18 88.8374 276.573 89.0438C274.966 89.2502 273.289 89.2851 271.546 89.1485L272.235 99.5526C272.235 100.471 272.107 101.23 271.857 101.826C271.604 102.422 271.087 102.939 270.308 103.375C269.526 103.811 268.378 104.029 266.864 104.029C264.844 103.983 263.386 103.66 262.49 103.064C261.595 102.465 261.055 101.779 260.872 100.997C260.689 100.221 260.599 99.5555 260.599 99.0031ZM270.93 82.884C272.49 82.884 273.763 82.7473 274.751 82.4712C275.739 82.195 276.599 81.6688 277.335 80.8869C278.07 80.1049 278.39 78.9363 278.299 77.3723C278.206 75.3055 277.977 73.4566 277.611 71.8258C277.242 70.195 276.692 68.945 275.957 68.07C275.222 67.1979 274.211 66.8752 272.926 67.1049C271.639 67.3345 270.755 67.506 270.276 67.6223C269.793 67.7386 269.506 67.8403 269.416 67.9334L270.93 82.884Z"/></svg>