<svg xmlns="http://www.w3.org/2000/svg" viewBox="0 0 187 402.75"><defs><style>.cls-1{fill:#86bf88;}.cls-2{fill:#fff;}</style></defs><g id="Layer_2" data-name="Layer 2"><g id="TalipaApp"><path class="cls-1" d="M0,39.46Q-.63,22.84,10,12.51T57.26.2q24.62-1.32,35.93,6t17.3,22.62l4,59.22q22,0,36.26,2.33a70.23,70.23,0,0,1,25.28,9Q187,106,187,120T176.35,140.6a66.45,66.45,0,0,1-24.62,9q-14,2.34-35.93,2.33.66,29.94.67,53.56t.67,50.23q.66,26.63.67,50.9t.33,40.59q.33,16.31.33,19,0,4.67-3,13.31t-15.3,16q-12.32,7.33-40.25,7.32-20.62,0-31.94-5t-16.3-11.31q-5-6.31-6.32-16.3Z"/><g id="Tree"><path class="cls-2" d="M112.86,330.78q2.33-1,4.56-2.06c0-.59,0-1.18,0-1.77a3.84,3.84,0,0,1-.53-1.95c0-.33,0-.66,0-1l-.46.2c.13-.93.29-1.83.44-2.74,0-2.78-.1-5.56-.16-8.35-1.66,3.73-3.08,7.55-4.41,11.41a2.6,2.6,0,0,1-1.8,1.86c-12.19,4-24.84,5.51-37.65,7,1.94-1.68,3.8-3.24,5.61-4.87a39.14,39.14,0,0,0,4.92-5.45A31.53,31.53,0,0,0,87,316.73c1-2.16,1.72-4.4,2.56-6.61l-.38-.16c-.24.35-.48.7-.71,1.06-4.72,7.35-10.24,14-17.41,19.1-3.27,2.33-6.32,5-10.29,6.22-10,3-19.58,7-27.52,14.22a1.47,1.47,0,0,1,0-1.11c2-10.72,4.94-21.23,6.76-32a26.1,26.1,0,0,1,7.77-8.16,1.78,1.78,0,0,1,.64-.12c3.16-.63,6.37-.87,9.56-1.24,2.26-.27,4.58-.22,7.15-1.29-7,0-10.48-.5-12.57-1.84.26-.22.49-.45.74-.65,9.7-7.66,20.25-14,31.07-19.92,3.07-1.68,6-2.34,9.24-1.23a7.78,7.78,0,0,0,1.44.27,41.74,41.74,0,0,0,7.31.65c-3.31-1.17-6.63-2.24-10-3.72,6.88-4,14-7.3,18.86-13.58-1.27.91-2.48,1.91-3.81,2.73-7,4.35-14.7,7.37-22.47,10.08-5.86,2.05-11.78,3.92-17.67,5.87-1.44.48-2.21,0-2.3-1.54a13.49,13.49,0,0,1,.92-5.45,32.09,32.09,0,0,0,1.36-16.11,2.72,2.72,0,0,1,.51-2.26c4.51-5.9,2.59-13.21-4.21-16.3-.48-.22-.83-.35-1.28.15-4.6,5.21-5.56,12.06,1.83,16,2.57,1.37,3.09,2.86,2.79,5.27-.06.49-.1,1-.18,1.46-1.08,6.78-3.83,12.91-7.24,18.8a18.78,18.78,0,0,1-5.75,6.37,83.17,83.17,0,0,1-8.76,5.09,3.49,3.49,0,0,0-2,1.62c.2-4.06.6-8.05.78-12.05.53-11.83-.14-23.53-3.26-35a3.79,3.79,0,0,1,0-1.92,58.1,58.1,0,0,1,4.59-11.68,1.87,1.87,0,0,1,2.14-1.22,62.36,62.36,0,0,0,18.52-1.47c5.87-1.42,11.5-3.41,16.33-7.18a8.15,8.15,0,0,0,3-3.7A53.12,53.12,0,0,1,67.69,231,45.78,45.78,0,0,1,49,231a143.88,143.88,0,0,1,20.59-26,38.61,38.61,0,0,0-9.44,6.27,104.56,104.56,0,0,0-8.44,8.25,44.07,44.07,0,0,0-1.13-15.35,5.12,5.12,0,0,0-.11,1.29,81.75,81.75,0,0,1-1,13.53c-.27,1.64-.34,3.37-1.45,4.78-2.06,2.61-4.15,5.2-6.14,7.86-1.81,2.42-3.51,4.93-5.37,7.56-2.07-5.16-5.31-9.32-8.81-13.3a2.3,2.3,0,0,1-.58-1.93c.38-3.63.78-7.26,1-10.9.43-6.88.29-13.73-1.73-20.42a33.28,33.28,0,0,1-1.3-12.94c.12-1.19.33-2.37.5-3.55a1.2,1.2,0,0,0-.67.58c-3.12,5.4-3.05,11.28-2.39,17.18.39,3.47,1,6.9.78,10.41A22.4,22.4,0,0,1,20.27,214c-.3.52-.56,1.28-1.44.51-4.18-3.7-9.12-6.14-14.19-8.32a10.91,10.91,0,0,1-2-1.1c0,3.76.15,7.56.22,11.32,0,2,.32,4,.2,5.88C14,228.47,20.94,238.2,24.31,251c1.6,6.06,1.49,12.32,1.27,18.54a161,161,0,0,1-3.14,25,10.27,10.27,0,0,0-.58-1.05,34.39,34.39,0,0,0-8.34-8.25,14,14,0,0,1-6.34-9.39,44.43,44.43,0,0,0-2.51-8c.08,3.26.06,6.53,0,9.79a4.22,4.22,0,0,1,3.49,4.07,96,96,0,0,1-.66,11.26c4.86,4.71,8.55,10.15,9.81,17,.27,1.48.68,3,.16,4.52-1.27,3.83-2.42,7.69-3.73,11.51a10.94,10.94,0,0,1-1.42,3.29,19.09,19.09,0,0,0-7.55-5.89,26.82,26.82,0,0,1-.09,5.06,3.79,3.79,0,0,1,.17,1.72c-.07.67-.15,1.34-.23,2,.17,4.27,1,8.58.5,12.81a4.05,4.05,0,0,1-.17.8c0,.63.09,1.27.12,1.9s.09,1.26.09,1.89q0,.69,0,1.38a43.27,43.27,0,0,1,.7,5.47c.15,2.44.58,4.95-.11,7.32-.16.53-.29,1.07-.44,1.6.06.68.13,1.37.23,2.05a19,19,0,0,1-.12,4.83,3.38,3.38,0,0,1,.08.34c0,.07,0,.13.07.21.51,2.3,1.57,4.12,1.67,6.52.12.32.27.63.4,1a35.1,35.1,0,0,0,4,6,31.15,31.15,0,0,0,9,7.4,66.73,66.73,0,0,0,11.13,5.15c-.16-10.92,1.78-21.31,7.86-30.66,3.3-5.07,7.48-9.23,13.13-11.68a15.14,15.14,0,0,1,9.9-1c.72.18,1.23.39,1.17,1.39a23.89,23.89,0,0,0,2.22,10.94,6.87,6.87,0,0,0,1.69,2.8c-.9-2.57-.66-5.19-.53-7.79.08-1.68.49-3.36.49-5s.54-1.57,1.72-1a47.15,47.15,0,0,1,13.3,9.38,74.64,74.64,0,0,1,5.8,6.38,26.9,26.9,0,0,0-8.71-12.6c-5.21-4.43-11.32-7.33-17.47-10.16-1-.44-2.51-.71-2.49-1.77s1.57-1.33,2.57-1.68a137.35,137.35,0,0,1,19.18-4.73,2.51,2.51,0,0,1,1.84.47,72.2,72.2,0,0,0,13.77,6.36,69.32,69.32,0,0,0,20.06,4c0-.78,0-1.57,0-2.36-9.91-1.8-19-6.37-28.31-11.09,1.34-.31,2.28-.5,3.2-.74A167.59,167.59,0,0,0,112.86,330.78Z"/><path class="cls-2" d="M17.46,150.18c1.4.71,3,1,4.32,1.86,5,3.28,6.39,8.3,6.45,13.87a18.65,18.65,0,0,1-1.34,7c-.71,1.78-1.38,2-2.86.88-5.32-4-9-9-8.8-16.08a22,22,0,0,1,1.9-7.56Z"/><path class="cls-2" d="M80.15,206.17a13.24,13.24,0,0,1-7.07-1.9,1.38,1.38,0,0,1-.85-1.08c-.64-4.41,1.93-10.16,5.81-12.35,4.4-2.48,9-2.16,13.52-.33a1.15,1.15,0,0,1,.8,1.26c-.22,4.24-3.1,11-7.91,13.35A8.46,8.46,0,0,1,80.15,206.17Z"/><path class="cls-2" d="M116.3,249.31a17.27,17.27,0,0,0-1.26,3.18c-1.05,3.65-.69,7.44-1.57,11.45a5.39,5.39,0,0,1,3-1.43C116.37,258.11,116.37,253.71,116.3,249.31Z"/><path class="cls-2" d="M116.14,280.64c0-.83,0-1.71.14-2.59a42.84,42.84,0,0,0-4.55,2.48c-1.47.9-2.72,2.35-4.84,2a7.19,7.19,0,0,1,3.2,2.15,28.77,28.77,0,0,0,3,2.53,21.36,21.36,0,0,0,3.34,1.95C116.28,286.35,116.11,283.48,116.14,280.64Z"/><path class="cls-2" d="M89.88,374.53c1.91,2,4.46,1.3,6.64,1.88,3.07.82,6.06,1.67,8.39,4s2.73,5.09,2.54,8.13c0,.74-.53.89-1.07,1a16.94,16.94,0,0,1-8.22,0,8.67,8.67,0,0,1-5.88-5.22,19.67,19.67,0,0,1-1.46-5.66C90.68,377.31,91,375.81,89.88,374.53Z"/><path class="cls-2" d="M100.35,262.34a17.34,17.34,0,0,1-2.74,9.22c-1,1.67-1.68,1.7-2.9.21-3.59-4.38-5.59-9.21-4.11-15a18.68,18.68,0,0,1,2.16-4.75c.52-.88,1-1,2-.46C98.64,254,100.48,257.52,100.35,262.34Z"/><path class="cls-2" d="M50.42,202.41a23,23,0,0,0-3.79-2.06,13.52,13.52,0,0,1-7.11-14.66c.19-1.09.43-1.55,1.76-1.21,6.7,1.74,9.72,5.84,9.35,12.74C50.54,198.94,49.76,200.63,50.42,202.41Z"/><path class="cls-2" d="M89.45,239.63c-5.79.31-9.73-1.63-12.71-5.66-.74-1-.58-1.51.4-2.18a9.9,9.9,0,0,1,8.48-1.7,16,16,0,0,1,9,6.1c1.11,1.48.93,1.94-.81,2.51A17.71,17.71,0,0,1,89.45,239.63Z"/><path class="cls-2" d="M69.38,213c2.68-.11,5.14,1.29,7.58,2.76.43.26.77.58.33,1.17-2.05,2.72-4.14,5.35-7.79,6-2.35.43-4.39-.38-6.38-1.42a16,16,0,0,1-1.92-1.23c-2.09-1.52-2.08-1.53-.29-3.61A10.13,10.13,0,0,1,69.38,213Z"/><path class="cls-2" d="M102.58,213.26c0,5.82-4.35,9.49-9.58,10.51a5.36,5.36,0,0,1-3.22.09c-.47-.2-.9-.33-.77-1,.75-4,2.08-7.68,5.51-10.21a10.39,10.39,0,0,1,6.29-2C102.53,210.67,102.6,210.76,102.58,213.26Z"/><path class="cls-2" d="M117.26,359.58q0-2,.09-4.05c0-.39,0-.78,0-1.16a11.4,11.4,0,0,1-4.35-1.13c-.32-.19-.5-.9-1-.41a1.05,1.05,0,0,0-.07,1.23,34.36,34.36,0,0,0,2.19,4,13.64,13.64,0,0,0,3.15,3.42C117.25,360.86,117.26,360.22,117.26,359.58Z"/><path class="cls-2" d="M73,309.3a13,13,0,0,1-6.51-1.86c-.83-.45-.74-.81-.29-1.49,3.71-5.6,8.46-6.32,14.25-5.47.9.13.71.83.68,1.4C80.9,306.63,77.91,309.35,73,309.3Z"/><path class="cls-2" d="M21.34,187.51c0,2.86-.1,2.91-2.82,2.23-5.48-1.36-7.77-5.51-9.18-10.44-.25-.87.38-1,.93-1.23a7.28,7.28,0,0,1,9.83,3.77A11.7,11.7,0,0,1,21.34,187.51Z"/><path class="cls-2" d="M100.55,300.36c0,4-2.2,6.55-6.22,7.81-2.46.77-2.47.77-3.2-1.79-1.5-5.28,1.06-9.67,6.35-11a1.35,1.35,0,0,1,1.82.83A12,12,0,0,1,100.55,300.36Z"/><path class="cls-2" d="M3.36,242.36a12.63,12.63,0,0,1,.1,1.63c0,.19,0,.37,0,.56s0,.16,0,.24a3.58,3.58,0,0,1,1.68,2.47,40.57,40.57,0,0,1,.76,5.85A11,11,0,0,0,6.31,250C6.37,246.76,5.49,244.22,3.36,242.36Z"/><path class="cls-2" d="M33.07,177.07a16.11,16.11,0,0,0-2.75-.27c-1.54.1-1.61-.64-1.38-1.85a9.84,9.84,0,0,1,11.78-7.67c.53.12.94.28.84.94-.36,2.51-1,4.91-2.82,6.8A7.45,7.45,0,0,1,33.07,177.07Z"/><path class="cls-2" d="M77.65,381.66c.07,2.3-.27,2.58-2,1.92-3.7-1.47-6.21-3.94-6.68-8.09-.21-1.84.17-2.25,2-2a6.84,6.84,0,0,1,4.87,3.25A11.57,11.57,0,0,1,77.65,381.66Z"/><path class="cls-2" d="M87.92,363.26c-1-.05-2.86.22-3.35-1-.42-1.07,1.13-2.16,2-3.07a8.91,8.91,0,0,1,8.82-2.49c1.12.24,1.22.71.89,1.7C95.25,361.46,92.33,363.27,87.92,363.26Z"/><path class="cls-2" d="M116.56,297.07a9.23,9.23,0,0,0-3.9-3c-.66-.25-1-.17-1.25.5-1.33,3.21.76,8.77,4,10.15.43.18.79.33,1.11.44A49.89,49.89,0,0,1,116.56,297.07Z"/></g></g></g></svg>