<svg width="1301" height="627" viewBox="0 0 1301 627" fill="none" xmlns="http://www.w3.org/2000/svg">
<g opacity="0.5" clip-path="url(#clip0_32_195)">
<rect width="1301" height="627" fill="url(#paint0_linear_32_195)"/>
<g filter="url(#filter0_d_32_195)">
<path d="M1199.78 499.909C1286.58 458.309 1298.61 377.909 1293.78 342.909V248.909C1293.78 200.409 1321.78 171.909 1265.78 -12.591C1209.78 -197.091 1157.78 -23.091 1014.78 39.909C871.778 102.909 927.778 81.409 722.278 81.409C516.778 81.409 530.278 175.409 418.778 297.409C307.278 419.409 328.278 422.909 356.278 499.909C384.278 576.909 408.278 593.909 530.278 572.909C652.278 551.909 607.278 562.409 683.778 478.909C760.278 395.409 798.778 443.909 851.278 422.909C903.778 401.909 924.278 433.409 959.278 478.909C994.278 524.409 1091.28 551.909 1199.78 499.909Z" fill="url(#paint1_linear_32_195)"/>
</g>
<g filter="url(#filter1_d_32_195)">
<path d="M950.382 155.452C1056.31 93.1777 971.69 3.03394 916.137 -34.2536C893.307 -25.0279 846.505 -14.6488 707.813 -82.6891C569.12 -150.729 569.12 -78.0762 536.587 -52.1286C504.054 -26.1811 417.3 -34.2536 365.361 13.6052C313.423 61.464 419.012 55.6979 350.522 138.73C282.031 221.762 311.71 186.589 385.908 293.839C460.106 401.089 421.866 361.302 606.789 427.613C791.713 493.923 627.336 324.976 754.044 316.327C880.751 307.677 817.968 233.294 950.382 155.452Z" fill="url(#paint2_linear_32_195)" shape-rendering="crispEdges"/>
</g>
<g filter="url(#filter2_d_32_195)">
<path d="M476.407 176.908C560.979 65.3355 473.905 67.8484 463.396 0H-1V626.718C71.2282 628.393 220.389 623.401 239.205 590.029C262.725 548.315 250.715 542.787 335.787 512.632C420.86 482.477 361.809 457.348 379.825 385.479C397.84 313.61 391.835 288.481 476.407 176.908Z" fill="url(#paint3_linear_32_195)" shape-rendering="crispEdges"/>
</g>
</g>
<defs>
<filter id="filter0_d_32_195" x="330" y="-95" width="974.778" height="684.197" filterUnits="userSpaceOnUse" color-interpolation-filters="sRGB">
<feFlood flood-opacity="0" result="BackgroundImageFix"/>
<feColorMatrix in="SourceAlpha" type="matrix" values="0 0 0 0 0 0 0 0 0 0 0 0 0 0 0 0 0 0 127 0" result="hardAlpha"/>
<feOffset dy="4"/>
<feGaussianBlur stdDeviation="2"/>
<feComposite in2="hardAlpha" operator="out"/>
<feColorMatrix type="matrix" values="0 0 0 0 0 0 0 0 0 0 0 0 0 0 0 0 0 0 0.25 0"/>
<feBlend mode="normal" in2="BackgroundImageFix" result="effect1_dropShadow_32_195"/>
<feBlend mode="normal" in="SourceGraphic" in2="effect1_dropShadow_32_195" result="shape"/>
</filter>
<filter id="filter1_d_32_195" x="308" y="-111" width="697" height="562" filterUnits="userSpaceOnUse" color-interpolation-filters="sRGB">
<feFlood flood-opacity="0" result="BackgroundImageFix"/>
<feColorMatrix in="SourceAlpha" type="matrix" values="0 0 0 0 0 0 0 0 0 0 0 0 0 0 0 0 0 0 127 0" result="hardAlpha"/>
<feOffset dy="4"/>
<feGaussianBlur stdDeviation="2"/>
<feComposite in2="hardAlpha" operator="out"/>
<feColorMatrix type="matrix" values="0 0 0 0 0 0 0 0 0 0 0 0 0 0 0 0 0 0 0.25 0"/>
<feBlend mode="normal" in2="BackgroundImageFix" result="effect1_dropShadow_32_195"/>
<feBlend mode="normal" in="SourceGraphic" in2="effect1_dropShadow_32_195" result="shape"/>
</filter>
<filter id="filter2_d_32_195" x="-5" y="0" width="522" height="635" filterUnits="userSpaceOnUse" color-interpolation-filters="sRGB">
<feFlood flood-opacity="0" result="BackgroundImageFix"/>
<feColorMatrix in="SourceAlpha" type="matrix" values="0 0 0 0 0 0 0 0 0 0 0 0 0 0 0 0 0 0 127 0" result="hardAlpha"/>
<feOffset dy="4"/>
<feGaussianBlur stdDeviation="2"/>
<feComposite in2="hardAlpha" operator="out"/>
<feColorMatrix type="matrix" values="0 0 0 0 0 0 0 0 0 0 0 0 0 0 0 0 0 0 0.25 0"/>
<feBlend mode="normal" in2="BackgroundImageFix" result="effect1_dropShadow_32_195"/>
<feBlend mode="normal" in="SourceGraphic" in2="effect1_dropShadow_32_195" result="shape"/>
</filter>
<linearGradient id="paint0_linear_32_195" x1="-48.5" y1="23.5" x2="1678" y2="762" gradientUnits="userSpaceOnUse">
<stop stop-color="#212529"/>
<stop offset="1" stop-color="#1B4332" stop-opacity="0.1"/>
</linearGradient>
<linearGradient id="paint1_linear_32_195" x1="400.5" y1="417.5" x2="1301" y2="420" gradientUnits="userSpaceOnUse">
<stop stop-color="#3D6856"/>
<stop offset="1" stop-color="#212529"/>
</linearGradient>
<linearGradient id="paint2_linear_32_195" x1="483" y1="-85.5" x2="1231.5" y2="532.5" gradientUnits="userSpaceOnUse">
<stop stop-color="#86BF88"/>
<stop offset="1" stop-color="white" stop-opacity="0"/>
</linearGradient>
<linearGradient id="paint3_linear_32_195" x1="37.5" y1="-3.67919e-06" x2="256" y2="627" gradientUnits="userSpaceOnUse">
<stop stop-color="#D8F3DC"/>
<stop offset="0.317909" stop-color="#40916C" stop-opacity="0.7"/>
<stop offset="0.651042" stop-color="#95D5B2" stop-opacity="0.4"/>
<stop offset="1" stop-color="#52B788" stop-opacity="0.3"/>
</linearGradient>
<clipPath id="clip0_32_195">
<rect width="1301" height="627" fill="white"/>
</clipPath>
</defs>
</svg>
