<svg width="94" height="64" viewBox="0 0 94 64" fill="none" xmlns="http://www.w3.org/2000/svg">
<path d="M46.252 0C48.3061 0 50.1658 0.848408 51.5119 2.21986C52.8581 3.5912 53.6909 5.48589 53.6909 7.57839C53.6909 9.67083 52.8581 11.5656 51.5119 12.937C50.1658 14.3084 48.3061 15.1569 46.252 15.1569C44.1981 15.1569 42.3382 14.3084 40.992 12.937C39.6458 11.5656 38.813 9.67083 38.813 7.57839C38.813 5.48595 39.6458 3.59126 40.992 2.21986C42.3382 0.848408 44.1981 0 46.252 0ZM48.7645 5.01882C48.1217 4.36395 47.2333 3.95886 46.252 3.95886C45.2707 3.95886 44.3822 4.36402 43.7395 5.01882C43.0967 5.67362 42.699 6.57868 42.699 7.57839C42.699 8.5781 43.0967 9.48322 43.7395 10.138C44.3822 10.7929 45.2707 11.198 46.252 11.198C47.2333 11.198 48.1217 10.7929 48.7645 10.138C49.4072 9.48322 49.805 8.57809 49.805 7.57845C49.805 6.57868 49.4073 5.67368 48.7645 5.01888V5.01882ZM54.6425 40.259C54.6425 39.1659 53.7725 38.2797 52.6995 38.2797C51.6264 38.2797 50.7565 39.1659 50.7565 40.259V61.3141C50.7565 62.4073 51.6264 63.2935 52.6995 63.2935C53.7725 63.2935 54.6425 62.4073 54.6425 61.3141V40.259ZM43.28 40.259C43.28 39.1659 42.41 38.2797 41.3371 38.2797C40.2639 38.2797 39.394 39.1659 39.394 40.259V61.3141C39.394 62.4073 40.2639 63.2935 41.337 63.2935C42.41 63.2935 43.28 62.4073 43.28 61.3141V40.259Z" fill="#5C5C5C"/>
<path d="M45.1311 17.8967H48.9056C50.4853 17.8967 51.9201 18.5537 52.9589 19.612C53.9977 20.6704 54.6426 22.1321 54.6426 23.7414V44.5458C54.6426 45.6389 53.7727 46.5251 52.6997 46.5251H41.337C40.264 46.5251 39.394 45.6389 39.394 44.5458V23.7414C39.394 22.1321 40.0389 20.6704 41.0777 19.612C42.1165 18.5537 43.5513 17.8967 45.1311 17.8967H45.1311ZM48.9056 21.8555H45.1311C44.6241 21.8555 44.1617 22.0683 43.8253 22.411C43.4889 22.7537 43.28 23.2248 43.28 23.7414V42.5663H50.7566V23.7414C50.7566 23.2248 50.5477 22.7537 50.2114 22.411C49.875 22.0684 49.4125 21.8555 48.9056 21.8555Z" fill="#5C5C5C"/>
<path d="M30.4145 5.84005C29.6768 5.0501 28.45 5.01899 27.6746 5.77053C26.8992 6.52207 26.8686 7.7718 27.6063 8.56175L39.8335 21.6769C40.5712 22.4668 41.7979 22.4979 42.5734 21.7464C43.3487 20.9949 43.3793 19.7451 42.6416 18.9552L30.4145 5.84005ZM66.4301 8.56175C67.1678 7.7718 67.1373 6.52207 66.3618 5.77053C65.5864 5.01899 64.3596 5.0501 63.6219 5.84005L51.3948 18.9552C50.657 19.7451 50.6876 20.9949 51.4631 21.7464C52.2385 22.4979 53.4652 22.4668 54.2029 21.6769L66.4301 8.56175ZM16.1497 11.7792C17.9024 11.7792 19.4894 12.5031 20.6381 13.6735C21.787 14.8437 22.4976 16.4605 22.4976 18.2461C22.4976 20.0316 21.787 21.6484 20.6381 22.8187C19.4894 23.989 17.9024 24.713 16.1497 24.713C14.3971 24.713 12.81 23.989 11.6612 22.8187C10.5124 21.6484 9.80182 20.0316 9.80182 18.2461C9.80182 16.4606 10.5125 14.8438 11.6612 13.6734C12.81 12.5031 14.3971 11.7792 16.1497 11.7792ZM17.8907 16.4724C17.4453 16.0188 16.8297 15.738 16.1497 15.738C15.4697 15.738 14.854 16.0187 14.4087 16.4724C13.9634 16.9261 13.6878 17.5533 13.6878 18.2461C13.6878 18.9388 13.9633 19.566 14.4087 20.0197C14.8541 20.4734 15.4697 20.7541 16.1497 20.7541C16.8297 20.7541 17.4453 20.4734 17.8907 20.0197C18.336 19.566 18.6116 18.9388 18.6116 18.2461C18.6116 17.5533 18.3361 16.9261 17.8907 16.4724ZM23.2599 44.4392C23.2599 43.346 22.3899 42.4598 21.317 42.4598C20.2438 42.4598 19.3739 43.346 19.3739 44.4392V61.3144C19.3739 62.4076 20.2438 63.2938 21.3169 63.2938C22.3899 63.2938 23.2599 62.4076 23.2599 61.3144V44.4392ZM14.1532 44.4392C14.1532 43.346 13.2833 42.4598 12.2103 42.4598C11.1372 42.4598 10.2672 43.346 10.2672 44.4392V61.3144C10.2672 62.4076 11.1372 63.2938 12.2102 63.2938C13.2833 63.2938 14.1532 62.4076 14.1532 61.3144V44.4392Z" fill="#5C5C5C"/>
<path d="M15.2511 26.123H18.2763C19.6488 26.123 20.8953 26.6937 21.7976 27.6129C22.7 28.5321 23.2601 29.802 23.2601 31.2003V47.8748C23.2601 48.968 22.3902 49.8542 21.3172 49.8542H12.2103C11.1372 49.8542 10.2673 48.968 10.2673 47.8748V31.2003C10.2673 29.802 10.8274 28.5322 11.7298 27.613C12.6321 26.6937 13.8786 26.1231 15.2511 26.1231V26.123ZM18.2763 30.0819H15.2511C14.9512 30.0819 14.6771 30.2083 14.4773 30.4119C14.2774 30.6155 14.1532 30.8948 14.1532 31.2003V45.8954H19.3741V31.2003C19.3741 30.8949 19.25 30.6156 19.0502 30.412C18.8503 30.2084 18.5762 30.0819 18.2763 30.0819V30.0819Z" fill="#5C5C5C"/>
<path d="M3.73469 16.5827C2.99698 15.7927 1.77026 15.7616 0.994842 16.5131C0.219366 17.2647 0.188826 18.5144 0.926536 19.3044L10.7265 29.8159C11.4642 30.6058 12.6909 30.6369 13.4664 29.8854C14.2417 29.1339 14.2723 27.8841 13.5346 27.0942L3.73469 16.5827ZM32.6007 19.3044C33.3384 18.5144 33.3079 17.2647 32.5325 16.5131C31.757 15.7616 30.5303 15.7927 29.7926 16.5827L19.9927 27.0942C19.255 27.8842 19.2856 29.1339 20.061 29.8854C20.8365 30.6369 22.0632 30.6058 22.8009 29.8159L32.6007 19.3044ZM76.6591 11.7792C78.4118 11.7792 79.9988 12.5031 81.1475 13.6735C82.2963 14.8437 83.0069 16.4605 83.0069 18.2461C83.0069 20.0317 82.2963 21.6484 81.1475 22.8187C79.9988 23.989 78.4118 24.713 76.6591 24.713C74.9063 24.713 73.3193 23.989 72.1706 22.8187C71.0218 21.6484 70.3112 20.0317 70.3112 18.2461C70.3112 16.4606 71.0218 14.8438 72.1706 13.6734C73.3193 12.5031 74.9064 11.7792 76.6591 11.7792ZM78.4001 16.4724C77.9547 16.0187 77.339 15.738 76.6591 15.738C75.979 15.738 75.3634 16.0187 74.9181 16.4724C74.4727 16.9262 74.1972 17.5533 74.1972 18.2461C74.1972 18.9389 74.4728 19.566 74.9181 20.0197C75.3634 20.4734 75.9791 20.7541 76.6591 20.7541C77.3391 20.7541 77.9547 20.4734 78.4001 20.0197C78.8454 19.566 79.1209 18.9388 79.1209 18.2461C79.1209 17.5533 78.8454 16.9262 78.4001 16.4724ZM83.769 44.4392C83.769 43.3461 82.8991 42.4599 81.8261 42.4599C80.753 42.4599 79.883 43.3461 79.883 44.4392V61.3145C79.883 62.4076 80.753 63.2938 81.826 63.2938C82.8991 63.2938 83.769 62.4076 83.769 61.3145V44.4392ZM74.6627 44.4392C74.6627 43.3461 73.7927 42.4599 72.7197 42.4599C71.6466 42.4599 70.7767 43.3461 70.7767 44.4392V61.3145C70.7767 62.4076 71.6466 63.2938 72.7197 63.2938C73.7927 63.2938 74.6627 62.4076 74.6627 61.3145V44.4392Z" fill="#5C5C5C"/>
<path d="M75.7605 26.123H78.7856C80.1582 26.123 81.4046 26.6937 82.3069 27.6129C83.2093 28.5321 83.7694 29.802 83.7694 31.2003V47.8748C83.7694 48.968 82.8995 49.8542 81.8264 49.8542H72.7196C71.6465 49.8542 70.7766 48.968 70.7766 47.8748V31.2003C70.7766 29.802 71.3368 28.5322 72.2391 27.613C73.1414 26.6937 74.388 26.1231 75.7605 26.1231V26.123ZM78.7856 30.0819H75.7605C75.4605 30.0819 75.1864 30.2083 74.9866 30.4119C74.7867 30.6155 74.6625 30.8948 74.6625 31.2003V45.8954H79.8834V31.2003C79.8834 30.8949 79.7593 30.6156 79.5595 30.412C79.3596 30.2084 79.0854 30.0819 78.7856 30.0819V30.0819Z" fill="#5C5C5C"/>
<path d="M64.2443 16.5826C63.5065 15.7927 62.2798 15.7616 61.5044 16.5131C60.729 17.2647 60.6984 18.5144 61.4361 19.3043L71.2359 29.8158C71.9736 30.6058 73.2004 30.6369 73.9758 29.8854C74.7512 29.1338 74.7818 27.8841 74.0441 27.0941L64.2443 16.5826ZM93.1103 19.3043C93.848 18.5144 93.8174 17.2647 93.042 16.5131C92.2666 15.7616 91.0398 15.7927 90.3021 16.5826L80.5022 27.0941C79.7645 27.8842 79.795 29.1338 80.5705 29.8854C81.3459 30.6369 82.5726 30.6058 83.3103 29.8158L93.1103 19.3043Z" fill="#5C5C5C"/>
<path d="M43.2878 23.7659C43.2878 22.6613 44.1833 21.7659 45.2878 21.7659H48.7487C49.8533 21.7659 50.7487 22.6613 50.7487 23.7659V42.7947H43.2878V23.7659Z" fill="#BC6C25"/>
<path d="M74.6236 31.1268C74.6236 30.5745 75.0713 30.1268 75.6236 30.1268H79.0949C79.6472 30.1268 80.0949 30.5745 80.0949 31.1268V46.1268H74.6236V31.1268Z" fill="#16A34A"/>
<path d="M13.9417 31.1268C13.9417 30.5745 14.3894 30.1268 14.9417 30.1268H18.413C18.9653 30.1268 19.413 30.5745 19.413 31.1268V46.1268H13.9417V31.1268Z" fill="#16A34A"/>
</svg>
