<svg width="73" height="72" viewBox="0 0 73 72" fill="none" xmlns="http://www.w3.org/2000/svg">
<path d="M58.3534 53.6699C57.7293 52.1496 56.2277 51.1756 54.7936 50.5761L45.1031 46.0306L39.1894 40.7497L26.1826 41.1092L19.9603 46.0306L10.2688 50.5761C8.83478 51.1756 7.41669 52.1239 6.70909 53.6699C6.70909 53.6699 -3.82492 72 1.88846 72H63.1741C68.8875 72 58.3535 53.6699 58.3535 53.6699H58.3534Z" fill="#DDA15E"/>
<path d="M32.5308 0C20.0642 0 14.946 6.55092 15.0557 17.4993C15.2231 33.2754 22.6197 42.6835 32.5308 42.6835C42.4425 42.6835 49.8391 33.2754 50.0074 17.4993C50.1152 6.5519 44.9971 0 32.5308 0V0Z" fill="#FFD180"/>
<path d="M32.5307 0C22.1594 0 16.8747 3.99977 15.4542 10.9043C17.8893 12.8997 21.4623 14.1599 25.445 14.1599C31.4171 14.1599 36.4687 11.3271 38.1423 7.42898C40.5781 9.59246 44.3014 10.9761 48.4748 10.9761C48.8591 10.9761 49.2393 10.9637 49.6154 10.9408C48.2047 4.0143 42.9199 4.95948e-05 32.5307 4.95948e-05V0Z" fill="#424242"/>
<path d="M42.0605 49.5428C41.9943 49.5415 41.9283 49.5503 41.8646 49.5688C41.5116 49.6716 41.3072 50.0464 41.4081 50.406L41.4086 50.4058L45.9164 66.4789C46.3158 67.9031 46.9375 69.2521 47.8692 70.2012C48.6922 71.0396 49.7395 71.5633 51.0631 71.5633H62.333C63.6566 71.5633 64.7039 71.0396 65.5269 70.2012C66.4586 69.252 67.0803 67.9031 67.4797 66.4788L71.9785 50.4376C72.0018 50.3675 72.0137 50.2939 72.0136 50.2199C72.0136 49.8459 71.716 49.5428 71.3489 49.5428H60.0215V53.7535C60.0215 54.3549 59.7872 54.9282 59.37 55.3532C58.9527 55.7783 58.3901 56.017 57.7997 56.017H55.5964C55.006 56.017 54.4433 55.7783 54.0261 55.3532C53.6089 54.9282 53.3745 54.3549 53.3745 53.7535V49.5428H42.0605ZM62.8626 57.3838H65.2526C65.4361 57.3838 65.5849 57.5354 65.5849 57.7224V58.8029C65.5849 58.9899 65.4361 59.1415 65.2526 59.1415H62.8626C62.679 59.1415 62.5302 58.9899 62.5302 58.8029V57.7224C62.5302 57.5354 62.679 57.3838 62.8626 57.3838ZM57.9562 67.123H60.3462C60.5297 67.123 60.6785 67.2746 60.6785 67.4615V68.542C60.6785 68.729 60.5297 68.8806 60.3462 68.8806H57.9562C57.7727 68.8806 57.6239 68.729 57.6239 68.542V67.4616C57.6239 67.2746 57.7727 67.123 57.9562 67.123ZM53.0498 67.123H55.4398C55.6234 67.123 55.7722 67.2746 55.7722 67.4615V68.542C55.7722 68.729 55.6234 68.8806 55.4398 68.8806H53.0498C52.8663 68.8806 52.7175 68.729 52.7175 68.542V67.4616C52.7175 67.2746 52.8663 67.123 53.0498 67.123V67.123ZM55.503 62.2534H57.893C58.0765 62.2534 58.2253 62.405 58.2253 62.592V63.6725C58.2253 63.8595 58.0765 64.0111 57.893 64.0111H55.503C55.3195 64.0111 55.1707 63.8595 55.1707 63.6725V62.592C55.1707 62.405 55.3195 62.2534 55.503 62.2534ZM60.4094 62.2534H62.7994C62.9829 62.2534 63.1317 62.405 63.1317 62.592V63.6725C63.1317 63.8595 62.9829 64.0111 62.7994 64.0111H60.4094C60.2258 64.0111 60.077 63.8595 60.077 63.6725V62.592C60.077 62.405 60.2258 62.2534 60.4094 62.2534ZM50.5966 62.2534H52.9866C53.1702 62.2534 53.319 62.405 53.319 62.592V63.6725C53.319 63.8595 53.1702 64.0111 52.9866 64.0111H50.5966C50.4131 64.0111 50.2643 63.8595 50.2643 63.6725V62.592C50.2643 62.405 50.4131 62.2534 50.5966 62.2534ZM53.0498 57.3838H55.4398C55.6233 57.3838 55.7721 57.5355 55.7721 57.7224V58.8029C55.7721 58.9899 55.6233 59.1415 55.4398 59.1415H53.0498C52.8663 59.1415 52.7175 58.9899 52.7175 58.8029V57.7224C52.7175 57.5355 52.8663 57.3838 53.0498 57.3838V57.3838ZM57.9562 57.3838H60.3462C60.5297 57.3838 60.6785 57.5355 60.6785 57.7224V58.8029C60.6785 58.9899 60.5297 59.1415 60.3462 59.1415H57.9562C57.7726 59.1415 57.6238 58.9899 57.6238 58.8029V57.7224C57.6238 57.5355 57.7726 57.3838 57.9562 57.3838ZM48.1435 57.3838H50.5334C50.717 57.3838 50.8658 57.5355 50.8658 57.7224V58.8029C50.8658 58.9899 50.717 59.1415 50.5334 59.1415H48.1435C47.9599 59.1415 47.8111 58.9899 47.8111 58.8029V57.7224C47.8111 57.5355 47.9599 57.3838 48.1435 57.3838Z" fill="#16A34A"/>
<path d="M55.5963 39.0601H57.7997C58.2286 39.0601 58.618 39.2383 58.8999 39.5255C59.1818 39.8127 59.3568 40.2094 59.3568 40.6464V53.7536C59.3568 54.1905 59.1818 54.5873 58.8999 54.8745C58.618 55.1617 58.2286 55.3399 57.7997 55.3399H55.5963C55.1675 55.3399 54.778 55.1617 54.4961 54.8745C54.2142 54.5873 54.0392 54.1905 54.0392 53.7536V40.6464C54.0392 40.2094 54.2142 39.8127 54.4961 39.5255C54.778 39.2384 55.1675 39.0601 55.5963 39.0601V39.0601ZM68.575 48.8681C68.7889 48.2744 68.9012 47.6922 68.8824 47.1368C68.8475 46.1081 68.3918 45.2039 67.3555 44.522C67.3054 44.4891 67.2545 44.4572 67.2031 44.4264C67.1896 44.417 67.1758 44.4082 67.1617 44.3999L67.1591 44.4018C66.8585 44.225 66.5638 44.0957 66.2753 44.0098C65.3212 43.726 64.4624 43.9062 63.6976 44.4158C63.017 44.8693 62.4254 45.5903 61.9189 46.4704C61.9064 46.4883 61.8947 46.5068 61.8839 46.5258L61.8853 46.5267C61.4869 47.2297 61.1397 48.0376 60.8431 48.89C63.4204 48.8814 65.9977 48.8723 68.575 48.8681Z" fill="#16A34A"/>
<path d="M65.1209 44.43C65.0549 44.7967 65.2933 45.1484 65.6532 45.2156C66.0131 45.2828 66.3584 45.04 66.4243 44.6733L66.92 44.728L66.9184 44.7291C67.0595 44.9581 67.2222 44.9657 67.4694 44.9358L67.4787 45.2651L67.5251 45.7131C67.277 45.9877 67.2945 46.4153 67.564 46.668C67.8336 46.9207 68.2533 46.9029 68.5013 46.6283L71.4079 43.4002C71.5393 43.2713 71.6184 43.0882 71.6113 42.8878C71.5981 42.5141 71.2899 42.2221 70.9231 42.2355L70.9232 42.2377L68.5536 42.3249L67.1224 40.0017C67.0307 39.824 66.8625 39.6894 66.6535 39.6504C66.2925 39.583 65.9461 39.8267 65.88 40.1945L65.8821 40.1949L65.1209 44.43V44.43ZM53.3745 44.9265C53.3312 44.8811 53.2858 44.8377 53.2386 44.7965L53.2362 44.7968C51.2636 43.0685 51.8454 46.2196 50.1834 45.1122C49.111 44.3977 47.6859 43.4482 46.7803 44.6827C45.8137 46.0001 46.3608 45.2136 45.4133 44.7975C44.7294 44.497 44.1896 44.6908 43.788 45.178C43.5952 45.412 43.4511 45.7192 43.3529 46.0654C43.2648 46.3759 43.2121 46.7206 43.1933 47.0688C43.16 47.6847 43.2423 48.3374 43.4303 48.8782C46.745 48.9055 50.0598 48.9118 53.3745 48.9086V44.9265L53.3745 44.9265Z" fill="#16A34A"/>
</svg>
