<svg xmlns="http://www.w3.org/2000/svg" xmlns:xlink="http://www.w3.org/1999/xlink" width="24" height="24" viewBox="0 0 24 24"><defs><style>.a{fill:url(#a)}.b{fill:#2684ff}</style><linearGradient id="a" x1=".997" x2=".399" y1=".157" y2=".973" gradientUnits="objectBoundingBox"><stop offset="0" stop-color="#0052cc"/><stop offset=".92" stop-color="#2684ff"/></linearGradient></defs><path d="M7.239.254A.732.732,0,0,0,6.264.132a.683.683,0,0,0-.2.237L.076,11.516a.645.645,0,0,0,.32.893.748.748,0,0,0,.32.071H9.053a.693.693,0,0,0,.64-.368C11.493,8.651,10.4,3.389,7.239.254Z" class="a" transform="translate(0 11.52)"/><path d="M2.554.382A15.282,15.282,0,0,0,1.63,15.708l4.025,7.9A.718.718,0,0,0,6.3,24h8.347a.722.722,0,0,0,.507-.206.7.7,0,0,0,.209-.5.7.7,0,0,0-.074-.314L3.773.379a.68.68,0,0,0-1.219,0Z" class="b" transform="translate(8.64)"/></svg>