<svg width="76" height="75" viewBox="0 0 76 75" fill="none" xmlns="http://www.w3.org/2000/svg">
<path d="M66.5241 29.8611V51.7194H8.80792V29.8611C8.88023 29.8626 8.95257 29.8599 9.02457 29.8529C10.8979 29.7959 12.6757 28.9974 13.9806 27.6268C15.2855 26.2563 16.0147 24.4216 16.0134 22.5123H59.3106C59.3127 24.4607 60.0734 26.3286 61.4257 27.7063C62.7781 29.084 64.6116 29.8589 66.5241 29.8611Z" fill="#FFF8E3"/>
<path d="M16.0134 22.5123C16.0146 24.4216 15.2854 26.2563 13.9806 27.6268C12.6757 28.9974 10.8979 29.7959 9.02453 29.8529C8.95253 29.8599 8.88019 29.8626 8.80788 29.8611C6.89474 29.8611 5.05995 29.0868 3.70715 27.7087C2.35435 26.3305 1.59436 24.4613 1.59436 22.5123H16.0134Z" fill="#DDA15E"/>
<path d="M23.2357 29.8635C25.1493 29.8635 26.9845 29.0891 28.3376 27.7106C29.6907 26.3321 30.4509 24.4625 30.4509 22.5131H16.0206C16.0206 24.4625 16.7808 26.3321 18.1339 27.7106C19.487 29.0891 21.3222 29.8635 23.2357 29.8635Z" fill="#A0B46A"/>
<path d="M37.6661 29.8635C38.6136 29.8636 39.5519 29.6736 40.4274 29.3042C41.3029 28.9349 42.0984 28.3935 42.7684 27.7109C43.4385 27.0283 43.97 26.218 44.3327 25.3262C44.6953 24.4343 44.882 23.4784 44.882 22.5131H30.4509C30.4509 24.4625 31.2111 26.3321 32.5642 27.7106C33.9173 29.0891 35.7525 29.8635 37.6661 29.8635Z" fill="#DDA15E"/>
<path d="M52.0971 29.8635C53.0446 29.8635 53.9828 29.6734 54.8582 29.304C55.7336 28.9346 56.529 28.3932 57.199 27.7106C57.869 27.0281 58.4004 26.2178 58.763 25.326C59.1256 24.4342 59.3122 23.4784 59.3122 22.5131H44.882C44.882 24.4625 45.6422 26.3321 46.9953 27.7106C48.3484 29.0891 50.1835 29.8635 52.0971 29.8635Z" fill="#A0B46A"/>
<path d="M59.3122 22.5131H44.8819L43.9888 0H55.2215L59.3122 22.5131Z" fill="#8EA253"/>
<path d="M73.7431 22.5131H59.3121L55.2215 0H64.4819L73.7431 22.5131Z" fill="#BC6C25"/>
<path d="M16.0231 22.5131H30.4541L31.3464 0H20.1145L16.0231 22.5131Z" fill="#8EA253"/>
<path d="M1.59274 22.5131H16.023L20.1144 0H10.8532L1.59274 22.5131ZM43.9888 0H31.3463L30.4541 22.5131H44.8819L43.9888 0Z" fill="#BC6C25"/>
<path d="M73.7457 22.5123C73.7437 24.448 72.9929 26.3049 71.6562 27.6805C70.3194 29.0561 68.5043 29.8396 66.6044 29.8611H66.5241C64.6116 29.8589 62.7781 29.084 61.4257 27.7063C60.0734 26.3286 59.3127 24.4607 59.3106 22.5123H73.7457Z" fill="#DDA15E"/>
<path d="M37.408 44.6846C37.4057 44.1812 37.3759 43.6783 37.3189 43.1782C37.3018 43.0386 37.235 42.9103 37.1311 42.8175C37.0272 42.7248 36.8935 42.6742 36.7554 42.6753H36.2809V39.8049C36.278 39.2069 36.0918 38.6247 35.7483 38.1397C35.4048 37.6548 34.9212 37.2912 34.365 37.0999L35.7174 34.9459C35.7812 34.8441 35.8118 34.7244 35.805 34.6038C35.7981 34.4833 35.7541 34.368 35.6792 34.2744C35.6043 34.1808 35.5023 34.1136 35.3877 34.0825C35.2732 34.0513 35.152 34.0577 35.0412 34.1009L32.5088 35.0756L31.1361 32.6312C31.0826 32.5486 31.0098 32.4807 30.9242 32.4338C30.8387 32.3868 30.743 32.3622 30.6458 32.3622C30.5486 32.3622 30.453 32.3868 30.3674 32.4338C30.2818 32.4807 30.209 32.5486 30.1556 32.6312L28.7873 35.0756L26.2504 34.1009C26.1397 34.0577 26.0184 34.0513 25.9039 34.0825C25.7893 34.1136 25.6874 34.1808 25.6125 34.2744C25.5376 34.368 25.4936 34.4833 25.4867 34.6038C25.4798 34.7244 25.5104 34.8441 25.5742 34.9459L26.9266 37.0999C26.3857 37.2863 25.9134 37.6363 25.5727 38.1032C25.232 38.57 25.0391 39.1316 25.0197 39.7131V39.7429C25.0197 39.7636 25.0141 39.7831 25.0141 39.8049V42.6753H17.206C17.0679 42.6742 16.9342 42.7248 16.8304 42.8175C16.7265 42.9103 16.6596 43.0386 16.6425 43.1782C16.587 43.6784 16.5588 44.1813 16.558 44.6846C16.5634 45.3203 16.6241 45.9543 16.7394 46.579C16.1589 46.8129 15.6656 47.2273 15.3295 47.7632C14.9934 48.2991 14.8317 48.9293 14.8674 49.5643C14.8674 51.3818 15.6631 54.9296 17.5813 55.2947C17.6496 55.3083 17.7191 55.3152 17.7887 55.3154C18.1218 55.2905 18.4427 55.1773 18.7196 54.987C18.9146 54.8487 19.1398 54.7609 19.3755 54.731C19.6076 54.7688 19.8294 54.8552 20.027 54.9847C20.359 55.2117 20.7548 55.3218 21.154 55.2982C21.4504 55.2407 21.7326 55.1237 21.9841 54.954C22.2357 54.7842 22.4515 54.5652 22.6191 54.3096C23.9861 54.9585 25.4749 55.2981 26.983 55.3051C27.2084 55.3051 27.4338 55.2844 27.6592 55.2706C27.7135 55.2906 27.7705 55.3022 27.8282 55.3051H33.4634C34.2106 55.3051 34.9273 55.0026 35.4557 54.4643C35.9841 53.926 36.2809 53.1959 36.2809 52.4347V49.4621C37.0205 47.9821 37.4066 46.3453 37.408 44.6846ZM35.1539 39.8049V41.053L30.5883 38.0827H33.4634C33.9117 38.0827 34.3417 38.2641 34.6588 38.5871C34.9758 38.9101 35.1539 39.3481 35.1539 39.8049ZM28.8426 36.3237C28.9682 36.3723 29.1068 36.3736 29.2333 36.3272C29.3597 36.2809 29.4658 36.1901 29.5323 36.0711L30.6458 34.0745L31.7638 36.0711C31.8303 36.1901 31.9364 36.2809 32.0629 36.3272C32.1894 36.3736 32.3279 36.3723 32.4536 36.3237L33.8545 35.7864L33.1365 36.9345H28.1551L27.4372 35.7864L28.8426 36.3237ZM27.8282 38.0827H28.4932L35.1539 42.4158V42.6753H31.3649L26.1681 39.4984C26.2385 39.1018 26.4432 38.7429 26.7466 38.4843C27.0499 38.2256 27.4327 38.0835 27.8282 38.0827ZM26.1377 40.8187L29.1807 42.6753H26.1377V40.8187ZM20.9883 54.1626C20.8351 54.1181 20.6884 54.0528 20.5522 53.9686C20.1971 53.7433 19.7929 53.6108 19.3755 53.5828C18.9449 53.604 18.5279 53.7433 18.1685 53.9858C18.0507 54.0627 17.9233 54.1234 17.7898 54.1661C16.7653 53.9709 15.9945 51.2394 15.9945 49.5643C15.9945 48.6584 16.3168 47.4976 18.714 47.3058C18.7147 47.7092 18.7524 48.1117 18.8267 48.508C18.8543 48.6354 18.9238 48.7493 19.0236 48.8312C19.1233 48.913 19.2475 48.9577 19.3755 48.958C19.4157 48.958 19.4558 48.9534 19.495 48.9443C19.6407 48.9121 19.768 48.8223 19.8489 48.6947C19.9298 48.5671 19.9578 48.412 19.9267 48.2634C19.8718 47.9434 19.8439 47.6192 19.8433 47.2944C22.4185 47.431 22.7566 48.6354 22.7566 49.5643C22.7566 51.3646 22.0804 53.9858 20.9883 54.1626ZM23.168 53.3061C23.3142 52.9498 23.4344 52.5829 23.5275 52.2085C24.7008 52.7756 25.9904 53.0484 27.2883 53.004C28.5863 52.9596 29.8549 52.5993 30.9882 51.9532C32.1216 51.3072 33.0866 50.3941 33.8027 49.2903C34.5188 48.1866 34.9651 46.9243 35.1043 45.6089C35.113 45.5337 35.1069 45.4576 35.0866 45.3849C35.0663 45.3121 35.032 45.2442 34.9858 45.185C34.9396 45.1258 34.8824 45.0765 34.8175 45.0398C34.7525 45.0032 34.6811 44.98 34.6073 44.9716C34.5335 44.9619 34.4585 44.9674 34.3867 44.9878C34.315 45.0083 34.2481 45.0432 34.1899 45.0906C34.1318 45.1379 34.0836 45.1968 34.0482 45.2635C34.0128 45.3303 33.991 45.4036 33.9841 45.4791C33.8609 46.6363 33.4624 47.7455 32.8233 48.7104C32.1842 49.6752 31.3237 50.4667 30.3165 51.0162C29.3092 51.5657 28.1856 51.8566 27.043 51.8637C25.9004 51.8708 24.7734 51.5938 23.7597 51.0569C23.8358 50.563 23.8772 50.0642 23.8837 49.5643C23.8837 48.0785 23.1804 46.3242 19.9526 46.1382C19.9974 45.9035 20.0615 45.673 20.1442 45.4493C20.1951 45.3081 20.1896 45.1521 20.1289 45.015C20.0681 44.8779 19.9569 44.7705 19.8193 44.7161C19.6816 44.6616 19.5285 44.6644 19.3928 44.7237C19.2571 44.7831 19.1498 44.8944 19.0938 45.0336C18.9612 45.3912 18.8649 45.7617 18.8064 46.1393C18.4782 46.1563 18.1515 46.1947 17.8281 46.2541C17.7377 45.7359 17.6898 45.2109 17.685 44.6846C17.685 44.4308 17.6985 44.1162 17.7177 43.8235H36.2483C36.2674 44.1162 36.2809 44.4308 36.2809 44.6846C36.2861 46.268 35.9003 47.8272 35.159 49.2189C34.4177 50.6106 33.3447 51.79 32.0388 52.6487C30.7329 53.5073 29.236 54.0175 27.6859 54.1324C26.1357 54.2473 24.5821 53.9631 23.168 53.3061ZM35.1539 52.4347C35.1539 52.8914 34.9758 53.3295 34.6588 53.6525C34.3417 53.9754 33.9117 54.1569 33.4634 54.1569H31.6725C33.0251 53.4594 34.213 52.471 35.1539 51.2601V52.4347Z" fill="#16A34A"/>
<path d="M31.2094 44.9717C31.06 44.9717 30.9166 45.0321 30.811 45.1398C30.7053 45.2475 30.6459 45.3935 30.6459 45.5457V46.6939C30.6459 46.8462 30.7053 46.9922 30.811 47.0998C30.9166 47.2075 31.06 47.268 31.2094 47.268C31.3589 47.268 31.5022 47.2075 31.6079 47.0998C31.7136 46.9922 31.7729 46.8462 31.7729 46.6939V45.5457C31.7729 45.3935 31.7136 45.2475 31.6079 45.1398C31.5022 45.0321 31.3589 44.9717 31.2094 44.9717ZM24.4473 44.9717C24.2978 44.9717 24.1545 45.0321 24.0488 45.1398C23.9431 45.2475 23.8838 45.3935 23.8838 45.5457V46.6939C23.8838 46.8462 23.9431 46.9922 24.0488 47.0998C24.1545 47.2075 24.2978 47.268 24.4473 47.268C24.5967 47.268 24.7401 47.2075 24.8457 47.0998C24.9514 46.9922 25.0108 46.8462 25.0108 46.6939V45.5457C25.0108 45.3935 24.9514 45.2475 24.8457 45.1398C24.7401 45.0321 24.5967 44.9717 24.4473 44.9717ZM27.8284 46.1198C27.6789 46.1198 27.5356 46.1803 27.4299 46.288C27.3242 46.3956 27.2648 46.5416 27.2648 46.6939V47.8421C27.2648 47.9943 27.3242 48.1403 27.4299 48.248C27.5356 48.3557 27.6789 48.4161 27.8284 48.4161C27.9778 48.4161 28.1211 48.3557 28.2268 48.248C28.3325 48.1403 28.3919 47.9943 28.3919 47.8421V46.6939C28.3919 46.5416 28.3325 46.3956 28.2268 46.288C28.1211 46.1803 27.9778 46.1198 27.8284 46.1198Z" fill="#16A34A"/>
<path d="M48.7926 56.8351C50.3339 57.3289 51.9675 57.446 53.5615 57.177C55.1554 56.908 56.6647 56.2605 57.9673 55.2867C59.2699 54.313 60.3291 53.0405 61.0592 51.5723C61.7894 50.104 62.1699 48.4812 62.17 46.8353M41.5895 46.2529C43.5846 47.6507 45.5912 50.9121 45.5912 50.9121C45.5912 50.9121 47.4092 47.9477 49.3014 46.4509M42.1611 46.2529C42.1611 40.1435 43.699 35.1873 45.5912 35.1873C47.4835 35.1873 49.0213 40.1435 49.0213 46.2529M45.5912 58.4833C46.2195 58.5163 46.8454 58.3816 47.4069 58.0925C47.9684 57.8034 48.4461 57.37 48.7926 56.8351C49.3416 55.9323 49.6198 54.8858 49.593 53.8241C49.593 51.4945 50.7364 45.6705 50.7364 45.6705C50.2117 45.8305 49.7238 46.0959 49.3014 46.4509M41.5895 46.2529C41.2454 45.991 40.8582 45.7937 40.4461 45.6705C40.4461 45.6705 41.5895 51.4945 41.5895 53.8241C41.5895 56.1537 42.7328 58.4833 45.5912 58.4833" stroke="#16A34A" stroke-linecap="round" stroke-linejoin="round"/>
<path d="M46.7346 41.5937C47.0503 41.5937 47.3063 41.333 47.3063 41.0113C47.3063 40.6897 47.0503 40.4289 46.7346 40.4289C46.4189 40.4289 46.1629 40.6897 46.1629 41.0113C46.1629 41.333 46.4189 41.5937 46.7346 41.5937Z" fill="#16A34A"/>
<path d="M45.5912 43.9233C45.9069 43.9233 46.1628 43.6626 46.1628 43.3409C46.1628 43.0193 45.9069 42.7585 45.5912 42.7585C45.2754 42.7585 45.0195 43.0193 45.0195 43.3409C45.0195 43.6626 45.2754 43.9233 45.5912 43.9233Z" fill="#16A34A"/>
<path d="M43.8762 45.0881C44.1919 45.0881 44.4479 44.8274 44.4479 44.5057C44.4479 44.1841 44.1919 43.9233 43.8762 43.9233C43.5605 43.9233 43.3045 44.1841 43.3045 44.5057C43.3045 44.8274 43.5605 45.0881 43.8762 45.0881Z" fill="#16A34A"/>
<path d="M46.7346 45.0881C47.0503 45.0881 47.3063 44.8274 47.3063 44.5057C47.3063 44.1841 47.0503 43.9233 46.7346 43.9233C46.4189 43.9233 46.1629 44.1841 46.1629 44.5057C46.1629 44.8274 46.4189 45.0881 46.7346 45.0881Z" fill="#16A34A"/>
<path d="M45.0195 39.8465C45.3353 39.8465 45.5912 39.5858 45.5912 39.2641C45.5912 38.9425 45.3353 38.6817 45.0195 38.6817C44.7038 38.6817 44.4478 38.9425 44.4478 39.2641C44.4478 39.5858 44.7038 39.8465 45.0195 39.8465Z" fill="#16A34A"/>
<path d="M45.5912 38.0993C45.9069 38.0993 46.1628 37.8386 46.1628 37.5169C46.1628 37.1953 45.9069 36.9345 45.5912 36.9345C45.2754 36.9345 45.0195 37.1953 45.0195 37.5169C45.0195 37.8386 45.2754 38.0993 45.5912 38.0993Z" fill="#16A34A"/>
<path d="M44.4479 42.1761C44.7636 42.1761 45.0196 41.9153 45.0196 41.5937C45.0196 41.272 44.7636 41.0113 44.4479 41.0113C44.1321 41.0113 43.8762 41.272 43.8762 41.5937C43.8762 41.9153 44.1321 42.1761 44.4479 42.1761Z" fill="#16A34A"/>
<path d="M62.17 46.8353C62.17 43.5098 63.3133 42.1761 63.3133 42.1761C63.3133 42.1761 60.4549 42.1761 60.4549 43.3409C60.4549 43.3409 57.5965 42.7585 57.5965 45.0881C57.5965 45.0881 53.0231 45.0881 53.5948 48.5825C53.5948 48.5825 50.7364 48.5825 50.7364 51.4945M55.3098 41.0113C58.1682 39.2641 59.8832 42.1761 59.8832 42.1761M48.2324 39.2059C49.5015 39.171 51.5424 39.369 50.7364 41.0113C50.7364 41.0113 53.5948 41.5937 53.5948 43.3409M52.4514 39.2641C52.4514 39.2641 54.1664 38.0994 55.3098 41.0113" stroke="#16A34A" stroke-linecap="round" stroke-linejoin="round"/>
<path d="M66.2264 51.7193H9.17773C7.85227 51.7193 6.77777 52.814 6.77777 54.1643V71.1245C6.77777 72.4748 7.85227 73.5695 9.17773 73.5695H66.2264C67.5518 73.5695 68.6263 72.4748 68.6263 71.1245V54.1643C68.6263 52.814 67.5518 51.7193 66.2264 51.7193Z" fill="#DDA15E"/>
<path d="M73.8098 75H1.59438C1.22196 75 0.8648 74.8493 0.601464 74.581C0.338127 74.3127 0.190186 73.9489 0.190186 73.5695C0.190186 73.1901 0.338127 72.8262 0.601464 72.558C0.8648 72.2897 1.22196 72.139 1.59438 72.139H73.8098C74.1823 72.139 74.5394 72.2897 74.8028 72.558C75.0661 72.8262 75.214 73.1901 75.214 73.5695C75.214 73.9489 75.0661 74.3127 74.8028 74.581C74.5394 74.8493 74.1823 75 73.8098 75Z" fill="#BC6C25"/>
</svg>
