<svg width="73" height="74" viewBox="0 0 73 74" fill="none" xmlns="http://www.w3.org/2000/svg">
<path d="M71.7531 1.14196e-05H12.1073C11.8228 1.14196e-05 11.55 0.115144 11.3488 0.320082C11.1477 0.52502 11.0346 0.802975 11.0346 1.0928V11.0478H1.26286C0.978371 11.0478 0.705532 11.1629 0.504366 11.3679C0.3032 11.5728 0.190186 11.8508 0.190186 12.1406V67.3808C0.191484 69.1359 0.876443 70.8188 2.09465 72.0598C3.31286 73.3009 4.96474 73.9987 6.68755 74H66.3333C68.0562 73.9988 69.7081 73.3011 70.9264 72.06C72.1446 70.8189 72.8295 69.136 72.8307 67.3808V1.0928C72.8307 0.948873 72.8028 0.806362 72.7486 0.673452C72.6943 0.540542 72.6149 0.419851 72.5148 0.318311C72.4146 0.21677 72.2958 0.13638 72.1651 0.0817568C72.0344 0.0271336 71.8944 -0.000646539 71.7531 1.14196e-05ZM6.68509 71.8119C5.53087 71.8119 4.42392 71.3448 3.60776 70.5133C2.7916 69.6819 2.33309 68.5542 2.33309 67.3783V13.2334H59.8335V67.3808C59.8314 69.0195 60.4287 70.6001 61.5087 71.8144L6.68509 71.8119ZM70.678 67.3783C70.6401 68.5278 70.1652 69.6172 69.3537 70.4167C68.5421 71.2162 67.4573 71.6631 66.3284 71.6631C65.1995 71.6631 64.1147 71.2162 63.3032 70.4167C62.4916 69.6172 62.0167 68.5278 61.9789 67.3783V12.1406C61.9789 11.8508 61.8658 11.5728 61.6647 11.3679C61.4635 11.1629 61.1907 11.0478 60.9062 11.0478H13.18V2.18559H70.6804L70.678 67.3783Z" fill="#181818"/>
<path d="M9.15535 23.2046L13.888 29.1251H15.1991V20.3828H13.6183V26.3026L8.88626 20.3828H7.57392V29.1251H9.15535V23.2046ZM24.5535 27.7638H19.7111V25.3534H23.8547V24.0171H19.7111V21.7434H24.3819V20.3828H18.1174V29.1251H24.5535V27.7638ZM30.5482 29.1251L32.7058 22.6551L34.8267 29.1251H36.5184L39.3626 20.3828H37.843L35.648 27.0644L33.4782 20.3828H32.0071L29.7881 27.0263L27.6551 20.3828H26.0001L28.8442 29.1251H30.5482ZM45.3634 27.5889C44.9253 27.8267 44.4306 27.9348 43.9352 27.9011C43.4113 27.8994 42.8913 27.8087 42.3967 27.6326C41.9304 27.4774 41.4931 27.2431 41.1034 26.9395L40.5517 28.2009C40.9827 28.556 41.4816 28.8157 42.0167 28.9633C42.6386 29.1556 43.2853 29.2524 43.9352 29.2506C44.5896 29.2688 45.2406 29.1496 45.8477 28.9003C46.3185 28.7097 46.7251 28.3844 47.0184 27.9636C47.2747 27.5765 47.4094 27.1191 47.4046 26.6522C47.4302 26.163 47.275 25.6817 46.9694 25.3034C46.6837 24.9737 46.3241 24.719 45.9212 24.561C45.4097 24.367 44.8854 24.2105 44.352 24.0926C43.8858 23.9761 43.518 23.872 43.2487 23.7804C43.0036 23.7025 42.7763 23.5751 42.5806 23.4057C42.4948 23.3302 42.4267 23.2361 42.3811 23.1303C42.3355 23.0246 42.3136 22.9098 42.317 22.7944C42.3144 22.6226 42.3554 22.453 42.4359 22.3021C42.5165 22.1511 42.6338 22.0239 42.7767 21.9326C43.2028 21.6854 43.6912 21.5722 44.1804 21.6073C44.5826 21.61 44.9825 21.6689 45.3689 21.7821C45.7814 21.9003 46.1772 22.0722 46.5464 22.2936L47.0484 21.0322C46.6461 20.7668 46.2026 20.5726 45.7367 20.4577C45.232 20.3249 44.7128 20.2577 44.1914 20.2579C43.5393 20.2392 42.8904 20.3585 42.2858 20.6082C41.8161 20.801 41.4115 21.1285 41.1211 21.5511C40.8655 21.9408 40.7309 22.4 40.735 22.8687C40.7086 23.3635 40.8637 23.8507 41.1702 24.2356C41.4523 24.5668 41.8102 24.8221 42.2122 24.9787C42.7309 25.1714 43.2611 25.3299 43.7998 25.4533C44.2656 25.5699 44.6334 25.6739 44.9031 25.7655C45.1496 25.8433 45.3772 25.9731 45.5712 26.1464C45.6569 26.2235 45.7249 26.3187 45.7705 26.4254C45.8162 26.5321 45.8383 26.6477 45.8354 26.764C45.8357 26.9318 45.7921 27.0967 45.7091 27.2416C45.6262 27.3866 45.5069 27.5065 45.3634 27.5889ZM54.1661 36.0371H8.00544C7.72095 36.0371 7.44811 36.1523 7.24694 36.3572C7.04578 36.5621 6.93276 36.8401 6.93276 37.1299C6.93276 37.4197 7.04578 37.6977 7.24694 37.9026C7.44811 38.1076 7.72095 38.2227 8.00544 38.2227H54.1661C54.4506 38.2227 54.7234 38.1076 54.9246 37.9026C55.1258 37.6977 55.2388 37.4197 55.2388 37.1299C55.2388 36.8401 55.1258 36.5621 54.9246 36.3572C54.7234 36.1523 54.4506 36.0371 54.1661 36.0371ZM54.1661 45.0542H8.00544C7.72095 45.0542 7.44811 45.1693 7.24694 45.3743C7.04578 45.5792 6.93276 45.8572 6.93276 46.147C6.93276 46.4368 7.04578 46.7148 7.24694 46.9197C7.44811 47.1246 7.72095 47.2398 8.00544 47.2398H54.1661C54.4506 47.2398 54.7234 47.1246 54.9246 46.9197C55.1258 46.7148 55.2388 46.4368 55.2388 46.147C55.2388 45.8572 55.1258 45.5792 54.9246 45.3743C54.7234 45.1693 54.4506 45.0542 54.1661 45.0542ZM54.1661 63.0971H8.00544C7.72095 63.0971 7.44811 63.2122 7.24694 63.4172C7.04578 63.6221 6.93276 63.9001 6.93276 64.1899C6.93276 64.4797 7.04578 64.7577 7.24694 64.9626C7.44811 65.1675 7.72095 65.2827 8.00544 65.2827H54.1661C54.4506 65.2827 54.7234 65.1675 54.9246 64.9626C55.1258 64.7577 55.2388 64.4797 55.2388 64.1899C55.2388 63.9001 55.1258 63.6221 54.9246 63.4172C54.7234 63.2122 54.4506 63.0971 54.1661 63.0971ZM54.1661 54.0775H8.00544C7.72095 54.0775 7.44811 54.1927 7.24694 54.3976C7.04578 54.6025 6.93276 54.8805 6.93276 55.1703C6.93276 55.4601 7.04578 55.7381 7.24694 55.943C7.44811 56.148 7.72095 56.2631 8.00544 56.2631H54.1661C54.4506 56.2631 54.7234 56.148 54.9246 55.943C55.1258 55.7381 55.2388 55.4601 55.2388 55.1703C55.2388 54.8805 55.1258 54.6025 54.9246 54.3976C54.7234 54.1927 54.4506 54.0775 54.1661 54.0775Z" fill="#F37B38"/>
</svg>
