<svg width="88" height="75" viewBox="0 0 88 75" fill="none" xmlns="http://www.w3.org/2000/svg">
<path d="M26.0731 47.6934C26.0731 50.2115 24.3817 52.1716 22.3866 52.1716C20.3915 52.1716 18.7 50.2115 18.7 47.6934C18.7 45.1752 20.3915 43.2151 22.3866 43.2151C24.3817 43.2151 26.0731 45.1752 26.0731 47.6934Z" fill="white" stroke="#5C5C5C" stroke-width="0.5"/>
<path opacity="0.1" d="M52.7842 72.3631C52.738 70.5426 52.6767 68.6634 52.4216 66.783H34.8216C34.5677 68.6544 34.5058 70.5255 34.4595 72.3381C37.006 74.0008 40.0336 75 43.641 75C47.2304 75 50.2458 74.0107 52.7842 72.3631Z" fill="black"/>
<path d="M68.7973 47.6934C68.7973 50.2115 67.1058 52.1716 65.1107 52.1716C63.1156 52.1716 61.4242 50.2115 61.4242 47.6934C61.4242 45.1752 63.1156 43.2151 65.1107 43.2151C67.1058 43.2151 68.7973 45.1752 68.7973 47.6934Z" fill="white" stroke="#5C5C5C" stroke-width="0.5"/>
<path d="M47.6632 13.7563H39.8337C29.5383 13.7563 21.1921 26.0572 21.1921 36.546C21.1921 36.546 21.7946 73.389 43.7486 73.389C65.7026 73.389 66.3051 36.546 66.3051 36.546C66.3051 26.0572 57.959 13.7563 47.6632 13.7563Z" fill="#FFD0AE"/>
<path d="M47.6632 13.7563H39.8337C29.5383 13.7563 21.1921 26.0572 21.1921 36.546C21.1921 36.546 21.7946 73.389 43.7486 73.389C65.7026 73.389 66.3051 36.546 66.3051 36.546C66.3051 26.0572 57.959 13.7563 47.6632 13.7563Z" fill="#FEFAE0"/>
<path d="M39.8337 14.0063H47.6632C52.7075 14.0063 57.3023 17.0214 60.6469 21.3703C63.9901 25.7171 66.0546 31.361 66.0551 36.5439C66.0551 36.5446 66.0551 36.5453 66.0551 36.546L66.0551 36.548L66.0547 36.5674L66.0528 36.6452C66.051 36.7141 66.048 36.8167 66.0432 36.9507C66.0335 37.2188 66.0164 37.6127 65.9868 38.1144C65.9277 39.1178 65.8188 40.5523 65.6196 42.274C65.2212 45.7185 64.4623 50.3072 63.0211 54.8925C60.1311 64.0878 54.5457 73.139 43.7486 73.139C32.9515 73.139 27.3661 64.0878 24.4761 54.8925C23.035 50.3072 22.2761 45.7185 21.8776 42.274C21.6785 40.5523 21.5696 39.1178 21.5105 38.1144C21.4809 37.6127 21.4638 37.2188 21.4541 36.9507C21.4492 36.8167 21.4462 36.7141 21.4444 36.6452L21.4426 36.5674L21.4422 36.548L21.4421 36.5438C21.4427 31.3609 23.5072 25.7171 26.8503 21.3703C30.1949 17.0214 34.7896 14.0063 39.8337 14.0063Z" stroke="#5C5C5C" stroke-opacity="0.5" stroke-width="0.5"/>
<path d="M65.3843 44.4355C65.5654 42.4119 64.951 41.0121 64.2943 39.5365L64.2751 39.4933C63.5851 37.9432 62.8465 36.2837 62.8465 33.6394C62.8465 30.8423 61.6556 27.982 59.154 25.8244C56.6528 23.667 52.8571 22.2249 47.6632 22.2249H39.8337C34.6399 22.2249 30.8444 23.667 28.3431 25.8244C25.8416 27.982 24.6507 30.8423 24.6507 33.6394C24.6507 36.2837 23.912 37.9432 23.222 39.4934L23.2028 39.5366C22.5461 41.0122 21.9316 42.412 22.1129 44.4355L20.1708 43.748C19.865 41.4336 19.6974 39.4644 19.6061 38.0655C19.5594 37.3509 19.5327 36.7854 19.5177 36.3988C19.5102 36.2056 19.5056 36.0571 19.5028 35.9571C19.5015 35.9072 19.5006 35.8693 19.5 35.8441L19.4995 35.8157L19.4993 35.8087L19.4993 35.8086C19.4999 30.0758 21.7449 23.8354 25.3791 19.0297C29.0151 14.2216 34.011 10.8867 39.4968 10.8867H48.0007C53.4863 10.8867 58.4822 14.2216 62.1182 19.0297C65.7528 23.836 67.998 30.0774 67.9981 35.8107L67.998 35.8157L67.9974 35.844C67.9972 35.8539 67.9969 35.8656 67.9966 35.8793C67.9961 35.9006 67.9954 35.9266 67.9946 35.9571C67.9919 36.0571 67.9873 36.2055 67.9797 36.3988C67.9646 36.7853 67.9379 37.3509 67.8912 38.0655C67.7998 39.4643 67.6321 41.4336 67.3264 43.748L65.3843 44.4355Z" fill="#E4AA77" stroke="#5C5C5C" stroke-width="0.5"/>
<path d="M69.0387 18.9115C66.0501 9.03565 57.917 0 48.3502 0H39.1467C29.5802 0 21.4471 9.03565 18.4583 18.9115C7.47498 20.8779 0.319016 24.0905 0.319016 27.7208C0.319016 33.7051 19.7628 38.5563 43.7483 38.5563C67.7338 38.5563 87.1776 33.7051 87.1776 27.7208C87.1779 24.0905 80.0219 20.8776 69.0387 18.9115Z" fill="#DA8A44"/>
<path d="M69.0387 18.9115C66.0501 9.03565 57.917 0 48.3502 0H39.1467C29.5802 0 21.4471 9.03565 18.4583 18.9115C7.47498 20.8779 0.319016 24.0905 0.319016 27.7208C0.319016 33.7051 19.7628 38.5563 43.7483 38.5563C67.7338 38.5563 87.1776 33.7051 87.1776 27.7208C87.1779 24.0905 80.0219 20.8776 69.0387 18.9115Z" stroke="black"/>
<path d="M68.7688 18.0667C68.6402 17.6803 68.5042 17.2965 68.3608 16.9155C67.9064 17.3081 67.3749 17.6932 66.7773 18.0667C62.8789 20.503 56.0855 22.4273 48.3499 22.4273H39.1465C31.4105 22.4273 24.6175 20.503 20.7191 18.0667C20.1214 17.6932 19.59 17.3081 19.1355 16.9155C18.7296 17.9924 18.3843 19.0921 18.1014 20.2092C20.7448 23.5842 29.1628 26.7879 39.1462 26.7879H48.3496C58.333 26.7879 66.751 23.5842 69.3947 20.2092C69.2123 19.4873 69.0035 18.7727 68.7688 18.0667Z" fill="#16A34A"/>
<path d="M68.7688 18.0667C68.6402 17.6803 68.5042 17.2965 68.3608 16.9155C67.9064 17.3081 67.3749 17.6932 66.7773 18.0667C62.8789 20.503 56.0855 22.4273 48.3499 22.4273H39.1465C31.4105 22.4273 24.6175 20.503 20.7191 18.0667C20.1214 17.6932 19.59 17.3081 19.1355 16.9155C18.7296 17.9924 18.3843 19.0921 18.1014 20.2092C20.7448 23.5842 29.1628 26.7879 39.1462 26.7879H48.3496C58.333 26.7879 66.751 23.5842 69.3947 20.2092C69.2123 19.4873 69.0035 18.7727 68.7688 18.0667Z" stroke="black"/>
</svg>
