<svg xmlns="http://www.w3.org/2000/svg" viewBox="0 0 354.58 444.62"><defs><style>.cls-1{fill:#00a651;}</style></defs><g id="Layer_2" data-name="Layer 2"><g id="Layer_1-2" data-name="Layer 1"><path class="cls-1" d="M280.34,419.37l18.27-36.25L308.94,365l17.1-33.8,7.44-18.85,5.25-24.24c.25-1.48.5-3,.74-4.45,0-1,0-1.94,0-2.9l-.82-7.2v0q-.19-2.85-.38-5.7c-.13-1.42-.26-2.84-.38-4.27-.26-.91-.52-1.82-.79-2.73L336,256.38q-2.92-7.87-5.86-15.76c-6.23-14.33-17-24.46-30-32.64L280,195.22l-1.25-.89-1.44-.67-30-18.1c-5.9-3.5-12.12-6.58-17.61-10.64-4.9-3.64-7.57-2.3-9.9,2.43-.82,1.68-1.59,3.39-2.38,5.08-3,6-5.42,12-1.9,18.6l11.71,12.77,7,6.28L245.71,221l5.83,5.81,1.32,1.29,4.4,4.42,5.55,5.59,7.25,7.3,9.88,9.81,4.86,5.62q1.35,8.54,2.71,17.07l-7.78,12.83-2.45,3-1,1.23-8.91,10.29-1.15,1.23-27.65,26.36-10,9.13-51.26,46.58-13.82,10-6.4,1.85-15.25.27-17.13,0H90.46c-11.41-.5-21.26-4-27.72-14.19-6.36-10-6.17-20.3-.56-31.17l-5.54-.52C45.8,350,38.56,342.31,35.92,330.62c.83-6.53,1.67-13.06,2.34-18.35L20.51,300.93l-4.13-6q-1.52-8.55-3-17.09c1.95-4.53,3.56-9.26,6-13.53,2.82-5,7.15-6.69,12.55-3.52.41,3.27,1.42,6.61,1,9.78-.3,2.53-2.28,4.87-3.51,7.29-1.07,10,.34,12.84,8.3,16.84L52,296.19H90.48l17.1,0,16.11-.09,0,.1,3.92.2,1.26.78,1.41.93,1.33,1.61.5,2.43c-1.08,2.79-2.16,5.59-3.23,8.38l-2.8.59-2.45.18a.53.53,0,0,0-.75,0,.57.57,0,0,0-.9,0l-4.47,0-9.93.06-5.79.08-2.86,0-8.51-.06-2.81,0-4.33,0-9.94,0L72,311.3l-7.28.1L63,312c-6.42.33-9.76,4.4-11.47,10s-.72,10.76,4.26,14.57l13.25,3.91H76.2l4.29,0,10,0h17.14l17.09,0L142,340l9.91-7.73q5-5.06,10.06-10.09l8.47-8.47,8.67-8.65,8.45-8.45c3.74-3.57,7.58-7.05,11.18-10.76,3.2-3.28,7.18-6.3,11-3,2.33,2,2.25,6.82,3.25,10.38l-1.36,1.58L194.39,312l-2.84,2.87-12.72,12.72q-2.18,2.2-4.37,4.39l-12.73,12.75L157,349l-8,4.79c-3,.55-5.91,1.43-8.9,1.58-8.17.43-16.35.55-24.53.79l-2.17,0c-8.64-.13-17.29-.55-25.92-.3-5.94.17-10.84,2.7-12.85,8.94-3.07,9.83-.66,15.31,8.49,19.28,2.78.35,5.57,1.07,8.34,1,13.82-.39,27.65-1,41.47-1.51,9.32,2.28,18.57,3.28,27.56-1.31C173.7,370.5,187,358.87,200.16,347c4.65-4.2,8.79-8.95,13.17-13.44l3.84-2.43,13.08-11.92,5.85-5.38c11.46-12.08,23-24.12,34.35-36.28,3.47-3.7,3.5-7.48-.72-10.88-1.81-1.47-3.46-3.13-5.19-4.7l-3.84-3.8-7.6-7.55-5.69-5.7-1.3-1.36-3-2.81q-3.58-3.6-7.18-7.21l-1.35-1.35-4.35-4.36L229,226.48l-17.26-15.65L208.84,208l-9.92-17.13q0-7.74,0-15.48,2.28-5,4.57-10,3.18-5.07,6.37-10.15l2-2.38,17-5.23q17,9.56,34.07,19.12l35.69,21.52,4.22,2.72,12.85,8.76,18.61,18.42,4.86,7,1,1.21.08.14q4.2,8.59,8.41,17.19l.9,3.09q1.77,7,3.53,14l1.52,17.08-.36,15.52q-5.06,17.67-10.12,35.34-4.19,9.5-8.39,19l-17.27,32.35-4.39,7.45-5.49,9.89c-7.06,11.46-15.5,22.47-12.54,37.3-2.06,10.37-6,12.26-14.39,7-.52-2.81-1.05-5.62-1.57-8.43Q280.19,426.32,280.34,419.37Z"/><path class="cls-1" d="M107.58,414.79l8.67,2.8q.85,8.58,1.7,17.16c-.19,6.68-3.21,10.39-10.31,9.81L102.82,439q0-9.25,0-18.5c.35-.89.69-1.78,1-2.68Z"/><path class="cls-1" d="M280,51.16V34.08q0-8.56,0-17.14c.1-2.3.24-4.61.28-6.91.17-8,2.3-10,10.51-9.9,1.56,3.72,4.31,7.39,4.49,11.18.65,13.74.44,27.52.56,41.29q1,9.48,2,18.94l3.69,5.32,1.1,1.55,6.66,9.66Q313,94,316.7,99.85q1.11,2,2.2,4.05,4.89,10,9.76,19.94,2.08,5.76,4.15,11.5l1.41,4.49,2.13,10c.4,2.28.8,4.57,1.21,6.85q1.1,9.51,2.21,19l-2.07,15-3.36,1.94L327,191l-2.91-17.18q-3.92-19.17-7.84-38.33l-6-14.5a94.48,94.48,0,0,0-4.22-8.78c-8.59-14.2-17.31-28.31-26-42.46Q280,60.44,280,51.16Z"/><path class="cls-1" d="M90.47,290.71l-4.2-.11h0L85,290.35l-4.51-1.06-1.35-.72-2.88-.84L73.52,286,47.35,260.87l-9.74-9.77L26,239.49,20.52,234,0,208.06l.17-17.19c1.08-2.42,2.17-4.83,3.25-7.25l18.45-15c-.46-2.27-1.16-5.7-1.86-9.12L19.77,157l.22-.56.05-2.36q1.14-4.34,2.3-8.67l4.54-7.08c3-2.25,6.71-4,8.89-6.88,2.57-3.39,5.65-7.93,5.33-11.7C40,107.26,46.16,94.93,57.76,89.48c2.27-1.06,4.6-2,7.06-3-4-8.71-3.33-17-.3-25.28l7.58-9.92,1.39-1.18A37.79,37.79,0,0,1,96.13,45l4.24.56c.88-1.3,2.49-2.6,2.51-3.92.16-12,.05-24,0-36.05.67-1.3,1.34-2.6,2-3.9L107.63,0l5.27.06c7,4.06,3.88,11.13,5,16.94q0,8.51,0,17l0,4.35V52.62c-1.66,6.09,2.68,8.84,6.58,11.85l5.33,5.41,11.45,11.46L147,87l11.46,11.45,3.17,3.09,2.79,2.9,13,16.65q.65,8.35,1.28,16.71c-3.59,10.56-9.68,18.79-20.35,22.06l24.86,31,.11,17.09-7.43,12.76L173,223.37l-9.9,5.2,14.4,15,.07,0q3.53,8.58,7,17.17-1.42,7.17-2.86,14.32L176,283.53l-15.6,8.8-2.82.26-2.91,0-5.67-.24a1.47,1.47,0,0,0-1.35-.29l-1.48-.84-2.89-.53-16-12.79-8.85-9.51c-2,4.07-3.73,7.42-5.41,10.78l-1.29,1.46-2.78,2.76-1.51,1.12ZM168.69,265l.06-4.26q-4.22-6.34-8.44-12.67c-1.1-1.13-2.21-2.25-3.31-3.37l-1.2-1.08-16.91-16.87-1.52-1.6-15.59-15.52-4.24-4.43L108,195.61l-4.75-4.51-.12-.13q-4.22-4.25-8.41-8.5l-.08-.07L86.14,174c-.48-.53-1-1.06-1.45-1.6l-11-11-4.72-4.57c-6.29-6.5-11.14-15.55-22.67-12.78l-9.76,7.68C33,157.88,35,163.55,39.18,168.1c7.32,7.89,15.28,15.19,23,22.74l28.38,28.37c17.86,18,35.63,36.13,53.65,54,5.78,5.73,12.6,5.49,19.84.29Q166.34,269.26,168.69,265ZM90.46,59.83,79.07,66.9c-3.84,6.33-2.85,12.5,2,17.42C100.22,103.7,119.66,122.79,139,142l2.68,1.93c9,4.28,14.7,3,18.86-4.26,2.47-6.47,2.53-12.73-1.63-18.62l-15.67-15.69-1.44-1.42L124.73,86.78,107.62,69.66C103,64.42,98.85,58.45,90.46,59.83Zm17.25,113.84,17.08,17,2.84,2.72C133,199,138.1,204.86,143.85,210c6.73,6.07,15.52,5.81,21.1.14,5.86-6,5.72-15-.69-21.56-5.41-5.59-11.15-10.84-16.75-16.25l-2.88-2.84-31.36-31.35L109,133.89c-9.36-9.52-18.54-19.24-28.17-28.48-5.16-5-11.35-6.35-17.74-1.6-7.07,3.9-8.1,10-6.23,17.15l16.64,18.33.15.16,17,17,.12.12ZM20.58,188c-9.24,7.58-9.23,15.49,0,24.14q29.27,29.52,58.56,59c1.11,1.11,2.79,1.64,4.21,2.43l1.27.6,5.78.54c9.9-1.14,15-7.81,13-17.2L93.09,243.73l-2.7-2.67q-25.76-26-51.57-51.91c-1.1-1.11-2.77-1.66-4.17-2.46l-2.6-1.07-7.24.1-1.61.82Z"/></g></g></svg>