<svg xmlns="http://www.w3.org/2000/svg" viewBox="0 0 538.57 496.8"><defs><style>.cls-1{fill:#b86900;}.cls-2{fill:#389d20;}.cls-3{fill:#834b00;}.cls-4{fill:#824b00;}.cls-5{fill:#824a00;}.cls-6{fill:#379c20;}.cls-7{fill:#267017;}.cls-8{fill:#277017;}.cls-9{fill:#814a00;}.cls-10{fill:#854c00;}.cls-11{fill:#844c00;}.cls-12{fill:#282526;}.cls-13{fill:#272425;}.cls-14{fill:#010101;}</style></defs><g id="Layer_2" data-name="Layer 2"><g id="wallet"><path class="cls-1" d="M306.25,318.06c.41.71.85,1.39,1.22,2.12a49.56,49.56,0,0,0,31.65,26.17,47,47,0,0,0,16.8,1.69,52.92,52.92,0,0,0,7.28-1.12q28.07-6.23,56.13-12.54l43.17-9.69q11-2.47,22.07-4.92a15,15,0,0,1,1.56-.18,12.71,12.71,0,0,1,.61,1.6q6,26.87,12,53.73c.4,1.76.83,3.51,1.21,5.27.17.79.25,1.6.37,2.36a5.73,5.73,0,0,1-2.87,1q-23.25,5.25-46.53,10.43l-45.32,10.19q-20.86,4.69-41.74,9.36l-48.21,10.8-60.21,13.47q-22.67,5.07-45.32,10.19-23,5.17-46.06,10.31l-58.53,13.07c-5.36,1.19-10.71,2.43-16.06,3.63a4.14,4.14,0,0,1-2.58.11c-.38-1.58-.81-3.23-1.18-4.89q-3.56-16-7.11-31.91Q74,417.68,69.33,397.05q-5.08-22.67-10.19-45.33-6.91-30.81-13.81-61.64Q39.92,266,34.52,241.87q-1.73-7.67-3.4-15.36a17.84,17.84,0,0,1-.21-2,13.54,13.54,0,0,1,1.84.33,47.87,47.87,0,0,0,26,1.06q29.15-6.51,58.28-13.08l45.33-10.19,52.76-11.83,50.61-11.34,48.21-10.8,57.32-12.85,36.94-8.26q17.64-3.94,35.26-7.92c.71-.15,1.44-.2,2.28-.32a17.46,17.46,0,0,1,.68,1.88q6.39,28.43,12.75,56.84.94,4.2,1.85,8.41c.13.63.14,1.29.21,1.93-1.34.61-2.71,1.15-4,1.83a33.62,33.62,0,0,1-6.37,2.55c-1.81.5-3.64.93-5.48,1.34-1.26.28-2.54.48-4,.74-.29-.66-.58-1.23-.79-1.83s-.27-1.11-.46-1.65a3.34,3.34,0,0,0-3.28-2.42c-1.33.17-3.52,1.78-3.2,3.49.17.88.28,1.77.37,2.66a13.73,13.73,0,0,1,0,1.44,20.71,20.71,0,0,1-2,.66c-4.14.91-8.29,1.78-12.43,2.71-5.73,1.28-11.45,2.6-17.18,3.91s-11.46,2.6-17.18,3.92c-6.83,1.58-13.66,3.21-20.5,4.78-4.69,1.08-9.39,2.09-14.09,3.15q-8.48,1.91-16.95,3.85c-6.36,1.45-12.74,2.85-19.07,4.42a47.83,47.83,0,0,0-12.76,4.94,39.81,39.81,0,0,0-10,8.61A38.41,38.41,0,0,0,284,273.34a29.27,29.27,0,0,0-1,8.24c.06,1.47,0,2.95,0,4.43a7.21,7.21,0,0,0,.08,1.47,56.45,56.45,0,0,0,3,10.59,34.47,34.47,0,0,0,5.47,9c3.16,3.64,6.57,7.11,10.92,9.41C303.65,317.12,304.77,318.06,306.25,318.06ZM197.32,216.24a3.63,3.63,0,0,0-4.25-3.78c-2,.43-4,.89-5.94,1.35s-4.12.92-6.17,1.44a3.91,3.91,0,0,0-2.79,3.61,3.61,3.61,0,0,0,4.21,3.09c3.65-.78,7.3-1.56,11-2.37a14.13,14.13,0,0,0,2.08-.7A3,3,0,0,0,197.32,216.24Zm209.4-51.65c-.16,0-.39.12-.63.17-3.57.77-7.15,1.51-10.72,2.3a15.92,15.92,0,0,0-2.09.68,3.36,3.36,0,0,0-1.88,4.06,3.75,3.75,0,0,0,3.81,2.47q6.32-1.38,12.58-2.89a4,4,0,0,0,2.66-3.21A3.81,3.81,0,0,0,406.72,164.59ZM87.56,452.5a3.57,3.57,0,0,0,4.26,3.75c3.9-.78,7.74-1.84,11.63-2.64a4.07,4.07,0,0,0,3-2.53,2.29,2.29,0,0,0,0-1.9,3.72,3.72,0,0,0-4.51-2.37c-2.85.63-5.71,1.22-8.56,1.89a36.82,36.82,0,0,0-4,1.17A2.92,2.92,0,0,0,87.56,452.5Zm83.35-14.2a12.5,12.5,0,0,0,1.68-.11c3.58-.79,7.15-1.58,10.71-2.45a6.28,6.28,0,0,0,2.14-1.12,3.27,3.27,0,0,0-1.83-5.68,9.07,9.07,0,0,0-2.43.19c-2.07.4-4.15.82-6.21,1.31-1.82.42-3.64.87-5.43,1.44a3.32,3.32,0,0,0-2,3.71C168,437,169.19,438.56,170.91,438.3Zm-.18-216.12a3.56,3.56,0,0,0-4.25-3.76c-3.9.77-7.74,1.84-11.64,2.63a4.1,4.1,0,0,0-3,2.53,2.33,2.33,0,0,0-.05,1.9,3.72,3.72,0,0,0,4.51,2.38c2.85-.63,5.71-1.22,8.55-1.89a38.68,38.68,0,0,0,4-1.17A2.91,2.91,0,0,0,170.73,222.18ZM368.4,180.26a3,3,0,0,0,.58,0l11.66-2.71a3.07,3.07,0,0,0,.93-.29c2.19-1.4,3.27-3.37.9-5.55a4.42,4.42,0,0,0-.76-.61,2.82,2.82,0,0,0-2.32-.37c-1.79.52-3.65.84-5.48,1.25-2.3.52-4.62,1-6.9,1.61-2.08.57-2.5,2.46-2.22,4.1A4,4,0,0,0,368.4,180.26ZM223.92,209.77a3.61,3.61,0,0,0-4-3.29c-2.54.53-5.06,1.15-7.59,1.73-1.51.34-3,.7-4.52,1a3.84,3.84,0,0,0-2.57,2.09,3.26,3.26,0,0,0,1.26,4.22,3.56,3.56,0,0,0,3.05.35,19.37,19.37,0,0,1,3.08-.67c2.94-.66,5.87-1.29,8.79-2A3.12,3.12,0,0,0,223.92,209.77ZM411.13,384.6c.16,0,.72-.1,1.28-.22,2.78-.6,5.57-1.19,8.34-1.83a26.77,26.77,0,0,0,3.53-1,3.43,3.43,0,0,0,2-3.62,3,3,0,0,0-2.8-2.65,12.3,12.3,0,0,0-3.14.25c-2.72.53-5.42,1.14-8.12,1.73a23,23,0,0,0-2.59.69,3.65,3.65,0,0,0-2.47,3.33A3.88,3.88,0,0,0,411.13,384.6ZM266.27,414.43a2.71,2.71,0,0,0-1.25-2.75,3.11,3.11,0,0,0-2.92-.71c-3.3.86-6.66,1.5-10,2.24a18.92,18.92,0,0,0-2.58.71,3.19,3.19,0,0,0-2,3.56,3.09,3.09,0,0,0,2.48,3,5.69,5.69,0,0,0,1.92-.14c2.08-.4,4.14-.83,6.2-1.29s4-.87,5.92-1.46A2.91,2.91,0,0,0,266.27,414.43ZM87,236.31c-.71.14-1.43.27-2.14.43-3.25.71-6.51,1.41-9.76,2.17a5.35,5.35,0,0,0-2,.9,3.45,3.45,0,0,0-1.19,3.73,3.13,3.13,0,0,0,3.17,2.22,7.5,7.5,0,0,0,1.71-.12q4.17-.9,8.32-1.87a34.12,34.12,0,0,0,3.3-.88c2.59-.87,3.21-3.38,1.42-5.42A3.31,3.31,0,0,0,87,236.31Zm377.92,97.07a3.15,3.15,0,0,0-3.59,2.6,5,5,0,0,0,.18,1.91c.57,2.71,1.13,5.41,1.76,8.1.33,1.42.75,2.83,1.21,4.22.52,1.54,2.31,2.22,4.1,1.8,1.16-.27,2.76-2.38,2.41-3.88-1-4.1-1.9-8.23-2.88-12.34A2.91,2.91,0,0,0,464.92,333.38Zm-69.39,47.77c-.16,0-.72.13-1.28.25L388,382.69c-1.51.32-3,.63-4.53,1a3.68,3.68,0,0,0-2.83,4.66,2.92,2.92,0,0,0,3,2.13A18.35,18.35,0,0,0,387,390q4.91-1,9.79-2.09a3.77,3.77,0,0,0,1.5-.8,3.17,3.17,0,0,0,1.32-2.76A3.83,3.83,0,0,0,395.53,381.15Zm-37.2,15.26c.15,0,.87-.14,1.59-.29,2.7-.57,5.41-1.13,8.11-1.75a13.6,13.6,0,0,0,3-.91,3.2,3.2,0,0,0,1.11-5.12,3.6,3.6,0,0,0-4-1.18c-3.26.7-6.5,1.49-9.74,2.26a18.56,18.56,0,0,0-2.36.61,3.33,3.33,0,0,0-1.82,4.64C355,396.15,356.27,396.48,358.33,396.41Zm-38.88,6.22c0-2.1-.53-3.05-2.16-3.54a4.07,4.07,0,0,0-1.93-.08c-4,.89-7.9,1.92-11.89,2.74a3.18,3.18,0,0,0-2.64,2.53,2.81,2.81,0,0,0,.63,3,3.4,3.4,0,0,0,3.47,1.18c3.47-.87,7-1.49,10.49-2.25a13.11,13.11,0,0,0,2.09-.69C318.86,404.94,319.65,404,319.45,402.63Zm129.4-33.31a6.64,6.64,0,0,0-1.32.09c-3.57.79-7.14,1.59-10.71,2.44a4.84,4.84,0,0,0-1.75.82,3.08,3.08,0,0,0-.88,4.13,3.67,3.67,0,0,0,4.2,1.72l11-2.37a8.66,8.66,0,0,0,1.39-.45,3.42,3.42,0,0,0,1.91-4.26C452.08,369.85,451.23,369.32,448.85,369.32ZM140,224.55a9.39,9.39,0,0,0-1.64.12c-3.49.79-7,1.6-10.45,2.46a4.27,4.27,0,0,0-1.7.92,2.87,2.87,0,0,0-1.13,3c.64,1.9,1.89,3.26,4.23,2.77,3.81-.81,7.63-1.64,11.43-2.5a6.94,6.94,0,0,0,1.78-.81,3.2,3.2,0,0,0-1-5.93A12.1,12.1,0,0,0,140,224.55ZM292.86,408.48c.24-2.63-2-4-4.31-3.49-3.49.77-7,1.54-10.45,2.34-.71.17-1.38.49-2.09.7-1.83.55-2.78,4-.79,5.49,1.1.84,2.19,1.43,3.59.78a3.88,3.88,0,0,1,.71-.16c3.56-.81,7.13-1.6,10.68-2.45C292.11,411.24,292.86,410.28,292.86,408.48ZM236.26,417c-1.52.25-3,.42-4.41.73-2.7.59-5.39,1.25-8.08,1.89a3.21,3.21,0,0,0-2.36,1.56,3.74,3.74,0,0,0,.14,4,3.18,3.18,0,0,0,3.22,1.33,9.3,9.3,0,0,0,1.19-.25c2.71-.58,5.42-1.15,8.11-1.76a28.36,28.36,0,0,0,3.53-1,2.9,2.9,0,0,0,2.07-2.49c.16-1.39-.08-2.67-1.37-3.41A8.24,8.24,0,0,0,236.26,417Zm-41.9,12.16a2.6,2.6,0,0,0,1.57,2.79,4.25,4.25,0,0,0,3.09.32c2.23-.48,4.46-.92,6.68-1.44,1.66-.39,3.32-.81,5-1.33a3.28,3.28,0,0,0-1-6.46,9.14,9.14,0,0,0-2,.11c-3.49.76-7,1.56-10.47,2.38C195.11,426,194.37,427,194.36,429.11ZM427.73,186.38a8.4,8.4,0,0,0,.12,1.34q1.17,5.24,2.39,10.46a5.5,5.5,0,0,0,.63,1.57,3.41,3.41,0,0,0,6.17-2.6c-.81-3.81-1.62-7.63-2.49-11.43a7.35,7.35,0,0,0-.91-2A3.17,3.17,0,0,0,430,182.4C428.47,182.87,427.75,184,427.73,186.38ZM144.21,444.24a15,15,0,0,0,1.91-.16c3.51-.78,7-1.57,10.49-2.4a5.26,5.26,0,0,0,1.79-.76c1.26-.85,2-2.81,1.3-3.89-.78-1.26-1.74-2.43-3.51-2.22-.48.06-1,.08-1.45.18-1.91.42-3.82.87-5.72,1.32s-4,.84-5.94,1.45a3.11,3.11,0,0,0-1.57,4.94C142.28,443.74,143.25,444.46,144.21,444.24ZM356.87,180a2.84,2.84,0,0,0-3-3.13,19.7,19.7,0,0,0-3.14.34c-1.12.18-2.24.43-3.35.67-2.22.49-4.45,1-6.67,1.52a3,3,0,0,0-2,1.28,3.81,3.81,0,0,0-.11,4,3.21,3.21,0,0,0,3.34,1.56,6.44,6.44,0,0,0,1-.17c3.33-.76,6.66-1.51,10-2.28a13.45,13.45,0,0,0,1.65-.46A3,3,0,0,0,356.87,180ZM63.93,245.76a3.1,3.1,0,0,0-3.48-3.44,4.42,4.42,0,0,0-1.21.16,46.69,46.69,0,0,1-8.83,1.85,20.1,20.1,0,0,0-2.88.57,3.4,3.4,0,0,0-2,4.74,4.1,4.1,0,0,0,4.2,1.91,12.69,12.69,0,0,1,1.42-.34c3.54-.16,6.87-1.33,10.29-2.1C63.28,248.69,63.93,247.69,63.93,245.76ZM331,402.37a12.08,12.08,0,0,0,1.71-.13c3.56-.79,7.13-1.59,10.68-2.43a4.62,4.62,0,0,0,1.74-.84,3,3,0,0,0,1.06-3.26,3.38,3.38,0,0,0-4.27-2.62c-2.3.49-4.6,1-6.89,1.5-1.82.41-3.66.78-5.43,1.35a3.3,3.3,0,0,0-1.84,4.79A2.92,2.92,0,0,0,331,402.37Zm-217.37-172c-.64.11-1.29.2-1.92.33-1.2.24-2.4.5-3.59.77-2.23.49-4.46,1-6.68,1.51a3.79,3.79,0,0,0-2.91,2.72,2.39,2.39,0,0,0,.19,2.13c1,1.32,2.09,2.34,3.91,2l1.42-.33c2.63-.56,5.27-1.1,7.9-1.69a29.28,29.28,0,0,0,3.3-.9,3.16,3.16,0,0,0,1.55-5A3.23,3.23,0,0,0,113.61,230.41Zm4.65,219.64v.07A10.76,10.76,0,0,0,120,450c3.42-.78,6.83-1.58,10.24-2.43a4.29,4.29,0,0,0,1.74-.85c1-.83,1.7-1.92,1.21-3.24-.81-2.16-2.08-3.12-4.32-2.65-1.28.27-2.54.6-3.82.88-2.39.52-4.79,1-7.17,1.54a9.16,9.16,0,0,0-2,.84,3.53,3.53,0,0,0-1.6,3.07,3.11,3.11,0,0,0,2.56,2.89A9,9,0,0,0,118.26,450.05ZM235,209.89a18.05,18.05,0,0,0,2.17-.16c3.34-.75,6.65-1.62,10-2.27a4.54,4.54,0,0,0,2.64-1.6,2.93,2.93,0,0,0,0-4,3.6,3.6,0,0,0-3.93-1.26c-2.85.68-5.72,1.26-8.58,1.91a28.68,28.68,0,0,0-3.29.93,3.62,3.62,0,0,0-2.5,3.06,3.07,3.07,0,0,0,1.68,2.82A5.82,5.82,0,0,0,235,209.89Zm53.2-11.78c.84-.13,1.49-.2,2.13-.33,2.79-.6,5.58-1.2,8.36-1.82a16,16,0,0,0,2.59-.72,3.31,3.31,0,0,0,2.42-2.81,3.26,3.26,0,0,0-3.47-3.79,8,8,0,0,0-1.47.11c-3.5.77-7,1.55-10.49,2.4a7.83,7.83,0,0,0-2.17,1.07,3.36,3.36,0,0,0,.2,5.28A8.18,8.18,0,0,0,288.18,198.11ZM261.69,204c.8-.13,1.45-.21,2.08-.34,3.49-.75,7-1.49,10.47-2.26a3.52,3.52,0,0,0,2.75-2.54,3.25,3.25,0,0,0-3.28-4.32,6.13,6.13,0,0,0-1.21.12c-3.65.79-7.31,1.55-10.94,2.41a5.34,5.34,0,0,0-2.13,1.12,3.29,3.29,0,0,0,.32,5.25A6.38,6.38,0,0,0,261.69,204Zm65.46-21.33a12.65,12.65,0,0,0-1.61.11c-3.66.81-7.33,1.6-11,2.48a5.83,5.83,0,0,0-1.92,1.05,3,3,0,0,0-.94,3.54,3,3,0,0,0,2.93,2.21,5.57,5.57,0,0,0,1.47-.1c3.66-.79,7.33-1.56,11-2.42a5.36,5.36,0,0,0,2.13-1.13,3.28,3.28,0,0,0-.35-5.26A5.07,5.07,0,0,0,327.15,182.69Zm99-22.12a17.52,17.52,0,0,0-6.42,1.31,3.24,3.24,0,0,0-1.61,4.12,3.55,3.55,0,0,0,4.1,2.25c1-.15,1.33.05,1.53,1s.32,1.93.57,2.87a3.91,3.91,0,0,0,3.7,2.68,3.72,3.72,0,0,0,3.09-4.09c-.51-2.55-1.13-5.09-1.84-7.59C428.73,161.11,427.84,160.57,426.18,160.57Zm41.26,204a3.74,3.74,0,0,1-2.12.87,14,14,0,0,0-3.24,1.06,3.21,3.21,0,0,0-1.7,3.49,3.73,3.73,0,0,0,4.36,2.69c2.62-.58,5.23-1.21,7.84-1.86a3,3,0,0,0,2.45-3.18c.06-1.75-.64-3.35-.95-5a2.93,2.93,0,0,0-2.3-2.56,3.35,3.35,0,0,0-3.87,1.4C467.32,362.34,467.19,362.92,467.44,364.56Z"/><path class="cls-1" d="M510.42,242.33q1.72,7.29,3.43,14.59c.93,4,1.92,8,2.71,12,1.4,7.09-.16,13.33-5.51,18.43a29.26,29.26,0,0,1-5.33,3.94,42.28,42.28,0,0,1-12.11,4.66c-12.62,2.86-25.24,5.66-37.87,8.48l-26.6,6q-19.77,4.42-39.55,8.85-15.57,3.5-31.15,7a27.8,27.8,0,0,1-17.31-1.65,23.76,23.76,0,0,1-2.53-1.47,5.94,5.94,0,0,0-.24-1.42c-.4-1-.91-1.92-1.34-2.88a20.07,20.07,0,0,1-1.75-6.6,30.61,30.61,0,0,1,1.52-13.54A28.82,28.82,0,0,1,347,285.19a22.85,22.85,0,0,1,3.18-1.84c1-.51,2.09-.94,3.15-1.35a32.93,32.93,0,0,1,3.69-1.29c3.73-.9,7.47-1.7,11.21-2.55l17.4-4c5.72-1.3,11.45-2.59,17.17-3.92,5.32-1.24,10.62-2.56,15.94-3.78,6.12-1.39,12.26-2.69,18.39-4.07,5.88-1.32,11.75-2.71,17.63-4,5.65-1.29,11.3-2.54,16.94-3.84,6.11-1.41,12.2-2.95,18.34-4.26a56.78,56.78,0,0,0,18.34-7.36A2.86,2.86,0,0,1,510.42,242.33Z"/><path class="cls-2" d="M228.11,128c1-.77,2-1.63,3.15-2.31q14-8.73,28-17.39Q277.53,97,295.83,85.67c8-5,16-10,24-14.93l23.41-14.51c.27-.17.56-.31,1-.53a11,11,0,0,1,.92,1.1q5.42,8.66,10.81,17.32,6.49,10.44,13,20.89l18.93,30.5c.56.9,1.16,1.79,1.71,2.7.46.76.86,1.55,1.36,2.45-2.05,1.05-4.19,1.16-6.2,1.69s-4.29,1.07-6.47,1.45-4.08,1.19-6.33,1.19a73.67,73.67,0,0,1-4.14-6.36c-1.39-2.12-2.68-4.31-4-6.47s-2.64-4.35-4-6.48a49.38,49.38,0,0,0-4.26-6.4,27.57,27.57,0,0,1-15.76,7,26.68,26.68,0,0,1-16.49-3.78A27.93,27.93,0,0,1,312,99.33a12.79,12.79,0,0,0-1.65.7q-9.66,5.89-19.29,11.82L263,129c-2.86,1.75-5.71,3.54-8.59,5.27-.76.46-1.61.78-2.41,1.17,0-.73-.52-.87-1.14-1q-8.86-2.22-17.59-5C231.56,129,229.83,128.52,228.11,128Z"/><path class="cls-3" d="M306.25,318.06c-1.48,0-2.6-.94-3.81-1.57-4.35-2.3-7.76-5.77-10.92-9.41a34.47,34.47,0,0,1-5.47-9,56.45,56.45,0,0,1-3-10.59A7.21,7.21,0,0,1,283,286c0-1.48,0-3,0-4.43a29.27,29.27,0,0,1,1-8.24,38.41,38.41,0,0,1,7.89-15.92,39.81,39.81,0,0,1,10-8.61,47.83,47.83,0,0,1,12.76-4.94c6.33-1.57,12.71-3,19.07-4.42q8.47-1.95,16.95-3.85c4.7-1.06,9.4-2.07,14.09-3.15,6.84-1.57,13.67-3.2,20.5-4.78,5.72-1.32,11.45-2.61,17.18-3.92s11.45-2.63,17.18-3.91c4.14-.93,8.29-1.8,12.43-2.71a20.71,20.71,0,0,0,2-.66,13.73,13.73,0,0,0,0-1.44c-.09-.89-.2-1.78-.37-2.66-.32-1.71,1.87-3.32,3.2-3.49a3.34,3.34,0,0,1,3.28,2.42c.19.54.27,1.12.46,1.65s.5,1.17.79,1.83c1.42-.26,2.7-.46,4-.74,1.84-.41,3.67-.84,5.48-1.34a33.62,33.62,0,0,0,6.37-2.55c1.3-.68,2.67-1.22,4-1.83.41,1.49.88,3,1.24,4.47.59,2.47,1.13,5,1.66,7.43a6,6,0,0,1,0,1.14c-.83.24-1.67.52-2.53.72l-31.82,7.31q-11.73,2.7-23.46,5.36-15.56,3.54-31.12,7.07c-9,2.07-18,4.18-27,6.23A118.45,118.45,0,0,0,336,251.11a48.7,48.7,0,0,0-18.28,11.23,50.14,50.14,0,0,0-9.95,13.34,46.53,46.53,0,0,0-4.52,13.47,59.78,59.78,0,0,0-.91,8.53,41.58,41.58,0,0,0,1.09,10.48c.58,2.46,1.38,4.88,2.08,7.31Z"/><path class="cls-4" d="M510.42,242.33a2.86,2.86,0,0,0-2.08.56A56.78,56.78,0,0,1,490,250.25c-6.14,1.31-12.23,2.85-18.34,4.26-5.64,1.3-11.29,2.55-16.94,3.84-5.88,1.34-11.75,2.73-17.63,4-6.13,1.38-12.27,2.68-18.39,4.07-5.32,1.22-10.62,2.54-15.94,3.78-5.72,1.33-11.45,2.62-17.17,3.92l-17.4,4c-3.74.85-7.48,1.65-11.21,2.55a32.93,32.93,0,0,0-3.69,1.29c-1.06.41-2.13.84-3.15,1.35a22.85,22.85,0,0,0-3.18,1.84,28.82,28.82,0,0,0-10.17,13.48,30.61,30.61,0,0,0-1.52,13.54,20.07,20.07,0,0,0,1.75,6.6c.43,1,.94,1.9,1.34,2.88a5.94,5.94,0,0,1,.24,1.42,16.88,16.88,0,0,1-2.18-1.06,27.3,27.3,0,0,1-12-17.59c-2-9.87.26-18.69,7.36-26a31.47,31.47,0,0,1,3.67-3.25,28.6,28.6,0,0,1,10.2-4.68c5-1.33,10-2.36,15.06-3.51l11-2.5q13.17-3,26.32-6c8.93-2.05,17.85-4.15,26.78-6.21l28-6.39c9.49-2.16,19-4.35,28.47-6.48a49.83,49.83,0,0,0,19.34-9.3c1.56-1.19,3-2.59,4.43-3.89l1-.9c.66.17.55.67.68,1a7.9,7.9,0,0,1,.32,1.18Z"/><path class="cls-5" d="M114.22,137.93C88.52,160.1,62.74,181.82,37,203.49a9.11,9.11,0,0,1-3.25-1.5A26.24,26.24,0,0,1,27,163.26a25.06,25.06,0,0,1,14.69-9.19l23.94-5.38c4.14-.94,8.28-1.92,12.43-2.85,7.42-1.67,14.85-3.3,22.27-5,4.07-.91,8.13-1.87,12.2-2.78A13.28,13.28,0,0,1,114.22,137.93Z"/><path class="cls-6" d="M207.15,85.71c1.21-1.08,2.41-2.21,3.66-3.26C218.52,76,226.27,69.51,234,63c6.9-5.81,13.76-11.66,20.65-17.47q12.31-10.4,24.66-20.74c.49-.42,1-.75,1.68-1.21A18.93,18.93,0,0,1,282.4,25q9.66,11.49,19.28,23c1.58,1.88,3.19,3.74,4.75,5.57-.09.89-.83,1.07-1.34,1.39C300.23,58,295.35,61,290.48,64L270.4,76.43c-.48.3-1,.56-1.53.87A18.92,18.92,0,0,1,262.34,73c-1.8-1.75-3.3-3.81-5-5.85-.33.25-.73.51-1.09.81q-12.78,10.61-25.55,21.2c-1.06.88-1.88,2.09-3.3,2.5-.11-.11-.21-.29-.34-.33-2.67-.72-5.34-1.44-8-2.14-3.39-.89-6.78-1.74-10.15-2.66A9.37,9.37,0,0,1,207.15,85.71Z"/><path class="cls-7" d="M207.15,85.71a9.37,9.37,0,0,0,1.72.83c3.37.92,6.76,1.77,10.15,2.66,2.67.7,5.34,1.42,8,2.14.13,0,.23.22.34.33a17.29,17.29,0,0,1-1.49,1.59q-5.37,4.48-10.78,8.93c-4.48,3.69-9,7.37-13.44,11.09-3.46,2.88-6.87,5.82-10.33,8.7s-6.83,5.6-10.23,8.42c-1.77,1.46-3.41,3.08-5.26,4.43-2.51,1.82-5.14,3.48-7.77,5.14-4,2.54-8.06,5-12.1,7.52q-8.57,5.3-17.12,10.6l-12.1,7.51-16.49,10.23L94,186c-5.7,3.54-11.4,7.09-17.12,10.6a6.75,6.75,0,0,1-1.59.53l-.1-.1c.68-.7,1.32-1.46,2.06-2.09q4.29-3.66,8.65-7.27c2.45-2,4.93-4.05,7.37-6.1s5-4.24,7.5-6.36c2.75-2.32,5.52-4.61,8.28-6.94,2.5-2.11,5-4.24,7.49-6.35,2.75-2.32,5.53-4.62,8.28-6.94l7.67-6.53c2.31-2,4.63-3.9,6.95-5.85l8.1-6.78c2.76-2.31,5.53-4.61,8.28-6.93,2.51-2.11,5-4.25,7.49-6.36,2.76-2.32,5.53-4.62,8.28-6.94,2.57-2.16,5.11-4.36,7.67-6.53,2.31-2,4.63-3.9,7-5.85l8.1-6.77,8.29-6.94Z"/><path class="cls-8" d="M228.11,128c1.72.49,3.45.95,5.15,1.48q8.73,2.72,17.59,5c.62.15,1.11.29,1.14,1a7.44,7.44,0,0,1-1.05,1q-8.58,5.28-17.19,10.53-12.8,7.8-25.6,15.61c-5.87,3.6-11.71,7.23-17.57,10.84-1.81,1.12-3.61,2.28-5.47,3.31a10.7,10.7,0,0,1-2.76,1c-4.63,1-9.26,2-13.89,3.08-8.23,1.82-16.46,3.62-24.67,5.47-4.55,1-9.08,2.11-13.62,3.16a7.41,7.41,0,0,1-1.09.07,4,4,0,0,1,.57-.71q11.16-7,22.33-13.89,11.6-7.2,23.21-14.35l20.68-12.82,16.27-10.15c4.94-3.07,9.87-6.16,14.82-9.22A4.8,4.8,0,0,1,228.11,128Z"/><path class="cls-9" d="M383.6,77.58a10,10,0,0,1,1.25-.45q10.66-2.38,21.33-4.72a4.41,4.41,0,0,1,1,.08,12.06,12.06,0,0,1,.37,1.17q5.42,24.2,10.81,48.4a3.22,3.22,0,0,1-.06.83c-1.78,1-3.9.94-5.7,1.58a1.84,1.84,0,0,1-.34-.13.59.59,0,0,1-.2-.15c-.33-.46-.68-.92-1-1.41L383.81,78.66a4,4,0,0,1-.27-.68C383.51,77.91,383.56,77.82,383.6,77.58Z"/><path class="cls-9" d="M473.06,162.69A25.62,25.62,0,0,1,485.17,168a31.57,31.57,0,0,1,10,13.75,38.9,38.9,0,0,1,2.44,9.73,17.81,17.81,0,0,1-1.28,8.66,30,30,0,0,1-9.43,13l-1.79,1.43a3.16,3.16,0,0,1-.41-.14.34.34,0,0,1-.13-.2C480.73,197.15,476.93,180.09,473.06,162.69Z"/><path class="cls-7" d="M75.29,197.08l-.53.45,0,0,.47-.51Z"/><path class="cls-7" d="M74.76,197.53l-.28.22c0-.06,0-.14,0-.17a.78.78,0,0,1,.21-.09Z"/><path class="cls-10" d="M197.32,216.24a3,3,0,0,1-1.91,2.64,14.13,14.13,0,0,1-2.08.7c-3.65.81-7.3,1.59-11,2.37a3.61,3.61,0,0,1-4.21-3.09,3.91,3.91,0,0,1,2.79-3.61c2-.52,4.11-1,6.17-1.44s4-.92,5.94-1.35A3.63,3.63,0,0,1,197.32,216.24Z"/><path class="cls-10" d="M406.72,164.59a3.81,3.81,0,0,1,3.73,3.58,4,4,0,0,1-2.66,3.21q-6.27,1.5-12.58,2.89a3.75,3.75,0,0,1-3.81-2.47,3.36,3.36,0,0,1,1.88-4.06,15.92,15.92,0,0,1,2.09-.68c3.57-.79,7.15-1.53,10.72-2.3C406.33,164.71,406.56,164.64,406.72,164.59Z"/><path class="cls-10" d="M87.56,452.5a2.92,2.92,0,0,1,1.93-2.63,36.82,36.82,0,0,1,4-1.17c2.85-.67,5.71-1.26,8.56-1.89a3.72,3.72,0,0,1,4.51,2.37,2.29,2.29,0,0,1,0,1.9,4.07,4.07,0,0,1-3,2.53c-3.89.8-7.73,1.86-11.63,2.64A3.57,3.57,0,0,1,87.56,452.5Z"/><path class="cls-11" d="M170.91,438.3c-1.72.26-2.94-1.35-3.42-2.71a3.32,3.32,0,0,1,2-3.71c1.79-.57,3.61-1,5.43-1.44,2.06-.49,4.14-.91,6.21-1.31a9.07,9.07,0,0,1,2.43-.19,3.27,3.27,0,0,1,1.83,5.68,6.28,6.28,0,0,1-2.14,1.12c-3.56.87-7.13,1.66-10.71,2.45A12.5,12.5,0,0,1,170.91,438.3Z"/><path class="cls-10" d="M170.73,222.18a2.91,2.91,0,0,1-1.93,2.62,38.68,38.68,0,0,1-4,1.17c-2.84.67-5.7,1.26-8.55,1.89a3.72,3.72,0,0,1-4.51-2.38,2.33,2.33,0,0,1,.05-1.9,4.1,4.1,0,0,1,3-2.53c3.9-.79,7.74-1.86,11.64-2.63A3.56,3.56,0,0,1,170.73,222.18Z"/><path class="cls-11" d="M368.4,180.26a4,4,0,0,1-3.61-2.62c-.28-1.64.14-3.53,2.22-4.1,2.28-.62,4.6-1.09,6.9-1.61,1.83-.41,3.69-.73,5.48-1.25a2.82,2.82,0,0,1,2.32.37,4.42,4.42,0,0,1,.76.61c2.37,2.18,1.29,4.15-.9,5.55a3.07,3.07,0,0,1-.93.29L369,180.21A3,3,0,0,1,368.4,180.26Z"/><path class="cls-11" d="M223.92,209.77a3.12,3.12,0,0,1-2.53,3.42c-2.92.73-5.85,1.36-8.79,2a19.37,19.37,0,0,0-3.08.67,3.56,3.56,0,0,1-3.05-.35,3.26,3.26,0,0,1-1.26-4.22,3.84,3.84,0,0,1,2.57-2.09c1.51-.31,3-.67,4.52-1,2.53-.58,5-1.2,7.59-1.73A3.61,3.61,0,0,1,223.92,209.77Z"/><path class="cls-11" d="M411.13,384.6a3.88,3.88,0,0,1-4-3.31,3.65,3.65,0,0,1,2.47-3.33,23,23,0,0,1,2.59-.69c2.7-.59,5.4-1.2,8.12-1.73a12.3,12.3,0,0,1,3.14-.25,3,3,0,0,1,2.8,2.65,3.43,3.43,0,0,1-2,3.62,26.77,26.77,0,0,1-3.53,1c-2.77.64-5.56,1.23-8.34,1.83C411.85,384.5,411.29,384.57,411.13,384.6Z"/><path class="cls-11" d="M266.27,414.43a2.91,2.91,0,0,1-2.2,3.12c-1.95.59-3.94,1-5.92,1.46s-4.12.89-6.2,1.29a5.69,5.69,0,0,1-1.92.14,3.09,3.09,0,0,1-2.48-3,3.19,3.19,0,0,1,2-3.56,18.92,18.92,0,0,1,2.58-.71c3.33-.74,6.69-1.38,10-2.24a3.11,3.11,0,0,1,2.92.71A2.71,2.71,0,0,1,266.27,414.43Z"/><path class="cls-11" d="M87,236.31a3.31,3.31,0,0,1,2.86,1.16c1.79,2,1.17,4.55-1.42,5.42a34.12,34.12,0,0,1-3.3.88q-4.15,1-8.32,1.87a7.5,7.5,0,0,1-1.71.12,3.13,3.13,0,0,1-3.17-2.22,3.45,3.45,0,0,1,1.19-3.73,5.35,5.35,0,0,1,2-.9c3.25-.76,6.51-1.46,9.76-2.17C85.57,236.58,86.29,236.45,87,236.31Z"/><path class="cls-11" d="M464.92,333.38a2.91,2.91,0,0,1,3.19,2.41c1,4.11,1.9,8.24,2.88,12.34.35,1.5-1.25,3.61-2.41,3.88-1.79.42-3.58-.26-4.1-1.8-.46-1.39-.88-2.8-1.21-4.22-.63-2.69-1.19-5.39-1.76-8.1a5,5,0,0,1-.18-1.91A3.15,3.15,0,0,1,464.92,333.38Z"/><path class="cls-11" d="M395.53,381.15a3.83,3.83,0,0,1,4.1,3.21,3.17,3.17,0,0,1-1.32,2.76,3.77,3.77,0,0,1-1.5.8Q391.92,389,387,390a18.35,18.35,0,0,1-3.37.47,2.92,2.92,0,0,1-3-2.13,3.68,3.68,0,0,1,2.83-4.66c1.5-.37,3-.68,4.53-1l6.21-1.29C394.81,381.28,395.37,381.18,395.53,381.15Z"/><path class="cls-11" d="M358.33,396.41c-2.06.07-3.34-.26-4.06-1.74a3.33,3.33,0,0,1,1.82-4.64,18.56,18.56,0,0,1,2.36-.61c3.24-.77,6.48-1.56,9.74-2.26a3.6,3.6,0,0,1,4,1.18,3.2,3.2,0,0,1-1.11,5.12,13.6,13.6,0,0,1-3,.91c-2.7.62-5.41,1.18-8.11,1.75C359.2,396.27,358.48,396.38,358.33,396.41Z"/><path class="cls-11" d="M319.45,402.63c.2,1.38-.59,2.31-1.94,2.86a13.11,13.11,0,0,1-2.09.69c-3.5.76-7,1.38-10.49,2.25a3.4,3.4,0,0,1-3.47-1.18,2.81,2.81,0,0,1-.63-3,3.18,3.18,0,0,1,2.64-2.53c4-.82,7.93-1.85,11.89-2.74a4.07,4.07,0,0,1,1.93.08C318.92,399.58,319.47,400.53,319.45,402.63Z"/><path class="cls-11" d="M448.85,369.32c2.38,0,3.23.53,3.81,2.12a3.42,3.42,0,0,1-1.91,4.26,8.66,8.66,0,0,1-1.39.45l-11,2.37a3.67,3.67,0,0,1-4.2-1.72,3.08,3.08,0,0,1,.88-4.13,4.84,4.84,0,0,1,1.75-.82c3.57-.85,7.14-1.65,10.71-2.44A6.64,6.64,0,0,1,448.85,369.32Z"/><path class="cls-11" d="M140,224.55a12.1,12.1,0,0,1,1.53.08,3.2,3.2,0,0,1,1,5.93,6.94,6.94,0,0,1-1.78.81c-3.8.86-7.62,1.69-11.43,2.5-2.34.49-3.59-.87-4.23-2.77a2.87,2.87,0,0,1,1.13-3,4.27,4.27,0,0,1,1.7-.92c3.47-.86,7-1.67,10.45-2.46A9.39,9.39,0,0,1,140,224.55Z"/><path class="cls-11" d="M292.86,408.48c0,1.8-.75,2.76-2.66,3.21-3.55.85-7.12,1.64-10.68,2.45a3.88,3.88,0,0,0-.71.16c-1.4.65-2.49.06-3.59-.78-2-1.5-1-4.94.79-5.49.71-.21,1.38-.53,2.09-.7,3.48-.8,7-1.57,10.45-2.34C290.87,404.48,293.1,405.85,292.86,408.48Z"/><path class="cls-11" d="M236.26,417a8.24,8.24,0,0,1,2,.58c1.29.74,1.53,2,1.37,3.41a2.9,2.9,0,0,1-2.07,2.49,28.36,28.36,0,0,1-3.53,1c-2.69.61-5.4,1.18-8.11,1.76a9.3,9.3,0,0,1-1.19.25,3.18,3.18,0,0,1-3.22-1.33,3.74,3.74,0,0,1-.14-4,3.21,3.21,0,0,1,2.36-1.56c2.69-.64,5.38-1.3,8.08-1.89C233.28,417.37,234.74,417.2,236.26,417Z"/><path class="cls-11" d="M194.36,429.11c0-2.14.75-3.12,2.88-3.63,3.48-.82,7-1.62,10.47-2.38a9.14,9.14,0,0,1,2-.11,3.28,3.28,0,0,1,1,6.46c-1.63.52-3.29.94-5,1.33-2.22.52-4.45,1-6.68,1.44a4.25,4.25,0,0,1-3.09-.32A2.6,2.6,0,0,1,194.36,429.11Z"/><path class="cls-11" d="M427.73,186.38c0-2.37.74-3.51,2.28-4a3.17,3.17,0,0,1,3.63,1.32,7.35,7.35,0,0,1,.91,2c.87,3.8,1.68,7.62,2.49,11.43a3.41,3.41,0,0,1-6.17,2.6,5.5,5.5,0,0,1-.63-1.57Q429,193,427.85,187.72A8.4,8.4,0,0,1,427.73,186.38Z"/><path class="cls-11" d="M144.21,444.24c-1,.22-1.93-.5-2.7-1.54a3.11,3.11,0,0,1,1.57-4.94c1.94-.61,3.95-1,5.94-1.45s3.81-.9,5.72-1.32c.47-.1,1-.12,1.45-.18,1.77-.21,2.73,1,3.51,2.22.66,1.08,0,3-1.3,3.89a5.26,5.26,0,0,1-1.79.76c-3.49.83-7,1.62-10.49,2.4A15,15,0,0,1,144.21,444.24Z"/><path class="cls-11" d="M356.87,180a3,3,0,0,1-2.32,3.3,13.45,13.45,0,0,1-1.65.46c-3.33.77-6.66,1.52-10,2.28a6.44,6.44,0,0,1-1,.17,3.21,3.21,0,0,1-3.34-1.56,3.81,3.81,0,0,1,.11-4,3,3,0,0,1,2-1.28c2.22-.53,4.45-1,6.67-1.52,1.11-.24,2.23-.49,3.35-.67a19.7,19.7,0,0,1,3.14-.34A2.84,2.84,0,0,1,356.87,180Z"/><path class="cls-11" d="M63.93,245.76c0,1.93-.65,2.93-2.53,3.35-3.42.77-6.75,1.94-10.29,2.1a12.69,12.69,0,0,0-1.42.34,4.1,4.1,0,0,1-4.2-1.91,3.4,3.4,0,0,1,2-4.74,20.1,20.1,0,0,1,2.88-.57,46.69,46.69,0,0,0,8.83-1.85,4.42,4.42,0,0,1,1.21-.16A3.1,3.1,0,0,1,63.93,245.76Z"/><path class="cls-11" d="M331,402.37a2.92,2.92,0,0,1-3.24-1.64,3.3,3.3,0,0,1,1.84-4.79c1.77-.57,3.61-.94,5.43-1.35,2.29-.52,4.59-1,6.89-1.5a3.38,3.38,0,0,1,4.27,2.62,3,3,0,0,1-1.06,3.26,4.62,4.62,0,0,1-1.74.84c-3.55.84-7.12,1.64-10.68,2.43A12.08,12.08,0,0,1,331,402.37Z"/><path class="cls-11" d="M113.61,230.41a3.23,3.23,0,0,1,3.17,1.54,3.16,3.16,0,0,1-1.55,5,29.28,29.28,0,0,1-3.3.9c-2.63.59-5.27,1.13-7.9,1.69l-1.42.33c-1.82.37-3-.65-3.91-2a2.39,2.39,0,0,1-.19-2.13,3.79,3.79,0,0,1,2.91-2.72c2.22-.53,4.45-1,6.68-1.51,1.19-.27,2.39-.53,3.59-.77C112.32,230.61,113,230.52,113.61,230.41Z"/><path class="cls-11" d="M118.26,450.05a9,9,0,0,1-1.47,0,3.11,3.11,0,0,1-2.56-2.89,3.53,3.53,0,0,1,1.6-3.07,9.16,9.16,0,0,1,2-.84c2.38-.55,4.78-1,7.17-1.54,1.28-.28,2.54-.61,3.82-.88,2.24-.47,3.51.49,4.32,2.65.49,1.32-.24,2.41-1.21,3.24a4.29,4.29,0,0,1-1.74.85c-3.41.85-6.82,1.65-10.24,2.43a10.76,10.76,0,0,1-1.71.13Z"/><path class="cls-11" d="M235,209.89a5.82,5.82,0,0,1-1.86-.56,3.07,3.07,0,0,1-1.68-2.82,3.62,3.62,0,0,1,2.5-3.06,28.68,28.68,0,0,1,3.29-.93c2.86-.65,5.73-1.23,8.58-1.91a3.6,3.6,0,0,1,3.93,1.26,2.93,2.93,0,0,1,0,4,4.54,4.54,0,0,1-2.64,1.6c-3.35.65-6.66,1.52-10,2.27A18.05,18.05,0,0,1,235,209.89Z"/><path class="cls-11" d="M288.18,198.11a8.18,8.18,0,0,1-1.9-.61,3.36,3.36,0,0,1-.2-5.28,7.83,7.83,0,0,1,2.17-1.07c3.49-.85,7-1.63,10.49-2.4a8,8,0,0,1,1.47-.11,3.26,3.26,0,0,1,3.47,3.79,3.31,3.31,0,0,1-2.42,2.81,16,16,0,0,1-2.59.72c-2.78.62-5.57,1.22-8.36,1.82C289.67,197.91,289,198,288.18,198.11Z"/><path class="cls-11" d="M261.69,204a6.38,6.38,0,0,1-1.94-.56,3.29,3.29,0,0,1-.32-5.25,5.34,5.34,0,0,1,2.13-1.12c3.63-.86,7.29-1.62,10.94-2.41a6.13,6.13,0,0,1,1.21-.12,3.25,3.25,0,0,1,3.28,4.32,3.52,3.52,0,0,1-2.75,2.54c-3.48.77-7,1.51-10.47,2.26C263.14,203.81,262.49,203.89,261.69,204Z"/><path class="cls-12" d="M267.94,45.45l.14-.09a16.3,16.3,0,0,1,2.71-2,7.36,7.36,0,0,1,6.69-.16.19.19,0,0,0,.25,0l2.71-2.47a1.44,1.44,0,1,1,2,2.09c-.76.71-1.53,1.4-2.3,2.1L280,45l1,1.11.1-.09,2.3-2.09a1.44,1.44,0,1,1,2,2.1c-.93.86-1.87,1.71-2.81,2.56a.2.2,0,0,0-.07.26,7.2,7.2,0,0,1-.19,5,10.18,10.18,0,0,1-1.71,2.82,19.72,19.72,0,0,1-1.92,2l-3.27,3-.13.12.13.14,4.88,5.35a4.93,4.93,0,0,1,1,1.54,2.88,2.88,0,0,1-4.49,3.26,7,7,0,0,1-.89-.83l-8.13-8.91-.13-.15-.13.12-1.67,1.52a1.45,1.45,0,0,1-1.87.2l-.06,0-.36-.39a.64.64,0,0,0,0-.07,1.47,1.47,0,0,1,.38-1.85l1.67-1.51.12-.12-1-1.1a.27.27,0,0,0-.08.07l-1.8,1.63a1.43,1.43,0,0,1-1.73.16.31.31,0,0,0-.12-.05l-.36-.4s0,0,0-.07a1.46,1.46,0,0,1,.39-1.85L262.61,57l.12-.12c-.19-.21-.38-.41-.56-.62a8.33,8.33,0,0,1-1-1.26,2.78,2.78,0,0,1-.47-1.83,3.27,3.27,0,0,1,.77-1.65l.38-.46.09-.09.1,0,5.61-5.11a.41.41,0,0,0,.07-.11Zm4.68,20.43,4.15,4.55a7,7,0,0,0,.55.54,2,2,0,0,0,1.14.55,1.67,1.67,0,0,0,1.61-2.33,3.83,3.83,0,0,0-.77-1.1L274,62.25a.63.63,0,0,1,0-1L277.55,58c.53-.48,1.05-1,1.54-1.49a9.79,9.79,0,0,0,1.77-2.47,6.15,6.15,0,0,0,.3-5.2.63.63,0,0,1,.19-.84l3.08-2.81a.32.32,0,0,0,.1-.1.19.19,0,0,0,0-.27.2.2,0,0,0-.26,0l-.12.1-2.78,2.53a.76.76,0,0,1-.23.17.63.63,0,0,1-.83-.29,8.09,8.09,0,0,0-.57-.74c-.33-.36-.67-.71-1-1a.64.64,0,0,1,0-1L280.4,43l1.12-1c.13-.11.15-.23.07-.33s-.21-.09-.34,0l-.09.08-2.94,2.68a.65.65,0,0,1-.94.1,6.19,6.19,0,0,0-5.76-.12,15.26,15.26,0,0,0-2.8,2.05c-1.92,1.72-3.82,3.47-5.73,5.2a5.05,5.05,0,0,0-.85,1,1.33,1.33,0,0,0-.05,1.49,4.33,4.33,0,0,0,.48.7c.47.54.95,1.06,1.43,1.59a.63.63,0,0,1-.05,1l-2.17,2a1.14,1.14,0,0,0-.11.11.18.18,0,0,0,0,.26.18.18,0,0,0,.25,0,1.27,1.27,0,0,0,.12-.1l2.2-2a.62.62,0,0,1,.94,0c.6.65,1.2,1.31,1.79,2a.61.61,0,0,1,0,.92l-.75.68-1.52,1.38c-.12.11-.14.23-.05.32s.2.09.33,0a.6.6,0,0,0,.08-.08l2.17-2a.61.61,0,0,1,.75-.12,1,1,0,0,1,.24.21Z"/><path class="cls-13" d="M271.56,51l3.74-3.4a.63.63,0,0,1,.92-.07,6.35,6.35,0,0,1,1.92,2.17.61.61,0,0,1-.14.8l-7.55,6.88a.61.61,0,0,1-.91,0c-.6-.65-1.2-1.3-1.79-2a.61.61,0,0,1,0-.93Zm4.28-2.22L269.05,55l1,1.1,6.79-6.19Z"/><path class="cls-13" d="M271,51l-3.45,3.16a.62.62,0,0,1-.79.11.75.75,0,0,1-.17-.14l-1-1.11a.62.62,0,0,1,0-.94c1.1-1,2.18-2,3.29-3a11.06,11.06,0,0,1,3-2,4,4,0,0,1,2.25-.37.64.64,0,0,1,.57.44.6.6,0,0,1-.22.68Q272.74,49.42,271,51Zm-3.89,1.87L272,48.37h0A11,11,0,0,0,269.71,50c-.92.82-1.83,1.66-2.75,2.5l-.1.09Z"/><path class="cls-13" d="M274.16,54.59l3.42-3.12a.62.62,0,0,1,.93.05.68.68,0,0,1,.12.48,5,5,0,0,1-.77,2.35,11.08,11.08,0,0,1-2,2.35c-1.09,1-2.2,2-3.31,3a.61.61,0,0,1-.93,0l-.95-1a.62.62,0,0,1,0-.94Zm2.4-.45,0,0L272,58.23l.2.21c1.13-1,2.26-2.09,3.36-3.15A13.73,13.73,0,0,0,276.56,54.14Z"/><path class="cls-11" d="M327.15,182.69a5.07,5.07,0,0,1,1.72.48,3.28,3.28,0,0,1,.35,5.26,5.36,5.36,0,0,1-2.13,1.13c-3.65.86-7.32,1.63-11,2.42a5.57,5.57,0,0,1-1.47.1,3,3,0,0,1-2.93-2.21,3,3,0,0,1,.94-3.54,5.83,5.83,0,0,1,1.92-1.05c3.64-.88,7.31-1.67,11-2.48A12.65,12.65,0,0,1,327.15,182.69Z"/><path class="cls-11" d="M426.18,160.57c1.66,0,2.55.54,3.12,2.56.71,2.5,1.33,5,1.84,7.59a3.72,3.72,0,0,1-3.09,4.09,3.91,3.91,0,0,1-3.7-2.68c-.25-.94-.38-1.91-.57-2.87s-.5-1.16-1.53-1a3.55,3.55,0,0,1-4.1-2.25,3.24,3.24,0,0,1,1.61-4.12A17.52,17.52,0,0,1,426.18,160.57Z"/><path class="cls-11" d="M467.44,364.56c-.25-1.64-.12-2.22.47-3.11a3.35,3.35,0,0,1,3.87-1.4,2.93,2.93,0,0,1,2.3,2.56c.31,1.67,1,3.27.95,5a3,3,0,0,1-2.45,3.18c-2.61.65-5.22,1.28-7.84,1.86a3.73,3.73,0,0,1-4.36-2.69,3.21,3.21,0,0,1,1.7-3.49,14,14,0,0,1,3.24-1.06A3.74,3.74,0,0,0,467.44,364.56Z"/><text/><text/><path class="cls-12" d="M328.19,78.86l.16-.07a18.27,18.27,0,0,1,3-1.48,7.36,7.36,0,0,1,6.61,1,.2.2,0,0,0,.26,0l3.08-2a1.44,1.44,0,1,1,1.59,2.4l-2.62,1.67-.15.1.81,1.27.11-.08L343.67,80a1.45,1.45,0,0,1,1.83.19,1.43,1.43,0,0,1-.26,2.22c-1.06.69-2.13,1.36-3.2,2a.22.22,0,0,0-.11.25,7.19,7.19,0,0,1-1.05,5,10.45,10.45,0,0,1-2.16,2.48,19.66,19.66,0,0,1-2.23,1.6l-3.73,2.38-.15.1.1.16,3.9,6.1a5.19,5.19,0,0,1,.73,1.69,2.88,2.88,0,0,1-5,2.44,6.75,6.75,0,0,1-.73-1q-3.25-5.09-6.49-10.17l-.11-.16-.14.09L323,96.64a1.46,1.46,0,0,1-1.87-.13l-.06,0-.29-.45V96a1.43,1.43,0,0,1,.68-1.75l1.9-1.21.14-.09-.8-1.27-.1.06L320.52,93a1.43,1.43,0,0,1-1.73-.14.41.41,0,0,0-.11-.07l-.29-.45s0,0,0-.07a1.45,1.45,0,0,1,.69-1.76L321,89.3l.14-.09-.45-.71a8.18,8.18,0,0,1-.79-1.42,2.77,2.77,0,0,1-.16-1.88,3.19,3.19,0,0,1,1-1.49l.45-.4.1-.06a.42.42,0,0,0,.12,0l6.39-4.08s.06-.06.1-.09Zm1.14,20.93q1.65,2.59,3.31,5.19a7.17,7.17,0,0,0,.45.63,2,2,0,0,0,1,.73,1.66,1.66,0,0,0,2-2,3.73,3.73,0,0,0-.57-1.21l-4.25-6.67a.63.63,0,0,1,.22-1l4-2.56c.6-.39,1.2-.79,1.77-1.21a9.38,9.38,0,0,0,2.17-2.14,6.11,6.11,0,0,0,1.18-5.07.62.62,0,0,1,.33-.79l3.52-2.25a.67.67,0,0,0,.11-.07.2.2,0,0,0,0-.27.21.21,0,0,0-.25-.08.57.57,0,0,0-.13.08l-3.17,2a.91.91,0,0,1-.26.13c-.32.1-.59-.06-.77-.42a8.37,8.37,0,0,0-.44-.84c-.26-.41-.53-.81-.82-1.19a.64.64,0,0,1,.18-1l1.92-1.23,1.28-.81c.13-.09.18-.21.11-.31s-.18-.13-.33,0l-.11.06L338.5,79.6a.66.66,0,0,1-.94-.06,6.2,6.2,0,0,0-5.66-1.1A15.53,15.53,0,0,0,328.79,80c-2.18,1.37-4.35,2.77-6.53,4.15a5,5,0,0,0-1,.82,1.35,1.35,0,0,0-.31,1.47,4.16,4.16,0,0,0,.36.77c.36.61.75,1.21,1.13,1.81a.63.63,0,0,1-.22,1l-2.48,1.58-.12.09a.17.17,0,0,0,0,.25.19.19,0,0,0,.25.08.57.57,0,0,0,.13-.08l2.52-1.61a.62.62,0,0,1,.92.2c.48.74,1,1.49,1.42,2.24a.6.6,0,0,1-.2.9l-.85.54L322,95.28c-.14.09-.18.21-.11.31s.19.12.33,0l.1-.07L324.83,94a.6.6,0,0,1,.76,0,.88.88,0,0,1,.19.24Q327.57,97,329.33,99.79Z"/><path class="cls-13" d="M330.81,85l4.26-2.72a.64.64,0,0,1,.93.09,6.26,6.26,0,0,1,1.51,2.47.59.59,0,0,1-.27.76l-8.61,5.49a.61.61,0,0,1-.89-.2c-.48-.74-.95-1.49-1.43-2.24a.61.61,0,0,1,.21-.91Zm4.6-1.46-7.75,4.94.8,1.25,7.75-4.94Z"/><path class="cls-13" d="M330.26,84.85l-3.94,2.51a.6.6,0,0,1-.8,0,.58.58,0,0,1-.14-.17l-.81-1.26a.62.62,0,0,1,.2-.92c1.25-.79,2.49-1.6,3.75-2.38a11.17,11.17,0,0,1,3.26-1.48,3.94,3.94,0,0,1,2.28,0,.63.63,0,0,1,.49.53.62.62,0,0,1-.33.63ZM326.11,86l5.62-3.58h-.05a11.43,11.43,0,0,0-2.51,1.22l-3.14,2-.11.07Z"/><path class="cls-13" d="M332.76,88.93l3.91-2.49a.6.6,0,0,1,.9.2.67.67,0,0,1,0,.5,5,5,0,0,1-1.16,2.18,11,11,0,0,1-2.33,2c-1.26.82-2.52,1.62-3.78,2.42a.62.62,0,0,1-.92-.2l-.75-1.19a.61.61,0,0,1,.2-.92Zm2.44,0,0,0L330,92.15l.15.24c1.3-.85,2.59-1.68,3.86-2.53C334.45,89.57,334.81,89.22,335.2,88.89Z"/><path class="cls-14" d="M323.41,43.51l13.13-8.14c1.82-1.12,3.64-2.23,5.44-3.38a10.71,10.71,0,0,1,15,3.51c4.21,6.94,8.55,13.8,12.83,20.69.43.69.89,1.36,1.4,2.14,2.06-.43,4.05-.84,6-1.28,8.32-1.87,16.63-3.73,24.94-5.64a21.33,21.33,0,0,1,23.32,9.76,23.85,23.85,0,0,1,2.68,7.1q5.47,24.47,10.94,48.94c.07.31.2.61.35,1.07.66-.09,1.29-.14,1.91-.26a21,21,0,0,1,18.21,4.5,20.52,20.52,0,0,1,7,11.54c.52,2.23,1,4.47,1.54,6.76,2.17.16,4.29.28,6.4.47a49.88,49.88,0,0,1,42.34,33.5,113.11,113.11,0,0,1,2.85,11.44q4.89,21.84,9.7,43.68c1.69,7.6,3.36,15.2,5.07,22.8.84,3.75,1.79,7.48,2.65,11.23a52.59,52.59,0,0,1,1.28,15.16c-.78,12.44-6.21,22.25-16.73,29.1a45.71,45.71,0,0,1-12,5.5l-2.68.8c.4,1.84.76,3.6,1.15,5.34q5.83,26,11.67,52.05c.54,2.4,1.08,4.8,1.57,7.21a21,21,0,0,1-15.27,24.2c-4.28,1.14-8.62,2-12.94,3l-44.86,10L401.1,426.92l-47.5,10.64-44.85,10.05-45.1,10.1L221,467.29l-42.7,9.55-42.69,9.6q-21.7,4.88-43.42,9.74A21.08,21.08,0,0,1,74,492.4a20,20,0,0,1-7.65-11.7c-1.69-7.26-3.29-14.54-4.92-21.82L51.38,414q-5.07-22.54-10.12-45.09t-10-44.86q-5.07-22.67-10.17-45.33L11,233.88c-3.32-14.79-6.78-29.55-9.94-44.38a47.43,47.43,0,0,1,35.3-56c10.84-2.56,21.73-4.92,32.61-7.36l47.25-10.58q16-3.58,31.91-7.14a9.63,9.63,0,0,0,4.33-2.1Q213.61,54.73,274.82,3.23c.56-.48,1.12-1,1.72-1.4a9.63,9.63,0,0,1,12.58,1.11c.69.7,1.3,1.48,1.93,2.23L321.66,41.5C322.18,42.12,322.72,42.73,323.41,43.51Zm-248.65,154,.53-.45a6.75,6.75,0,0,0,1.59-.53C82.6,193,88.3,189.49,94,186l16.26-10.12,16.49-10.23,12.1-7.51q8.55-5.31,17.12-10.6c4-2.5,8.09-5,12.1-7.52,2.63-1.66,5.26-3.32,7.77-5.14,1.85-1.35,3.49-3,5.26-4.43,3.4-2.82,6.84-5.6,10.23-8.42s6.87-5.82,10.33-8.7c4.47-3.72,9-7.4,13.44-11.09q5.4-4.45,10.78-8.93a17.29,17.29,0,0,0,1.49-1.59c1.42-.41,2.24-1.62,3.3-2.5Q243.46,78.6,256.22,68c.36-.3.76-.56,1.09-.81,1.73,2,3.23,4.1,5,5.85a18.92,18.92,0,0,0,6.53,4.29c.54-.31,1.05-.57,1.53-.87L290.48,64c4.87-3,9.75-6,14.61-9.1.51-.32,1.25-.5,1.34-1.39-1.56-1.83-3.17-3.69-4.75-5.57Q292,36.45,282.4,25A18.93,18.93,0,0,0,281,23.59c-.63.46-1.19.79-1.68,1.21q-12.35,10.35-24.66,20.74C247.74,51.35,240.88,57.2,234,63c-7.71,6.5-15.46,12.95-23.17,19.44-1.25,1-2.45,2.18-3.66,3.26l-4.55,3.74-8.29,6.94-8.1,6.77c-2.32,2-4.64,3.89-7,5.85-2.56,2.17-5.1,4.37-7.67,6.53-2.75,2.32-5.52,4.62-8.28,6.94-2.5,2.11-5,4.25-7.49,6.36-2.75,2.32-5.52,4.62-8.28,6.93l-8.1,6.78c-2.32,1.95-4.64,3.89-6.95,5.85l-7.67,6.53c-2.75,2.32-5.53,4.62-8.28,6.94-2.51,2.11-5,4.24-7.49,6.35-2.76,2.33-5.53,4.62-8.28,6.94-2.51,2.12-5,4.26-7.5,6.36s-4.92,4.06-7.37,6.1q-4.35,3.62-8.65,7.27c-.74.63-1.38,1.39-2.06,2.09l-.47.51a.78.78,0,0,0-.21.09s0,.11,0,.17ZM228.11,128a4.8,4.8,0,0,0-1.15.35c-5,3.06-9.88,6.15-14.82,9.22l-16.27,10.15-20.68,12.82Q163.6,167.74,152,174.92q-11.17,6.93-22.33,13.89a4,4,0,0,0-.57.71,7.41,7.41,0,0,0,1.09-.07c4.54-1,9.07-2.14,13.62-3.16,8.21-1.85,16.44-3.65,24.67-5.47,4.63-1,9.26-2,13.89-3.08a10.7,10.7,0,0,0,2.76-1c1.86-1,3.66-2.19,5.47-3.31,5.86-3.61,11.7-7.24,17.57-10.84q12.79-7.83,25.6-15.61,8.61-5.25,17.19-10.53a7.44,7.44,0,0,0,1.05-1c.8-.39,1.65-.71,2.41-1.17,2.88-1.73,5.73-3.52,8.59-5.27l28.11-17.19q9.64-5.91,19.29-11.82a12.79,12.79,0,0,1,1.65-.7,27.93,27.93,0,0,0,11.18,13.16,26.68,26.68,0,0,0,16.49,3.78,27.57,27.57,0,0,0,15.76-7,49.38,49.38,0,0,1,4.26,6.4c1.38,2.13,2.68,4.32,4,6.48s2.63,4.35,4,6.47a73.67,73.67,0,0,0,4.14,6.36c2.25,0,4.25-.82,6.33-1.19s4.33-.9,6.47-1.45,4.15-.64,6.2-1.69c-.5-.9-.9-1.69-1.36-2.45-.55-.91-1.15-1.8-1.71-2.7L368.91,95q-6.48-10.45-13-20.89-5.38-8.67-10.81-17.32a11,11,0,0,0-.92-1.1c-.4.22-.69.36-1,.53L319.84,70.74c-8,5-16,10-24,14.93Q277.54,97,259.25,108.33q-14,8.69-28,17.39C230.16,126.4,229.16,127.26,228.11,128Zm282.31,114.3L507,227.51a7.9,7.9,0,0,0-.32-1.18c-.13-.34,0-.84-.68-1l-1,.9c-1.47,1.3-2.87,2.7-4.43,3.89a49.83,49.83,0,0,1-19.34,9.3c-9.49,2.13-19,4.32-28.47,6.48l-28,6.39c-8.93,2.06-17.85,4.16-26.78,6.21q-13.15,3-26.32,6l-11,2.5c-5,1.15-10.09,2.18-15.06,3.51a28.6,28.6,0,0,0-10.2,4.68,31.47,31.47,0,0,0-3.67,3.25c-7.1,7.36-9.35,16.18-7.36,26a27.3,27.3,0,0,0,12,17.59,16.88,16.88,0,0,0,2.18,1.06,23.76,23.76,0,0,0,2.53,1.47,27.8,27.8,0,0,0,17.31,1.65q15.57-3.54,31.15-7,19.77-4.44,39.55-8.85l26.6-6c12.63-2.82,25.25-5.62,37.87-8.48a42.28,42.28,0,0,0,12.11-4.66,29.26,29.26,0,0,0,5.33-3.94c5.35-5.1,6.91-11.34,5.51-18.43-.79-4-1.78-8-2.71-12Q512.16,249.62,510.42,242.33Zm-49.23-34c-.07-.64-.08-1.3-.21-1.93q-.9-4.21-1.85-8.41-6.36-28.41-12.75-56.84a17.46,17.46,0,0,0-.68-1.88c-.84.12-1.57.17-2.28.32q-17.62,3.94-35.26,7.92l-36.94,8.26L313.9,168.61l-48.21,10.8-50.61,11.34-52.76,11.83L117,212.77q-29.13,6.55-58.28,13.08a47.87,47.87,0,0,1-26-1.06,13.54,13.54,0,0,0-1.84-.33,17.84,17.84,0,0,0,.21,2q1.68,7.69,3.4,15.36,5.4,24.11,10.81,48.21,6.9,30.82,13.81,61.64,5.08,22.66,10.19,45.33Q74,417.68,78.59,438.3q3.57,15.94,7.11,31.91c.37,1.66.8,3.31,1.18,4.89a4.14,4.14,0,0,0,2.58-.11c5.35-1.2,10.7-2.44,16.06-3.63l58.53-13.07q23-5.15,46.06-10.31,22.66-5.09,45.32-10.19l60.21-13.47,48.21-10.8q20.86-4.68,41.74-9.36L450.91,394q23.26-5.22,46.53-10.43a5.73,5.73,0,0,0,2.87-1c-.12-.76-.2-1.57-.37-2.36-.38-1.76-.81-3.51-1.21-5.27q-6-26.87-12-53.73a12.71,12.71,0,0,0-.61-1.6,15,15,0,0,0-1.56.18q-11,2.44-22.07,4.92l-43.17,9.69q-28.06,6.28-56.13,12.54a52.92,52.92,0,0,1-7.28,1.12,47,47,0,0,1-16.8-1.69,49.56,49.56,0,0,1-31.65-26.17c-.37-.73-.81-1.41-1.22-2.12l-.75-2.59c-.7-2.43-1.5-4.85-2.08-7.31a41.58,41.58,0,0,1-1.09-10.48,59.78,59.78,0,0,1,.91-8.53,46.53,46.53,0,0,1,4.52-13.47,50.14,50.14,0,0,1,9.95-13.34A48.7,48.7,0,0,1,336,251.11a118.45,118.45,0,0,1,12.14-3.06c9-2.05,18-4.16,27-6.23q15.56-3.56,31.12-7.07,11.73-2.67,23.46-5.36l31.82-7.31c.86-.2,1.7-.48,2.53-.72a6,6,0,0,0,0-1.14c-.53-2.48-1.07-5-1.66-7.43C462.07,211.29,461.6,209.81,461.19,208.32Zm-347-70.39a13.28,13.28,0,0,0-1.68.16c-4.07.91-8.13,1.87-12.2,2.78-7.42,1.67-14.85,3.3-22.27,5-4.15.93-8.29,1.91-12.43,2.85L41.7,154.07A25.06,25.06,0,0,0,27,163.26,26.24,26.24,0,0,0,33.72,202a9.11,9.11,0,0,0,3.25,1.5C62.74,181.82,88.52,160.1,114.22,137.93ZM383.6,77.58c0,.24-.09.33-.06.4a4,4,0,0,0,.27.68l27.31,44.12c.3.49.65,1,1,1.41a.59.59,0,0,0,.2.15,1.84,1.84,0,0,0,.34.13c1.8-.64,3.92-.53,5.7-1.58a3.22,3.22,0,0,0,.06-.83Q413,97.85,407.59,73.66a12.06,12.06,0,0,0-.37-1.17,4.41,4.41,0,0,0-1-.08q-10.67,2.34-21.33,4.72A10,10,0,0,0,383.6,77.58Zm89.46,85.11c3.87,17.4,7.67,34.46,11.47,51.52a.34.34,0,0,0,.13.2,3.16,3.16,0,0,0,.41.14l1.79-1.43a30,30,0,0,0,9.43-13,17.81,17.81,0,0,0,1.28-8.66,38.9,38.9,0,0,0-2.44-9.73,31.57,31.57,0,0,0-10-13.75A25.62,25.62,0,0,0,473.06,162.69Z"/></g></g></svg>