<svg id="eUsevMbyZKf1" xmlns="http://www.w3.org/2000/svg" xmlns:xlink="http://www.w3.org/1999/xlink" viewBox="0 0 187 402.75" shape-rendering="geometricPrecision" text-rendering="geometricPrecision"><g><g><path id="eUsevMbyZKf4" d="M0,39.46q-.63-16.62,10-26.95t47.26-12.31q24.62-1.32,35.93,6t17.3,22.62l4,59.22q22,0,36.26,2.33c8.926805,1.347273,17.510124,4.403043,25.28,9Q187,106,187,120t-10.65,20.6c-7.527661,4.604995-15.897148,7.664515-24.62,9q-14,2.34-35.93,2.33.66,29.94.67,53.56t.67,50.23q.66,26.63.67,50.9t.33,40.59q.33,16.31.33,19q0,4.67-3,13.31t-15.3,16q-12.32,7.33-40.25,7.32-20.62,0-31.94-5t-16.3-11.31q-5-6.31-6.32-16.3Z" transform="matrix(0 0 0 0 93.482375 201.419171)" fill="#86bf88"/><g><path id="eUsevMbyZKf6" d="M65.130001,260.674971C65.89,262.494971,65.13,260.620638,66.89,265.06c-.06.49-.1,1-.18,1.46-1.08,6.78-3.83,12.91-7.24,18.8-1.39936,2.538647-3.3674,4.718893-5.75,6.37-2.81385,1.873107-5.739277,3.572926-8.76,5.09-.84871.265476-1.56407.844918-2,1.62.2-4.06.6-8.05.78-12.05.53-11.83-.14-23.53-3.26-35-.164798-.629391-.164798-1.290609,0-1.92c1.103802-4.047637,2.642777-7.96381,4.59-11.68.306886-.885423,1.221746-1.406978,2.14-1.22c6.212103.437485,12.454697-.058013,18.52-1.47c5.87-1.42,11.5-3.41,16.33-7.18c1.34615-.907059,2.390777-2.195433,3-3.7-5.342203,3.280496-11.222925,5.58945-17.37,6.82-6.163713,1.285251-12.526287,1.285251-18.69,0c5.838182-9.431364,12.747405-18.155977,20.59-26-3.43793,1.614316-6.618852,3.727069-9.44,6.27-2.966419,2.5889-5.78424,5.343287-8.44,8.25.52667-5.143338.144171-10.339232-1.13-15.35-.091104.423613-.128067.857078-.11,1.29.04212,4.529917-.292365,9.055497-1,13.53-.27,1.64-.34,3.37-1.45,4.78-2.06,2.61-4.15,5.2-6.14,7.86-1.81,2.42-3.51,4.93-5.37,7.56-2.07-5.16-5.31-9.32-8.81-13.3-.47989-.519883-.58-1.93-.58-1.93s.78-7.26,1-10.9c.43-6.88.29-13.73-1.73-20.42-1.280098-4.185868-1.721865-8.583147-1.3-12.94.12-1.19.33-2.37.5-3.55-.289154.100769-.528847.308264-.67.58-3.12,5.4-3.05,11.28-2.39,17.18.39,3.47,1,6.9.78,10.41-.259613,3.416712-1.299623,6.728321-3.04,9.68-.3.52-.56,1.28-1.44.51-4.18-3.7-9.12-6.14-14.19-8.32-.703295-.295728-1.373629-.664412-2-1.1c0,3.76.15,7.56.22,11.32c0,2,.32,4,.2,5.88C14,228.47,20.94,238.2,24.31,251c1.6,6.06,1.49,12.32,1.27,18.54-.391977,8.402565-1.441858,16.761489-3.14,25-.172711-.361001-.366374-.711599-.58-1.05-2.286983-3.207358-5.108017-5.997951-8.34-8.25-3.342031-2.096833-5.64418-5.506482-6.34-9.39-.582616-2.739826-1.423024-5.418417-2.51-8c.08,3.26.06,6.53,0,9.79c1.986408.348443,3.448644,2.053687,3.49,4.07.000876,3.763025-.219504,7.522846-.66,11.26c4.86,4.71,8.55,10.15,9.81,17c.27,1.48.68,3,.16,4.52-1.27,3.83-2.42,7.69-3.73,11.51-.28929,1.167259-.769058,2.278834-1.42,3.29-1.975384-2.572891-4.573795-4.599996-7.55-5.89.129556,1.685733.099421,3.37994-.09,5.06.188386.552587.246565,1.141226.17,1.72-.07.67-.15,1.34-.23,2c.17,4.27,1,8.58.5,12.81-.029527.27172-.086484.539753-.17.8c0,.63.09,1.27.12,1.9s.09,1.26.09,1.89q0,.69,0,1.38c.349403,1.806595.583211,3.633638.7,5.47.15,2.44.58,4.95-.11,7.32-.16.53-.29,1.07-.44,1.6.06.68.13,1.37.23,2.05.1657,1.608547.125374,3.231666-.12,4.83.032509.111879.059211.225364.08.34c0,.07,0,.13.07.21.51,2.3,1.57,4.12,1.67,6.52.12.32.27.63.4,1c1.123808,2.132022,2.464213,4.14263,4,6c2.507865,3.010778,5.56127,5.521356,9,7.4c3.544055,2.054665,7.269785,3.77861,11.13,5.15-.16-10.92,1.78-21.31,7.86-30.66c3.3-5.07,7.48-9.23,13.13-11.68c3.093084-1.439205,6.581584-1.791579,9.9-1c.72.18,1.23.39,1.17,1.39-.134319,3.770812.626448,7.519816,2.22,10.94.329722,1.055769.909483,2.016318,1.69,2.8-.9-2.57-.66-5.19-.53-7.79.08-1.68.49-3.36.49-5s.54-1.57,1.72-1c4.943521,2.33211,9.443882,5.506049,13.3,9.38c2.054656,2.013129,3.991219,4.143349,5.8,6.38-1.620931-4.955329-4.646962-9.332826-8.71-12.6-5.21-4.43-11.32-7.33-17.47-10.16-1-.44-2.51-.71-2.49-1.77s1.57-1.33,2.57-1.68c6.271516-2.034986,12.681423-3.61574,19.18-4.73.651218-.09036,1.311892.078399,1.84.47c4.353966,2.597592,8.969428,4.729352,13.77,6.36c6.452074,2.317975,13.212322,3.66598,20.06,4c0-.78,0-1.57,0-2.36-9.91-1.8-19-6.37-28.31-11.09c1.34-.31,2.28-.5,3.2-.74c7.057662-2.053346,13.972594-4.568777,20.7-7.53q2.33-1,4.56-2.06c0-.59,0-1.18,0-1.77-.347592-.591025-.530595-1.264339-.53-1.95c0-.33,0-.66,0-1l-.46.2c.13-.93.29-1.83.44-2.74c0-2.78-.1-5.56-.16-8.35-1.66,3.73-3.08,7.55-4.41,11.41-.226825.895823-.912093,1.603934-1.8,1.86-12.19,4-24.84,5.51-37.65,7c1.94-1.68,3.8-3.24,5.61-4.87c1.807148-1.65849,3.454393-3.483183,4.92-5.45c1.447419-1.962895,2.662207-4.087097,3.62-6.33c1-2.16,1.72-4.4,2.56-6.61l-.38-.16c-.24.35-.48.7-.71,1.06-4.72,7.35-10.24,14-17.41,19.1-3.27,2.33-6.32,5-10.29,6.22-10,3-19.58,7-27.52,14.22-.145062-.355782-.145062-.754218,0-1.11c2-10.72,4.94-21.23,6.76-32c1.964981-3.253287,4.616767-6.038174,7.77-8.16.20414-.079012.421103-.119693.64-.12c3.16-.63,6.37-.87,9.56-1.24c2.26-.27,4.58-.22,7.15-1.29-7,0-10.48-.5-12.57-1.84.26-.22.49-.45.74-.65c9.7-7.66,20.25-14,31.07-19.92c3.07-1.68,6-2.34,9.24-1.23.470438.135096.952576.225497,1.44.27c2.412856.430873,4.858975.64838,7.31.65-3.31-1.17-6.63-2.24-10-3.72c6.88-4,14-7.3,18.86-13.58-1.27.91-2.48,1.91-3.81,2.73-7,4.35-14.7,7.37-22.47,10.08-5.86,2.05-11.78,3.92-17.67,5.87-1.44.48-2.21,0-2.3-1.54-.07277-1.860693.24047-3.716301.92-5.45c1.820806-5.165926,1.748998-12.236966.82-17.635029" transform="matrix(0 0 0 0 60.180506 287.959985)" fill="#fff"/><path id="eUsevMbyZKf7" d="M65.73,259.94c4.51-5.9,4.62-13.21-2.18-16.3-.48-.22-.83-.35-1.28.15-4.6,5.21-4.53,12.21,2.86,16.15" transform="matrix(0 0 0 0 64.094935 251.69272)" fill="#fff"/><path id="eUsevMbyZKf8" d="M65.73,259.94c4.51-5.9,4.62-13.21-2.18-16.3-.48-.22-.83-.35-1.28.15-4.6,5.21-4.53,12.21,2.86,16.15" transform="matrix(0 0 0 0 64.094935 251.69272)" fill="#fff"/><path d="" transform="translate(.070506 0)" fill="#fff"/><path d="" transform="translate(.070506 0)" fill="#fff"/><path id="eUsevMbyZKf11" d="M17.46,150.18c1.4.71,3,1,4.32,1.86c5,3.28,6.39,8.3,6.45,13.87.007474,2.397779-.447499,4.774502-1.34,7-.71,1.78-1.38,2-2.86.88-5.32-4-8.8-16.08-8.8-16.08s.82171-5.173187,1.9-7.56Z" transform="matrix(0 0 0 0 21.726159 162.313393)" fill="#fff"/><path id="eUsevMbyZKf12" d="M80.15,206.17c-2.488402.043746-4.93875-.614764-7.07-1.9-.455198-.183272-.778834-.594481-.85-1.08-.64-4.41,1.93-10.16,5.81-12.35c4.4-2.48,9-2.16,13.52-.33.540011.166413.87911.700494.8,1.26-.22,4.24-3.1,11-7.91,13.35-1.314749.725408-2.798883,1.087813-4.3,1.05Z" transform="matrix(0 0 0 0 82.251827 197.615707)" fill="#fff"/><path id="eUsevMbyZKf13" d="M116.3,249.31c-.524197,1.015693-.946266,2.080916-1.26,3.18-1.05,3.65-.69,7.44-1.57,11.45.824417-.780756,1.874341-1.281219,3-1.43-.1-4.4-.1-8.8-.17-13.2Z" transform="matrix(0 0 0 0 114.970001 256.625)" fill="#fff"/><path id="eUsevMbyZKf14" d="M116.14,280.64c0-.83,0-1.71.14-2.59-1.56532.734096-3.084766,1.562278-4.55,2.48-1.47.9-2.72,2.35-4.84,2c1.242495.412006,2.348938,1.155397,3.2,2.15.94125.910633,1.943581,1.755932,3,2.53c1.052075.749663,2.16999,1.402338,3.34,1.95-.15-2.81-.32-5.68-.29-8.52Z" transform="matrix(0 0 0 0 111.659996 283.605026)" fill="#fff"/><path id="eUsevMbyZKf15" d="M89.88,374.53c1.91,2,4.46,1.3,6.64,1.88c3.07.82,6.06,1.67,8.39,4s2.73,5.09,2.54,8.13c0,.74-.53.89-1.07,1-2.698445.674864-5.521555.674864-8.22,0-2.681683-.700139-4.867015-2.640178-5.88-5.22-.765842-1.803423-1.257941-3.711149-1.46-5.66-.14-1.35.18-2.85-.94-4.13Z" transform="matrix(0 0 0 0 98.685715 382.288086)" fill="#fff"/><path id="eUsevMbyZKf16" d="M100.35,262.34c-.025613,3.270224-.975495,6.46654-2.74,9.22-1,1.67-1.68,1.7-2.9.21-3.59-4.38-5.59-9.21-4.11-15c.494221-1.676593,1.221313-3.275522,2.16-4.75.52-.88,1-1,2-.46c3.88,2.44,5.72,5.96,5.59,10.78Z" transform="matrix(0 0 0 0 95.232201 262.043442)" fill="#fff"/><path id="eUsevMbyZKf17" d="M50.42,202.41c-1.196009-.803881-2.464922-1.493581-3.79-2.06-5.379019-2.749454-8.281325-8.733674-7.11-14.66.19-1.09.43-1.55,1.76-1.21c6.7,1.74,9.72,5.84,9.35,12.74-.09,1.72-.87,3.41-.21,5.19Z" transform="matrix(0 0 0 0 44.961828 193.389969)" fill="#fff"/><path id="eUsevMbyZKf18" d="M89.45,239.63c-5.79.31-9.73-1.63-12.71-5.66-.74-1-.58-1.51.4-2.18c2.41659-1.83669,5.542189-2.463284,8.48-1.7c3.620063.920459,6.804002,3.078462,9,6.1c1.11,1.48.93,1.94-.81,2.51-1.408358.492414-2.873295.804889-4.36.93Z" transform="matrix(0 0 0 0 85.797054 234.71698)" fill="#fff"/><path id="eUsevMbyZKf19" d="M69.38,213c2.68-.11,5.14,1.29,7.58,2.76.43.26.77.58.33,1.17-2.05,2.72-4.14,5.35-7.79,6-2.35.43-4.39-.38-6.38-1.42-.668438-.363816-1.310067-.77486-1.92-1.23-2.09-1.52-2.08-1.53-.29-3.61c2.069521-2.513371,5.22095-3.878866,8.47-3.67Z" transform="matrix(0 0 0 0 68.546833 218.013435)" fill="#fff"/><path id="eUsevMbyZKf20" d="M102.58,213.26c0,5.82-4.35,9.49-9.58,10.51-1.038717.359446-2.162828.390865-3.22.09-.47-.2-.9-.33-.77-1c.75-4,2.08-7.68,5.51-10.21c1.823556-1.332608,4.031683-2.034715,6.29-2c1.72.02,1.79.11,1.77,2.61Z" transform="matrix(0 0 0 0 95.784412 217.35672)" fill="#fff"/><path id="eUsevMbyZKf21" d="M117.26,359.58q0-2,.09-4.05c0-.39,0-.78,0-1.16-1.510619-.084276-2.989351-.468407-4.35-1.13-.32-.19-.5-.9-1-.41-.286687.351792-.314924.847954-.07,1.23.640617,1.380359,1.372228,2.716634,2.19,4c.846528,1.31188,1.912004,2.468683,3.15,3.42-.02-.62-.01-1.26-.01-1.9Z" transform="matrix(0 0 0 0 114.556973 357.070313)" fill="#fff"/><path id="eUsevMbyZKf22" d="M73,309.3c-2.296195-.034122-4.542374-.675888-6.51-1.86-.83-.45-.74-.81-.29-1.49c3.71-5.6,8.46-6.32,14.25-5.47.9.13.71.83.68,1.4-.23,4.75-3.22,7.47-8.13,7.42Z" transform="matrix(0 0 0 0 73.514542 304.74144)" fill="#fff"/><path id="eUsevMbyZKf23" d="M21.34,187.51c0,2.86-.1,2.91-2.82,2.23-5.48-1.36-7.77-5.51-9.18-10.44-.25-.87.38-1,.93-1.23c1.797381-.850659,3.864504-.929064,5.721159-.217s3.341228,2.152615,4.108841,3.987c.882999,1.755853,1.309453,3.705851,1.24,5.67Z" transform="matrix(0 0 0 0 15.315455 183.735321)" fill="#fff"/><path id="eUsevMbyZKf24" d="M100.55,300.36c0,4-2.2,6.55-6.22,7.81-2.46.77-2.47.77-3.2-1.79-1.5-5.28,1.06-9.67,6.35-11c.349955-.15064.74727-.146392,1.093924.011698s.610365.455298.726076.818302c.6651,1.295997,1.088674,2.702263,1.25,4.15Z" transform="matrix(0 0 0 0 95.627789 301.944397)" fill="#fff"/><path d="M3.36,242.36c.068462.540607.101865,1.085078.1,1.63c0,.19,0,.37,0,.56s0,.16,0,.24c.893156.539205,1.506661,1.441203,1.68,2.47.394957,1.928974.648962,3.884141.76,5.85.284539-1.011756.422609-2.05907.41-3.11.06-3.24-.82-5.78-2.95-7.64Z" fill="#fff"/><path id="eUsevMbyZKf26" d="M33.07,177.07c-.907242-.168593-1.827292-.258926-2.75-.27-1.54.1-1.61-.64-1.38-1.85.520346-2.592793,2.062413-4.867013,4.278552-6.309949s4.919797-1.933123,7.501448-1.360051c.53.12.94.28.84.94-.36,2.51-1,4.91-2.82,6.8-1.516707,1.451751-3.575573,2.196138-5.67,2.05Z" transform="matrix(0 0 0 0 35.208533 172.067123)" fill="#fff"/><path id="eUsevMbyZKf27" d="M77.65,381.66c.07,2.3-.27,2.58-2,1.92-3.7-1.47-6.21-3.94-6.68-8.09-.21-1.84.17-2.25,2-2c2.028377.298705,3.815793,1.491539,4.87,3.25.971823,1.479913,1.59105,3.163116,1.81,4.92Z" transform="matrix(0 0 0 0 73.288235 378.657288)" fill="#fff"/><path id="eUsevMbyZKf28" d="M87.92,363.26c-1-.05-2.86.22-3.35-1-.42-1.07,1.13-2.16,2-3.07c2.255063-2.394306,5.645768-3.351546,8.82-2.49c1.12.24,1.22.71.89,1.7-1.03,3.06-3.95,4.87-8.36,4.86Z" transform="matrix(0 0 0 0 90.472321 359.824478)" fill="#fff"/><path id="eUsevMbyZKf29" d="M116.56,297.07c-1.0046-1.334466-2.352496-2.371309-3.9-3-.66-.25-1-.17-1.25.5-1.33,3.21.76,8.77,4,10.15.43.18.79.33,1.11.44-.205693-2.693303-.192316-5.398863.04-8.09Z" transform="matrix(0 0 0 0 113.781765 299.54982)" fill="#fff"/></g></g></g>
<script><![CDATA[
!function(t,n){"object"==typeof exports&&"undefined"!=typeof module?module.exports=n():"function"==typeof __SVGATOR_DEFINE__&&__SVGATOR_DEFINE__.amd?__SVGATOR_DEFINE__(n):((t="undefined"!=typeof globalThis?globalThis:t||self).__SVGATOR_PLAYER__=t.__SVGATOR_PLAYER__||{},t.__SVGATOR_PLAYER__["5c7f360c"]=n())}(this,(function(){"use strict";function t(t,n){var e=Object.keys(t);if(Object.getOwnPropertySymbols){var r=Object.getOwnPropertySymbols(t);n&&(r=r.filter((function(n){return Object.getOwnPropertyDescriptor(t,n).enumerable}))),e.push.apply(e,r)}return e}function n(n){for(var e=1;e<arguments.length;e++){var r=null!=arguments[e]?arguments[e]:{};e%2?t(Object(r),!0).forEach((function(t){o(n,t,r[t])})):Object.getOwnPropertyDescriptors?Object.defineProperties(n,Object.getOwnPropertyDescriptors(r)):t(Object(r)).forEach((function(t){Object.defineProperty(n,t,Object.getOwnPropertyDescriptor(r,t))}))}return n}function e(t){return(e="function"==typeof Symbol&&"symbol"==typeof Symbol.iterator?function(t){return typeof t}:function(t){return t&&"function"==typeof Symbol&&t.constructor===Symbol&&t!==Symbol.prototype?"symbol":typeof t})(t)}function r(t,n){if(!(t instanceof n))throw new TypeError("Cannot call a class as a function")}function i(t,n){for(var e=0;e<n.length;e++){var r=n[e];r.enumerable=r.enumerable||!1,r.configurable=!0,"value"in r&&(r.writable=!0),Object.defineProperty(t,r.key,r)}}function u(t,n,e){return n&&i(t.prototype,n),e&&i(t,e),t}function o(t,n,e){return n in t?Object.defineProperty(t,n,{value:e,enumerable:!0,configurable:!0,writable:!0}):t[n]=e,t}function a(t){return(a=Object.setPrototypeOf?Object.getPrototypeOf:function(t){return t.__proto__||Object.getPrototypeOf(t)})(t)}function l(t,n){return(l=Object.setPrototypeOf||function(t,n){return t.__proto__=n,t})(t,n)}function s(){if("undefined"==typeof Reflect||!Reflect.construct)return!1;if(Reflect.construct.sham)return!1;if("function"==typeof Proxy)return!0;try{return Boolean.prototype.valueOf.call(Reflect.construct(Boolean,[],(function(){}))),!0}catch(t){return!1}}function f(t,n,e){return(f=s()?Reflect.construct:function(t,n,e){var r=[null];r.push.apply(r,n);var i=new(Function.bind.apply(t,r));return e&&l(i,e.prototype),i}).apply(null,arguments)}function c(t,n){if(n&&("object"==typeof n||"function"==typeof n))return n;if(void 0!==n)throw new TypeError("Derived constructors may only return object or undefined");return function(t){if(void 0===t)throw new ReferenceError("this hasn't been initialised - super() hasn't been called");return t}(t)}function h(t,n,e){return(h="undefined"!=typeof Reflect&&Reflect.get?Reflect.get:function(t,n,e){var r=function(t,n){for(;!Object.prototype.hasOwnProperty.call(t,n)&&null!==(t=a(t)););return t}(t,n);if(r){var i=Object.getOwnPropertyDescriptor(r,n);return i.get?i.get.call(e):i.value}})(t,n,e||t)}function v(t){return function(t){if(Array.isArray(t))return y(t)}(t)||function(t){if("undefined"!=typeof Symbol&&null!=t[Symbol.iterator]||null!=t["@@iterator"])return Array.from(t)}(t)||function(t,n){if(!t)return;if("string"==typeof t)return y(t,n);var e=Object.prototype.toString.call(t).slice(8,-1);"Object"===e&&t.constructor&&(e=t.constructor.name);if("Map"===e||"Set"===e)return Array.from(t);if("Arguments"===e||/^(?:Ui|I)nt(?:8|16|32)(?:Clamped)?Array$/.test(e))return y(t,n)}(t)||function(){throw new TypeError("Invalid attempt to spread non-iterable instance.\nIn order to be iterable, non-array objects must have a [Symbol.iterator]() method.")}()}function y(t,n){(null==n||n>t.length)&&(n=t.length);for(var e=0,r=new Array(n);e<n;e++)r[e]=t[e];return r}Number.isInteger||(Number.isInteger=function(t){return"number"==typeof t&&isFinite(t)&&Math.floor(t)===t}),Number.EPSILON||(Number.EPSILON=2220446049250313e-31);var g=p(Math.pow(10,-6));function p(t){var n=arguments.length>1&&void 0!==arguments[1]?arguments[1]:6;if(Number.isInteger(t))return t;var e=Math.pow(10,n);return Math.round((+t+Number.EPSILON)*e)/e}function d(t,n){var e=arguments.length>2&&void 0!==arguments[2]?arguments[2]:g;return Math.abs(t-n)<e}var m=Math.PI/180;function b(t){return t}function w(t,n,e){var r=1-e;return 3*e*r*(t*r+n*e)+e*e*e}function A(){var t=arguments.length>0&&void 0!==arguments[0]?arguments[0]:0,n=arguments.length>1&&void 0!==arguments[1]?arguments[1]:0,e=arguments.length>2&&void 0!==arguments[2]?arguments[2]:1,r=arguments.length>3&&void 0!==arguments[3]?arguments[3]:1;return t<0||t>1||e<0||e>1?null:d(t,n)&&d(e,r)?b:function(i){if(i<=0)return t>0?i*n/t:0===n&&e>0?i*r/e:0;if(i>=1)return e<1?1+(i-1)*(r-1)/(e-1):1===e&&t<1?1+(i-1)*(n-1)/(t-1):1;for(var u,o=0,a=1;o<a;){var l=w(t,e,u=(o+a)/2);if(d(i,l))break;l<i?o=u:a=u}return w(n,r,u)}}function _(){return 1}function x(t){return 1===t?1:0}function k(){var t=arguments.length>0&&void 0!==arguments[0]?arguments[0]:1,n=arguments.length>1&&void 0!==arguments[1]?arguments[1]:0;if(1===t){if(0===n)return x;if(1===n)return _}var e=1/t;return function(t){return t>=1?1:(t+=n*e)-t%e}}var S=Math.sin,O=Math.cos,j=Math.acos,E=Math.asin,M=Math.tan,P=Math.atan2,I=Math.PI/180,R=180/Math.PI,F=Math.sqrt,N=function(){function t(){var n=arguments.length>0&&void 0!==arguments[0]?arguments[0]:1,e=arguments.length>1&&void 0!==arguments[1]?arguments[1]:0,i=arguments.length>2&&void 0!==arguments[2]?arguments[2]:0,u=arguments.length>3&&void 0!==arguments[3]?arguments[3]:1,o=arguments.length>4&&void 0!==arguments[4]?arguments[4]:0,a=arguments.length>5&&void 0!==arguments[5]?arguments[5]:0;r(this,t),this.m=[n,e,i,u,o,a],this.i=null,this.w=null,this.s=null}return u(t,[{key:"determinant",get:function(){var t=this.m;return t[0]*t[3]-t[1]*t[2]}},{key:"isIdentity",get:function(){if(null===this.i){var t=this.m;this.i=1===t[0]&&0===t[1]&&0===t[2]&&1===t[3]&&0===t[4]&&0===t[5]}return this.i}},{key:"point",value:function(t,n){var e=this.m;return{x:e[0]*t+e[2]*n+e[4],y:e[1]*t+e[3]*n+e[5]}}},{key:"translateSelf",value:function(){var t=arguments.length>0&&void 0!==arguments[0]?arguments[0]:0,n=arguments.length>1&&void 0!==arguments[1]?arguments[1]:0;if(!t&&!n)return this;var e=this.m;return e[4]+=e[0]*t+e[2]*n,e[5]+=e[1]*t+e[3]*n,this.w=this.s=this.i=null,this}},{key:"rotateSelf",value:function(){var t=arguments.length>0&&void 0!==arguments[0]?arguments[0]:0;if(t%=360){var n=S(t*=I),e=O(t),r=this.m,i=r[0],u=r[1];r[0]=i*e+r[2]*n,r[1]=u*e+r[3]*n,r[2]=r[2]*e-i*n,r[3]=r[3]*e-u*n,this.w=this.s=this.i=null}return this}},{key:"scaleSelf",value:function(){var t=arguments.length>0&&void 0!==arguments[0]?arguments[0]:1,n=arguments.length>1&&void 0!==arguments[1]?arguments[1]:1;if(1!==t||1!==n){var e=this.m;e[0]*=t,e[1]*=t,e[2]*=n,e[3]*=n,this.w=this.s=this.i=null}return this}},{key:"skewSelf",value:function(t,n){if(n%=360,(t%=360)||n){var e=this.m,r=e[0],i=e[1],u=e[2],o=e[3];t&&(t=M(t*I),e[2]+=r*t,e[3]+=i*t),n&&(n=M(n*I),e[0]+=u*n,e[1]+=o*n),this.w=this.s=this.i=null}return this}},{key:"resetSelf",value:function(){var t=arguments.length>0&&void 0!==arguments[0]?arguments[0]:1,n=arguments.length>1&&void 0!==arguments[1]?arguments[1]:0,e=arguments.length>2&&void 0!==arguments[2]?arguments[2]:0,r=arguments.length>3&&void 0!==arguments[3]?arguments[3]:1,i=arguments.length>4&&void 0!==arguments[4]?arguments[4]:0,u=arguments.length>5&&void 0!==arguments[5]?arguments[5]:0,o=this.m;return o[0]=t,o[1]=n,o[2]=e,o[3]=r,o[4]=i,o[5]=u,this.w=this.s=this.i=null,this}},{key:"recomposeSelf",value:function(){var t=arguments.length>0&&void 0!==arguments[0]?arguments[0]:null,n=arguments.length>1&&void 0!==arguments[1]?arguments[1]:null,e=arguments.length>2&&void 0!==arguments[2]?arguments[2]:null,r=arguments.length>3&&void 0!==arguments[3]?arguments[3]:null,i=arguments.length>4&&void 0!==arguments[4]?arguments[4]:null;return this.isIdentity||this.resetSelf(),t&&(t.x||t.y)&&this.translateSelf(t.x,t.y),n&&this.rotateSelf(n),e&&(e.x&&this.skewSelf(e.x,0),e.y&&this.skewSelf(0,e.y)),!r||1===r.x&&1===r.y||this.scaleSelf(r.x,r.y),i&&(i.x||i.y)&&this.translateSelf(i.x,i.y),this}},{key:"decompose",value:function(){var t=arguments.length>0&&void 0!==arguments[0]?arguments[0]:0,n=arguments.length>1&&void 0!==arguments[1]?arguments[1]:0,e=this.m,r=e[0]*e[0]+e[1]*e[1],i=[[e[0],e[1]],[e[2],e[3]]],u=F(r);if(0===u)return{origin:{x:p(e[4]),y:p(e[5])},translate:{x:p(t),y:p(n)},scale:{x:0,y:0},skew:{x:0,y:0},rotate:0};i[0][0]/=u,i[0][1]/=u;var o=e[0]*e[3]-e[1]*e[2]<0;o&&(u=-u);var a=i[0][0]*i[1][0]+i[0][1]*i[1][1];i[1][0]-=i[0][0]*a,i[1][1]-=i[0][1]*a;var l=F(i[1][0]*i[1][0]+i[1][1]*i[1][1]);if(0===l)return{origin:{x:p(e[4]),y:p(e[5])},translate:{x:p(t),y:p(n)},scale:{x:p(u),y:0},skew:{x:0,y:0},rotate:0};i[1][0]/=l,i[1][1]/=l,a/=l;var s=0;return i[1][1]<0?(s=j(i[1][1])*R,i[0][1]<0&&(s=360-s)):s=E(i[0][1])*R,o&&(s=-s),a=P(a,F(i[0][0]*i[0][0]+i[0][1]*i[0][1]))*R,o&&(a=-a),{origin:{x:p(e[4]),y:p(e[5])},translate:{x:p(t),y:p(n)},scale:{x:p(u),y:p(l)},skew:{x:p(a),y:0},rotate:p(s)}}},{key:"clone",value:function(){var t=this.m;return new this.constructor(t[0],t[1],t[2],t[3],t[4],t[5])}},{key:"toString",value:function(){var t=arguments.length>0&&void 0!==arguments[0]?arguments[0]:" ";if(null===this.s){var n=this.m.map((function(t){return p(t)}));1===n[0]&&0===n[1]&&0===n[2]&&1===n[3]?this.s="translate("+n[4]+t+n[5]+")":this.s="matrix("+n.join(t)+")"}return this.s}}],[{key:"create",value:function(t){return t?Array.isArray(t)?f(this,v(t)):t instanceof this?t.clone():(new this).recomposeSelf(t.origin,t.rotate,t.skew,t.scale,t.translate):new this}}]),t}();function T(t,n,e){return t>=.5?e:n}function q(t,n,e){return 0===t||n===e?n:t*(e-n)+n}function B(t,n,e){var r=q(t,n,e);return r<=0?0:r}function D(t,n,e){var r=q(t,n,e);return r<=0?0:r>=1?1:r}function L(t,n,e){return 0===t?n:1===t?e:{x:q(t,n.x,e.x),y:q(t,n.y,e.y)}}function C(t,n,e){var r=function(t,n,e){return Math.round(q(t,n,e))}(t,n,e);return r<=0?0:r>=255?255:r}function V(t,n,e){return 0===t?n:1===t?e:{r:C(t,n.r,e.r),g:C(t,n.g,e.g),b:C(t,n.b,e.b),a:q(t,null==n.a?1:n.a,null==e.a?1:e.a)}}function G(t,n){for(var e=[],r=0;r<t;r++)e.push(n);return e}function z(t,n){if(--n<=0)return t;var e=(t=Object.assign([],t)).length;do{for(var r=0;r<e;r++)t.push(t[r])}while(--n>0);return t}var Y,$=function(){function t(n){r(this,t),this.list=n,this.length=n.length}return u(t,[{key:"setAttribute",value:function(t,n){for(var e=this.list,r=0;r<this.length;r++)e[r].setAttribute(t,n)}},{key:"removeAttribute",value:function(t){for(var n=this.list,e=0;e<this.length;e++)n[e].removeAttribute(t)}},{key:"style",value:function(t,n){for(var e=this.list,r=0;r<this.length;r++)e[r].style[t]=n}}]),t}(),U=/-./g,Q=function(t,n){return n.toUpperCase()};function H(t){return"function"==typeof t?t:T}function J(t){return t?"function"==typeof t?t:Array.isArray(t)?function(t){var n=arguments.length>1&&void 0!==arguments[1]?arguments[1]:b;if(!Array.isArray(t))return n;switch(t.length){case 1:return k(t[0])||n;case 2:return k(t[0],t[1])||n;case 4:return A(t[0],t[1],t[2],t[3])||n}return n}(t,null):function(t,n){var e=arguments.length>2&&void 0!==arguments[2]?arguments[2]:b;switch(t){case"linear":return b;case"steps":return k(n.steps||1,n.jump||0)||e;case"bezier":case"cubic-bezier":return A(n.x1||0,n.y1||0,n.x2||0,n.y2||0)||e}return e}(t.type,t.value,null):null}function Z(t,n,e){var r=arguments.length>3&&void 0!==arguments[3]&&arguments[3],i=n.length-1;if(t<=n[0].t)return r?[0,0,n[0].v]:n[0].v;if(t>=n[i].t)return r?[i,1,n[i].v]:n[i].v;var u,o=n[0],a=null;for(u=1;u<=i;u++){if(!(t>n[u].t)){a=n[u];break}o=n[u]}return null==a?r?[i,1,n[i].v]:n[i].v:o.t===a.t?r?[u,1,a.v]:a.v:(t=(t-o.t)/(a.t-o.t),o.e&&(t=o.e(t)),r?[u,t,e(t,o.v,a.v)]:e(t,o.v,a.v))}function K(t,n){var e=arguments.length>2&&void 0!==arguments[2]?arguments[2]:null;return t&&t.length?"function"!=typeof n?null:("function"!=typeof e&&(e=null),function(r){var i=Z(r,t,n);return null!=i&&e&&(i=e(i)),i}):null}function W(t,n){return t.t-n.t}function X(t,n,r,i,u){var o,a="@"===r[0],l="#"===r[0],s=Y[r],f=T;switch(a?(o=r.substr(1),r=o.replace(U,Q)):l&&(r=r.substr(1)),e(s)){case"function":if(f=s(i,u,Z,J,r,a,n,t),l)return f;break;case"string":f=K(i,H(s));break;case"object":if((f=K(i,H(s.i),s.f))&&"function"==typeof s.u)return s.u(n,f,r,a,t)}return f?function(t,n,e){if(arguments.length>3&&void 0!==arguments[3]&&arguments[3])return t instanceof $?function(r){return t.style(n,e(r))}:function(r){return t.style[n]=e(r)};if(Array.isArray(n)){var r=n.length;return function(i){var u=e(i);if(null==u)for(var o=0;o<r;o++)t[o].removeAttribute(n);else for(var a=0;a<r;a++)t[a].setAttribute(n,u)}}return function(r){var i=e(r);null==i?t.removeAttribute(n):t.setAttribute(n,i)}}(n,r,f,a):null}function tt(t,n,r,i){if(!i||"object"!==e(i))return null;var u=null,o=null;return Array.isArray(i)?o=function(t){if(!t||!t.length)return null;for(var n=0;n<t.length;n++)t[n].e&&(t[n].e=J(t[n].e));return t.sort(W)}(i):(o=i.keys,u=i.data||null),o?X(t,n,r,o,u):null}function nt(t,n,e){if(!e)return null;var r=[];for(var i in e)if(e.hasOwnProperty(i)){var u=tt(t,n,i,e[i]);u&&r.push(u)}return r.length?r:null}function et(t,n){if(!n.settings.duration||n.settings.duration<0)return null;var e,r,i,u,o,a=function(t,n){if(!n)return null;var e=[];if(Array.isArray(n))for(var r=n.length,i=0;i<r;i++){var u=n[i];if(2===u.length){var o=null;if("string"==typeof u[0])o=t.getElementById(u[0]);else if(Array.isArray(u[0])){o=[];for(var a=0;a<u[0].length;a++)if("string"==typeof u[0][a]){var l=t.getElementById(u[0][a]);l&&o.push(l)}o=o.length?1===o.length?o[0]:new $(o):null}if(o){var s=nt(t,o,u[1]);s&&(e=e.concat(s))}}}else for(var f in n)if(n.hasOwnProperty(f)){var c=t.getElementById(f);if(c){var h=nt(t,c,n[f]);h&&(e=e.concat(h))}}return e.length?e:null}(t,n.elements);return a?(e=a,r=n.settings,i=r.duration,u=e.length,o=null,function(t,n){var a=r.iterations||1/0,l=(r.alternate&&a%2==0)^r.direction>0?i:0,s=t%i,f=1+(t-s)/i;n*=r.direction,r.alternate&&f%2==0&&(n=-n);var c=!1;if(f>a)s=l,c=!0,-1===r.fill&&(s=r.direction>0?0:i);else if(n<0&&(s=i-s),s===o)return!1;o=s;for(var h=0;h<u;h++)e[h](s);return c}):null}function rt(t,n){if(Y=n,!t||!t.root||!Array.isArray(t.animations))return null;var e=function(t){for(var n=document.getElementsByTagName("svg"),e=0;e<n.length;e++)if(n[e].id===t.root&&!n[e].svgatorAnimation)return n[e].svgatorAnimation=!0,n[e];return null}(t);if(!e)return null;var r=t.animations.map((function(t){return et(e,t)})).filter((function(t){return!!t}));return r.length?{svg:e,animations:r,animationSettings:t.animationSettings,options:t.options||void 0}:null}function it(t){return+("0x"+(t.replace(/[^0-9a-fA-F]+/g,"")||27))}function ut(t,n,e){return!t||!e||n>t.length?t:t.substring(0,n)+ut(t.substring(n+1),e,e)}function ot(t){var n=arguments.length>1&&void 0!==arguments[1]?arguments[1]:27;return!t||t%n?t%n:ot(t/n,n)}function at(t,n,e){if(t&&t.length){var r=it(e),i=it(n),u=ot(r)+5,o=ut(t,ot(r,5),u);return o=o.replace(/\x7c$/g,"==").replace(/\x2f$/g,"="),o=function(t,n,e){var r=+("0x"+t.substring(0,4));t=t.substring(4);for(var i=n%r+e%27,u=[],o=0;o<t.length;o+=2)if("|"!==t[o]){var a=+("0x"+t[o]+t[o+1])-i;u.push(a)}else{var l=+("0x"+t.substring(o+1,o+1+4))-i;o+=3,u.push(l)}return String.fromCharCode.apply(String,u)}(o=(o=atob(o)).replace(/[\x41-\x5A]/g,""),i,r),o=JSON.parse(o)}}var lt=[{key:"alternate",def:!1},{key:"fill",def:1},{key:"iterations",def:0},{key:"direction",def:1},{key:"speed",def:1},{key:"fps",def:100}],st=function(){function t(n,e){var i=this,u=arguments.length>2&&void 0!==arguments[2]?arguments[2]:null;r(this,t),this._id=0,this._running=!1,this._rollingBack=!1,this._animations=n,this._settings=e,(!u||u<"2022-05-02")&&delete this._settings.speed,lt.forEach((function(t){i._settings[t.key]=i._settings[t.key]||t.def})),this.duration=e.duration,this.offset=e.offset||0,this.rollbackStartOffset=0}return u(t,[{key:"alternate",get:function(){return this._settings.alternate}},{key:"fill",get:function(){return this._settings.fill}},{key:"iterations",get:function(){return this._settings.iterations}},{key:"direction",get:function(){return this._settings.direction}},{key:"speed",get:function(){return this._settings.speed}},{key:"fps",get:function(){return this._settings.fps}},{key:"maxFiniteDuration",get:function(){return this.iterations>0?this.iterations*this.duration:this.duration}},{key:"_apply",value:function(t){for(var n=arguments.length>1&&void 0!==arguments[1]?arguments[1]:{},e=this._animations,r=e.length,i=0,u=0;u<r;u++)n[u]?i++:(n[u]=e[u](t,1),n[u]&&i++);return i}},{key:"_rollback",value:function(t){var n=this,e=1/0,r=null;this.rollbackStartOffset=t,this._rollingBack=!0,this._running=!0;this._id=window.requestAnimationFrame((function i(u){if(n._rollingBack){null==r&&(r=u);var o=Math.round(t-(u-r)*n.speed);if(o>n.duration&&e!==1/0){var a=!!n.alternate&&o/n.duration%2>1,l=o%n.duration;o=(l+=a?n.duration:0)||n.duration}var s=(n.fps?1e3/n.fps:0)*n.speed,f=Math.max(0,o);f<=e-s&&(n.offset=f,e=f,n._apply(f));var c=n.iterations>0&&-1===n.fill&&o>=n.maxFiniteDuration;(o<=0||n.offset<o||c)&&n.stop(),n._id=window.requestAnimationFrame(i)}}))}},{key:"_start",value:function(){var t=this,n=arguments.length>0&&void 0!==arguments[0]?arguments[0]:0,e=-1/0,r=null,i={};this._running=!0;var u=function u(o){null==r&&(r=o);var a=Math.round((o-r)*t.speed+n),l=(t.fps?1e3/t.fps:0)*t.speed;if(a>=e+l&&!t._rollingBack&&(t.offset=a,e=a,t._apply(a,i)===t._animations.length))return void t.pause(!0);t._id=window.requestAnimationFrame(u)};this._id=window.requestAnimationFrame(u)}},{key:"_pause",value:function(){this._id&&window.cancelAnimationFrame(this._id),this._running=!1}},{key:"play",value:function(){if(!this._running)return this._rollingBack?this._rollback(this.offset):this._start(this.offset)}},{key:"stop",value:function(){this._pause(),this.offset=0,this.rollbackStartOffset=0,this._rollingBack=!1,this._apply(0)}},{key:"reachedToEnd",value:function(){return this.iterations>0&&this.offset>=this.iterations*this.duration}},{key:"restart",value:function(){var t=arguments.length>0&&void 0!==arguments[0]&&arguments[0];this.stop(t),this.play(t)}},{key:"pause",value:function(){this._pause()}},{key:"reverse",value:function(){this.direction=-this.direction}}],[{key:"build",value:function(t,n){delete t.animationSettings,t.options=at(t.options,t.root,"5c7f360c"),t.animations.map((function(n){n.settings=at(n.s,t.root,"5c7f360c"),delete n.s,t.animationSettings||(t.animationSettings=n.settings)}));var e=t.version;if(!(t=rt(t,n)))return null;var r=t.options||{},i=new this(t.animations,t.animationSettings,e);return{el:t.svg,options:r,player:i}}},{key:"push",value:function(t){return this.build(t)}},{key:"init",value:function(){var t=this,n=window.__SVGATOR_PLAYER__&&window.__SVGATOR_PLAYER__["5c7f360c"];Array.isArray(n)&&n.splice(0).forEach((function(n){return t.build(n)}))}}]),t}();function ft(t){return p(t)+""}function ct(t){var n=arguments.length>1&&void 0!==arguments[1]?arguments[1]:" ";return t&&t.length?t.map(ft).join(n):""}function ht(t){if(!t)return"transparent";if(null==t.a||t.a>=1){var n=function(t){return 1===(t=parseInt(t).toString(16)).length?"0"+t:t},e=function(t){return t.charAt(0)===t.charAt(1)},r=n(t.r),i=n(t.g),u=n(t.b);return e(r)&&e(i)&&e(u)&&(r=r.charAt(0),i=i.charAt(0),u=u.charAt(0)),"#"+r+i+u}return"rgba("+t.r+","+t.g+","+t.b+","+t.a+")"}function vt(t){return t?"url(#"+t+")":"none"}!function(){for(var t=0,n=["ms","moz","webkit","o"],e=0;e<n.length&&!window.requestAnimationFrame;++e)window.requestAnimationFrame=window[n[e]+"RequestAnimationFrame"],window.cancelAnimationFrame=window[n[e]+"CancelAnimationFrame"]||window[n[e]+"CancelRequestAnimationFrame"];window.requestAnimationFrame||(window.requestAnimationFrame=function(n){var e=Date.now(),r=Math.max(0,16-(e-t)),i=window.setTimeout((function(){n(e+r)}),r);return t=e+r,i},window.cancelAnimationFrame=window.clearTimeout)}();var yt={f:null,i:function(t,n,e){return 0===t?n:1===t?e:{x:B(t,n.x,e.x),y:B(t,n.y,e.y)}},u:function(t,n){return function(e){var r=n(e);t.setAttribute("rx",ft(r.x)),t.setAttribute("ry",ft(r.y))}}},gt={f:null,i:function(t,n,e){return 0===t?n:1===t?e:{width:B(t,n.width,e.width),height:B(t,n.height,e.height)}},u:function(t,n){return function(e){var r=n(e);t.setAttribute("width",ft(r.width)),t.setAttribute("height",ft(r.height))}}};Object.freeze({M:2,L:2,Z:0,H:1,V:1,C:6,Q:4,T:2,S:4,A:7});var pt={},dt=null;function mt(t){var n=function(){if(dt)return dt;if("object"!==("undefined"==typeof document?"undefined":e(document))||!document.createElementNS)return{};var t=document.createElementNS("http://www.w3.org/2000/svg","svg");return t&&t.style?(t.style.position="absolute",t.style.opacity="0.01",t.style.zIndex="-9999",t.style.left="-9999px",t.style.width="1px",t.style.height="1px",dt={svg:t}):{}}().svg;if(!n)return function(t){return null};var r=document.createElementNS(n.namespaceURI,"path");r.setAttributeNS(null,"d",t),r.setAttributeNS(null,"fill","none"),r.setAttributeNS(null,"stroke","none"),n.appendChild(r);var i=r.getTotalLength();return function(t){var n=r.getPointAtLength(i*t);return{x:n.x,y:n.y}}}function bt(t){return pt[t]?pt[t]:pt[t]=mt(t)}function wt(t,n,e,r){if(!t||!r)return!1;var i=["M",t.x,t.y];if(n&&e&&(i.push("C"),i.push(n.x),i.push(n.y),i.push(e.x),i.push(e.y)),n?!e:e){var u=n||e;i.push("Q"),i.push(u.x),i.push(u.y)}return n||e||i.push("L"),i.push(r.x),i.push(r.y),i.join(" ")}function At(t,n,e,r){var i=arguments.length>4&&void 0!==arguments[4]?arguments[4]:1,u=wt(t,n,e,r),o=bt(u);try{return o(i)}catch(t){return null}}function _t(t,n,e){return t+(n-t)*e}function xt(t,n,e){var r=arguments.length>3&&void 0!==arguments[3]&&arguments[3],i={x:_t(t.x,n.x,e),y:_t(t.y,n.y,e)};return r&&(i.a=kt(t,n)),i}function kt(t,n){return Math.atan2(n.y-t.y,n.x-t.x)}function St(t,n,e,r){var i=1-r;return i*i*t+2*i*r*n+r*r*e}function Ot(t,n,e,r){return 2*(1-r)*(n-t)+2*r*(e-n)}function jt(t,n,e,r){var i=arguments.length>4&&void 0!==arguments[4]&&arguments[4],u=At(t,n,null,e,r);return u||(u={x:St(t.x,n.x,e.x,r),y:St(t.y,n.y,e.y,r)}),i&&(u.a=Et(t,n,e,r)),u}function Et(t,n,e,r){return Math.atan2(Ot(t.y,n.y,e.y,r),Ot(t.x,n.x,e.x,r))}function Mt(t,n,e,r,i){var u=i*i;return i*u*(r-t+3*(n-e))+3*u*(t+e-2*n)+3*i*(n-t)+t}function Pt(t,n,e,r,i){var u=1-i;return 3*(u*u*(n-t)+2*u*i*(e-n)+i*i*(r-e))}function It(t,n,e,r,i){var u=arguments.length>5&&void 0!==arguments[5]&&arguments[5],o=At(t,n,e,r,i);return o||(o={x:Mt(t.x,n.x,e.x,r.x,i),y:Mt(t.y,n.y,e.y,r.y,i)}),u&&(o.a=Rt(t,n,e,r,i)),o}function Rt(t,n,e,r,i){return Math.atan2(Pt(t.y,n.y,e.y,r.y,i),Pt(t.x,n.x,e.x,r.x,i))}function Ft(t,n,e){var r=arguments.length>3&&void 0!==arguments[3]&&arguments[3];if(Tt(n)){if(qt(e))return jt(n,e.start,e,t,r)}else if(Tt(e)){if(Bt(n))return jt(n,n.end,e,t,r)}else{if(Bt(n))return qt(e)?It(n,n.end,e.start,e,t,r):jt(n,n.end,e,t,r);if(qt(e))return jt(n,e.start,e,t,r)}return xt(n,e,t,r)}function Nt(t,n,e){var r=Ft(t,n,e,!0);return r.a=function(t){return arguments.length>1&&void 0!==arguments[1]&&arguments[1]?t+Math.PI:t}(r.a)/m,r}function Tt(t){return!t.type||"corner"===t.type}function qt(t){return null!=t.start&&!Tt(t)}function Bt(t){return null!=t.end&&!Tt(t)}var Dt=new N;var Lt={f:ft,i:q},Ct={f:ft,i:D};function Vt(t,n,e){return t.map((function(t){return function(t,n,e){var r=t.v;if(!r||"g"!==r.t||r.s||!r.v||!r.r)return t;var i=e.getElementById(r.r),u=i&&i.querySelectorAll("stop")||[];return r.s=r.v.map((function(t,n){var e=u[n]&&u[n].getAttribute("offset");return{c:t,o:e=p(parseInt(e)/100)}})),delete r.v,t}(t,0,e)}))}var Gt={gt:"gradientTransform",c:{x:"cx",y:"cy"},rd:"r",f:{x:"x1",y:"y1"},to:{x:"x2",y:"y2"}};function zt(t,n,r,i,u,o,a,l){return Vt(t,0,l),n=function(t,n,e){for(var r,i,u,o=t.length-1,a={},l=0;l<=o;l++)(r=t[l]).e&&(r.e=n(r.e)),r.v&&"g"===(i=r.v).t&&i.r&&(u=e.getElementById(i.r))&&(a[i.r]={e:u,s:u.querySelectorAll("stop")});return a}(t,i,l),function(i){var u=r(i,t,Yt);if(!u)return"none";if("c"===u.t)return ht(u.v);if("g"===u.t){if(!n[u.r])return vt(u.r);var o=n[u.r];return function(t,n){for(var e=t.s,r=e.length;r<n.length;r++){var i=e[e.length-1].cloneNode();i.id=Qt(i.id),t.e.appendChild(i),e=t.s=t.e.querySelectorAll("stop")}for(var u=0,o=e.length,a=n.length-1;u<o;u++)e[u].setAttribute("stop-color",ht(n[Math.min(u,a)].c)),e[u].setAttribute("offset",n[Math.min(u,a)].o)}(o,u.s),Object.keys(Gt).forEach((function(t){if(void 0!==u[t])if("object"!==e(Gt[t])){var n,r="gt"===t?(n=u[t],Array.isArray(n)?"matrix("+n.join(" ")+")":""):u[t],i=Gt[t];o.e.setAttribute(i,r)}else Object.keys(Gt[t]).forEach((function(n){if(void 0!==u[t][n]){var e=u[t][n],r=Gt[t][n];o.e.setAttribute(r,e)}}))})),vt(u.r)}return"none"}}function Yt(t,e,r){if(0===t)return e;if(1===t)return r;if(e&&r){var i=e.t;if(i===r.t)switch(e.t){case"c":return{t:i,v:V(t,e.v,r.v)};case"g":if(e.r===r.r){var u={t:i,s:$t(t,e.s,r.s),r:e.r};return e.gt&&r.gt&&(u.gt=function(t,n,e){var r=n.length;if(r!==e.length)return T(t,n,e);for(var i=new Array(r),u=0;u<r;u++)i[u]=q(t,n[u],e[u]);return i}(t,e.gt,r.gt)),e.c?(u.c=L(t,e.c,r.c),u.rd=B(t,e.rd,r.rd)):e.f&&(u.f=L(t,e.f,r.f),u.to=L(t,e.to,r.to)),u}}if("c"===e.t&&"g"===r.t||"c"===r.t&&"g"===e.t){var o="c"===e.t?e:r,a="g"===e.t?n({},e):n({},r),l=a.s.map((function(t){return{c:o.v,o:t.o}}));return a.s="c"===e.t?$t(t,l,a.s):$t(t,a.s,l),a}}return T(t,e,r)}function $t(t,n,e){if(n.length===e.length)return n.map((function(n,r){return Ut(t,n,e[r])}));for(var r=Math.max(n.length,e.length),i=[],u=0;u<r;u++){var o=Ut(t,n[Math.min(u,n.length-1)],e[Math.min(u,e.length-1)]);i.push(o)}return i}function Ut(t,n,e){return{o:D(t,n.o,e.o||0),c:V(t,n.c,e.c||{})}}function Qt(t){return t.replace(/-fill-([0-9]+)$/,(function(t,n){return"-fill-"+(+n+1)}))}var Ht={fill:zt,"fill-opacity":Ct,stroke:zt,"stroke-opacity":Ct,"stroke-width":Lt,"stroke-dashoffset":{f:ft,i:q},"stroke-dasharray":{f:function(t){var n=arguments.length>1&&void 0!==arguments[1]?arguments[1]:" ";return t&&t.length>0&&(t=t.map((function(t){return p(t,4)}))),ct(t,n)},i:function(t,n,e){var r,i,u,o=n.length,a=e.length;if(o!==a)if(0===o)n=G(o=a,0);else if(0===a)a=o,e=G(o,0);else{var l=(u=(r=o)*(i=a)/function(t,n){for(var e;n;)e=n,n=t%n,t=e;return t||1}(r,i))<0?-u:u;n=z(n,Math.floor(l/o)),e=z(e,Math.floor(l/a)),o=a=l}for(var s=[],f=0;f<o;f++)s.push(p(B(t,n[f],e[f])));return s}},opacity:Ct,transform:function(t,n,r,i){if(!(t=function(t,n){if(!t||"object"!==e(t))return null;var r=!1;for(var i in t)t.hasOwnProperty(i)&&(t[i]&&t[i].length?(t[i].forEach((function(t){t.e&&(t.e=n(t.e))})),r=!0):delete t[i]);return r?t:null}(t,i)))return null;var u=function(e,i,u){var o=arguments.length>3&&void 0!==arguments[3]?arguments[3]:null;return t[e]?r(i,t[e],u):n&&n[e]?n[e]:o};return n&&n.a&&t.o?function(n){var e=r(n,t.o,Nt);return Dt.recomposeSelf(e,u("r",n,q,0)+e.a,u("k",n,L),u("s",n,L),u("t",n,L)).toString()}:function(t){return Dt.recomposeSelf(u("o",t,Ft,null),u("r",t,q,0),u("k",t,L),u("s",t,L),u("t",t,L)).toString()}},r:Lt,"#size":gt,"#radius":yt,_:function(t,n){if(Array.isArray(t))for(var e=0;e<t.length;e++)this[t[e]]=n;else this[t]=n}},Jt=function(t){!function(t,n){if("function"!=typeof n&&null!==n)throw new TypeError("Super expression must either be null or a function");t.prototype=Object.create(n&&n.prototype,{constructor:{value:t,writable:!0,configurable:!0}}),n&&l(t,n)}(o,t);var n,e,i=(n=o,e=s(),function(){var t,r=a(n);if(e){var i=a(this).constructor;t=Reflect.construct(r,arguments,i)}else t=r.apply(this,arguments);return c(this,t)});function o(){return r(this,o),i.apply(this,arguments)}return u(o,null,[{key:"build",value:function(t){var n=h(a(o),"build",this).call(this,t,Ht);if(!n)return null;n.el,n.options,function(t,n,e){t.play()}(n.player)}}]),o}(st);return Jt.init(),Jt}));
(function(s,i,o,w,d,a,b){w[o]=w[o]||{};w[o][s]=w[o][s]||[];w[o][s].push(i);})('5c7f360c',{"root":"eUsevMbyZKf1","version":"2022-05-04","animations":[{"elements":{"eUsevMbyZKf4":{"transform":{"data":{"o":{"x":93.482375,"y":201.419171,"type":"corner"},"t":{"x":-93.482375,"y":-201.419171}},"keys":{"s":[{"t":0,"v":{"x":0,"y":0},"e":[0.875,0.005,0.2,0.985]},{"t":1500,"v":{"x":1,"y":1}}]}}},"eUsevMbyZKf6":{"transform":{"data":{"o":{"x":60.180506,"y":287.959985,"type":"corner"},"t":{"x":-60.03,"y":-287.499985}},"keys":{"s":[{"t":500,"v":{"x":0,"y":0},"e":[0.975,0.005,0.02,0.99]},{"t":1600,"v":{"x":1,"y":1},"e":[0.505,-0.005,0.47,0.985]}]}}},"eUsevMbyZKf7":{"transform":{"data":{"o":{"x":64.094935,"y":251.69272,"type":"corner"},"r":180,"t":{"x":-64.024429,"y":-251.692717}},"keys":{"s":[{"t":2600,"v":{"x":0,"y":0}},{"t":3000,"v":{"x":1,"y":1}}]}}},"eUsevMbyZKf8":{"transform":{"data":{"o":{"x":64.094935,"y":251.69272,"type":"corner"},"r":180,"t":{"x":-64.024429,"y":-251.692717}},"keys":{"s":[{"t":2400,"v":{"x":0,"y":0}},{"t":2800,"v":{"x":1,"y":1}}]}}},"eUsevMbyZKf11":{"transform":{"data":{"o":{"x":21.726159,"y":162.313393,"type":"corner"},"t":{"x":-21.726159,"y":-162.313393}},"keys":{"s":[{"t":1500,"v":{"x":0,"y":0},"e":[0.875,0.005,0.2,0.985]},{"t":2000,"v":{"x":1,"y":1}}]}}},"eUsevMbyZKf12":{"transform":{"data":{"o":{"x":82.251827,"y":197.615707,"type":"corner"},"t":{"x":-82.251827,"y":-197.615707}},"keys":{"s":[{"t":3000,"v":{"x":0,"y":0}},{"t":3500,"v":{"x":1,"y":1}}]}}},"eUsevMbyZKf13":{"transform":{"data":{"o":{"x":114.970001,"y":256.625,"type":"corner"},"t":{"x":-114.970001,"y":-256.625}},"keys":{"s":[{"t":2600,"v":{"x":0,"y":0}},{"t":3100,"v":{"x":1,"y":1}}]}}},"eUsevMbyZKf14":{"transform":{"data":{"o":{"x":111.659996,"y":283.605026,"type":"corner"},"t":{"x":-111.659996,"y":-283.605026}},"keys":{"s":[{"t":3800,"v":{"x":0,"y":0}},{"t":4300,"v":{"x":1,"y":1}}]}}},"eUsevMbyZKf15":{"transform":{"data":{"o":{"x":98.685715,"y":382.288086,"type":"corner"},"t":{"x":-98.685715,"y":-382.288086}},"keys":{"s":[{"t":5000,"v":{"x":0,"y":0}},{"t":5500,"v":{"x":1,"y":0}}]}}},"eUsevMbyZKf16":{"transform":{"data":{"o":{"x":95.232201,"y":262.043442,"type":"corner"},"t":{"x":-95.232201,"y":-262.043442}},"keys":{"s":[{"t":3200,"v":{"x":0,"y":0}},{"t":3600,"v":{"x":1,"y":1}}]}}},"eUsevMbyZKf17":{"transform":{"data":{"o":{"x":44.961828,"y":193.389969,"type":"corner"},"t":{"x":-44.961828,"y":-193.389969}},"keys":{"s":[{"t":4800,"v":{"x":0,"y":0}},{"t":5300,"v":{"x":1,"y":1}}]}}},"eUsevMbyZKf18":{"transform":{"data":{"o":{"x":85.797054,"y":234.71698,"type":"corner"},"t":{"x":-85.797054,"y":-234.71698}},"keys":{"s":[{"t":4600,"v":{"x":0,"y":0}},{"t":5100,"v":{"x":1,"y":1}}]}}},"eUsevMbyZKf19":{"transform":{"data":{"o":{"x":68.546833,"y":218.013435,"type":"corner"},"t":{"x":-68.546833,"y":-218.013435}},"keys":{"s":[{"t":2300,"v":{"x":0,"y":0}},{"t":2800,"v":{"x":1,"y":1}}]}}},"eUsevMbyZKf20":{"transform":{"data":{"o":{"x":95.784412,"y":217.35672,"type":"corner"},"t":{"x":-95.784412,"y":-217.35672}},"keys":{"s":[{"t":3800,"v":{"x":0,"y":0}},{"t":4300,"v":{"x":1,"y":1}}]}}},"eUsevMbyZKf21":{"transform":{"data":{"o":{"x":114.556973,"y":357.070313,"type":"corner"},"t":{"x":-114.556973,"y":-357.070312}},"keys":{"s":[{"t":3800,"v":{"x":0,"y":0}},{"t":4300,"v":{"x":1,"y":1}}]}}},"eUsevMbyZKf22":{"transform":{"data":{"o":{"x":73.514542,"y":304.74144,"type":"corner"},"t":{"x":-73.514542,"y":-304.74144}},"keys":{"s":[{"t":3800,"v":{"x":0,"y":0}},{"t":4300,"v":{"x":1,"y":1}}]}}},"eUsevMbyZKf23":{"transform":{"data":{"o":{"x":15.315455,"y":183.735321,"type":"corner"},"t":{"x":-15.315455,"y":-183.735321}},"keys":{"s":[{"t":2400,"v":{"x":0,"y":0}},{"t":2800,"v":{"x":1,"y":1}}]}}},"eUsevMbyZKf24":{"transform":{"data":{"o":{"x":95.627789,"y":301.944397,"type":"corner"},"t":{"x":-95.627789,"y":-301.944397}},"keys":{"s":[{"t":3000,"v":{"x":0,"y":0}},{"t":3500,"v":{"x":1,"y":1}}]}}},"eUsevMbyZKf26":{"transform":{"data":{"o":{"x":35.208533,"y":172.067123,"type":"corner"},"t":{"x":-35.208533,"y":-172.067123}},"keys":{"s":[{"t":4000,"v":{"x":0,"y":0}},{"t":4500,"v":{"x":1,"y":1}}]}}},"eUsevMbyZKf27":{"transform":{"data":{"o":{"x":73.288235,"y":378.657288,"type":"corner"},"t":{"x":-73.288235,"y":-378.657288}},"keys":{"s":[{"t":3400,"v":{"x":0,"y":0}},{"t":3900,"v":{"x":1,"y":1}}]}}},"eUsevMbyZKf28":{"transform":{"data":{"o":{"x":90.472321,"y":359.824478,"type":"corner"},"t":{"x":-90.472321,"y":-359.824478}},"keys":{"s":[{"t":2200,"v":{"x":0,"y":0}},{"t":2700,"v":{"x":1,"y":1}}]}}},"eUsevMbyZKf29":{"transform":{"data":{"o":{"x":113.781765,"y":299.54982,"type":"corner"},"t":{"x":-113.781765,"y":-299.54982}},"keys":{"s":[{"t":5000,"v":{"x":0,"y":0}},{"t":5500,"v":{"x":1,"y":1}}]}}}},"s":"MVDA1ZDkxMzg3YThiODAg3NzhhN2Y4NVU4NDMR4NTA0YzQ2NDY0NlQ0UMlIzODdhN2Y4ODdiNAzk4YTdmODU4NDM4NTLA0NzQyMzg3ZjhhN2IK4OEk3NzhhN2Y4NTg0XODkzOFg1MDQ2NDIzOLDdjTzdmODI4MjM4NTPA0NzQyMzg3NzgyOGET3Yjg4ODQ3NzhhTzdiKMzg1MDdjNzc4Mjg5NB2I0MjM4ODk4NjdiN2MI3YTM4NTA0NzQyMzhDUN2M4Njg5Mzg1MDQ3ENDY0Njkz"}],"options":"MWDAxMDg4MmZEODA4MUQs2ZTdmODEyZjQ3MmYT3OTdjNmU3MVYyZjhhT"},'__SVGATOR_PLAYER__',window,document)
]]></script>
</svg>
