<svg id="eEtTA32UxHg1" xmlns="http://www.w3.org/2000/svg" xmlns:xlink="http://www.w3.org/1999/xlink" viewBox="0 0 187 402.75" shape-rendering="geometricPrecision" text-rendering="geometricPrecision">
<style><![CDATA[
#eEtTA32UxHg7_ts {animation: eEtTA32UxHg7_ts__ts 3000ms linear infinite alternate forwards}@keyframes eEtTA32UxHg7_ts__ts { 0% {transform: translate(64.094935px,251.69272px) rotate(180deg) scale(0,0)} 10% {transform: translate(64.094935px,251.69272px) rotate(180deg) scale(0,0)} 18% {transform: translate(64.094935px,251.69272px) rotate(180deg) scale(1,1)} 100% {transform: translate(64.094935px,251.69272px) rotate(180deg) scale(1,1)}} #eEtTA32UxHg8_ts {animation: eEtTA32UxHg8_ts__ts 3000ms linear infinite alternate forwards}@keyframes eEtTA32UxHg8_ts__ts { 0% {transform: translate(64.094935px,251.69272px) rotate(180deg) scale(0,0)} 58% {transform: translate(64.094935px,251.69272px) rotate(180deg) scale(0,0)} 66% {transform: translate(64.094935px,251.69272px) rotate(180deg) scale(1,1)} 100% {transform: translate(64.094935px,251.69272px) rotate(180deg) scale(1,1)}} #eEtTA32UxHg11_ts {animation: eEtTA32UxHg11_ts__ts 3000ms linear infinite alternate forwards}@keyframes eEtTA32UxHg11_ts__ts { 0% {transform: translate(21.726159px,162.313393px) scale(0,0)} 34% {transform: translate(21.726159px,162.313393px) scale(0,0);animation-timing-function: cubic-bezier(0.875,0.005,0.2,0.985)} 44% {transform: translate(21.726159px,162.313393px) scale(1,1)} 100% {transform: translate(21.726159px,162.313393px) scale(1,1)}} #eEtTA32UxHg12_ts {animation: eEtTA32UxHg12_ts__ts 3000ms linear infinite alternate forwards}@keyframes eEtTA32UxHg12_ts__ts { 0% {transform: translate(82.251827px,197.615707px) scale(0,0)} 92% {transform: translate(82.251827px,197.615707px) scale(0,0)} 100% {transform: translate(82.251827px,197.615707px) scale(0.8,0.8)}} #eEtTA32UxHg13_ts {animation: eEtTA32UxHg13_ts__ts 3000ms linear infinite alternate forwards}@keyframes eEtTA32UxHg13_ts__ts { 0% {transform: translate(114.970001px,256.625px) scale(0,0)} 20% {transform: translate(114.970001px,256.625px) scale(0,0)} 30% {transform: translate(114.970001px,256.625px) scale(1,1)} 100% {transform: translate(114.970001px,256.625px) scale(1,1)}} #eEtTA32UxHg14_ts {animation: eEtTA32UxHg14_ts__ts 3000ms linear infinite alternate forwards}@keyframes eEtTA32UxHg14_ts__ts { 0% {transform: translate(111.659996px,283.605026px) scale(0,0)} 74% {transform: translate(111.659996px,283.605026px) scale(0,0)} 84% {transform: translate(111.659996px,283.605026px) scale(1,1)} 100% {transform: translate(111.659996px,283.605026px) scale(1,1)}} #eEtTA32UxHg16_ts {animation: eEtTA32UxHg16_ts__ts 3000ms linear infinite alternate forwards}@keyframes eEtTA32UxHg16_ts__ts { 0% {transform: translate(95.232201px,262.043442px) scale(0,0)} 40% {transform: translate(95.232201px,262.043442px) scale(0,0)} 48% {transform: translate(95.232201px,262.043442px) scale(1,1)} 100% {transform: translate(95.232201px,262.043442px) scale(1,1)}} #eEtTA32UxHg17_ts {animation: eEtTA32UxHg17_ts__ts 3000ms linear infinite alternate forwards}@keyframes eEtTA32UxHg17_ts__ts { 0% {transform: translate(44.961828px,193.389969px) scale(0,0)} 88% {transform: translate(44.961828px,193.389969px) scale(0,0)} 98% {transform: translate(44.961828px,193.389969px) scale(1,1)} 100% {transform: translate(44.961828px,193.389969px) scale(1,1)}} #eEtTA32UxHg18_ts {animation: eEtTA32UxHg18_ts__ts 3000ms linear infinite alternate forwards}@keyframes eEtTA32UxHg18_ts__ts { 0% {transform: translate(85.797054px,234.71698px) scale(0,0)} 54% {transform: translate(85.797054px,234.71698px) scale(0,0)} 64% {transform: translate(85.797054px,234.71698px) scale(1,1)} 100% {transform: translate(85.797054px,234.71698px) scale(1,1)}} #eEtTA32UxHg19_ts {animation: eEtTA32UxHg19_ts__ts 3000ms linear infinite alternate forwards}@keyframes eEtTA32UxHg19_ts__ts { 0% {transform: translate(68.546833px,218.013435px) scale(0,0)} 24% {transform: translate(68.546833px,218.013435px) scale(0,0)} 34% {transform: translate(68.546833px,218.013435px) scale(1,1)} 100% {transform: translate(68.546833px,218.013435px) scale(1,1)}} #eEtTA32UxHg20_ts {animation: eEtTA32UxHg20_ts__ts 3000ms linear infinite alternate forwards}@keyframes eEtTA32UxHg20_ts__ts { 0% {transform: translate(95.784412px,217.35672px) scale(0,0)} 70% {transform: translate(95.784412px,217.35672px) scale(0,0)} 80% {transform: translate(95.784412px,217.35672px) scale(1,1)} 100% {transform: translate(95.784412px,217.35672px) scale(1,1)}} #eEtTA32UxHg21_ts {animation: eEtTA32UxHg21_ts__ts 3000ms linear infinite alternate forwards}@keyframes eEtTA32UxHg21_ts__ts { 0% {transform: translate(114.556973px,357.070313px) scale(0,0)} 82% {transform: translate(114.556973px,357.070313px) scale(0,0)} 92% {transform: translate(114.556973px,357.070313px) scale(1,1)} 100% {transform: translate(114.556973px,357.070313px) scale(1,1)}} #eEtTA32UxHg22_ts {animation: eEtTA32UxHg22_ts__ts 3000ms linear infinite alternate forwards}@keyframes eEtTA32UxHg22_ts__ts { 0% {transform: translate(73.514542px,304.74144px) scale(0,0)} 50% {transform: translate(73.514542px,304.74144px) scale(0,0)} 60% {transform: translate(73.514542px,304.74144px) scale(1,1)} 100% {transform: translate(73.514542px,304.74144px) scale(1,1)}} #eEtTA32UxHg23_ts {animation: eEtTA32UxHg23_ts__ts 3000ms linear infinite alternate forwards}@keyframes eEtTA32UxHg23_ts__ts { 0% {transform: translate(15.315455px,183.735321px) scale(0,0)} 16% {transform: translate(15.315455px,183.735321px) scale(0,0)} 24% {transform: translate(15.315455px,183.735321px) scale(1,1)} 100% {transform: translate(15.315455px,183.735321px) scale(1,1)}} #eEtTA32UxHg24_ts {animation: eEtTA32UxHg24_ts__ts 3000ms linear infinite alternate forwards}@keyframes eEtTA32UxHg24_ts__ts { 0% {transform: translate(95.627789px,301.944397px) scale(0,0)} 70% {transform: translate(95.627789px,301.944397px) scale(0,0)} 80% {transform: translate(95.627789px,301.944397px) scale(1,1)} 100% {transform: translate(95.627789px,301.944397px) scale(1,1)}} #eEtTA32UxHg26_ts {animation: eEtTA32UxHg26_ts__ts 3000ms linear infinite alternate forwards}@keyframes eEtTA32UxHg26_ts__ts { 0% {transform: translate(35.208533px,172.067123px) scale(0,0)} 88% {transform: translate(35.208533px,172.067123px) scale(0,0)} 98% {transform: translate(35.208533px,172.067123px) scale(1,1)} 100% {transform: translate(35.208533px,172.067123px) scale(1,1)}} #eEtTA32UxHg27_ts {animation: eEtTA32UxHg27_ts__ts 3000ms linear infinite alternate forwards}@keyframes eEtTA32UxHg27_ts__ts { 0% {transform: translate(73.288235px,378.657288px) scale(0,0)} 28% {transform: translate(73.288235px,378.657288px) scale(0,0)} 38% {transform: translate(73.288235px,378.657288px) scale(1,1)} 100% {transform: translate(73.288235px,378.657288px) scale(1,1)}} #eEtTA32UxHg28_ts {animation: eEtTA32UxHg28_ts__ts 3000ms linear infinite alternate forwards}@keyframes eEtTA32UxHg28_ts__ts { 0% {transform: translate(90.472321px,359.824478px) scale(0,0)} 4% {transform: translate(90.472321px,359.824478px) scale(0,0)} 14% {transform: translate(90.472321px,359.824478px) scale(1,1)} 100% {transform: translate(90.472321px,359.824478px) scale(1,1)}} #eEtTA32UxHg29_ts {animation: eEtTA32UxHg29_ts__ts 3000ms linear infinite alternate forwards}@keyframes eEtTA32UxHg29_ts__ts { 0% {transform: translate(113.781765px,299.54982px) scale(0,0)} 40% {transform: translate(113.781765px,299.54982px) scale(0,0)} 50% {transform: translate(113.781765px,299.54982px) scale(1,1)} 100% {transform: translate(113.781765px,299.54982px) scale(1,1)}}
]]></style>
<g transform="matrix(.542913 0 0 0.542913 42.729578 92.066085)"><g><path d="M0,39.46q-.63-16.62,10-26.95t47.26-12.31q24.62-1.32,35.93,6t17.3,22.62l4,59.22q22,0,36.26,2.33c8.926805,1.347273,17.510124,4.403043,25.28,9Q187,106,187,120t-10.65,20.6c-7.527661,4.604995-15.897148,7.664515-24.62,9q-14,2.34-35.93,2.33.66,29.94.67,53.56t.67,50.23q.66,26.63.67,50.9t.33,40.59q.33,16.31.33,19q0,4.67-3,13.31t-15.3,16q-12.32,7.33-40.25,7.32-20.62,0-31.94-5t-16.3-11.31q-5-6.31-6.32-16.3Z" fill="#86bf88"/><g><path d="M65.130001,260.674971C65.89,262.494971,65.13,260.620638,66.89,265.06c-.06.49-.1,1-.18,1.46-1.08,6.78-3.83,12.91-7.24,18.8-1.39936,2.538647-3.3674,4.718893-5.75,6.37-2.81385,1.873107-5.739277,3.572926-8.76,5.09-.84871.265476-1.56407.844918-2,1.62.2-4.06.6-8.05.78-12.05.53-11.83-.14-23.53-3.26-35-.164798-.629391-.164798-1.290609,0-1.92c1.103802-4.047637,2.642777-7.96381,4.59-11.68.306886-.885423,1.221746-1.406978,2.14-1.22c6.212103.437485,12.454697-.058013,18.52-1.47c5.87-1.42,11.5-3.41,16.33-7.18c1.34615-.907059,2.390777-2.195433,3-3.7-5.342203,3.280496-11.222925,5.58945-17.37,6.82-6.163713,1.285251-12.526287,1.285251-18.69,0c5.838182-9.431364,12.747405-18.155977,20.59-26-3.43793,1.614316-6.618852,3.727069-9.44,6.27-2.966419,2.5889-5.78424,5.343287-8.44,8.25.52667-5.143338.144171-10.339232-1.13-15.35-.091104.423613-.128067.857078-.11,1.29.04212,4.529917-.292365,9.055497-1,13.53-.27,1.64-.34,3.37-1.45,4.78-2.06,2.61-4.15,5.2-6.14,7.86-1.81,2.42-3.51,4.93-5.37,7.56-2.07-5.16-5.31-9.32-8.81-13.3-.47989-.519883-.58-1.93-.58-1.93s.78-7.26,1-10.9c.43-6.88.29-13.73-1.73-20.42-1.280098-4.185868-1.721865-8.583147-1.3-12.94.12-1.19.33-2.37.5-3.55-.289154.100769-.528847.308264-.67.58-3.12,5.4-3.05,11.28-2.39,17.18.39,3.47,1,6.9.78,10.41-.259613,3.416712-1.299623,6.728321-3.04,9.68-.3.52-.56,1.28-1.44.51-4.18-3.7-9.12-6.14-14.19-8.32-.703295-.295728-1.373629-.664412-2-1.1c0,3.76.15,7.56.22,11.32c0,2,.32,4,.2,5.88C14,228.47,20.94,238.2,24.31,251c1.6,6.06,1.49,12.32,1.27,18.54-.391977,8.402565-1.441858,16.761489-3.14,25-.172711-.361001-.366374-.711599-.58-1.05-2.286983-3.207358-5.108017-5.997951-8.34-8.25-3.342031-2.096833-5.64418-5.506482-6.34-9.39-.582616-2.739826-1.423024-5.418417-2.51-8c.08,3.26.06,6.53,0,9.79c1.986408.348443,3.448644,2.053687,3.49,4.07.000876,3.763025-.219504,7.522846-.66,11.26c4.86,4.71,8.55,10.15,9.81,17c.27,1.48.68,3,.16,4.52-1.27,3.83-2.42,7.69-3.73,11.51-.28929,1.167259-.769058,2.278834-1.42,3.29-1.975384-2.572891-4.573795-4.599996-7.55-5.89.129556,1.685733.099421,3.37994-.09,5.06.188386.552587.246565,1.141226.17,1.72-.07.67-.15,1.34-.23,2c.17,4.27,1,8.58.5,12.81-.029527.27172-.086484.539753-.17.8c0,.63.09,1.27.12,1.9s.09,1.26.09,1.89q0,.69,0,1.38c.349403,1.806595.583211,3.633638.7,5.47.15,2.44.58,4.95-.11,7.32-.16.53-.29,1.07-.44,1.6.06.68.13,1.37.23,2.05.1657,1.608547.125374,3.231666-.12,4.83.032509.111879.059211.225364.08.34c0,.07,0,.13.07.21.51,2.3,1.57,4.12,1.67,6.52.12.32.27.63.4,1c1.123808,2.132022,2.464213,4.14263,4,6c2.507865,3.010778,5.56127,5.521356,9,7.4c3.544055,2.054665,7.269785,3.77861,11.13,5.15-.16-10.92,1.78-21.31,7.86-30.66c3.3-5.07,7.48-9.23,13.13-11.68c3.093084-1.439205,6.581584-1.791579,9.9-1c.72.18,1.23.39,1.17,1.39-.134319,3.770812.626448,7.519816,2.22,10.94.329722,1.055769.909483,2.016318,1.69,2.8-.9-2.57-.66-5.19-.53-7.79.08-1.68.49-3.36.49-5s.54-1.57,1.72-1c4.943521,2.33211,9.443882,5.506049,13.3,9.38c2.054656,2.013129,3.991219,4.143349,5.8,6.38-1.620931-4.955329-4.646962-9.332826-8.71-12.6-5.21-4.43-11.32-7.33-17.47-10.16-1-.44-2.51-.71-2.49-1.77s1.57-1.33,2.57-1.68c6.271516-2.034986,12.681423-3.61574,19.18-4.73.651218-.09036,1.311892.078399,1.84.47c4.353966,2.597592,8.969428,4.729352,13.77,6.36c6.452074,2.317975,13.212322,3.66598,20.06,4c0-.78,0-1.57,0-2.36-9.91-1.8-19-6.37-28.31-11.09c1.34-.31,2.28-.5,3.2-.74c7.057662-2.053346,13.972594-4.568777,20.7-7.53q2.33-1,4.56-2.06c0-.59,0-1.18,0-1.77-.347592-.591025-.530595-1.264339-.53-1.95c0-.33,0-.66,0-1l-.46.2c.13-.93.29-1.83.44-2.74c0-2.78-.1-5.56-.16-8.35-1.66,3.73-3.08,7.55-4.41,11.41-.226825.895823-.912093,1.603934-1.8,1.86-12.19,4-24.84,5.51-37.65,7c1.94-1.68,3.8-3.24,5.61-4.87c1.807148-1.65849,3.454393-3.483183,4.92-5.45c1.447419-1.962895,2.662207-4.087097,3.62-6.33c1-2.16,1.72-4.4,2.56-6.61l-.38-.16c-.24.35-.48.7-.71,1.06-4.72,7.35-10.24,14-17.41,19.1-3.27,2.33-6.32,5-10.29,6.22-10,3-19.58,7-27.52,14.22-.145062-.355782-.145062-.754218,0-1.11c2-10.72,4.94-21.23,6.76-32c1.964981-3.253287,4.616767-6.038174,7.77-8.16.20414-.079012.421103-.119693.64-.12c3.16-.63,6.37-.87,9.56-1.24c2.26-.27,4.58-.22,7.15-1.29-7,0-10.48-.5-12.57-1.84.26-.22.49-.45.74-.65c9.7-7.66,20.25-14,31.07-19.92c3.07-1.68,6-2.34,9.24-1.23.470438.135096.952576.225497,1.44.27c2.412856.430873,4.858975.64838,7.31.65-3.31-1.17-6.63-2.24-10-3.72c6.88-4,14-7.3,18.86-13.58-1.27.91-2.48,1.91-3.81,2.73-7,4.35-14.7,7.37-22.47,10.08-5.86,2.05-11.78,3.92-17.67,5.87-1.44.48-2.21,0-2.3-1.54-.07277-1.860693.24047-3.716301.92-5.45c1.820806-5.165926,1.748998-12.236966.82-17.635029" transform="translate(.150506 0.46)" fill="#fff"/><g id="eEtTA32UxHg7_ts" transform="translate(64.094935,251.69272) rotate(180) scale(0,0)"><path d="M65.73,259.94c4.51-5.9,4.62-13.21-2.18-16.3-.48-.22-.83-.35-1.28.15-4.6,5.21-4.53,12.21,2.86,16.15" transform="translate(-64.024429,-251.692717)" fill="#fff"/></g><g id="eEtTA32UxHg8_ts" transform="translate(64.094935,251.69272) rotate(180) scale(0,0)"><path d="M65.73,259.94c4.51-5.9,4.62-13.21-2.18-16.3-.48-.22-.83-.35-1.28.15-4.6,5.21-4.53,12.21,2.86,16.15" transform="translate(-64.024429,-251.692717)" fill="#fff"/></g><path d="" transform="translate(.070506 0)" fill="#fff"/><path d="" transform="translate(.070506 0)" fill="#fff"/><g id="eEtTA32UxHg11_ts" transform="translate(21.726159,162.313393) scale(0,0)"><path d="M17.46,150.18c1.4.71,3,1,4.32,1.86c5,3.28,6.39,8.3,6.45,13.87.007474,2.397779-.447499,4.774502-1.34,7-.71,1.78-1.38,2-2.86.88-5.32-4-8.8-16.08-8.8-16.08s.82171-5.173187,1.9-7.56Z" transform="translate(-21.726159,-162.313393)" fill="#fff"/></g><g id="eEtTA32UxHg12_ts" transform="translate(82.251827,197.615707) scale(0,0)"><path d="M80.15,206.17c-2.488402.043746-4.93875-.614764-7.07-1.9-.455198-.183272-.778834-.594481-.85-1.08-.64-4.41,1.93-10.16,5.81-12.35c4.4-2.48,9-2.16,13.52-.33.540011.166413.87911.700494.8,1.26-.22,4.24-3.1,11-7.91,13.35-1.314749.725408-2.798883,1.087813-4.3,1.05Z" transform="translate(-82.251827,-197.615707)" fill="#fff"/></g><g id="eEtTA32UxHg13_ts" transform="translate(114.970001,256.625) scale(0,0)"><path d="M116.3,249.31c-.524197,1.015693-.946266,2.080916-1.26,3.18-1.05,3.65-.69,7.44-1.57,11.45.824417-.780756,1.874341-1.281219,3-1.43-.1-4.4-.1-8.8-.17-13.2Z" transform="translate(-114.970001,-256.625)" fill="#fff"/></g><g id="eEtTA32UxHg14_ts" transform="translate(111.659996,283.605026) scale(0,0)"><path d="M116.14,280.64c0-.83,0-1.71.14-2.59-1.56532.734096-3.084766,1.562278-4.55,2.48-1.47.9-2.72,2.35-4.84,2c1.242495.412006,2.348938,1.155397,3.2,2.15.94125.910633,1.943581,1.755932,3,2.53c1.052075.749663,2.16999,1.402338,3.34,1.95-.15-2.81-.32-5.68-.29-8.52Z" transform="translate(-111.659996,-283.605026)" fill="#fff"/></g><path d="M89.88,374.53c1.91,2,4.46,1.3,6.64,1.88c3.07.82,6.06,1.67,8.39,4s2.73,5.09,2.54,8.13c0,.74-.53.89-1.07,1-2.698445.674864-5.521555.674864-8.22,0-2.681683-.700139-4.867015-2.640178-5.88-5.22-.765842-1.803423-1.257941-3.711149-1.46-5.66-.14-1.35.18-2.85-.94-4.13Z" transform="matrix(0 0 0 0 98.685715 382.288086)" fill="#fff"/><g id="eEtTA32UxHg16_ts" transform="translate(95.232201,262.043442) scale(0,0)"><path d="M100.35,262.34c-.025613,3.270224-.975495,6.46654-2.74,9.22-1,1.67-1.68,1.7-2.9.21-3.59-4.38-5.59-9.21-4.11-15c.494221-1.676593,1.221313-3.275522,2.16-4.75.52-.88,1-1,2-.46c3.88,2.44,5.72,5.96,5.59,10.78Z" transform="translate(-95.232201,-262.043442)" fill="#fff"/></g><g id="eEtTA32UxHg17_ts" transform="translate(44.961828,193.389969) scale(0,0)"><path d="M50.42,202.41c-1.196009-.803881-2.464922-1.493581-3.79-2.06-5.379019-2.749454-8.281325-8.733674-7.11-14.66.19-1.09.43-1.55,1.76-1.21c6.7,1.74,9.72,5.84,9.35,12.74-.09,1.72-.87,3.41-.21,5.19Z" transform="translate(-44.961828,-193.389969)" fill="#fff"/></g><g id="eEtTA32UxHg18_ts" transform="translate(85.797054,234.71698) scale(0,0)"><path d="M89.45,239.63c-5.79.31-9.73-1.63-12.71-5.66-.74-1-.58-1.51.4-2.18c2.41659-1.83669,5.542189-2.463284,8.48-1.7c3.620063.920459,6.804002,3.078462,9,6.1c1.11,1.48.93,1.94-.81,2.51-1.408358.492414-2.873295.804889-4.36.93Z" transform="translate(-85.797054,-234.71698)" fill="#fff"/></g><g id="eEtTA32UxHg19_ts" transform="translate(68.546833,218.013435) scale(0,0)"><path d="M69.38,213c2.68-.11,5.14,1.29,7.58,2.76.43.26.77.58.33,1.17-2.05,2.72-4.14,5.35-7.79,6-2.35.43-4.39-.38-6.38-1.42-.668438-.363816-1.310067-.77486-1.92-1.23-2.09-1.52-2.08-1.53-.29-3.61c2.069521-2.513371,5.22095-3.878866,8.47-3.67Z" transform="translate(-68.546833,-218.013435)" fill="#fff"/></g><g id="eEtTA32UxHg20_ts" transform="translate(95.784412,217.35672) scale(0,0)"><path d="M102.58,213.26c0,5.82-4.35,9.49-9.58,10.51-1.038717.359446-2.162828.390865-3.22.09-.47-.2-.9-.33-.77-1c.75-4,2.08-7.68,5.51-10.21c1.823556-1.332608,4.031683-2.034715,6.29-2c1.72.02,1.79.11,1.77,2.61Z" transform="translate(-95.784412,-217.35672)" fill="#fff"/></g><g id="eEtTA32UxHg21_ts" transform="translate(114.556973,357.070313) scale(0,0)"><path d="M117.26,359.58q0-2,.09-4.05c0-.39,0-.78,0-1.16-1.510619-.084276-2.989351-.468407-4.35-1.13-.32-.19-.5-.9-1-.41-.286687.351792-.314924.847954-.07,1.23.640617,1.380359,1.372228,2.716634,2.19,4c.846528,1.31188,1.912004,2.468683,3.15,3.42-.02-.62-.01-1.26-.01-1.9Z" transform="translate(-114.556973,-357.070312)" fill="#fff"/></g><g id="eEtTA32UxHg22_ts" transform="translate(73.514542,304.74144) scale(0,0)"><path d="M73,309.3c-2.296195-.034122-4.542374-.675888-6.51-1.86-.83-.45-.74-.81-.29-1.49c3.71-5.6,8.46-6.32,14.25-5.47.9.13.71.83.68,1.4-.23,4.75-3.22,7.47-8.13,7.42Z" transform="translate(-73.514542,-304.74144)" fill="#fff"/></g><g id="eEtTA32UxHg23_ts" transform="translate(15.315455,183.735321) scale(0,0)"><path d="M21.34,187.51c0,2.86-.1,2.91-2.82,2.23-5.48-1.36-7.77-5.51-9.18-10.44-.25-.87.38-1,.93-1.23c1.797381-.850659,3.864504-.929064,5.721159-.217s3.341228,2.152615,4.108841,3.987c.882999,1.755853,1.309453,3.705851,1.24,5.67Z" transform="translate(-15.315455,-183.735321)" fill="#fff"/></g><g id="eEtTA32UxHg24_ts" transform="translate(95.627789,301.944397) scale(0,0)"><path d="M100.55,300.36c0,4-2.2,6.55-6.22,7.81-2.46.77-2.47.77-3.2-1.79-1.5-5.28,1.06-9.67,6.35-11c.349955-.15064.74727-.146392,1.093924.011698s.610365.455298.726076.818302c.6651,1.295997,1.088674,2.702263,1.25,4.15Z" transform="translate(-95.627789,-301.944397)" fill="#fff"/></g><path d="M3.36,242.36c.068462.540607.101865,1.085078.1,1.63c0,.19,0,.37,0,.56s0,.16,0,.24c.893156.539205,1.506661,1.441203,1.68,2.47.394957,1.928974.648962,3.884141.76,5.85.284539-1.011756.422609-2.05907.41-3.11.06-3.24-.82-5.78-2.95-7.64Z" fill="#fff"/><g id="eEtTA32UxHg26_ts" transform="translate(35.208533,172.067123) scale(0,0)"><path d="M33.07,177.07c-.907242-.168593-1.827292-.258926-2.75-.27-1.54.1-1.61-.64-1.38-1.85.520346-2.592793,2.062413-4.867013,4.278552-6.309949s4.919797-1.933123,7.501448-1.360051c.53.12.94.28.84.94-.36,2.51-1,4.91-2.82,6.8-1.516707,1.451751-3.575573,2.196138-5.67,2.05Z" transform="translate(-35.208533,-172.067123)" fill="#fff"/></g><g id="eEtTA32UxHg27_ts" transform="translate(73.288235,378.657288) scale(0,0)"><path d="M77.65,381.66c.07,2.3-.27,2.58-2,1.92-3.7-1.47-6.21-3.94-6.68-8.09-.21-1.84.17-2.25,2-2c2.028377.298705,3.815793,1.491539,4.87,3.25.971823,1.479913,1.59105,3.163116,1.81,4.92Z" transform="translate(-73.288235,-378.657288)" fill="#fff"/></g><g id="eEtTA32UxHg28_ts" transform="translate(90.472321,359.824478) scale(0,0)"><path d="M87.92,363.26c-1-.05-2.86.22-3.35-1-.42-1.07,1.13-2.16,2-3.07c2.255063-2.394306,5.645768-3.351546,8.82-2.49c1.12.24,1.22.71.89,1.7-1.03,3.06-3.95,4.87-8.36,4.86Z" transform="translate(-90.472321,-359.824478)" fill="#fff"/></g><g id="eEtTA32UxHg29_ts" transform="translate(113.781765,299.54982) scale(0,0)"><path d="M116.56,297.07c-1.0046-1.334466-2.352496-2.371309-3.9-3-.66-.25-1-.17-1.25.5-1.33,3.21.76,8.77,4,10.15.43.18.79.33,1.11.44-.205693-2.693303-.192316-5.398863.04-8.09Z" transform="translate(-113.781765,-299.54982)" fill="#fff"/></g></g></g></g></svg>
